<svg width="535" height="502" fill="none" xmlns="http://www.w3.org/2000/svg"><g clip-path="url(#a)"><path opacity=".7" d="M506.858 93.603a166.822 166.822 0 0 0-5.551-8.784c-25.783-38.195-70.152-64.315-113.798-76.124C368.4 3.525 348.657.811 328.88.145 199.176-4.249 147.51 97.94 104.643 124.314 61.763 150.691-4.195 195.736.21 290.24c4.393 94.505 72.543 183.516 204.461 189.009 131.906 5.493 140.704-53.84 214.349-75.824 48.741-14.544 83.366-63.67 100.329-109.07 23.113-61.869 22.023-142.241-12.48-200.763l-.011.011Z" fill="#F7F0E9"/><path d="M484.445 422.318h14.004M28.305 422.318H476.68" stroke="#283135" stroke-linecap="round" stroke-linejoin="round"/><path d="M209.37 30.645H91.379a5 5 0 0 0-5 5V251.85a5 5 0 0 0 5 5H209.37a5 5 0 0 0 5-5V35.646a5 5 0 0 0-5-5Z" fill="#D32A34" stroke="#283135" stroke-linecap="round" stroke-linejoin="round"/><path d="M194.248 60.646h-87.76v166.192h87.76V60.646Z" fill="#fff" stroke="#283135" stroke-linecap="round" stroke-linejoin="round"/><path d="m140.126 123.582-4.86 4.859M185.895 77.826l-42.055 42.042M185.328 89.835l-11.445 11.441M121.27 202.097l18.597-18.592M107.844 52.028v4.07M107.844 32.213v16.824M89.926 61.257h12.491M88.023 33.292l17.107 23.885M100.437 40.097 88.836 56.098M104.585 34.381l-2.425 3.347M193.914 52.028v4.07M193.914 32.213v16.824M211.835 61.257h-12.491M213.736 33.292l-17.107 23.885M201.32 40.097l11.601 16.001M197.172 34.381l2.425 3.347M107.844 236.923v-3.97M107.844 256.249v-16.413M89.926 227.916h12.491M88.023 255.192l17.107-23.306M100.437 248.554l-11.601-15.601M104.585 254.125l-2.425-3.258M193.914 236.923v-3.97M193.914 256.248v-16.412M211.835 227.916h-12.491M213.736 255.192l-17.107-23.306M201.32 248.554l11.601-15.601M197.172 254.125l2.425-3.258" stroke="#283135" stroke-linecap="round" stroke-linejoin="round"/><path d="m118.17 256.805-11.334 19.303h9.799l4.294-12.876-2.759-6.427Z" fill="#283135"/><path d="M159.422 277.02H119.58l-7.119-47.48h39.842l7.119 47.48Z" fill="#283135"/><path d="M152.983 271.26h-28.697l-5.384-35.961h28.697l5.384 35.961Z" fill="#fff" stroke="#283135" stroke-linecap="round" stroke-linejoin="round"/><path d="M217.211 374.449H84.937v7.316h132.274v-7.316Z" fill="#C79B67" stroke="#283135" stroke-linecap="round" stroke-linejoin="round"/><path d="M77.339 431.803c-.067-.778-1.68-19.147-1.046-27.387.623-8.151 1.646-14.233 2.536-19.593.634-3.791 1.235-7.383 1.657-11.364 1.49-14.121.023-19.626-1.68-25.997-.667-2.491-1.356-5.07-1.935-8.284-2.168-11.942-.645-30.69-.578-31.479l8.865.734c-.011.178-1.49 18.369.467 29.144.523 2.857 1.157 5.259 1.78 7.583 1.846 6.928 3.581 13.466 1.924 29.211-.445 4.248-1.068 7.962-1.724 11.898-.912 5.437-1.846 11.053-2.447 18.814-.578 7.517 1.023 25.742 1.046 25.92l-8.865.789v.011ZM224.739 431.803c.067-.778 1.679-19.147 1.045-27.387-.622-8.151-1.646-14.233-2.536-19.593-.634-3.791-1.234-7.383-1.657-11.364-1.49-14.121-.022-19.626 1.68-25.997.667-2.491 1.357-5.07 1.935-8.284 2.169-11.942.645-30.69.578-31.479l-8.865.734c.012.178 1.491 18.369-.467 29.144-.522 2.857-1.157 5.259-1.779 7.583-1.847 6.928-3.582 13.466-1.925 29.211.445 4.248 1.068 7.962 1.724 11.898.912 5.437 1.847 11.053 2.447 18.814.579 7.517-1.023 25.742-1.045 25.92l8.865.789v.011Z" fill="#C79B67" stroke="#283135" stroke-linecap="round" stroke-linejoin="round"/><path d="M226.375 282.546H76.094v30.623h8.364c5.406.434 33.925 4.281 43.502 6.294 9.643 2.034 17.329 1.534 22.379-2.88 4.983 4.414 12.547 4.903 22.057 2.88 9.443-2.013 37.551-5.86 42.867-6.294h11.112v-30.623Z" fill="#C79B67" stroke="#283135" stroke-linecap="round" stroke-linejoin="round"/><path d="M155.745 300.059a5.44 5.44 0 0 0-10.878 0 5.44 5.44 0 0 0 10.878 0Z" fill="#fff" stroke="#283135" stroke-linecap="round" stroke-linejoin="round"/><path d="M226.375 282.546H76.094v7.127h150.281v-7.127Z" fill="#283135" stroke="#283135" stroke-linecap="round" stroke-linejoin="round"/><path d="M227.228 276.842h-153.7a4.286 4.286 0 1 0 0 8.573h153.7a4.286 4.286 0 0 0 0-8.573Z" fill="#C79B67" stroke="#283135" stroke-linecap="round" stroke-linejoin="round"/><path d="M461.866 270.126c.022-.067 0-.134-.067-.167-.067-.022-.134 0-.156.067-3.715 8.573-6.329 17.58-8.509 26.653-2.102 9.107-3.626 18.347-4.694 27.632l-.667 6.983c-.1 1.168-.234 2.324-.312 3.492l-.189 3.502c-.1 2.335-.244 4.67-.311 7.017l.067 7.016.078 3.514c.055 1.167.133 2.335.211 3.502.178 2.335.322 4.671.534 6.995.445 4.648 1.145 9.284 1.868 13.888 0 .055.056.1.123.1a.124.124 0 0 0 .122-.122c-.011-2.347-.111-4.671-.167-7.006-.066-2.324-.267-4.637-.233-6.972 0-2.324-.045-4.648-.078-6.972l-.067-3.48.067-3.48.033-6.961.189-6.95.078-3.48c.045-1.157.134-2.313.2-3.469l.423-6.95c.812-9.24 2.08-18.459 3.938-27.565 1.846-9.096 4.137-18.158 7.53-26.821l-.011.034ZM462.868 306.509a.12.12 0 0 0-.077-.156.12.12 0 0 0-.156.078c-2.002 5.782-3.604 11.686-4.95 17.669-1.29 5.982-2.302 12.042-2.925 18.158-.623 6.082-1.302 12.176-1.379 18.303-.089 6.115 0 12.242.645 18.358 0 .055.055.1.111.111.067 0 .133-.045.133-.111.712-6.094 1.135-12.176 1.558-18.247.433-6.072.489-12.165.889-18.247.368-6.06 1.124-12.087 2.169-18.081 1.024-5.993 2.292-11.964 3.982-17.824v-.011ZM483.047 319.296c-.034-.055-.112-.078-.167-.033-5.05 3.191-9.555 7.216-13.492 11.753-1.936 2.302-3.738 4.715-5.272 7.328l-1.079 2.046-.846 2.124c-.3.7-.523 1.434-.745 2.157-.222.723-.456 1.445-.656 2.179-1.513 5.849-2.514 11.798-2.792 17.792-.245 5.982-.134 11.975.667 17.913 0 .056.056.1.112.111a.132.132 0 0 0 .133-.111l1.535-17.736c.612-5.86.99-11.764 2.247-17.491.156-.711.367-1.412.545-2.112.178-.712.356-1.412.623-2.091l.723-2.046.923-1.934c1.368-2.558 3.036-5.015 4.827-7.339 3.604-4.648 7.842-8.885 12.669-12.321 0 0 .067-.111.034-.166l.011-.023Z" fill="#283135"/><path d="M473.281 342.08c-2.748 1.779-4.583 4.559-6.129 7.372a43.942 43.942 0 0 0-3.437 9.029 24.145 24.145 0 0 0-.601 2.346l-.556 2.358c-.278 1.579-.5 3.18-.6 4.792-.023 1.612-.067 3.214.044 4.815.133 1.601.311 3.202.634 4.792a.13.13 0 0 0 .1.1.126.126 0 0 0 .145-.1c.389-1.579.645-3.147.845-4.714.245-1.557.489-3.114.679-4.671.222-1.545.433-3.091.556-4.647.211-1.535.333-3.114.667-4.626a42.613 42.613 0 0 1 2.625-8.951c1.201-2.847 2.759-5.682 5.15-7.684h.022s.056-.122.022-.178c-.033-.055-.111-.078-.166-.033ZM444.992 359.849c-.668-7.873-1.958-15.667-3.193-23.462-1.234-7.795-2.591-15.556-4.015-23.307-1.479-7.739-3.014-15.478-4.694-23.173a.126.126 0 0 0-.144-.1.126.126 0 0 0-.101.145 920.373 920.373 0 0 1 3.715 23.329c1.18 7.783 2.292 15.578 3.282 23.384.967 7.806 1.713 15.645 2.691 23.44l2.881 23.44c0 .055.056.111.123.111.066 0 .122-.045.133-.123.089-1.979.089-3.947.145-5.926.022-1.979-.078-3.948-.111-5.927-.078-3.958-.412-7.895-.712-11.831ZM440.266 359.738c-.423-3.114-.99-6.216-1.591-9.307l-1.101-4.593c-.367-1.534-.701-3.069-1.157-4.581a130.134 130.134 0 0 0-6.017-17.902l-.946-2.169-1.045-2.123c-.668-1.424-1.48-2.791-2.236-4.159-1.646-2.68-3.359-5.36-5.684-7.539a.12.12 0 0 0-.167 0c-.044.044-.044.122 0 .178h.012c2.146 2.246 3.726 4.992 5.194 7.717.69 1.401 1.413 2.78 1.991 4.225l.923 2.146.823 2.191a129.579 129.579 0 0 1 5.25 17.913c.723 3.025 1.19 6.116 1.78 9.174l.734 4.614c.267 1.535.601 3.058.812 4.604.489 3.08 1.057 6.149 1.591 9.229a177.34 177.34 0 0 0 1.69 9.251.13.13 0 0 0 .123.1.123.123 0 0 0 .122-.122 166.42 166.42 0 0 0-.223-9.429c-.178-3.136-.556-6.26-.878-9.396v-.022ZM433.749 360.138c-1.457-4.126-3.148-8.173-4.983-12.143-1.891-3.947-3.926-7.806-6.273-11.497-.034-.056-.112-.078-.167-.045a.126.126 0 0 0-.045.167c2.047 3.825 3.782 7.817 5.35 11.853a137.686 137.686 0 0 1 4.249 12.265c1.235 4.148 2.114 8.373 3.215 12.543 1.157 4.159 2.102 8.362 3.381 12.576.011.056.067.089.123.089a.124.124 0 0 0 .122-.122c.067-4.393-.367-8.796-1.224-13.099-.767-4.337-2.291-8.473-3.748-12.598v.011ZM433.482 373.893c-.745-2.591-2.025-4.993-3.471-7.272-1.423-2.28-3.069-4.437-5.049-6.272-1.013-.878-2.058-1.734-3.215-2.424-1.134-.711-2.336-1.301-3.637-1.645-.056-.011-.122.011-.145.066-.022.067 0 .134.067.167h.011c2.358 1.056 4.349 2.791 6.04 4.693 1.713 1.901 3.07 4.092 4.204 6.371 1.191 2.257 1.813 4.759 2.848 7.094.456 1.19.912 2.402 1.446 3.592.445 1.212.945 2.435 1.579 3.636 0 0 .056.067.112.078.066 0 .133-.056.133-.123.056-1.345-.022-2.69-.145-4.025a39.894 39.894 0 0 0-.789-3.936h.011Z" fill="#283135"/><path d="M433.969 301.171s-12.903-2.98-15.884-16.868c-2.981-13.888 6.618-7.939-1.98-29.767-8.598-21.827-6.618-26.798-3.637-33.08 2.981-6.283 4.627-4.304 7.274 3.969 2.648 8.273 12.247 21.172 15.884 45.312 3.637 24.152-1.657 30.434-1.657 30.434ZM459.444 277.687s-8.598-2.98-8.932-19.181c-.333-16.212 6.285-12.899 7.275-33.081.99-20.181 2.313-34.403 5.95-34.726 3.638-.333 13.237 9.919 16.54 32.414 3.304 22.494-4.305 37.372-10.923 43.988s-9.921 10.586-9.921 10.586h.011ZM429.333 320.686s-1.98-11.909-5.951-17.535c-3.97-5.627-12.568-10.586-18.197-21.505-5.628-10.92-11.912-16.213-11.579-.668.334 15.545 7.275 23.485 15.884 28.778 8.598 5.293 19.854 10.919 19.854 10.919l-.011.011ZM425.695 341.201s-7.942-15.211-19.521-26.464c-11.579-11.242-20.844-16.868-17.54-11.242 3.303 5.627 7.274 5.293 12.902 15.212 5.628 9.918 3.971 17.201 11.913 22.828 7.942 5.626 12.246-.334 12.246-.334ZM424.704 360.716c-.334-.99-.657-8.273-11.913-14.222-11.245-5.949-21.834-3.636-20.511-.656 1.324 2.98 8.276 7.939 15.216 10.919 6.952 2.98 17.208 3.97 17.208 3.97v-.011ZM458.786 321.353s-4.96-6.282-2.313-19.515c2.647-13.232 8.598-9.918 15.216-16.868 6.618-6.949 5.295-7.939 11.913-15.211s12.569-11.242 15.216-8.273c2.647 2.98-1.324 12.242-5.295 17.535-3.971 5.293-10.255 7.94-13.236 14.556-2.981 6.616-1.657 17.202-9.265 22.161-7.608 4.959-12.247 5.626-12.247 5.626l.011-.011ZM475.328 324.989s11.913-13.566 20.511-23.484c8.598-9.919 11.912-17.536 12.246-10.92.334 6.616 2.981 11.909-3.971 20.505-6.952 8.595-28.786 13.888-28.786 13.888v.011ZM469.039 346.817s-.333-5.293 18.531-17.535c18.865-12.243 26.806-14.556 24.815-9.596-1.98 4.959-10.255 9.918-19.187 18.858-8.931 8.929-24.159 8.273-24.159 8.273Z" fill="#C79B67"/><path d="M434.748 299.759s-4.427-23.729-9.054-40.597c-4.627-16.868-7.608-27.12-7.608-27.12M458.684 277.942s8.041-25.719 10.689-41.264c2.647-15.545-.334-27.12-1.658-34.07M428.287 320.197s-4.917-8.762-12.191-17.369c-7.274-8.595-12.902-13.232-16.217-21.505M458.785 321.353s2.647-15.878 8.932-24.151c6.284-8.273 18.864-21.172 23.825-29.445M423.927 360.349s-11.134-7.249-19.075-11.219" stroke="#283135" stroke-linecap="round" stroke-linejoin="round"/><path d="M456.306 430.502h-14.571a6.38 6.38 0 0 1-5.895-3.925c-4.761-11.398-17.463-44.3-9.811-53.629 7.286-8.885 38.697-8.885 45.994 0 7.652 9.329-5.05 42.231-9.811 53.629a6.39 6.39 0 0 1-5.895 3.925h-.011Z" fill="#283135" stroke="#283135" stroke-linecap="round" stroke-linejoin="round"/><path d="M135.811 449.249s-7.875-2.068-12.647-9.741c-4.771-7.672-5.806-11.608-5.806-11.608s-14.092-.212-19.487 6.216c-5.395 6.427-5.595 16.579-5.183 18.024.411 1.446 6.218.623 12.646 5.393 6.43 4.77 10.156 13.266 10.567 14.089.412.822.623 1.868 3.726.833 3.115-1.034 5.595-4.77 7.253-5.593 1.657-.834 8.086 1.868 9.943.412 1.869-1.446 3.526-4.559 2.492-8.495-1.034-3.937-4.149-10.775-3.526-9.53h.022Z" fill="#D32A34" stroke="#283135" stroke-linecap="round" stroke-linejoin="round"/><path d="M119.64 472.455c3.115-1.034 5.595-4.77 7.252-5.593 1.658-.834 8.087 1.868 9.944.412 1.869-1.446 3.526-4.559 2.492-8.496-.868-3.313-3.193-8.651-3.548-9.54-.29-.033-4.628-.578-7.431.422-2.903 1.035-4.971 1.657-4.971 1.657l3.726 3.314s-2.903 2.068-5.184 4.97c-2.28 2.902-2.903 3.937-2.28 5.593.623 1.657-1.657 3.114-2.692 4.771l-1.034 1.656 2.503 1.168c.356-.067.756-.178 1.234-.334h-.011Z" fill="#fff" stroke="#283135" stroke-linecap="round" stroke-linejoin="round"/><path d="M125.034 452.563s6.006-1.446 7.875-1.246c1.868.212 3.937 2.069 4.349 6.005.411 3.936.211 5.593-.412 7.05-.623 1.445 0 1.245-2.28 1.245s-3.114-.411-4.349-.623c-1.246-.211-2.692.412-2.692.412s-4.772 4.559-6.629 5.181c-1.869.623-3.115 1.035-2.28-.622.834-1.657 1.868-2.691 1.868-2.691l-.834-2.068s7.052-6.839 7.252-8.707l.212-1.868-2.069-2.068h-.011Z" fill="#fff" stroke="#283135" stroke-linecap="round" stroke-linejoin="round"/><path d="M107.416 464.583s-1.869-3.314-4.149-3.936c-4.338-1.179-9.099 10.808-9.844 13.788-.7 2.846 1.88 9.696 5.906 7.139 2.281-1.446 3.526-1.869 3.115-4.348-.412-2.491-1.446-.834-.623-4.148.834-3.313 5.595-8.495 5.595-8.495Z" fill="#D32A34" stroke="#283135" stroke-linecap="round" stroke-linejoin="round"/><path d="M102.443 477.225s-2.069-1.445-3.114-1.034c-1.035.412-1.869 1.034-1.869 1.868 0 .834-1.034.834-1.034 1.868 0 1.035.623 1.246 1.245 1.657.623.412 4.35 0 4.772-4.347v-.012ZM150.938 445.112l.834 4.771s6.429 4.147 10.366 5.181c3.938 1.034 8.287-.211 10.99-1.445 2.691-1.246 8.909-3.314 8.909-3.314l-.623-2.902s-24.248 5.182-30.465-2.28l-.011-.011Z" fill="#fff" stroke="#283135" stroke-linecap="round" stroke-linejoin="round"/><path d="m151.972 435.161-1.034 9.94s8.086 8.907 16.995 7.873c8.91-1.034 13.47-5.593 13.47-5.593v-12.02s-20.522 6.004-29.431-.212v.012ZM153.841 458.99s-7.052 7.25-8.909 8.906c-1.869 1.657-4.772 2.491-4.772 2.491s7.052 6.839 10.567 8.707c3.515 1.868 4.772.411 12.024-4.559 7.252-4.971 7.052-6.839 6.629-8.284-.412-1.446-8.709-7.25-15.55-7.25l.011-.011Z" fill="#fff" stroke="#283135" stroke-linecap="round" stroke-linejoin="round"/><path d="M150.937 485.933s-5.183-4.348-10.778-3.725c-5.595.622-10.155 6.215-10.155 6.215l8.286 3.937s1.869 1.868 2.492 2.279c.623.412 6.006-2.068 6.006-2.068l6.429-.834s-.834-2.902-2.28-5.804Z" fill="#D32A34" stroke="#283135" stroke-linecap="round" stroke-linejoin="round"/><path d="m130.004 488.412.211 2.28 10.567 3.936s1.034-.211-2.492-2.28c-3.525-2.068-8.286-3.936-8.286-3.936Z" fill="#fff" stroke="#283135" stroke-linecap="round" stroke-linejoin="round"/><path d="M175.812 489.868s-3.526-3.936-5.394-4.77c-1.869-.834-5.806-.411-7.464 1.245L161.297 488l6.006 4.348s6.841-2.28 8.498-2.491l.011.011ZM252.812 483.23c4.638 0 8.398-8.812 8.398-19.681 0-10.87-3.76-19.682-8.398-19.682s-8.398 8.812-8.398 19.682c0 10.869 3.76 19.681 8.398 19.681Z" fill="#D32A34" stroke="#283135" stroke-linecap="round" stroke-linejoin="round"/><path d="m207.111 445.113-1.035 6.627s-4.972 3.525-8.086 4.77c-3.115 1.246-9.744 1.446-12.224.834-2.492-.623-2.492 5.182-1.035 9.741 1.446 4.559 2.903 10.363 10.99 15.122 8.086 4.771 20.933 7.05 32.746 5.593 11.812-1.456 22.802-6.004 23.836-16.99 1.034-10.986.623-22.795-9.121-27.765-9.743-4.971-27.362-2.903-36.071 2.068Z" fill="#D32A34" stroke="#283135" stroke-linecap="round" stroke-linejoin="round"/><path d="M197.99 456.51c-3.115 1.246-9.744 1.446-12.224.834-2.492-.622-2.492 5.182-1.035 9.741 1.446 4.559 2.903 10.363 10.99 15.122a33.869 33.869 0 0 0 3.659 1.846c1.435-.322 2.714-.6 2.97-.6.623 0 2.692-.623 2.692-.623l3.937-3.725s2.281-6.004 2.492-7.461c.211-1.446-.211-9.741-.211-9.741l10.566 2.691h12.436l5.806-2.068-.623-4.348s-4.772-5.593-5.395-6.427c-.623-.834-3.314-3.525-3.937-3.936-.623-.411-8.709-2.28-8.709-2.28l-14.304-.411-1.035 6.627s-4.972 3.525-8.086 4.77l.011-.011Z" fill="#fff" stroke="#283135" stroke-linecap="round" stroke-linejoin="round"/><path d="M208.979 472.667c-.834 2.068-1.869 4.348-2.28 4.97-.412.623-1.869 1.868-1.869 1.868s-.834 1.246-1.868 1.446c-1.035.211-1.869.211-3.315.211h-1.446c-1.657 0-4.56-.411-4.56-.411l.033.111a26.65 26.65 0 0 0 2.035 1.334 34.163 34.163 0 0 0 3.66 1.846c1.435-.322 2.714-.6 2.97-.6.623 0 2.691-.623 2.691-.623l3.938-3.725s2.28-6.005 2.492-7.461c.211-1.446-.212-9.741-.212-9.741l-1.446 2.28s0 6.427-.834 8.495h.011ZM206.808 447.07l.311.111s6.841.211 9.533.211c2.691 0 11.401 1.868 11.401 1.868s7.463 6.427 8.086 7.873c.623 1.445 1.657 4.348 1.657 4.348l-.178 1.912 2.459-.878-.623-4.348s-4.772-5.593-5.395-6.427c-.623-.834-3.315-3.525-3.937-3.936-.623-.412-8.71-2.28-8.71-2.28l-14.304-.411-.311 1.968.011-.011Z" fill="#fff" stroke="#283135" stroke-linecap="round" stroke-linejoin="round"/><path d="M218.61 484.053s-1.724 5.916-4.939 8.14c-3.203 2.224-8.386 1.478-9.621.989-1.235-.489-2.225.245-2.225 1.479v2.713s-.489.745.49 1.724c.99.989 2.469 2.224 2.469 2.224s1.48.489 8.142-.49c6.663-.989 10.122-5.915 11.846-9.129 1.724-3.202 2.959-4.937 1.724-7.149-1.235-2.224-3.949-2.469-7.897-.49l.011-.011Z" fill="#D32A34" stroke="#283135" stroke-linecap="round" stroke-linejoin="round"/><path d="M402.507 0C378.474 0 359 19.613 359 43.818a43.85 43.85 0 0 0 15.841 33.818L361.65 99l23.548-14.98a42.977 42.977 0 0 0 17.295 3.617c24.033 0 43.507-19.614 43.507-43.819C446 19.614 426.526 0 402.493 0h.014Z" fill="#fff" stroke="#EEE1D2" stroke-linecap="round" stroke-linejoin="round"/><path d="M390.706 26.28v18.557h2.345v3.6h-2.345v10.282h-3.61V48.436H378v-3.599l3.845-18.557h8.861Zm-3.61 18.557V29.88h-2.297l-3.095 14.957h5.392ZM402.754 26c.906 0 1.672.14 2.297.42.657.25 1.173.608 1.548 1.076.406.436.703.966.89 1.589a6.3 6.3 0 0 1 .282 1.916V54c0 .685-.094 1.34-.282 1.963a4.436 4.436 0 0 1-.89 1.589c-.375.436-.891.795-1.548 1.075-.625.25-1.391.374-2.297.374h-2.438c-.907 0-1.688-.125-2.345-.374-.625-.28-1.141-.639-1.547-1.075a4.869 4.869 0 0 1-.844-1.59 6.796 6.796 0 0 1-.281-1.962V31c0-.685.094-1.324.281-1.916.188-.623.469-1.153.844-1.59a3.945 3.945 0 0 1 1.547-1.074c.657-.28 1.438-.421 2.345-.421h2.438Zm0 29.4c.5 0 .859-.14 1.078-.42.219-.28.328-.607.328-.981V31c0-.373-.109-.7-.328-.981-.219-.28-.578-.42-1.078-.42h-2.438c-.532 0-.907.14-1.126.42-.187.28-.281.608-.281.981V54c0 .373.094.7.281.981.219.28.594.42 1.126.42h2.438ZM423.656 26.28v18.557H426v3.6h-2.344v10.282h-3.611V48.436h-9.096v-3.599l3.845-18.557h8.862Zm-3.611 18.557V29.88h-2.297l-3.095 14.957h5.392Z" fill="#22242A"/><path d="M299.406 72.066s-14.282 5.615-17.185 14.021c-2.903 8.418-.723 11.687-1.457 17.769-.723 6.083-9.688 9.585-8.709 16.357.967 6.783 9.921 5.615 5.083 11.92-4.839 6.305-11.379 4.904-6.774 15.189 4.605 10.286 17.43 23.373 42.122 21.038 24.693-2.335 38.486-9.585 41.878-15.189 3.393-5.615 7.508-11.686 4.116-14.255-3.393-2.569-8.476-1.868-6.051-6.783 2.425-4.915 5.806-6.082 3.392-12.854-2.425-6.783-17.185-5.371-13.803-14.489 3.392-9.118 3.392-13.788-4.116-22.205-7.508-8.418-23.97-16.835-38.485-10.52h-.011Z" fill="#283135" stroke="#283135" stroke-linecap="round" stroke-linejoin="round"/><path d="M262.255 297.168c.245-.745-.745 27.532-.244 37.206.5 9.674.745 22.072 1.245 34.726.501 12.654.746 37.706.99 40.675.245 2.98-1.245 13.644-1.245 13.644s1.49 2.479 6.206 1.734c4.716-.745 4.961.99 6.207-2.479 1.245-3.469 3.726-13.143 6.951-29.767 3.226-16.624 5.206-25.052 4.216-32.002-.99-6.95-2.236-13.643-2.236-14.633 0-.99 8.432-43.155 8.432-43.155l-30.522-5.949Z" fill="#fff" stroke="#283135" stroke-linecap="round" stroke-linejoin="round"/><path d="M260.027 419.46s-2.981 5.46-3.97 6.694c-.99 1.246-7.942 4.96-10.667 6.95-2.725 1.99-4.961 3.225-2.481 5.949 2.481 2.724 14.393 2.235 17.864.989 3.47-1.245 7.697-4.714 10.177-4.714 2.481 0 7.197 0 7.197-4.959 0-4.96-.501-7.94-.501-7.94s1.735-2.479-1.49-1.979c-3.226.5-7.197 2.724-7.197 2.724s-4.961-8.929-8.932-3.725v.011Z" fill="#D32A34" stroke="#283135" stroke-linecap="round" stroke-linejoin="round"/><path d="M278.083 431.169c-1.391.023-3.092.145-5.161.434-6.952.99-8.932 5.204-18.609 7.194-6.295 1.29-10.266-.978-12.279-2.735-.412.823-.245 1.757.867 2.98 2.481 2.724 14.393 2.235 17.863.99 3.471-1.246 7.686-4.715 10.178-4.715 2.336 0 6.651 0 7.141-4.159v.011ZM314.855 303.618s10.178 36.216 12.658 42.409c2.481 6.205 7.697 13.399 7.697 13.399s11.913 32.247 15.628 40.186c3.726 7.939 7.197 21.327 7.942 23.562.745 2.235 1.98 6.449 1.98 7.194 0 .746 1.98 4.471 5.461 2.725 3.47-1.735 3.971-6.95 3.971-6.95s-.501-13.888-3.47-36.461c-2.981-22.572-7.442-31.501-9.677-35.471-2.236-3.969-3.226-3.969-3.471-6.95-.244-2.98-5.95-46.635-5.95-47.624 0-.99-25.305 5.949-32.746 3.969l-.023.012Z" fill="#fff" stroke="#283135" stroke-linecap="round" stroke-linejoin="round"/><path d="M367.213 429.379s-.99-2.98-3.971-3.97c-2.981-.989-4.96 0-5.706 2.725-.745 2.724-1.98 6.204-1.98 6.204s-4.716 7.939-6.451 10.419c-1.735 2.48.768 8.028 7.275 7.895 7.752-.156 10.333-1.69 12.568-6.649 2.236-4.96 2.981-8.184 4.472-12.654 1.49-4.47-1.491-9.919-1.491-9.919l-1.735-1.979s-1.735 6.204-2.981 7.939v-.011Z" fill="#D32A34" stroke="#283135" stroke-linecap="round" stroke-linejoin="round"/><path d="M373.631 428.456a317.382 317.382 0 0 0-2.769 7.984c-2.392 7.172-1.991 12.087-11.69 12.887-7.063.579-9.677-1.301-10.578-2.368.222 2.624 2.847 5.793 7.797 5.693 7.753-.156 10.333-1.69 12.569-6.649 2.235-4.96 2.981-8.184 4.471-12.654.534-1.602.49-3.336.212-4.893h-.012Z" fill="#fff" stroke="#283135" stroke-linecap="round" stroke-linejoin="round"/><path d="M278.884 234.665s-10.177 9.674-14.882 24.308c-4.716 14.633-7.697 38.695-7.697 38.695s7.441 3.97 27.039 7.439c19.599 3.47 22.335 1.98 22.335 1.98s10.422 2.235 27.04-.745c16.629-2.98 26.795-7.94 26.795-7.94s-5.206-36.216-9.922-45.89-9.176-15.133-9.176-15.133l-61.532-2.725v.011Z" fill="#D32A34" stroke="#283135" stroke-linecap="round" stroke-linejoin="round"/><path d="m295.5 277.086 7.452 11.409 2.725 18.603M331.242 240.125s3.726 5.204 4.472 15.623M323.043 241.359l1.746 9.185M288.304 237.646s-3.47 9.673-3.726 12.153M282.358 236.4l-2.725 4.959" stroke="#283135" stroke-linecap="round" stroke-linejoin="round"/><path d="m278.916 228.216-.033 6.45s7.697 4.214 29.776 5.949c21.767 1.712 31.756-3.225 31.756-3.225v-5.704l-61.499-3.47Z" fill="#283135" stroke="#283135" stroke-linecap="round" stroke-linejoin="round"/><path d="M320.114 133.356s-.234 12.009.467 14.589c.701 2.591.945 4.236 6.118 3.291 5.183-.945 7.063-3.769 13.18-2.357 6.118 1.412 8.709 9.885 8.476 24.007-.234 14.122-5.651 27.065-6.118 33.658-.467 6.594.234 20.483-.945 22.595-1.179 2.113-2.825 5.882-24.726 3.77-21.901-2.113-34.615-3.058-37.674-4.704-3.058-1.645-.467-6.594.234-8.239.712-1.646 2.592-10.119.712-15.534-1.88-5.415-2.67-10.464-1.179-17.658 1.49-7.194 2.124-16.246 2.124-16.246s-24.014 17.892-29.431 18.359c-5.417.467-5.417-3.058-3.537-6.361 1.88-3.291 11.301-9.885 16.951-20.004 5.651-10.118 10.356-12.943 16.718-14.121 6.362-1.179 17.663 1.178 17.663 1.178s3.293-12.009 2.125-18.124l18.831 1.879.011.022Z" fill="#fff" stroke="#283135" stroke-linecap="round" stroke-linejoin="round"/><path d="M341.315 229.162c1.179-2.124.467-16.001.945-22.595.278-3.936 2.325-10.152 3.971-17.513-3.726-2.847-8.832-8.462-9.866-18.258-1.124-10.775-.056-18.47.734-22.262-4.06-.122-6.095 1.946-10.389 2.725-1.946.355-3.192.344-4.037.055-2.659 2.191-7.086 4.737-12.914 4.192-7.63-.723-11.179-4.525-12.413-6.227-1.836-.322-4.85-.789-7.986-1.023-1.213 7.406-8.565 22.306-8.565 22.306s-.634 9.051-2.125 16.246c-1.49 7.194-.7 12.242 1.179 17.657 1.88 5.416 0 13.889-.711 15.534-.701 1.646-3.293 6.594-.234 8.24 3.059 1.645 15.772 2.591 37.673 4.703 21.901 2.113 23.547-1.645 24.726-3.769l.012-.011Z" fill="#fff" stroke="#283135" stroke-linecap="round" stroke-linejoin="round"/><path d="M298.946 151.648a1.146 1.146 0 1 0 0-2.292 1.146 1.146 0 0 0 0 2.292ZM300.092 153.527a1.145 1.145 0 1 0-2.291 0 1.144 1.144 0 1 0 2.291 0ZM300.416 156.44c0-.634-.511-1.145-1.145-1.145s-1.146.511-1.146 1.145a1.145 1.145 0 1 0 2.291 0Z" fill="#283135" stroke="#283135" stroke-linecap="round" stroke-linejoin="round"/><path d="M300.963 159.854a1.145 1.145 0 1 0-1.145 1.145c.634 0 1.145-.511 1.145-1.145ZM300.091 164.301a1.145 1.145 0 1 0 .002-2.29 1.145 1.145 0 0 0-.002 2.29ZM301.826 166.18a1.144 1.144 0 1 0-1.145 1.146c.634 0 1.145-.512 1.145-1.146ZM302.252 169.339a1.145 1.145 0 1 0-1.145 1.145c.634 0 1.145-.512 1.145-1.145ZM302.83 171.785c0-.634-.511-1.145-1.145-1.145a1.144 1.144 0 1 0 0 2.29c.634 0 1.145-.511 1.145-1.145ZM303.409 174.52c0-.634-.512-1.145-1.146-1.145a1.145 1.145 0 1 0 0 2.291c.634 0 1.146-.512 1.146-1.146ZM304.698 177.4c0-.634-.512-1.145-1.146-1.145a1.145 1.145 0 1 0 0 2.291c.634 0 1.146-.512 1.146-1.146ZM305.419 180.558a1.146 1.146 0 1 0 0-2.291 1.146 1.146 0 0 0 0 2.291ZM308.013 180.847a1.146 1.146 0 1 0 0-2.291 1.146 1.146 0 0 0 0 2.291ZM311.314 180.703a1.146 1.146 0 1 0-.001-2.291 1.146 1.146 0 0 0 .001 2.291ZM314.052 179.257a1.145 1.145 0 1 0 .002-2.29 1.145 1.145 0 0 0-.002 2.29ZM317.354 175.666c0-.634-.512-1.145-1.146-1.145a1.144 1.144 0 1 0 0 2.29c.634 0 1.146-.511 1.146-1.145ZM318.075 173.942a1.146 1.146 0 1 0 0-2.291 1.146 1.146 0 0 0 0 2.291ZM320.237 170.061c0-.633-.512-1.145-1.146-1.145a1.144 1.144 0 1 0 0 2.291c.634 0 1.146-.512 1.146-1.146ZM321.67 167.326c0-.634-.511-1.145-1.145-1.145a1.144 1.144 0 1 0 0 2.29c.634 0 1.145-.511 1.145-1.145ZM321.247 165.602a1.146 1.146 0 1 0 0-2.291 1.146 1.146 0 0 0 0 2.291ZM323.971 161.722c0-.634-.512-1.145-1.146-1.145-.634 0-1.145.511-1.145 1.145s.511 1.145 1.145 1.145 1.146-.511 1.146-1.145ZM324.698 159.131c0-.634-.512-1.145-1.146-1.145a1.144 1.144 0 1 0 0 2.29c.634 0 1.146-.511 1.146-1.145ZM325.416 156.262c0-.634-.511-1.145-1.145-1.145a1.144 1.144 0 1 0 0 2.29c.634 0 1.145-.511 1.145-1.145ZM326.131 153.816c0-.634-.511-1.146-1.145-1.146-.635 0-1.146.512-1.146 1.146 0 .634.511 1.145 1.146 1.145.634 0 1.145-.511 1.145-1.145ZM325.564 152.393a1.146 1.146 0 1 0-.001-2.291 1.146 1.146 0 0 0 .001 2.291Z" fill="#C79B67" stroke="#283135" stroke-linecap="round" stroke-linejoin="round"/><path d="M315.49 85.643s-2.191 5.47-3.559 7.116c-1.368 1.646-5.751 3.558-9.855 3.28-4.105-.278-6.841-1.645-10.678 1.913-3.826 3.558-2.191 10.119-2.191 11.219 0 1.101 3.014 18.058 4.104 21.339 1.09 3.28 12.046 10.396 15.327 10.674 3.282.278 11.223-4.381 14.238-7.383 3.014-3.013 3.559-12.309 4.382-14.778.823-2.457 1.368-12.042 1.368-12.042s1.09-4.381-3.281-7.383c-4.371-3.003-10.945-8.751-9.855-13.955Z" fill="#fff" stroke="#283135" stroke-linecap="round" stroke-linejoin="round"/><path d="M305.246 117.011s1.88 1.879 3.626 1.734c1.746-.144 3.482-1.59 3.915-2.312M294.523 103.545s.868-4.059 6.229-3.192M314.809 99.92s6.228-1.3 7.83 2.758" stroke="#283135" stroke-linecap="round" stroke-linejoin="round"/><path d="M301.085 112.662c.838-.077 1.396-1.463 1.246-3.096-.151-1.633-.952-2.894-1.79-2.816-.838.077-1.396 1.463-1.245 3.096.15 1.632.951 2.893 1.789 2.816ZM318.571 109.872c-.178 1.634-1.012 2.88-1.846 2.78-.834-.089-1.368-1.49-1.179-3.125.178-1.634 1.012-2.88 1.846-2.78.835.089 1.368 1.49 1.179 3.125Z" fill="#283135"/><path d="M289.595 111.796s-2.903-6.227-4.638-1.012c-1.735 5.215.867 7.973 2.458 9.274 1.591 1.3 4.204 2.902 4.204 2.902l-2.024-11.153v-.011ZM328.583 111.217s2.903-4.492 4.06-.433c1.157 4.058-.145 6.516-1.735 8.262-1.591 1.745-4.494 3.914-4.494 3.914l1.446-5.794.723-5.937v-.012ZM289.304 153.382s1.88-11.442 2.459-14.199c.578-2.758 2.024-5.504 3.192-10.286 1.157-4.781 2.024-4.926 3.048-3.914 1.023 1.012.867 3.481.578 4.637-.289 1.157-.723 3.047-.723 3.047s3.481-5.071 4.783-7.239c1.301-2.168 2.313-3.336 3.337-3.047 1.012.289 1.301 1.446 1.012 2.024-.289.578 2.169-3.047 2.458-3.625.289-.578 1.301-.723 2.169.289.868 1.012.578 1.735.434 2.469-.145.723-1.591 5.07-1.591 5.07s2.025-1.879 2.903-1.59c.868.289.868 1.879-.144 3.77-1.012 1.879-2.025 6.66-2.314 7.828-.289 1.156-.656 2.591-.656 2.591s1.958-1.146 3.548-3.603c1.591-2.469 2.024-4.059 2.759-3.191.723.867 0 2.312-.868 4.203-.868 1.879-1.157 4.058-5.506 7.972-4.349 3.914-8.843 8.84-10.722 10.864-1.88 2.024-12.903 14.633-19.276 22.161-6.374 7.539-17.385 18.548-20.288 21.583-2.904 3.036-6.518 6.805-13.481 2.469-6.952-4.348-4.639-14.778.144-19.559 4.783-4.782 30.288-17.68 34.781-21.583 4.494-3.914 7.976-9.129 7.976-9.129l-.012-.012Z" fill="#fff" stroke="#283135" stroke-linecap="round" stroke-linejoin="round"/><path d="m306.979 124.405-6.084 13.465M310.459 128.608l-4.639 11.587M310.239 141.195l-1.223 2.48M297.844 132.656s-3.148 2.746-3.86 4.892" stroke="#283135" stroke-linecap="round" stroke-linejoin="round"/><path d="m344.052 172.263 18.642 19.482s-13.559 17.579-17.585 22.027c-4.027 4.448-6.997 6.783-6.997 6.783s-6.139-1.267-8.053-2.969c-1.913-1.701-3.392-4.448-6.573-6.571-3.181-2.113-11.868-2.969-11.234-1.057.634 1.913 5.928 2.335 5.928 2.335l5.083 4.659 1.057 3.392s-2.97-.845-4.872-2.758c-1.902-1.912-7.419-3.391-6.996-.845.423 2.547 2.547 2.547 5.506 5.293 2.97 2.758 3.392 5.082 6.351 6.783 2.97 1.69 6.574 1.056 6.574 1.056s2.113 2.335 5.928 1.902c3.815-.434 5.295-1.479 6.996-3.814 1.702-2.335 25.85-17.369 29.454-22.028 3.604-4.659 11.445-12.71 11.868-15.256.423-2.546-4.661-8.684-8.898-13.766-4.238-5.081-8.788-10.686-19.065-23.084-6.14-7.417-15.261-9.318-20.978-3.814" fill="#fff"/><path d="m344.052 172.263 18.642 19.482s-13.559 17.579-17.585 22.027c-4.027 4.448-6.997 6.783-6.997 6.783s-6.139-1.267-8.053-2.969c-1.913-1.701-3.392-4.448-6.573-6.571-3.181-2.113-11.868-2.969-11.234-1.057.634 1.913 5.928 2.335 5.928 2.335l5.083 4.659 1.057 3.392s-2.97-.845-4.872-2.758c-1.902-1.912-7.419-3.391-6.996-.845.423 2.547 2.547 2.547 5.506 5.293 2.97 2.758 3.392 5.082 6.351 6.783 2.97 1.69 6.574 1.056 6.574 1.056s2.113 2.335 5.928 1.902c3.815-.434 5.295-1.479 6.996-3.814 1.702-2.335 25.85-17.369 29.454-22.028 3.604-4.659 11.445-12.71 11.868-15.256.423-2.546-4.661-8.684-8.898-13.766-4.238-5.081-8.788-10.686-19.065-23.084-6.14-7.417-15.261-9.318-20.978-3.814" stroke="#283135" stroke-linecap="round" stroke-linejoin="round"/><path d="M331.137 216.352s-5.595-5.738-7.13-6.571c-1.535-.834-3.481.555-5.795 2.512-2.313 1.958-1.057 2.658.334 2.247 1.401-.423 4.616-1.957 4.616-1.957l4.471 5.871" fill="#fff"/><path d="M331.137 216.352s-5.595-5.738-7.13-6.571c-1.535-.834-3.481.555-5.795 2.512-2.313 1.958-1.057 2.658.334 2.247 1.401-.423 4.616-1.957 4.616-1.957l4.471 5.871" stroke="#283135" stroke-linecap="round" stroke-linejoin="round"/><path d="M335.197 218.031s-2.803-4.192-3.637-4.615c-.834-.422-5.172 5.171-5.739 6.427-.556 1.257-1.257 3.781.278 3.358 1.535-.422 3.081-2.379 3.782-3.213.7-.834 2.102-1.123 2.102-1.123l1.123 1.401" fill="#fff"/><path d="M335.197 218.031s-2.803-4.192-3.637-4.615c-.834-.422-5.172 5.171-5.739 6.427-.556 1.257-1.257 3.781.278 3.358 1.535-.422 3.081-2.379 3.782-3.213.7-.834 2.102-1.123 2.102-1.123l1.123 1.401" stroke="#283135" stroke-linecap="round" stroke-linejoin="round"/><path d="M339.247 222.779s-1.401-3.781-2.658-5.171c-1.257-1.401-3.782.278-4.616 1.257-.835.978-1.402 4.893-1.958 6.149-.556 1.257.423 1.535 1.68.556 1.256-.978 2.803-3.214 3.081-3.636" fill="#fff"/><path d="M339.247 222.779s-1.401-3.781-2.658-5.171c-1.257-1.401-3.782.278-4.616 1.257-.835.978-1.402 4.893-1.958 6.149-.556 1.257.423 1.535 1.68.556 1.256-.978 2.803-3.214 3.081-3.636" stroke="#283135" stroke-linecap="round" stroke-linejoin="round"/></g><defs><clipPath id="a"><path fill="#fff" d="M0 0h535v502H0z"/></clipPath></defs></svg>