<svg width="48" height="28" fill="none" xmlns="http://www.w3.org/2000/svg"><path d="M47.917 13.62a.997.997 0 0 0-.218-.33L40.44 6.294A1.045 1.045 0 0 0 39.704 6c-.276 0-.541.106-.736.294a1.001 1.001 0 0 0-.305.71c0 .265.11.52.305.709L44.464 13H1.037c-.275 0-.539.105-.733.293a.981.981 0 0 0-.304.706c0 .265.11.52.304.707.194.187.458.292.733.292h43.427l-5.496 5.288a.997.997 0 0 0-.307.709.967.967 0 0 0 .307.71 1.04 1.04 0 0 0 .736.295 1.072 1.072 0 0 0 .736-.296l7.26-6.995a.997.997 0 0 0 .217-.33.965.965 0 0 0 0-.76Z" fill="#B4864F"/></svg>