<svg width="288" height="566" fill="none" xmlns="http://www.w3.org/2000/svg"><path d="M1 557h287a9 9 0 0 1-9 9H10a9 9 0 0 1-9-9ZM1 10C1 4.479 5.477 0 11 0h267c5.523 0 10 4.478 10 10H1Z" fill="#F4EBE1"/><path d="M10 .5h268a9.5 9.5 0 0 1 9.5 9.5v545.991a9.5 9.5 0 0 1-9.5 9.5H10a9.5 9.5 0 0 1-9.5-9.5V10.001A9.5 9.5 0 0 1 10 .5Z" stroke="#283135" stroke-miterlimit="10"/><path d="M.5 556.491V10.501h287v545.99H.5Z" fill="#fff" stroke="#283135" stroke-miterlimit="10"/><path fill="#F4EBE1" d="M1 351.003h286v71.999H1z"/><path d="M143.5.01V566" stroke="#283135" stroke-miterlimit="10"/><rect x="48.5" y="291.505" width="85" height="8" rx="3.5" fill="#F4EBE1" stroke="#283135"/><rect x="154.5" y="291.505" width="85" height="8" rx="3.5" fill="#F4EBE1" stroke="#283135"/></svg>