<svg width="370" height="562" fill="none" xmlns="http://www.w3.org/2000/svg"><g clip-path="url(#a)"><path d="M31.425 168.421H325.07M31.425 191.638H325.07M31.425 214.838H325.07M31.425 238.055H325.07M56.688 191.638v-23.382M86.165 191.638v-23.382M71.418 214.904v-23.431M47.225 214.904v-23.431M111.757 191.638v-23.382M138.255 191.638v-23.382M126.487 214.904v-23.431M99.315 214.904v-23.431M163.863 191.638v-23.382M190.361 191.638v-23.382M178.593 214.904v-23.431M151.421 214.904v-23.431M215.953 191.638v-23.382M242.467 191.638v-23.382M230.699 214.904v-23.431M203.527 214.904v-23.431M268.059 191.638v-23.382M294.557 191.638v-23.382M282.789 214.904v-23.431M255.617 214.904v-23.431M320.165 191.638v-23.382M307.723 214.904v-23.431" stroke="#283135" stroke-miterlimit="10"/><path d="M17 16a9 9 0 0 1 9-9h287a9 9 0 0 1 9 9H17ZM322 123a9 9 0 0 1-9 9H26a9 9 0 0 1-9-9h305Z" fill="#F4EBE1"/><path d="M313 6.5H26a9.5 9.5 0 0 0-9.5 9.5v106a9.5 9.5 0 0 0 9.5 9.5h287a9.5 9.5 0 0 0 9.5-9.5V16a9.5 9.5 0 0 0-9.5-9.5Z" stroke="#283135" stroke-miterlimit="10"/><path d="M322.5 122.5v-107h-306v107h306Z" stroke="#283135" stroke-miterlimit="10"/><path fill="#F4EBE1" d="M26 16h28v106H26zM285 16h28v106h-28z"/><rect x="131.5" y="83.5" width="25" height="8" rx="3.5" fill="#F4EBE1" stroke="#283135"/><rect x="177.5" y="83.509" width="25" height="8" rx="3.5" fill="#F4EBE1" stroke="#283135"/><path d="M167 16v106" stroke="#283135" stroke-miterlimit="10"/><path d="M174.067 68.277a5.486 5.486 0 0 1-5.48 5.495 5.486 5.486 0 0 1-5.481-5.495 5.486 5.486 0 0 1 5.481-5.495 5.486 5.486 0 0 1 5.48 5.495ZM203.692 73.772c3.027 0 5.48-2.46 5.48-5.495s-2.453-5.495-5.48-5.495c-3.027 0-5.481 2.46-5.481 5.495s2.454 5.495 5.481 5.495Z" fill="#283135"/><path d="M334.583 217.165H293.01v70.557h41.573v-70.557Z" fill="#fff" stroke="#283135" stroke-miterlimit="10"/><path d="M332.986 250.843h-37.985v31.269h37.985v-31.269Z" fill="#EDE2D5" stroke="#283135" stroke-miterlimit="10"/><path d="M326.782 281.7H297.7l2.913-27.507h23.272l2.897 27.507Z" fill="#EDE2D5" stroke="#283135" stroke-miterlimit="10"/><path d="M327.391 277.888h-29.839v3.91h29.839v-3.91Z" fill="#283135" stroke="#283135" stroke-miterlimit="10"/><path d="M328.148 276.7c-.823 0-1.597-.066-2.255-.182l.543-3.25c1.366.214 5.431.363 6.254-1.783 1.382-3.58 1.037-11.253-1.712-12.474-3.192-1.419-5.99.132-6.023.148l-1.663-2.854c.182-.099 4.263-2.426 9.019-.314 5.135 2.294 5.152 12.244 3.44 16.682-1.218 3.169-4.723 4.043-7.603 4.043v-.016Z" fill="#283135"/><path d="M325.893 251.024h-26.745v4.538h26.745v-4.538Z" fill="#283135" stroke="#283135" stroke-miterlimit="10"/><path d="M334.978 293.933v177.844M104.978 293.933v127.844" stroke="#283135" stroke-miterlimit="10"/><path d="M109.091 274.092a3.607 3.607 0 0 1-3.604-3.613v-61.136c0-14.471 11.751-26.253 26.184-26.253 14.434 0 26.185 11.782 26.185 26.253v15.428a3.608 3.608 0 0 1-3.604 3.614 3.608 3.608 0 0 1-3.605-3.614v-15.428c0-10.495-8.525-19.042-18.992-19.042s-18.993 8.547-18.993 19.042v61.136a3.608 3.608 0 0 1-3.604 3.613h.033Z" fill="#EDE2D5" stroke="#283135" stroke-miterlimit="10"/><path d="M119.097 256.057H99.101v32.474h19.996v-32.474Z" fill="#fff" stroke="#283135" stroke-miterlimit="10"/><path d="M42.362 236.85s-1.837-5.974-7.206-8.114c-3.735-1.494-8.014-1.11-11.87-.424C16.1 229.564 9.823 232.43 3 234.872c0 0 2.907-1.069 14.857 4.744 4.4 2.139 9.426 3.815 14.452 3.694 4.037-.081 10.234-1.232 10.033-6.46h.02ZM43.008 219.309s-.04-6.257-4.542-9.85c-3.129-2.503-7.348-3.371-11.243-3.835-7.247-.888-14.09.04-21.316.424 0 0 3.088-.182 12.858 8.841 3.593 3.33 7.933 6.358 12.777 7.711 3.896 1.09 10.154 1.776 11.466-3.27v-.021ZM55.341 242.502s-4.865-3.915-4.885-9.688c0-4.017 1.938-7.852 3.977-11.203 3.815-6.217 8.78-11.001 13.564-16.431 0 0-2.079 2.301-1.07 15.563.364 4.885.061 10.173-1.897 14.796-1.575 3.714-4.925 9.063-9.689 6.963ZM72.6 252.11s-.687-6.217 3.37-10.314c2.826-2.846 6.924-4.199 10.719-5.107 7.105-1.716 13.989-1.574 21.215-2.059 0 0-3.088.182-11.748 10.254-3.19 3.714-7.146 7.247-11.809 9.144-3.734 1.514-9.89 2.927-11.768-1.918h.02Z" fill="#C79B67"/><path d="M71.47 229.967s-6.198-.848-9.165-5.793c-2.08-3.431-2.382-7.731-2.341-11.647.08-7.307 1.877-13.948 3.209-21.073 0 0-.585 3.048 7.085 13.887 2.826 3.997 5.269 8.7 5.975 13.686.565 3.997.424 10.294-4.744 10.94h-.02ZM89.293 218.845s4.461 4.381 10.194 3.735c3.976-.465 7.569-2.826 10.658-5.269 5.732-4.521 9.911-10.011 14.735-15.401 0 0-2.059 2.321-15.321 2.866-4.885.202-10.113 1.131-14.473 3.614-3.512 1.998-8.417 5.954-5.773 10.435l-.02.02Z" fill="#C79B67"/><path d="M84.146 214.506s6.217.625 10.274-3.492c2.826-2.847 4.118-6.964 5.006-10.779 1.635-7.105 1.433-14.009 1.837-21.235 0 0-.141 3.088-10.133 11.849-3.674 3.229-7.166 7.206-9.023 11.889-1.494 3.754-2.826 9.911 2.039 11.747v.021Z" fill="#C79B67"/><path d="m61.942 275.021-10.739-26.403-12.374-30.54M64.424 270.479l10.719-36.717 11.566-22.708M68.542 256.046l10.739-6.196M75.143 233.762l-5.37-11.97M81.865 221.853l13.1-5.854M53.282 253.564l4.542-18.167M47.247 239.757l-10.477-5.591" stroke="#283135" stroke-linecap="round" stroke-linejoin="round"/><path d="M72.66 288.222H53.302l-4.158-21.861h27.654l-4.138 21.861ZM181.737 253.103h43.35c4.592 0 8.312 3.729 8.312 8.333v27.161h-59.974v-27.161c0-4.604 3.72-8.333 8.312-8.333Z" fill="#283135" stroke="#283135" stroke-linecap="round" stroke-linejoin="round"/><path d="M348.565 288.118H39.448a2.805 2.805 0 1 0 0 5.61h309.117a2.805 2.805 0 1 0 0-5.61Z" fill="#fff" stroke="#283135" stroke-miterlimit="10"/><path d="M334.254 320.196H-3.078" stroke="#283135" stroke-miterlimit="10"/><path d="M166.195 309.883s-2.6 9.125-6.501 55.509c-3.9 46.384-8.064 41.169-2.073 55.773 5.974 14.587 24.687 51.334 28.85 61.499 4.164 10.164 13.776 29.701 14.303 34.404.526 4.686-2.601 14.587-5.711 20.065-3.127 5.478-7.012 7.293-6.501 8.861.526 1.568 3.127 2.871 8.574 2.343 5.464-.528 10.138-2.343 14.302-6.254 4.164-3.911 2.337-10.692 4.938-15.89 2.6-5.214 9.875-9.389 9.364-15.379-.526-5.99-8.574-9.125-12.475-10.693-3.9-1.567-8.838-15.642-10.138-20.065-1.3-4.422-3.374-23.975-5.464-41.697-2.074-17.722-6.501-26.583-6.501-26.583l19.486-78.957 2.601-8.597s-36.652-1.303-47.054-14.339Z" fill="#fff" stroke="#283135" stroke-miterlimit="10"/><path d="M188.545 545.994c-.526-1.568 3.374-3.383 6.501-8.861.23-.396.444-.858.658-1.287 1.185.445 2.469.495 3.753-.281 3.9-2.343 9.101-15.114 11.438-20.065 1.646-3.465 1.876-11.286 1.86-15.659.165.099.313.215.477.281 3.901 1.567 11.949 4.686 12.475 10.692.527 5.99-6.764 10.165-9.364 15.379-2.601 5.214-.774 11.98-4.938 15.89-4.163 3.911-8.838 5.726-14.302 6.254-5.464.528-8.064-.775-8.574-2.343h.016Z" fill="#D32A34" stroke="#283135" stroke-miterlimit="10"/><path d="M159.694 365.392c3.901-46.384 6.501-55.509 6.501-55.509 10.402 13.036 47.054 14.339 47.054 14.339l-2.601 8.597-19.502 78.957s4.41 8.861 6.5 26.583c1.284 10.907 2.551 22.49 3.654 30.823-3.621 3.564-9.282 6.848-17.807 6.799-6.814-14.62-20.836-42.556-25.873-54.833-5.974-14.587-1.826-9.389 2.074-55.773v.017Z" fill="#283135" stroke="#283135" stroke-miterlimit="10"/><path d="M265.487 314.85s-3.638 25.543-17.94 49.519c-14.302 23.976-30.151 41.433-30.151 48.479 0 7.046 12.212 35.18 10.402 52.374-1.827 17.194-16.903 48.727-18.713 57.588-1.827 8.861-2.074 15.891-1.827 20.593.263 4.687 0 9.637-4.411 11.468-4.411 1.832-26.514 6.254-31.978 6.254-5.464 0-14.549 1.04-20.539-4.95-5.975-5.99-2.337-3.135 7.011-8.597 9.364-5.478 28.324-16.154 32.225-21.897 3.9-5.742 8.574-16.946 8.064-31.533-.51-14.587-11.438-68.28-11.438-79.749 0-11.468 8.838-38.051 11.438-53.165 2.6-15.115 5.974-33.613 5.974-33.613s47.301 2.607 61.866-12.771h.017Z" fill="#fff" stroke="#283135" stroke-miterlimit="10"/><path d="M207.258 543.387c.263 4.686 0 9.636-4.411 11.468-4.411 1.831-26.514 6.254-31.978 6.254-5.464 0-14.549 1.039-20.539-4.951-5.975-5.989-2.337-3.135 7.011-8.597 7.735-4.521 21.988-12.59 28.933-18.497.889.528 1.777 1.469 2.518 3.119 2.337 5.214 2.074 10.428 2.074 10.428l16.376-5.841c-.116 2.541-.116 4.769 0 6.617h.016Z" fill="#D32A34" stroke="#283135" stroke-miterlimit="10"/><path d="M197.646 494.132c-.526-14.587-11.438-68.281-11.438-79.749 0-11.468 8.838-38.051 11.438-53.166 2.601-15.115 5.975-33.612 5.975-33.612s47.3 2.607 61.866-12.772c0 0-3.638 25.543-17.94 49.519-14.302 23.976-30.151 41.434-30.151 48.48 0 7.046 12.212 35.18 10.402 52.374-1.07 10.181-6.781 25.345-11.653 37.886-5.579.808-12.376.693-18.663-2.311.148-2.145.247-4.339.164-6.649Z" fill="#283135" stroke="#283135" stroke-miterlimit="10"/><path d="M193.088 465.123s-9.052-50.328-9.052-59.403c0-9.076 16.458-61.053 16.458-61.053" stroke="#fff" stroke-linecap="round" stroke-linejoin="round"/><path d="m138.447 222.148 7.324 17.755s-.313.924-2.14.313c-1.827-.61-80.595-38.562-81.204-38.876-.609-.313 11.9.314 11.9.314l-9.777-3.977 5.184-.611-5.184-3.976 4.28.61-1.219-3.069s8.855-.61 17.396-8.564c8.542-7.953 11.9-13.168 11.9-13.168s22.597 32.441 30.842 39.487c8.246 7.046 9.463 9.488 10.681 13.778l.017-.016Z" fill="#fff" stroke="#283135" stroke-miterlimit="10"/><path d="M99.787 181.11s-8.97 11.369-19.849 12.788M105.448 186.324s-5.2 12.31-19.37 13.267M109.234 201.489s-3.308 6.155-6.139 7.112M113.496 203.865s-2.37 6.633-5.2 8.531M118.681 207.181l-3.769 8.053 21.724 16.105-2.353-10.429" stroke="#283135" stroke-linecap="round" stroke-linejoin="round"/><path d="M143.631 240.2c-1.827-.611-80.595-38.563-81.204-38.876-.609-.314 11.9.313 11.9.313l-9.777-3.977 5.184-.61-5.184-3.977 4.28.611-1.219-3.069s74.49 45.608 78.16 49.288c0 0-.313.924-2.14.313v-.016Z" fill="#EDE2D5" stroke="#283135" stroke-miterlimit="10"/><path d="M172.021 222.445s-18.63-4.291-25.032-7.343c-6.419-3.053-10.385-4.29-13.743-7.954-3.357-3.679-1.53-4.29-7.027-5.808-5.497-1.534-8.246-2.756-9.777-4.901-1.53-2.145-2.748 2.756.609 5.198 3.358 2.442 7.324 4.29 7.324 4.29s-.921 3.367 3.045 6.733c3.966 3.366 8.854 5.511 8.854 5.511l2.14 3.977 43.959 19.289-10.385-18.976.033-.016Z" fill="#fff" stroke="#283135" stroke-miterlimit="10"/><path d="M239.466 158.108s23.338-.413 24.079 15.742c.724 16.154-23.42 78.544-23.42 78.544s27.814 46.978 30.019 57.258l2.189 6.6s-10.977 15.412-40.273 20.544c-29.279 5.132-45.391-3.663-53.439-5.874-8.048-2.195-17.577-13.218-17.577-13.218l15.865-74.138s-16.622-31.005-14.038-34.586l-5.185-3.052s7.028-13.729 9.957-26.204c2.93-12.475 13.183-22.012 17.578-22.755 4.394-.726 20.49 3.664 34.413 4.406 13.907.726 19.849-3.251 19.849-3.251l-.017-.016Z" fill="#D32A34" stroke="#283135" stroke-miterlimit="10"/><path d="m162.871 208.98 9.891-21.929" stroke="#283135" stroke-miterlimit="10"/><path d="M210.55 250.199c1.267.182 2.584.33 3.933.412M175.807 229.161s9.315 14.059 27.666 19.471" stroke="#283135" stroke-linecap="round" stroke-linejoin="round"/><path d="M181.6 157.926c2.337-.66 6.517-2.574 7.817-6.485 1.531-4.587-2.814-12.953-2.814-12.953s-14.253 3.069-17.281 2.673c-3.028-.396-2.946-1.006-4.542-7.689-1.58-6.699-2.979-14.9-2.979-14.9s-3.868-5.759-4.279-7.36c-.412-1.6 3.769-2.904 6.237-5.346 2.469-2.459 1.942-3.135 2.502-7.392.56-4.241 6.271-14.917 6.271-14.917s23.321-6.502 38.791 9.422c15.471 15.923 5.283 39.585 5.283 39.585s-.938 5.743-1.975 13.647c-1.037 7.887 1.942 7.392 7.439 8.927 2.452.676 9.661 1.551 17.38 2.986-3.325 7.36-11.603 21.039-28.67 26.088-17.478 5.165-26.563-12.738-29.197-26.269l.017-.017Z" fill="#fff" stroke="#283135" stroke-miterlimit="10"/><path d="M169.108 69.795s.247 14.537 5.349 22.623c5.102 8.085 11.685 9.57 14.121 14.521 2.436 4.95 1.3 11.286-2.6 10.461-3.901-.825-4.905-2.491-4.905-2.491s.132 15.461 15.438 20.857c15.306 5.395 29.015-.512 32.389-2.838 3.391-2.327 5.333-5.479 5.333-5.479s8.13-5.726 8.081-14.686c-.066-8.96-10.369-38.414-16.129-43.793-5.761-5.396-24.424-6.303-30.711-5.28-6.287 1.023-14.203.297-19.305-.693s-7.456 5.198-7.044 6.798h-.017Z" fill="#283135" stroke="#283135" stroke-miterlimit="10"/><path d="M179.477 83.656s-2.979 8.943 10.615 16.17c13.578 7.228 21.643 20 22.07 24.686.675 7.508-5.101 11.485-14.861 8.085M229.871 119.463c.757 1.914.873 3.894.132 5.907M194.766 79.828s3.819 16.6 15.701 23.414c6.419 3.68 12.459 7.475 16.195 11.452" stroke="#fff" stroke-linecap="round" stroke-linejoin="round"/><path d="M167.808 122.119s4.427 1.502 6.682-1.584" stroke="#283135" stroke-linecap="round" stroke-linejoin="round"/><path d="M168.252 107.252c0 1.997.511 3.614 1.136 3.614.625 0 1.58-1.898 1.58-3.894 0-1.997-.955-3.334-1.58-3.334-.625 0-1.136 1.618-1.136 3.614Z" fill="#283135"/><path d="M175.148 99.002s-.938-5.1-6.221-4.208" stroke="#283135" stroke-linecap="round" stroke-linejoin="round"/><path d="M258.722 220.002s-6.715 18.679-10.072 27.854c-3.357 9.174-11.603 1.832-15.569-4.901-3.967-6.732 2.139-31.83 2.139-31.83l23.502 8.877Z" fill="#fff" stroke="#283135" stroke-miterlimit="10"/><path d="M252.929 160.946s10.698 2.425 13.446 11.6c2.749 9.174 3.967 52.654 3.967 52.654s-11.603-2.442-20.145-4.29c-8.542-1.848-18.63-6.435-18.63-6.435l5.497-34.289" fill="#D32A34"/><path d="M252.929 160.946s10.698 2.425 13.446 11.6c2.749 9.174 3.967 52.654 3.967 52.654s-11.603-2.442-20.145-4.29c-8.542-1.848-18.63-6.435-18.63-6.435l5.497-34.289" stroke="#283135" stroke-miterlimit="10"/><path d="M154.148 178.849h7.686c3.127 0 5.727-2.409 5.974-5.544l1.827-23.266a1.035 1.035 0 0 0-1.037-1.122h-21.214c-.609 0-1.087.511-1.037 1.122l1.827 23.266c.246 3.119 2.847 5.544 5.974 5.544Z" fill="#fff" stroke="#283135" stroke-miterlimit="10"/><path d="M159.941 144.66s3.209-3.218-.708-8.944c-3.917-5.726-10.697-7.508-10.697-11.089 0-3.58 2.501-6.072 6.056-4.999" stroke="#283135" stroke-linecap="round" stroke-linejoin="round"/><path d="M154.954 146.079s4.641-5-.707-9.653" stroke="#283135" stroke-linecap="round" stroke-linejoin="round"/><path d="M253.538 234.078c-2.748 6.732-7.324 21.731-10.385 24.801-3.061 3.069-7.324-2.756-18.927-19.9-11.603-17.145-31.138-56.021-31.747-57.539-.609-1.518-5.497 0-14.648-1.535-9.151-1.534-10.385-2.755-10.681-7.342-.313-4.588 1.711-13.597 1.711-13.597s-.181-1.403-1.415-2.013c-1.234-.611-1.218-3.367-.313-6.122.922-2.756 14.648 4.868 17.396 8.844 2.749 3.977 9.151 11.353 9.151 11.353l53.127 58.149" fill="#fff"/><path d="M253.538 234.078c-2.748 6.732-7.324 21.731-10.385 24.801-3.061 3.069-7.324-2.756-18.927-19.9-11.603-17.145-31.138-56.021-31.747-57.539-.609-1.518-5.497 0-14.648-1.535-9.151-1.534-10.385-2.755-10.681-7.342-.313-4.588 1.711-13.597 1.711-13.597s-.181-1.403-1.415-2.013c-1.234-.611-1.218-3.367-.313-6.122.922-2.756 14.648 4.868 17.396 8.844 2.749 3.977 9.151 11.353 9.151 11.353l53.127 58.149" stroke="#283135" stroke-miterlimit="10"/></g><defs><clipPath id="a"><path fill="#fff" d="M0 0h370v562H0z"/></clipPath></defs></svg>