<svg width="524" height="603" fill="none" xmlns="http://www.w3.org/2000/svg"><g clip-path="url(#a)"><path opacity=".7" d="M43.926 196.755C80.93 128.703 174.017 49.262 301.734 82.352 429.437 115.44 515.72 185.443 501.583 307.233c-14.136 121.79-88.427 222.982-248.473 225.945-160.047 2.963-290.318-187.2-209.184-336.423Z" fill="#F4EDE6"/><g opacity=".3" stroke="#C79B67" stroke-linecap="round" stroke-linejoin="round"><path d="m508.782 288.788-83.287 12.879a5.824 5.824 0 0 0-4.869 6.645l7.853 50.672a5.83 5.83 0 0 0 6.653 4.864l83.287-12.88a5.823 5.823 0 0 0 4.869-6.645l-7.853-50.672a5.829 5.829 0 0 0-6.653-4.863ZM421.898 316.493l94.796-14.66"/><path d="m509.28 318.457-15.315 2.368 3.414 22.028 15.315-2.368-3.414-22.028Z"/><path d="M500.197 324.47c3.235-3.809 8.538-1.256 7.305 10.646l4.738 2.347.462 3.014-15.304 2.372-.617-4.014 5.778-2.257s-5.393-8.529-2.35-12.108h-.012ZM466.977 351.404s11.067.09 7.896-2.116c-3.171-2.206-3.647-4.438-.95-4.476 2.696-.039 7.216 5.079 6.856 1.975-.346-3.104 1.592-1.09 1.965-.898.372.205 3.569-1.064 3.723-.705.154.359-.064 1.423 10.349-.193M429.938 326.33l46.428-7.182M430.758 331.588l27.348-4.232M432.195 340.861l38.147-5.9M444.035 306.182l46.557-7.208"/></g><g opacity=".3" stroke="#C79B67" stroke-linecap="round" stroke-linejoin="round"><path d="M1.445 278.478a5 5 0 0 1 3.952-5.732L99.871 253.9a5 5 0 0 1 5.873 3.883l34.322 164.603a4.999 4.999 0 0 1-3.847 5.909L35.554 449.872a5 5 0 0 1-5.98-4.06L1.445 278.478ZM26.254 426.086l110.421-19.969M123.592 391.291l-52.733 9.722M115.775 382.544l-15.408 2.27M118.121 364.742l-78.707 14.749M14.25 354.674l107.738-18.994M128.729 421.61l-65.444 13.698M126.777 416.095 96 421.61M110.137 324.188l-53.965 10.684M105.876 312.222l-17.192 3.373M104.858 303.911l-78.604 15.134M97.707 263.46l-21.21 4.386M26.255 278.53l-18.31 3.552"/><path d="M14.61 292.163a9.469 9.469 0 0 1 5.084-5.951M22.749 303.911c-4.61-.603-8.487-4.425-8.487-9.183M29.887 301.731a9.056 9.056 0 0 1-4.66 2.167M23.648 285.34c7.088.025 11.736 8.285 7.987 14.339M42.369 287.751c-1.708-.551-3.403-1.167-5.162-1.552M56.93 288.983c-1.452 3.45-9.566.295-11.942-.411M43.035 279.825c5.059 1.206 10.118 2.399 15.177 3.604a61.16 61.16 0 0 0-.63 3.053M35.512 283.429c1.617-3.912.988-5.156 5.02-4.194"/></g><g opacity=".3" stroke="#C79B67" stroke-linecap="round" stroke-linejoin="round"><path d="m220.715 555.636 20.094 6.156-14.933-17.571c8.218-9.452 13.071-21.008 13.225-33.013M196.332 563.382c6.959-2.232 13.289-5.464 18.836-9.452M118.793 526.06c5.919 28.472 37.428 46.03 70.387 39.195M123.593 493.945a52.27 52.27 0 0 0-3.21 7.465M238.136 501.333c-5.919-28.473-37.427-46.031-70.387-39.195-15.921 3.296-29.274 11.697-38.159 22.701"/><path d="M203.173 490.893c-9.489-10.324-22.418-3.168-27.798 7.311-8.885-7.734-23.561-9.581-28.517 3.539-8.371 22.111 20.274 35.578 33.512 40.465a182.92 182.92 0 0 0 3.775 1.385c.821-.706 1.81-1.603 2.991-2.681 10.477-9.452 32.035-32.589 16.05-50.006l-.013-.013Z"/></g><g opacity=".3" stroke="#C79B67" stroke-linecap="round" stroke-linejoin="round"><path d="m282.077 70.463-19.401-8.054 13.161 18.917c-9.09 8.619-15.035 19.649-16.345 31.576M307.087 65.09a67.945 67.945 0 0 0-19.657 7.592M380.673 109.696c-3.146-28.921-32.818-49.416-66.278-45.787M372.805 141.195a50.601 50.601 0 0 0 3.916-7.118M259.492 122.829c3.146 28.921 32.818 49.416 66.279 45.787 16.178-1.757 30.263-8.824 40.162-18.918"/><path d="M334.175 140.542c14.836-7.933 20.424-26.376 12.483-41.195-7.941-14.82-26.406-20.402-41.241-12.47-14.836 7.933-20.425 26.377-12.483 41.196 7.941 14.819 26.406 20.402 41.241 12.469Z"/><path d="m308.23 117.545 9.104 8.593 15.215-26.15"/></g><path opacity=".05" d="M357.893 403.577s-4.571 55.252 2.029 68.642c6.599 13.39 9.925 104.976 6.959 116.493 0 0 21.288 5.361 29.724-2.257 8.423-7.618 21.378-.295 42.717-7.747 21.34-7.451 5.945-171.963 5.945-171.963l.655-59.856-35.206-31.32-52.823 87.983v.025Z" fill="#283135"/><path d="M386.268 430.152c-.193.487-.398.846-.63 1.064-4.545 4.297-23.946 9.068-40.611 12.505a689.91 689.91 0 0 1-20.598 3.923 4.93 4.93 0 0 1-5.751-4.288c-2.054-17.22-8.524-71.993-8.524-78.704 0-7.005-11.365-107.441-14.136-131.825-.328-2.881 1.859-5.411 4.756-5.536l29.975-1.294 42.148-1.819a4.99 4.99 0 0 1 5.193 4.585l.371 4.685c3.005 38.451 13.7 181.557 7.807 196.704Z" fill="#D32A34"/><path opacity=".2" d="m386.267 430.152-41.241 8.477-15.574 3.194c-4.225-4.143-7.447-4.22-7.447-4.22l-1.233-11.607-2.016-18.994-17.744-167.115c3.877-2.655 5.752-8.465 5.752-8.465l23.753-.859 41.151-1.501 6.793 4.386c3.004 38.451 13.7 181.557 7.806 196.704Z" fill="#283135"/><path d="m386.267 430.152-41.241 8.477-15.574 3.194c-4.225-4.143-7.447-4.22-7.447-4.22l-1.233-11.607-2.016-18.994-17.744-167.115c3.877-2.655 5.752-8.465 5.752-8.465l23.753-.859 41.151-1.501 6.793 4.386c3.004 38.451 13.7 181.557 7.806 196.704Z" stroke="#283135" stroke-linecap="round" stroke-linejoin="round"/><path d="m324.188 380.953 13.764-.025.012 4.296-3.826 1.36-8.821.962-1.129-6.593ZM325.035 389.803l10.118-.346 2.593 1.231-.141 5.707-11.799.128-.771-6.72ZM326.654 398.922l11.556-.834-.129 4.323-5.585 1.975-5.906-.334.064-5.13ZM327.346 406.207l9.334.474.848 2.386-1.361 2.629-8.346.539-1.438-4.066.963-1.962ZM338.106 414.556c.449 1.244.886 2.488 1.335 3.732.296.834.578 1.822.065 2.54-.424.59-1.233.756-1.952.692-.719-.064-1.425-.307-2.144-.346-2.17-.103-4.16 1.693-6.292 1.308-.834-2.308-2.927-5.681-.09-6.733.437-.154 9.399-.334 9.104-1.18l-.026-.013ZM338.07 425.06c.205.885.359 1.783.436 2.693.103 1.167.013 2.553-.95 3.22-.514.346-1.156.423-1.785.474-2.478.218-4.943.449-7.421.667-.064 0-.167-3.809-.064-4.207.436-1.667.128-1.526 1.707-2.206 2.504-1.064 5.509.629 8.077-.641Z" fill="#D32A34" stroke="#283135" stroke-linecap="round" stroke-linejoin="round"/><path d="M311.078 243.67s2.799 27.036 2.928 32.371M317.113 243.927l1.31 14.89" stroke="#283135" stroke-linecap="round" stroke-linejoin="round"/><path d="m338.027 238.296 1.695 17.456 2.376.231-.784-17.52-3.287-.167Z" fill="#D32A34" stroke="#283135" stroke-linecap="round" stroke-linejoin="round"/><path opacity=".2" d="M386.268 430.152c-.193.487-.398.846-.629 1.064-4.008 3.788-19.563 7.945-34.61 11.232-3.094.676-6.002-1.696-6.002-4.863v-1.5a5 5 0 0 0-3.761-4.844l-20.493-5.245a4.433 4.433 0 0 1-3.317-4.698l1.301-14.296 6.278-69.027 5.483-107.413c.13-2.576 2.201-4.65 4.779-4.762l37.6-1.622a4.99 4.99 0 0 1 5.193 4.585c.105 1.317.23 2.886.371 4.685 3.005 38.451 13.7 181.557 7.807 196.704Z" fill="#283135"/><path d="M386.268 430.152c-.193.487-.398.846-.63 1.064-4.545 4.297-23.946 9.068-40.611 12.505a689.91 689.91 0 0 1-20.598 3.923 4.93 4.93 0 0 1-5.751-4.288c-2.054-17.22-8.524-71.993-8.524-78.704 0-7.005-11.365-107.441-14.136-131.825-.328-2.881 1.859-5.411 4.756-5.536l29.975-1.294 42.148-1.819a4.99 4.99 0 0 1 5.193 4.585l.371 4.685c3.005 38.451 13.7 181.557 7.807 196.704Z" stroke="#283135" stroke-linecap="round" stroke-linejoin="round"/><path d="M411.138 602.359c.295-2.706-3.967-41.529-4.045-45.749-.205-11.568-3.479-26.689-3.479-26.689-4.571-11.671-8.128-38.566-20.325-55.816-12.185-17.251-12.185-37.54-14.214-54.791-2.041-17.25-1.528-15.736-1.014-31.024.501-15.301-.514-24.279-1.528-34.424-1.014-10.157-3.043-28.023 0-36.347 3.043-8.311 11.004-10.235 19.722-1.924 8.718 8.324 12.274 42.516 12.274 46.736 0 4.22 0 17.404 3.056 22.483 0 0 17.27-8.824 17.27-11.261 0-2.437-.514-23.97 2.028-25.125l-10.156-32.833 19.298-6.836s4.648 3.809 9.296 11.158a60.202 60.202 0 0 1 5.431 10.889c8.128 21.534 21.186 36.553 23.882 42.747 2.696 6.182 0 55.393 0 64.538 0 9.144-5.906 51.34-5.752 58.394.115 5.092 3.582 24.214 7.036 38.848 1.335 5.643 9.078 46.531 10.208 49.776l-68.988 17.25Z" fill="#fff"/><path opacity=".1" d="M426.34 346.325c-.128 2.757 3.172 24.74 3.172 24.74 2.285 5.477-10.195 24.15-10.195 24.15-2.696 1.527-3.865 10.915-3.865 10.915-8.448-1.873-27.798-21.303-27.798-21.303s-2.324 7.964-4.866 27.677c-2.542 19.7 13.713 66.538 20.646 98.871 6.934 32.333 3.659 45.248 3.659 45.248-.205-11.568-3.479-26.689-3.479-26.689-4.571-11.672-8.128-38.566-20.325-55.817-12.185-17.25-12.185-37.54-14.214-54.79-2.041-17.25-1.528-15.737-1.014-31.025.501-15.3-.514-24.278-1.528-34.423-1.014-10.158-3.043-28.024 0-36.347 3.043-8.311 11.004-10.235 19.722-1.924 8.718 8.324 12.274 42.516 12.274 46.736 0 4.219 0 17.404 3.056 22.483 0 0 17.27-8.824 17.27-11.261 0-2.437-.514-23.971 2.028-25.125l-10.156-32.833 19.298-6.836s4.648 3.809 9.296 11.158c-6.266 12.505-12.904 24.689-12.981 26.408v-.013ZM458.722 499.947c.848-7.682 3.377-25.984 4.982-37.399-1.965 8.914-5.11 13.429-5.11 13.429s5.469-65.449 6.009-69.399c.539-3.963 6.06-21.918 4.031-33.025 2.697 6.182 0 55.393 0 64.537 0 9.145-5.906 51.34-5.752 58.394.116 5.092 5.624 37.823 9.078 52.456-7.447-10.773-14.085-41.259-13.238-48.993Z" fill="#283135"/><path d="M480.127 585.108c-4.057-11.671-17.089-81.569-17.243-88.623-.155-7.054 5.752-49.263 5.752-58.407 0-9.145 2.696-58.343 0-64.538-2.697-6.182-15.742-21.213-23.869-42.747-5.444-14.416-14.727-22.047-14.727-22.047l-19.298 6.849 10.156 32.82c-2.542 1.154-2.029 22.688-2.029 25.125 0 2.437-17.269 11.261-17.269 11.261-3.043-5.079-3.043-18.264-3.043-22.483 0-4.22-3.557-38.399-12.275-46.723-8.718-8.324-16.679-6.387-19.722 1.924-3.043 8.311-1.014 26.189 0 36.334 1.015 10.145 2.029 19.123 1.528 34.424-.513 15.3-1.014 13.774 1.015 31.024 2.028 17.25 2.028 37.54 14.226 54.803 12.185 17.25 15.741 44.145 20.312 55.816 0 0 8.641 62.294 7.524 72.438" stroke="#283135" stroke-linecap="round" stroke-linejoin="round"/><path d="M401.574 384.813s3.043 14.211 9.9 21.316" stroke="#283135" stroke-linecap="round" stroke-linejoin="round"/><path d="M403.434 391.291s12.878 3.911 18.206 4.168M418.84 373.553s9.142-4.22 14.984-1.68M420.883 348.428s7.113-.654 8.641-4.207M385.641 477.721s13.648 16.93 17.718 25.561M465.065 403.577c-2.285 13.441-5.328 50.224-6.342 56.83M469.445 378.208c.385 12.185-2.593 18.52-2.593 18.52" stroke="#283135" stroke-linecap="round" stroke-linejoin="round"/><path d="M363.26 212.352c.688-2.69 3.427-4.258 6.11-3.545l84.098 22.343c2.781.738 4.38 3.62 3.473 6.351-6.636 19.978-31.289 93.758-37.826 106.995a5.235 5.235 0 0 0-.519 1.705l-10.518 81.942c-.331 2.578-2.553 4.471-5.148 4.327-13.679-.755-54.877-3.45-78.909-9.562-2.482-.631-3.966-3.071-3.486-5.587 3.496-18.332 16.761-88.288 17.585-98.815.812-10.503 20.027-86.154 25.14-106.154Z" fill="#D32A34"/><path opacity=".2" d="m344.182 313.132 20.749-88.611s8.923-4.424 12.377-8.464l67.447 19.148s.206 6.605 4.057 10.837l-34.038 97.974-8.255 72.22s-10.978.885-12.031 9.003c0 0-35.592 1.924-59.461-4.373 0 0-2.812-8.76-7.113-14.301l16.255-93.446.013.013Z" fill="#283135"/><path d="m344.182 313.132 20.749-88.611s8.923-4.424 12.377-8.464l67.447 19.148s.206 6.605 4.057 10.837l-34.038 97.974-8.255 72.22s-10.978.885-12.031 9.003c0 0-35.592 1.924-59.461-4.373 0 0-2.812-8.76-7.113-14.301l16.255-93.446.013.013Z" stroke="#283135" stroke-linecap="round" stroke-linejoin="round"/><path d="M361.452 317.737s6.124-23.099 27.695-18.931c21.571 4.169 9.386 32.577 9.386 32.577s.128 22.957-17.372 19.79c-15.164-2.745-23.266-11.056-19.709-33.436Z" fill="#D32A34" stroke="#283135" stroke-linecap="round" stroke-linejoin="round"/><path d="M373.135 232.948s-6.522 26.382-8.217 31.461M378.72 235.23l-3.814 14.468" stroke="#283135" stroke-linecap="round" stroke-linejoin="round"/><path d="m426.346 245.375 12.981 4.566-1.425 4.066h-4.071l-8.628-2.026 1.143-6.606ZM424.188 254.007l9.643 3.039 2.041 2.027-2.041 5.335-11.171-3.809 1.528-6.592ZM422.659 263.139l11.17 3.078-1.566 4.027h-5.919l-5.457-2.283 1.772-4.822ZM420.887 270.244l8.628 3.553v2.526l-2.157 2.04-8.038-2.283v-4.322l1.567-1.514ZM428.232 281.697v3.963c0 .885-.064 1.898-.783 2.411-.591.411-1.412.295-2.08 0-.655-.295-1.233-.769-1.913-1.038-2.003-.808-4.494.205-6.369-.873-.013-2.449-.86-6.335 2.17-6.374.462 0 8.975 2.822 8.975 1.911ZM424.688 291.585a18.98 18.98 0 0 1-.488 2.681c-.283 1.141-.835 2.411-1.978 2.719-.603.167-1.232 0-1.836-.141-2.401-.616-4.814-1.231-7.216-1.847-.064-.013 1.118-3.655 1.336-3.989.963-1.423.629-1.398 2.349-1.5 2.722-.167 4.982 2.424 7.833 2.09v-.013ZM400.302 237.013l-4.314 16.994 2.157 1.013 5.213-16.75-3.056-1.257ZM346.093 351.147l13.328 3.437-1.079 4.168-4.044.347-8.782-1.283.577-6.669ZM344.681 359.919l9.873 2.206 2.196 1.847-1.567 5.49-11.453-2.835.951-6.708ZM343.951 369.154l11.389 2.103-1.22 4.143-5.894.513-5.636-1.809 1.361-4.95ZM342.781 376.375l8.91 2.808.219 2.527-1.978 2.206-8.204-1.59-.373-4.297 1.426-1.654ZM351.09 387.161l.346 3.937c.077.872.103 1.898-.577 2.463-.552.462-1.387.423-2.068.179-.68-.243-1.296-.654-1.99-.872-2.067-.641-4.455.59-6.42-.32-.231-2.437-1.399-6.246 1.605-6.529.463-.051 9.181 2.04 9.104 1.142ZM348.404 397.319c-.025.91-.102 1.821-.256 2.719-.193 1.154-.63 2.475-1.734 2.873-.578.218-1.232.115-1.836 0-2.452-.411-4.905-.808-7.344-1.219-.064 0 .796-3.732.989-4.078.847-1.501.513-1.45 2.208-1.706 2.696-.411 5.174 1.988 7.986 1.411h-.013Z" fill="#D32A34" stroke="#283135" stroke-linecap="round" stroke-linejoin="round"/><path d="M401.574 409.772s3.043-34.09 3.043-37.463M395.488 408.245s1.271-17.711 1.528-20.777" stroke="#283135" stroke-linecap="round" stroke-linejoin="round"/><path d="m371.672 395.458-4.121 20.149h4.121l2.992-20.149h-2.992Z" fill="#D32A34" stroke="#283135" stroke-linecap="round" stroke-linejoin="round"/><path opacity=".2" d="M418.984 344.773c-8.911-1.86-16.858-4.592-22.739-8.529 0 0 4.263 12.235 19.375 33.089l-8.127 63.384s-39.251-1.719-68.911-6.785c9.116-25.651 25.654-74.259 23.715-83.891-2.658-13.223 6.728-28.832 6.728-28.832 29.672-5.335 58.446-27.741 78.194-46.684-10.054 29.729-23.78 69.475-28.235 78.248Z" fill="#283135"/><path d="M363.192 212.562c.686-2.686 3.418-4.255 6.099-3.549l84.161 22.146c2.788.733 4.394 3.619 3.486 6.354-6.642 19.995-31.287 93.748-37.823 106.983a5.243 5.243 0 0 0-.519 1.705l-10.518 81.943c-.331 2.578-2.553 4.47-5.148 4.327-13.679-.756-54.877-3.45-78.909-9.562-2.482-.631-3.966-3.072-3.486-5.588 3.496-18.331 16.761-88.287 17.585-98.814.812-10.503 19.974-85.989 25.072-105.945Z" stroke="#283135" stroke-linecap="round" stroke-linejoin="round"/><path d="m416.621 407.4-13.264 95.883c-2.953-6.271-11.003-16.968-15.164-22.316-1.54-2.001-2.555-3.245-2.555-3.245l-2.349-3.617c-12.185-17.25-12.185-37.54-14.214-54.79-2.041-17.25-1.528-15.737-1.014-31.024.501-15.301-.514-24.279-1.528-34.424-1.014-10.158-3.043-28.023 0-36.347 1.489-4.079 4.173-6.618 7.537-7.157 3.492-.577 7.742 1.001 12.185 5.233 8.718 8.324 12.274 42.516 12.274 46.736 0 4.219 0 17.404 3.056 22.483 0 0 8.179 15.48 15.036 22.585Z" fill="#fff"/><path opacity=".1" d="M382.274 467.269c2.774 3.54 4.661 8.644 5.919 13.698-1.54-2.001-2.555-3.245-2.555-3.245l-2.349-3.617c-12.185-17.25-12.185-37.54-14.214-54.79-2.041-17.25-1.528-15.737-1.014-31.025.501-15.301-.514-24.278-1.528-34.423-1.014-10.158-3.043-28.024 0-36.348 1.489-4.078 4.173-6.618 7.537-7.156 6.471 1.821 12.814 8.349 15.074 19.52 3.8 18.751-13.521 3.604-17.539 19.495-4.006 15.878 1.823 20.174 4.224 24.176 2.388 4.001-.668 12.812-4.224 24.676-3.544 11.876 3.055 59.304 10.669 69.039Z" fill="#283135"/><path d="M416.619 407.4c-6.856-7.106-15.035-22.599-15.035-22.599-3.043-5.079-3.043-18.263-3.043-22.483 0-4.219-3.556-38.399-12.275-46.723-8.718-8.324-16.678-6.387-19.721 1.924-3.043 8.311-1.015 26.189 0 36.334 1.014 10.145 2.028 19.123 1.528 34.424-.514 15.301-1.015 13.774 1.014 31.024 2.029 17.251 2.029 37.541 14.226 54.804l2.35 3.616s13.649 16.93 17.719 25.561" stroke="#283135" stroke-linecap="round" stroke-linejoin="round"/><path d="M371.668 366.82s11.658-6.015 17.488-5.502" stroke="#283135" stroke-linecap="round" stroke-linejoin="round"/><path opacity=".05" d="M193.828 202.346s-29.467-32.397-31.495-34.423c-2.029-2.026-3.557-36.527-9.142-51.751-5.586-15.223-8.32-104.514-8.32-104.514s-5.316-6.592-20.338-3.04c-15.023 3.553-29.75-3.04-46.519 6.593-16.755 9.644 15.742 147.646 15.742 147.646l32.985 105.002 67.087-65.5v-.013Z" fill="#283135"/><path d="M214.065 202.577s-13.2 84.225-26.925 95.383c-7.948 6.477-20.338 9.363-31.329 8.965-7.961-.282-15.202-2.283-19.465-5.912-10.156-8.632-24.383-13.198-31.483-18.777-7.113-5.579-7.113-25.369-11.684-42.119-4.57-16.737-11.183-17.25-12.698-33.987-1.528-16.75-7.627-67.988-18.67-82.198-11.041-14.211-11.298-25.369-15.87-39.836C41.372 69.63 7.95 17.314 7.95 17.314L89.456.641s8.011 33.128 16.588 60.151c4.071 12.826 8.269 24.292 11.787 30.166 10.94 18.263 17.501 35.513 17.501 35.513 9.219 9.645 14.265 31.012 15.792 49.724l21.802 12.172c16.756 4.566 41.139 14.21 41.139 14.21Z" fill="#fff"/><path opacity=".1" d="M214.066 202.577s-13.199 84.225-26.924 95.383c-7.948 6.477-20.338 9.363-31.329 8.965-26.065-6.438-33.075-20.931-36.606-24.445-4.699-4.681-10.875-33.205-7.486-49.801 3.377-16.596.95-22.74-1.849-30.845-6.201-17.956 12.712-27.626 14.663-34.424 1.952-6.784 1.246-44.812-7.228-57.176-4.52-6.579-16.166-40.49-11.261-49.441 4.07 12.825 8.269 24.29 11.787 30.165 10.939 18.263 17.501 35.513 17.501 35.513 9.218 9.645 14.264 31.012 15.792 49.725l21.802 12.171c16.756 4.566 41.138 14.21 41.138 14.21Z" fill="#283135"/><path d="M114.529 196.665s-4.584 5.4-8.654 5.4M124.534 214.916s-4.943 10.491-12.827 12.774M115.777 276.4s11.171-4.822 12.956-12.941M172.928 188.367s-2.799 3.552-2.799 6.348" stroke="#283135" stroke-linecap="round" stroke-linejoin="round"/><path d="M89.456.641s17.436 72.04 28.375 90.317c10.94 18.263 17.501 35.513 17.501 35.513 9.219 9.645 14.265 31.025 15.792 49.737l21.802 12.159c16.756 4.566 41.139 14.21 41.139 14.21s-13.2 84.225-26.925 95.383c-13.713 11.171-40.625 11.671-50.794 3.052-10.156-8.631-24.383-13.197-31.483-18.776-7.113-5.579-7.113-25.369-11.684-42.119-4.57-16.737-11.183-17.25-12.698-33.987-1.528-16.75-7.627-67.988-18.67-82.198-11.041-14.211-11.298-25.369-15.87-39.836C41.372 69.63 7.95 17.314 7.95 17.314" stroke="#283135" stroke-linecap="round" stroke-linejoin="round"/><g clip-path="url(#b)"><path d="m269.244 409.417.003-.053c.072-1.071 13.676-201.98 14.749-209.008.498-3.265 1.075-6.902 1.551-9.867.498-3.103-1.942-5.903-5.084-5.846-11.506.21-36.976.454-54.843-1.009-20.011-1.639-78.621-9.038-96.536-11.321-2.856-.364-5.424 1.687-5.621 4.559-1.748 25.429-9.315 135.556-10.427 151.819-1.028 15.165-3.534 55.691-4.383 69.467a4.936 4.936 0 0 0 4.324 5.238c17.963 2.276 83.349 10.698 105.421 15.471 18.674 4.037 36.661 5.759 45.09 6.398 2.755.209 5.09-1.91 5.222-4.67l.534-11.178Z" fill="#fff" stroke="#283135" stroke-linecap="round" stroke-linejoin="round"/><path d="m166.497 302.308-34.254-3.68c.219 6.039.351 10.312.289 10.597-.144.756 5.709 3.424 8.403 4.611.355 1.028 1.095 2.935 1.531 3.183.028.006.072.025.125.047l-.161 1.232c-.437.463-.816.967-1 1.465-.514 1.348-.687 2.636-.724 2.897-.331.284-2.633 2.254-2.836 3.545-.094.613.069 1.148.461 1.511.329.302.78.438 1.138.342l.386-.099-.537 3.812c-2.143-.05-2.891.076-3.159.2-.139.066-.144.133-.152.169-.028.311.709 1.479 1.085 2.05-.886-.038-3.914-.04-4.26 1.47-.127.587.135 1.239.79 1.899.954.965 2.619 1.757 3.355 1.599.677-.151 1.624-.263 2.187-.333-.509.351-1.291.988-1.343 1.582-.024.244.074.458.278.627 1.005.86 3.107.921 4.414.128.964-.589 1.505-1.048 1.709-1.234.265.288 1.136 1.1 2.571 1.314 1.276.19 2.335-.128 2.479-.529.049-.134-.012-.253-.147-.34a1.542 1.542 0 0 1-.476-.419c.732-.14 3.432-.756 3.936-2.549l.04-.183.014-.065.031-.146.016-.074c.012-.055.024-.11.027-.167l.014-.064c.018-.083.015-.16.026-.254l.012-.055.018-.217a.335.335 0 0 0 .002-.095c.004-.067.009-.133.005-.201.007-.037.004-.066.003-.105.007-.075.004-.153.002-.23a.208.208 0 0 0 .007-.075c.003-.105.007-.21.001-.317a.249.249 0 0 0-.001-.086c0-.087-.003-.164-.003-.251.008-.037-.003-.077-.004-.116-.002-.077-.005-.155-.005-.241.008-.037-.003-.077-.006-.107-.006-.107-.004-.203-.01-.309a2.26 2.26 0 0 1 .008-.037c-.003-.116-.007-.232-.009-.357.006-.028-.006-.059-.008-.098 0-.087-.008-.184-.008-.271.008-.037-.005-.068-.006-.107-.008-.097-.008-.184-.016-.282a.178.178 0 0 0-.002-.077c-.015-.243-.027-.496-.044-.73a.176.176 0 0 0-.004-.068c-.008-.098-.014-.204-.021-.302a.177.177 0 0 0-.005-.068c-.006-.107-.018-.225-.024-.332l.004-.018c-.015-.244-.04-.48-.057-.714l.004-.018c-.006-.107-.021-.216-.026-.323-.043-.47-.086-.892-.115-1.244-.002.009.014.022.021.033.006.021.02.043.025.063a.491.491 0 0 0 .049.088.386.386 0 0 0 .041.076.744.744 0 0 0 .063.109l.057.09c.015.022.029.044.045.057.024.025.036.056.06.081.014.022.031.035.045.057.009.002.014.023.022.034.137.164.29.303.454.386a.866.866 0 0 0 .769.003c.384-.176.661-.568.801-1.123.255-1.088-.065-2.54-.526-3.12-.568-.708-1.453-1.101-1.737-1.211.08-.549.396-3.246-.745-4.636l.199-2.117c.782-.504 2.102-1.582 2.543-1.976.299-.272.412-.391.465-.639 2.988-.612 8.895-1.918 8.913-2.663.004-.287 1.037-4.434 2.538-10.294l-.05.009Z" fill="#C79B67"/><path d="M125.772 303.605a8.061 8.061 0 0 0 6.036 9.679c4.339 1.005 8.681-1.686 9.689-6.03a8.062 8.062 0 0 0-6.035-9.679c-4.34-1.005-8.684 1.695-9.69 6.03Z" fill="#D32A34" stroke="#283135" stroke-linecap="round" stroke-linejoin="round"/><path d="m136.556 307.569-2.739-5.02-9.942 11.324" stroke="#283135" stroke-width="3" stroke-linecap="round" stroke-linejoin="round"/><path d="m241.043 342.617-70.26-8.642M241.965 332.33l-70.26-8.642M210.337 318.048l-37.719-4.64M241.043 342.617l-70.26-8.642M241.965 332.33l-70.26-8.642M210.337 318.048l-37.719-4.64M195.383 398.046l-70.26-8.642M196.305 387.759l-70.26-8.642M164.677 373.477l-37.719-4.641M242.878 322.049l-25.631-3.15M243.797 311.772l-70.26-8.642M199.339 293.516l-67.889-8.005M244.626 298.852l-40.16-4.736M159.98 274.567l-27.42-3.23M245.737 284.678l-77.968-9.185M154.179 259.59l-20.52-2.42M213.763 266.606l-52.619-6.201M246.836 270.501l-28.18-3.317M157.115 245.629l-22.358-2.635M247.936 256.334l-77.387-9.116M219.018 238.626l-83.152-9.797M249.048 242.16l-19.255-2.271M188.714 220.751l-51.747-6.098M250.144 227.993l-54.342-6.41M146.945 201.531l-8.876-1.055M198.178 207.566l-43.451-5.121M251.247 213.817l-45.467-5.355" stroke="#283135" stroke-linecap="round" stroke-linejoin="round"/><path opacity=".05" d="M165.978 254.926c-16.632 8.857-34.648-22.169-40.958-26.442-1.514-1.026-2.98-2.61-4.329-4.026l3.519-52.598 48.09 5.845c-.316 7.584-.375 14.233 1.15 19.091 3.272 10.467 9.149 49.286-7.472 58.13Z" fill="#283135"/></g><path d="M169.371 272.322c-3.158 1.796-7.421 1.885-10.965.167-2.44-1.167-4.751-3.283-6.818-7.003-5.072-9.132-18.797-29.934-21.327-35.975-2.542-6.041-8.127-22.881-13.712-29.973-5.598-7.105-8.641-17.763-8.641-17.763l-2.029-103.502c3.043 14.968 11.427 31.961 11.427 31.961 12.442 6.593 18.027 16.237 18.027 16.237 1.246 1.309 2.414 2.822 3.505 4.528 8.295 12.825 12.314 35.898 12.75 53.815.514 20.303 7.113 29.435 17.783 47.185 10.67 17.763 6.934 36.386 0 40.323Z" fill="#fff"/><path opacity=".1" d="M169.369 272.322c-3.21 1.706-7.422 1.885-10.965.167 5.829-1.591 13.481-4.579 11.722-9.03-2.76-7.028-10.836 3.399-14.894 0-4.07-3.398-18.797-22.893-9.437-31.473 9.347-8.593 6.381-22.97 0-27.023-6.394-4.066-2.247-13.711-.218-28.909 1.232-9.196-3.12-30.024-6.741-45.055 8.294 12.825 12.313 35.898 12.75 53.815.513 20.303 7.113 29.434 17.783 47.185 10.669 17.763 6.933 36.629 0 40.323Z" fill="#283135"/><path d="M105.879 78.273c3.043 14.968 11.427 31.961 11.427 31.961 12.442 6.593 18.027 16.237 18.027 16.237 10.67 11.158 15.742 38.053 16.255 58.343.514 20.29 7.113 29.435 17.783 47.185 10.67 17.763 7.704 36.116 0 40.323-5.367 2.924-12.698 2.296-17.783-6.836-5.084-9.132-18.797-29.934-21.339-35.975-2.543-6.041-8.128-22.881-13.713-29.986-5.585-7.105-8.641-17.763-8.641-17.763" stroke="#283135" stroke-linecap="round" stroke-linejoin="round"/><path d="M138.836 227.69s8.294-.744 12.095-3.874M104.864 183.878s-1.605 3.899 6.856 7.67" stroke="#283135" stroke-linecap="round" stroke-linejoin="round"/></g><defs><clipPath id="a"><path fill="#fff" d="M0 0h524v603H0z"/></clipPath><clipPath id="b"><path fill="#fff" transform="rotate(-167.799 156.566 204.496) skewX(-.026)" d="M0 0h196.089v251.964H0z"/></clipPath></defs></svg>