<svg width="62" height="50" fill="none" xmlns="http://www.w3.org/2000/svg"><path d="M4 1h54v3H4V1ZM1 3a2 2 0 0 1 2-2h1v19.5a1.5 1.5 0 0 1-3 0V3ZM61 3a2 2 0 0 0-2-2h-1v19.5a1.5 1.5 0 0 0 3 0V3Z" stroke="#C79B67" stroke-width="2"/><rect x="4" y="4" width="18" height="18" rx="3" stroke="#C79B67" stroke-width="2"/><path fill="#C79B67" d="M7 7h2v2H7zM17 7h2v2h-2zM7 17h2v2H7zM17 17h2v2h-2z"/><rect x="22" y="4" width="18" height="18" rx="3" stroke="#C79B67" stroke-width="2"/><path fill="#C79B67" d="M25 7h2v2h-2zM35 7h2v2h-2zM25 17h2v2h-2zM35 17h2v2h-2z"/><rect x="40" y="4" width="18" height="18" rx="3" stroke="#C79B67" stroke-width="2"/><path fill="#C79B67" d="M43 7h2v2h-2zM53 7h2v2h-2zM43 17h2v2h-2zM53 17h2v2h-2z"/><rect x="12" y="31" width="38" height="18" rx="3" stroke="#C79B67" stroke-width="2"/><path fill="#C79B67" d="M15 34h2v2h-2zM45 34h2v2h-2zM15 44h2v2h-2zM45 44h2v2h-2z"/></svg>