<svg width="64" height="64" fill="none" xmlns="http://www.w3.org/2000/svg"><path d="M5 21h54v3H5v-3ZM2 23a2 2 0 0 1 2-2h1v19.5a1.5 1.5 0 0 1-3 0V23ZM62 23a2 2 0 0 0-2-2h-1v19.5a1.5 1.5 0 0 0 3 0V23Z" stroke="#C79B67" stroke-width="2"/><rect x="5" y="24" width="18" height="18" rx="3" stroke="#C79B67" stroke-width="2"/><path fill="#C79B67" d="M8 27h2v2H8zM18 27h2v2h-2zM8 37h2v2H8zM18 37h2v2h-2z"/><rect x="23" y="24" width="18" height="18" rx="3" stroke="#C79B67" stroke-width="2"/><path fill="#C79B67" d="M26 27h2v2h-2zM36 27h2v2h-2zM26 37h2v2h-2zM36 37h2v2h-2z"/><rect x="41" y="24" width="18" height="18" rx="3" stroke="#C79B67" stroke-width="2"/><path fill="#C79B67" d="M44 27h2v2h-2zM54 27h2v2h-2zM44 37h2v2h-2zM54 37h2v2h-2z"/></svg>