<svg width="64" height="64" fill="none" xmlns="http://www.w3.org/2000/svg"><rect x="2" y="26" width="15" height="24" rx="3" stroke="#C79B67" stroke-width="2"/><path fill="#C79B67" d="M12 45h2v2h-2z"/><rect x="17" y="26" width="15" height="24" rx="3" stroke="#C79B67" stroke-width="2"/><path fill="#C79B67" d="M27 45h2v2h-2z"/><rect x="32" y="26" width="15" height="24" rx="3" stroke="#C79B67" stroke-width="2"/><path fill="#C79B67" d="M42 45h2v2h-2z"/><rect x="47" y="26" width="15" height="24" rx="3" stroke="#C79B67" stroke-width="2"/><path fill="#C79B67" d="M57 45h2v2h-2z"/><path d="M2 51.5A1.5 1.5 0 0 1 3.5 50h57a1.5 1.5 0 0 1 0 3h-57A1.5 1.5 0 0 1 2 51.5Z" stroke="#C79B67" stroke-width="2"/><rect x="2" y="11" width="15" height="15" rx="3" stroke="#C79B67" stroke-width="2"/><path fill="#C79B67" d="M7 21h5v2H7z"/><rect x="17" y="11" width="15" height="15" rx="3" stroke="#C79B67" stroke-width="2"/><path fill="#C79B67" d="M22 21h5v2h-5z"/><rect x="32" y="11" width="15" height="15" rx="3" stroke="#C79B67" stroke-width="2"/><path fill="#C79B67" d="M37 21h5v2h-5z"/><rect x="47" y="11" width="15" height="15" rx="3" stroke="#C79B67" stroke-width="2"/><path fill="#C79B67" d="M52 21h5v2h-5z"/></svg>