<svg width="41" height="59" fill="none" xmlns="http://www.w3.org/2000/svg"><path d="M1 3a2 2 0 0 1 2-2h1v55.5a1.5 1.5 0 0 1-3 0V3ZM4 1v3h34.5a1.5 1.5 0 0 0 0-3H4Z" stroke="#C79B67" stroke-width="2"/><rect x="4" y="4" width="18" height="18" rx="3" stroke="#C79B67" stroke-width="2"/><path fill="#C79B67" stroke="#C79B67" d="M7.5 7.5h1v1h-1z"/><path fill="#C79B67" d="M17 7h2v2h-2zM7 17h2v2H7zM17 17h2v2h-2z"/><rect x="4" y="22" width="18" height="18" rx="3" stroke="#C79B67" stroke-width="2"/><path fill="#C79B67" d="M7 25h2v2H7zM17 25h2v2h-2zM7 35h2v2H7zM17 35h2v2h-2z"/><rect x="4" y="40" width="18" height="18" rx="3" stroke="#C79B67" stroke-width="2"/><path fill="#C79B67" d="M7 43h2v2H7zM17 43h2v2h-2zM7 53h2v2H7zM17 53h2v2h-2z"/><rect x="22" y="4" width="18" height="18" rx="3" stroke="#C79B67" stroke-width="2"/><path fill="#C79B67" d="M25 7h2v2h-2zM35 7h2v2h-2zM25 17h2v2h-2zM35 17h2v2h-2z"/></svg>