<svg width="64" height="64" fill="none" xmlns="http://www.w3.org/2000/svg"><path d="M51 6a2 2 0 0 0-2-2h-1v55.5a1.5 1.5 0 0 0 3 0V6ZM48 4v3H13.5a1.5 1.5 0 0 1 0-3H48Z" stroke="#C79B67" stroke-width="2"/><rect x="-1" y="1" width="18" height="18" rx="3" transform="matrix(-1 0 0 1 47 6)" stroke="#C79B67" stroke-width="2"/><path fill="#C79B67" d="M45 10h-2v2h2zM35 10h-2v2h2zM45 20h-2v2h2zM35 20h-2v2h2z"/><rect x="-1" y="1" width="18" height="18" rx="3" transform="matrix(-1 0 0 1 47 24)" stroke="#C79B67" stroke-width="2"/><path fill="#C79B67" d="M45 28h-2v2h2zM35 28h-2v2h2zM45 38h-2v2h2zM35 38h-2v2h2z"/><rect x="-1" y="1" width="18" height="18" rx="3" transform="matrix(-1 0 0 1 47 42)" stroke="#C79B67" stroke-width="2"/><path fill="#C79B67" d="M45 46h-2v2h2zM35 46h-2v2h2zM45 56h-2v2h2zM35 56h-2v2h2z"/><rect x="-1" y="1" width="18" height="18" rx="3" transform="matrix(-1 0 0 1 29 6)" stroke="#C79B67" stroke-width="2"/><path fill="#C79B67" d="M27 10h-2v2h2zM17 10h-2v2h2zM27 20h-2v2h2zM17 20h-2v2h2z"/></svg>