<svg width="20" height="20" fill="none" xmlns="http://www.w3.org/2000/svg"><g clip-path="url(#a)"><path d="M0 10C0 4.477 4.476 0 10 0c5.522 0 10 4.477 10 10s-4.478 10-10 10C4.476 20 0 15.523 0 10Z" fill="#FC3F1D"/><path d="M11.37 5.136h-.877c-1.609 0-2.455.963-2.455 2.383 0 1.605.585 2.357 1.786 3.321l.993.79-2.852 5.037H5.834l2.56-4.506C6.92 10.914 6.094 9.703 6.094 7.655c0-2.569 1.515-4.322 4.387-4.322h2.852v13.321H11.37V5.136Z" fill="#fff"/></g><defs><clipPath id="a"><path fill="#fff" d="M0 0h20v20H0z"/></clipPath></defs></svg>