<svg width="64" height="64" fill="none" xmlns="http://www.w3.org/2000/svg"><path d="M61.786 36.57c1.994-3.338 1.652-7.486-1.024-10.547a2.598 2.598 0 0 1-.53-2.402c.204-.743.308-1.51.308-2.28.012-4.221-3.069-7.72-7.038-8.428a2.568 2.568 0 0 1-2.1-2.134c-.763-4.933-6.075-8.382-10.915-6.996a2.666 2.666 0 0 1-2.479-.556c-3.536-3.052-8.48-3.052-12.016 0-.684.59-1.61.805-2.479.556-4.84-1.386-10.151 2.063-10.914 6.995a2.568 2.568 0 0 1-2.101 2.135c-3.97.707-7.05 4.207-7.038 8.427 0 .787.108 1.552.309 2.281.237.858.016 1.77-.567 2.443-3.02 3.493-3.02 8.38 0 11.871.583.674.804 1.586.567 2.444a8.557 8.557 0 0 0-.309 2.28c-.012 4.221 3.069 7.72 7.038 8.428a2.568 2.568 0 0 1 2.1 2.134c.763 4.934 6.075 8.382 10.915 6.996a2.612 2.612 0 0 1 2.44.522c3.085 2.691 7.257 3.044 10.628 1.06" stroke="#C79B67" stroke-width="2" stroke-miterlimit="10" stroke-linecap="round" stroke-linejoin="round"/><path d="M22.724 12.395a21.591 21.591 0 0 1 13.043-1.752C46.76 12.58 54.35 22.486 53.647 33.374M18.979 14.657a21.611 21.611 0 0 0-8.336 13.577c-2.08 11.796 5.796 23.045 17.591 25.123 1.8.318 3.587.403 5.33.278" stroke="#C79B67" stroke-width="2" stroke-miterlimit="10" stroke-linecap="round" stroke-linejoin="round"/><path d="m47.544 50.825 14.241-14.254c-8.169-5.438-17.345-4.167-18.856 3.807a2.597 2.597 0 0 1-2.238 2.097c-8.146.956-9.113 12.973-4.11 19.324l7.87-7.879m-4.665-21.256 3.045-3.046a3.549 3.549 0 0 0 1.044-2.52 3.563 3.563 0 0 0-6.082-2.519l-7.618 7.616a1.015 1.015 0 0 1-1.44 0l-2.525-2.524a3.561 3.561 0 0 0-5.039 0l-.002.002a3.565 3.565 0 0 0 0 5.04l3.962 3.962a6.112 6.112 0 0 0 8.643 0l2.919-2.917" stroke="#C79B67" stroke-width="2" stroke-miterlimit="10" stroke-linecap="round" stroke-linejoin="round"/></svg>