<svg width="64" height="64" fill="none" xmlns="http://www.w3.org/2000/svg"><g clip-path="url(#a)" fill="#C79B67"><path d="M49.706 49.293a1 1 0 0 0-1.414 1.414l2 2a1 1 0 0 0 1.414 0l4-4a1 1 0 0 0-1.414-1.414L51 50.586l-1.293-1.293Z"/><path d="m62.515 43.143-10-6a1.003 1.003 0 0 0-1.03 0l-10 6A.999.999 0 0 0 41 44v4.845A15.921 15.921 0 0 0 51.058 63.7l.57.229c.239.095.505.095.743 0l.57-.228a15.926 15.926 0 0 0 10.06-14.856V44a.999.999 0 0 0-.486-.857ZM61 48.845a13.934 13.934 0 0 1-8.8 12.999l-.2.079-.2-.08A13.933 13.933 0 0 1 43 48.845v-4.28l9-5.4 9 5.4v4.28Z"/><path d="M44.54 62H11V17h6a1 1 0 0 0 1-1v-6h33v24a1 1 0 0 0 2 0V9a1 1 0 0 0-1-1H17c-.262.008-.512.11-.703.29l-.005.004-6.998 6.998-.004.004A1.08 1.08 0 0 0 9 16v47a1 1 0 0 0 1 1h34.54a1 1 0 0 0 0-2ZM16 11.414V15h-3.586L16 11.414Z"/><path d="M6 54H3V2h40v3a1 1 0 0 0 2 0V1a1 1 0 0 0-1-1H2a1 1 0 0 0-1 1v54a1 1 0 0 0 1 1h4a1 1 0 0 0 0-2Z"/><path d="M48 33a1 1 0 0 0-1-1H15a1 1 0 0 0 0 2h32a1 1 0 0 0 1-1Zm-5 5a1 1 0 0 0-1-1H21a1 1 0 0 0 0 2h21a1 1 0 0 0 1-1Zm-22 6h10a1 1 0 0 0 0-2H21a1 1 0 0 0 0 2Zm17 3H21a1 1 0 0 0 0 2h17a1 1 0 0 0 0-2Zm-17 7h10a1 1 0 0 0 0-2H21a1 1 0 0 0 0 2Zm0 5h17a1 1 0 0 0 0-2H21a1 1 0 0 0 0 2Zm-4-22h-2a1 1 0 0 0 0 2h2a1 1 0 0 0 0-2Zm0 5h-2a1 1 0 0 0 0 2h2a1 1 0 0 0 0-2Zm0 5h-2a1 1 0 0 0 0 2h2a1 1 0 0 0 0-2Zm0 5h-2a1 1 0 0 0 0 2h2a1 1 0 0 0 0-2Zm0 5h-2a1 1 0 0 0 0 2h2a1 1 0 0 0 0-2Zm25-35a1 1 0 0 0 0-2h-3a1 1 0 0 0 0 2h3Zm-19 0a1 1 0 0 0 0-2h-3a1 1 0 0 0 0 2h3ZM26 26.421v-1.857h1.25v-1.393H26v-1.95h1.25V15h4.25c1.411 0 2.511.384 3.3 1.151.8.768 1.2 1.746 1.2 2.935 0 1.188-.4 2.166-1.2 2.934-.789.768-1.889 1.151-3.3 1.151h-2.333v1.393h4v1.857h-4V28H27.25v-1.579H26Zm3.167-5.2H31.5c1.667 0 2.5-.712 2.5-2.135 0-1.424-.833-2.136-2.5-2.136h-2.333v4.271Z"/></g><defs><clipPath id="a"><path fill="#fff" d="M0 0h64v64H0z"/></clipPath></defs></svg>