<svg width="64" height="64" fill="none" xmlns="http://www.w3.org/2000/svg"><path fill-rule="evenodd" clip-rule="evenodd" d="M57.161 59.158c-2.022.426-4.483-.647-7.297-3.19 0-.004-.007-.008-.015-.012 0-.004-.008-.008-.008-.012l-5.384-4.48a.903.903 0 0 0-1.278.125.932.932 0 0 0 .125 1.291l4.656 3.874c-2.414 2.635-4.851 3.999-7.258 4.057-2.555.061-5.235-1.358-7.955-4.217l-.878-7.328a.902.902 0 0 0-1.003-.801.91.91 0 0 0-.791 1.02l.862 7.24c-4.853 5.81-9.751 5.816-15.205.578l4.632-5.576a.933.933 0 0 0-.11-1.293.903.903 0 0 0-1.001-.112.91.91 0 0 0-.276.224l-5.134 6.182c-2.806 2.647-5.228 3.8-7.203 3.422-1.622-.307-3.111-1.691-4.42-4.12 4.224-1.35 7.524-3.893 9.836-7.571.737-1.172 1.097-1.733 1.99-2.745 2.658-3.008 5.636-5.576 8.85-7.628a.892.892 0 0 0 .423-.743c.07-1.948.423-4.006 1.105-6.437 1.389-.7 2.187-2.421 3.166-3.335l4.97 2.536c.195.099.462.233.775.361 3.605 4.423 6.999 9.419 10.385 15.268a.914.914 0 0 0 .212.252c5.713 4.671 11.701 7.64 17.807 8.837-1.333 2.518-2.87 3.973-4.578 4.333ZM19.98 27.44c.98.75 2.688 1.83 3.221 1.93a.892.892 0 0 0 .274-.055c.041-2.039.726-5.542 1.129-8.12-.271.038-.54.089-.807.152a.896.896 0 0 1-.663-.102.914.914 0 0 1-.411-.535.912.912 0 0 1 .564-1.122l3.268-1.179a.74.74 0 0 0 .502-.8l-.572-5.573a9.29 9.29 0 0 1-4.836 4.585c.659 5.514.11 9.076-1.67 10.819Zm-2.477-10.742c-.188-1.301-.345-2.428-.47-3.156-.298-1.803-.235-2.887.925-4.179 1.34-1.48 3.291-1.481 4.694-1.222.98.181 1.92.603 2.806 1.259-.517 2.69-2.46 4.909-5.07 5.729a.905.905 0 0 0-.496.383.923.923 0 0 0-.132.618c.643 4.812.384 8.097-.744 9.642-.541-2.187-1.113-6.223-1.513-9.074ZM23.052 6.22a.325.325 0 0 0-.11.11c.67.102 1.505.397 2.132.703l3.848-2.047a.908.908 0 0 1 .816-.015l1.528.733a.92.92 0 0 1 .47.54l1.63 4.995c.189-.2.36-.403.541-.614l.533-2.338a.88.88 0 0 0-.031-.513l-1.834-5.21a.882.882 0 0 0-.784-.608l-1.442-.114a1.574 1.574 0 0 0-1.043.266L23.052 6.22Zm22.815 15.19-2.782-2.097a2.652 2.652 0 0 0-.462-1.062c-.557-.733-1.45-1.04-2.462-.84-1.214.238-2.93 1.95-5.666 5.02a17.83 17.83 0 0 0-.423.472l-1.145-.656.18-8.194a19.537 19.537 0 0 0 2.03-2.063 50.124 50.124 0 0 0 8.113 4.182l2.617 5.238Zm2.007 5.515a1.39 1.39 0 0 0 .258-.991l-.415-.835-4.914-3.708-1.426 2.356 4.592 3.46a1.352 1.352 0 0 0 1.905-.282Zm-17-13.43c-.454.368-1.642 1.037-2.179 1.263-.04.016-.07.03-.102.044l-.478-4.662c-.1-.98-.59-1.422-1.27-1.976l2.524-1.34.768.37 1.787 5.465c-.345.3-.69.579-1.05.835Zm.384 1.952-.125 5.73c-1.111-.703-1.756-1.186-3.08-1.575.58-.543.893-1.343.807-2.182l-.07-.718a13.874 13.874 0 0 0 2.225-1.101v-.002c.078-.05.165-.1.243-.152Zm-5.134 7.665c-.22 1.32-.47 2.813-.642 4.095.454-.575.932-1.125 1.536-1.496a.9.9 0 0 1 .878-.037l5.478 2.793c1.67.85 2.461.76 3.23-.377l4.592-7.55c.167-.314.381-1.55-.69-1.327-.047.01-.525.136-1.983 1.566-.932.918-1.943 2.054-2.688 2.883-.376.42-.697.786-.932 1.035a.902.902 0 0 1-1.106.16c-1.476-.856-2.94-1.655-4.389-2.613a6.592 6.592 0 0 0-2.955-1.087c-.093.598-.211 1.266-.329 1.955Zm16.499 11.493-.189-7.772-2.014-1.518-2.289 3.755c-.705 1.036-1.414 1.515-2.218 1.71 3.206 4.09 6.255 8.652 9.28 13.884a51.458 51.458 0 0 0 3.378 2.514l-5.854-12.194a.917.917 0 0 1-.094-.379ZM63.892 53.7a.916.916 0 0 0-.658-.473c-3.981-.626-7.923-2.051-11.78-4.25L44.434 34.36l-.149-6.137c.8.606 1.365 1.09 2.492 1.09 1.01 0 1.954-.474 2.555-1.294a3.25 3.25 0 0 0-.11-3.976l-4.506-9.011a.933.933 0 0 0-.478-.438c-3.033-1.215-5.855-2.668-8.386-4.32l.353-1.58a2.704 2.704 0 0 0-.087-1.536l-1.834-5.211C33.915.91 33.013.212 31.933.125L30.49.012a3.356 3.356 0 0 0-2.17.557L22.064 4.68c-.533.35-.87.9-.948 1.5-1.819.046-3.378.71-4.491 1.945-1.646 1.815-1.748 3.537-1.38 5.726.126.704.282 1.819.463 3.108.628 4.47 1.422 10.081 2.186 11.014.353.458 1.105 1.067 2.25 1.816.98.646 1.763 1.072 2.351 1.277-.549 2.1-.862 3.955-.964 5.725-3.206 2.1-6.176 4.688-8.84 7.7-.98 1.117-1.396 1.756-2.172 2.985-2.273 3.63-5.494 5.949-9.836 7.092a.924.924 0 0 0-.596 1.285c1.725 3.638 3.755 5.633 6.216 6.101 2.453.467 5.133-.624 8.174-3.33 5.959 5.723 11.92 6.03 17.447-.258 5.881 5.837 11.833 5.71 17.423-.43 6.126 5.134 11.22 3.965 14.57-3.42a.938.938 0 0 0-.024-.817Z" fill="#C79B67"/></svg>