<svg width="48" height="48" fill="none" xmlns="http://www.w3.org/2000/svg"><path d="M35 48c-7.168 0-13-5.832-13-13s5.832-13 13-13 13 5.832 13 13-5.832 13-13 13Zm0-24c-6.066 0-11 4.934-11 11s4.934 11 11 11 11-4.934 11-11-4.934-11-11-11Z" fill="#C79B67"/><path d="M33 40a1.01 1.01 0 0 1-.708-.292l-4-4a1 1 0 0 1 1.414-1.414l3.244 3.244 6.296-7.196a1 1 0 1 1 1.506 1.318l-7 8a.997.997 0 0 1-.72.34H33ZM20.014 21a1 1 0 0 1-.448-1.894l18.988-9.5A1 1 0 0 1 40 10.5V19a1 1 0 0 1-2 0v-6.882l-17.54 8.776a.994.994 0 0 1-.446.106Z" fill="#C79B67"/><path d="M18.986 40a.995.995 0 0 1-.486-.126l-17.988-10A1.004 1.004 0 0 1 0 29V10.5a1 1 0 0 1 1.446-.894l18.988 9.5a1 1 0 0 1-.894 1.79L2 12.118v16.294l17.474 9.714A1 1 0 0 1 18.986 40Z" fill="#C79B67"/><path d="M39 11.5a.994.994 0 0 1-.446-.106L19.988 2.118l-18.54 9.276a1.002 1.002 0 0 1-.896-1.788L19.54.106a1.004 1.004 0 0 1 .894 0l19.012 9.5A1 1 0 0 1 39 11.5Z" fill="#C79B67"/><path d="M10.086 23.478a1 1 0 0 1-1-1v-7.436a1 1 0 0 1 .552-.894l18.988-9.5a1 1 0 0 1 .894 1.79l-18.434 9.224v6.818a.998.998 0 0 1-1 .998Z" fill="#C79B67"/></svg>