<svg width="81" height="104" fill="none" xmlns="http://www.w3.org/2000/svg"><g filter="url(#a)" fill="#D32A34"><path d="M66 30.475c0 14.07-11.417 25.476-25.5 25.476S15 44.545 15 30.475C15 16.405 26.417 5 40.5 5S66 16.406 66 30.475Z"/><path d="M27.143 79 15 29.262l23.071 26.689L27.143 79Z"/></g><path d="M52.412 23h-9.093l-.001.01c-1.631.051-2.937 1.318-2.99 2.9l-.01.001-.01-.001c-.053-1.582-1.36-2.849-2.99-2.9l-.002-.01h-8.72a.588.588 0 0 0-.596.578v17.18c0 .134.112.242.25.242h2.497c.138 0 .25-.108.25-.242v-8.943c0-2.088 1.659-3.909 3.81-3.972 2.227-.064 4.053 1.667 4.053 3.812v9.102c0 .133.111.242.25.242h2.78c.138 0 .25-.109.25-.242v-8.944c0-2.087 1.659-3.908 3.81-3.971 2.227-.064 4.053 1.667 4.053 3.811v9.102c0 .134.112.242.25.242h2.497c.138 0 .25-.108.25-.242V23.577a.575.575 0 0 0-.588-.577Z" fill="#fff"/><path d="M43.474 19.99a3.075 3.075 0 0 1-2.964-2.988L40.5 17l-.01.002a3.074 3.074 0 0 1-2.965 2.987l-.002.011.002.01a3.074 3.074 0 0 1 2.964 2.988l.01.002.011-.002a3.075 3.075 0 0 1 2.964-2.987l.002-.011-.002-.01Z" fill="#fff"/><defs><filter id="a" x="0" y="0" width="81" height="104" filterUnits="userSpaceOnUse" color-interpolation-filters="sRGB"><feFlood flood-opacity="0" result="BackgroundImageFix"/><feColorMatrix in="SourceAlpha" values="0 0 0 0 0 0 0 0 0 0 0 0 0 0 0 0 0 0 127 0" result="hardAlpha"/><feOffset dy="10"/><feGaussianBlur stdDeviation="7.5"/><feComposite in2="hardAlpha" operator="out"/><feColorMatrix values="0 0 0 0 0 0 0 0 0 0 0 0 0 0 0 0 0 0 0.2 0"/><feBlend in2="BackgroundImageFix" result="effect1_dropShadow_1200_22362"/><feBlend in="SourceGraphic" in2="effect1_dropShadow_1200_22362" result="shape"/></filter></defs></svg>