<svg width="64" height="64" fill="none" xmlns="http://www.w3.org/2000/svg"><path d="M43.4 12h11.522c1.7 0 3.078 1.381 3.078 3.085v38.83A3.082 3.082 0 0 1 54.922 57H10.078A3.082 3.082 0 0 1 7 53.915v-38.83A3.082 3.082 0 0 1 10.079 12h21.003" stroke="#C79B67" stroke-width="2" stroke-miterlimit="10" stroke-linecap="round" stroke-linejoin="round"/><path d="M52 57 21.453 27 7 41.194M7 33l10-10.447L7.856 13M58 22 41 38.868 57.786 55c.142-.35.214-.721.214-1.096M49 22l8-8M15 12l22.323 23L47 24.831" stroke="#C79B67" stroke-width="2" stroke-miterlimit="10" stroke-linecap="round" stroke-linejoin="round"/><path d="M43 11.94C43 16.69 39.116 24 37 24c-2.232 0-6-7.712-6-12.06C31 8.658 33.686 6 37 6s6 2.659 6 5.94Z" stroke="#C79B67" stroke-width="2" stroke-miterlimit="10" stroke-linecap="round" stroke-linejoin="round"/><path d="M37 9a3 3 0 1 1 0 6 3 3 0 0 1 0-6ZM24.506 35.573A5.76 5.76 0 0 0 22 35c-3.314 0-6 2.807-6 6.27C16 45.86 19.768 54 22 54c2.116 0 6-7.717 6-12.73 0-.968-.213-1.923-.626-2.789" stroke="#C79B67" stroke-width="2" stroke-miterlimit="10" stroke-linecap="round" stroke-linejoin="round"/><path d="M22 38a3 3 0 1 1 0 6 3 3 0 0 1 0-6Z" stroke="#C79B67" stroke-width="2" stroke-miterlimit="10" stroke-linecap="round" stroke-linejoin="round"/></svg>