<svg width="60" height="64" fill="none" xmlns="http://www.w3.org/2000/svg"><path d="M34.59 29.15h-9.176a.875.875 0 0 0-.875.875v5.331a1.344 1.344 0 0 0 .55 1.082l4.396 3.2a.875.875 0 0 0 1.03 0l4.4-3.2a1.345 1.345 0 0 0 .55-1.082v-5.33a.875.875 0 0 0-.876-.876Zm-.876 6-3.712 2.7-3.713-2.7V30.9h7.425v4.25Z" fill="#C79B67"/><path d="m58.142 27.732-3.118-.697a7.11 7.11 0 0 0 4.7-7.1l-.004-.063a.875.875 0 0 0-1.105-.774l-3.819 1.052a15.654 15.654 0 0 0 3.245-12.086.875.875 0 0 0-1.503-.47L42.766 22.246a3.08 3.08 0 0 0-.561 3.438l.62 1.315a1.381 1.381 0 0 1-.745 1.847 1.835 1.835 0 0 1-1.733-.148l-1.168-.728v-1.662a.873.873 0 0 0-.875-.875h-.954l-.176-.667a7.342 7.342 0 0 1 2.5-7.585l2.192 1.414a.875.875 0 0 0 1.31-.476 4.403 4.403 0 0 0-1.757-4.988l-1.444-.973.975-2.018a.875.875 0 0 0-.787-1.256h-6.795a.862.862 0 0 0-.868.937 3.25 3.25 0 0 1-1.608-2.466h1.138a.876.876 0 0 0 .825-.584l.68-1.922a3.108 3.108 0 0 0-1.355-3.707L30.444.12a.875.875 0 0 0-.887 0L27.82 1.14a3.109 3.109 0 0 0-1.355 3.71l.678 1.924a.876.876 0 0 0 .825.584h1.138A3.25 3.25 0 0 1 27.5 9.822a.862.862 0 0 0-.866-.937h-6.796a.875.875 0 0 0-.788 1.257l.976 2.017-1.444.973a4.403 4.403 0 0 0-1.757 4.988.876.876 0 0 0 1.31.476l2.192-1.415a7.341 7.341 0 0 1 2.498 7.586l-.175.668h-.95a.875.875 0 0 0-.875.875v1.66l-1.171.73a1.835 1.835 0 0 1-1.734.15 1.382 1.382 0 0 1-.744-1.85l.62-1.315a3.081 3.081 0 0 0-.562-3.438L3.463 7.593a.87.87 0 0 0-.9-.218.9.9 0 0 0-.608.725 15.625 15.625 0 0 0 3.25 12.05l-3.82-1.053a.876.876 0 0 0-1.105.774l-.005.068a7.107 7.107 0 0 0 4.7 7.096l-3.116.697a.874.874 0 0 0-.65 1.094l.014.05a6.689 6.689 0 0 0 6.945 4.753L5.31 35.846a.875.875 0 0 0-.18 1.195 27.813 27.813 0 0 0 1.618 2.095 5.662 5.662 0 0 0 4.293 1.933c.259 0 .517-.016.774-.05l11.104-1.561.165.12-4.924 3.03a.875.875 0 0 0-.413.826l.27 2.91a1.45 1.45 0 0 1-.954 1.496l-3.58 1.282-1.074-1.228a2.834 2.834 0 1 0-1.39 1.07l1.54 1.759 1.83 2.09a.911.911 0 0 0 .831.282l4.454-.9a4.396 4.396 0 0 0 3.355-5.515l-.08-.285 2.783-.5.318.577a2.435 2.435 0 0 1-.55 3.012l-4.49 3.83a.873.873 0 0 0-.3.766c.2 1.71.835 3.339 1.847 4.731a.876.876 0 0 0 1.213.2l2.154-1.525-1.33 2.47a.874.874 0 0 0 .265 1.128c.266.189.507.346.738.481l3.961 2.316a.876.876 0 0 0 .883 0l3.962-2.316c.23-.135.471-.292.737-.48a.875.875 0 0 0 .265-1.129l-1.33-2.47 2.154 1.525a.876.876 0 0 0 1.214-.2 10.016 10.016 0 0 0 1.846-4.731.873.873 0 0 0-.3-.766l-4.49-3.83a2.434 2.434 0 0 1-.55-3.013l.318-.577 2.784.5-.08.285a4.394 4.394 0 0 0 3.354 5.514l3.64.736a4.543 4.543 0 1 0-1.958-6.184 1.436 1.436 0 0 1-.024-.4l.27-2.911a.875.875 0 0 0-.413-.825l-4.926-3.032.165-.12 11.11 1.562c.255.033.513.05.77.05a5.662 5.662 0 0 0 4.292-1.934 28.154 28.154 0 0 0 1.618-2.096.875.875 0 0 0-.18-1.194l-2.857-2.216a6.678 6.678 0 0 0 6.945-4.754l.014-.05a.875.875 0 0 0-.65-1.094Zm-20.713 7.624a3.373 3.373 0 0 1-1.36 2.673L30 42.447l-6.068-4.416a3.375 3.375 0 0 1-1.36-2.674v-8.172h14.857v8.172Zm4.157-19.023-1.472-.95a.874.874 0 0 0-.968.012 9.094 9.094 0 0 0-3.662 9.819l.058.22h-4.65a21.422 21.422 0 0 1 4.258-11.919l.136-.18h3.302l1.85 1.25a2.666 2.666 0 0 1 1.148 1.748Zm-2.82-5.697-.46.95h-2.94l-.52-.95h3.92Zm-10.65-6.37a1.356 1.356 0 0 1 .592-1.616L30 1.89l1.293.76a1.355 1.355 0 0 1 .591 1.616l-.472 1.34h-2.824l-.472-1.34ZM30 9.832a5 5 0 0 0 3.587 2.147l.223.407-.058.078A23.102 23.102 0 0 0 30 20.058a23.11 23.11 0 0 0-3.75-7.594l-.058-.078.222-.406A5 5 0 0 0 30 9.832Zm-4.845.803-.521.95h-2.94l-.46-.95h3.92Zm-4.3 4.76a.876.876 0 0 0-.968-.011l-1.472.95a2.668 2.668 0 0 1 1.145-1.75l1.85-1.25h3.303l.135.18a21.423 21.423 0 0 1 4.257 11.919h-4.65l.058-.22a9.094 9.094 0 0 0-3.658-9.818Zm-9.279 23.889A3.932 3.932 0 0 1 8.08 38c-.356-.418-.7-.849-1.027-1.29 2.409-1.868 4.99-3.874 4.99-3.874a.875.875 0 0 0-.7-1.55l-2.78.528a4.96 4.96 0 0 1-5.335-2.595L9.17 27.89a.875.875 0 0 0-.016-1.712l-2.813-.573A5.4 5.4 0 0 1 2.064 21.1l5.85 1.613a.875.875 0 0 0 .78-1.526 13.87 13.87 0 0 1-5.157-10.96l12.422 13.218a1.323 1.323 0 0 1 .253 1.494l-.62 1.316a3.128 3.128 0 0 0 1.579 4.172 3.547 3.547 0 0 0 3.408-.244l.243-.15v5.323c.01.889.245 1.76.684 2.532l-9.93 1.396Zm-2.556 7.03a1.063 1.063 0 1 1 2.126 0 1.063 1.063 0 0 1-2.126 0Zm37-.228a2.8 2.8 0 0 1 .646 5.52l.772-.883a.875.875 0 0 0-.363-1.4l-3.707-1.328a2.782 2.782 0 0 1 2.654-1.909h-.002Zm-10.634-5.395 5.074 3.122-.22 2.37a3.19 3.19 0 0 0 1.719 3.128l.007.005c.123.066.25.123.38.172l2.931 1.05-.65.742-.216-.044-3.737-.755a2.647 2.647 0 0 1-2.02-3.32L39 45.945a.876.876 0 0 0-.686-1.1l-4.355-.783a.877.877 0 0 0-.922.438l-.621 1.13a4.19 4.19 0 0 0 .95 5.186l4.122 3.517c-.167.96-.5 1.881-.988 2.724l-4.454-3.15a.875.875 0 0 0-1.276 1.128l2.714 5.043L30 62.111l-3.482-2.035 2.714-5.044a.875.875 0 0 0-1.276-1.128L23.5 57.056a8.263 8.263 0 0 1-.987-2.723l4.122-3.518a4.19 4.19 0 0 0 .948-5.187l-.62-1.128a.876.876 0 0 0-.921-.44l-4.355.784A.875.875 0 0 0 21 45.945l.347 1.215a2.646 2.646 0 0 1-2.02 3.32l-3.955.8-.65-.742 2.93-1.05a3.197 3.197 0 0 0 2.106-3.306l-.219-2.369 5.074-3.122 4.87 3.545a.875.875 0 0 0 1.03 0l4.873-3.545Zm16.053-8.877-2.78-.528a.874.874 0 0 0-.7 1.55s2.58 2.006 4.99 3.875c-.328.44-.671.87-1.028 1.288a3.923 3.923 0 0 1-3.493 1.284l-9.933-1.395a5.245 5.245 0 0 0 .684-2.532v-5.324l.243.15a3.55 3.55 0 0 0 3.408.244 3.128 3.128 0 0 0 1.578-4.173l-.62-1.315a1.322 1.322 0 0 1 .254-1.494l12.425-13.222a13.87 13.87 0 0 1-5.16 10.963.875.875 0 0 0 .78 1.526l5.856-1.615a5.404 5.404 0 0 1-4.285 4.508l-2.812.573a.874.874 0 0 0-.016 1.712l5.944 1.329a4.958 4.958 0 0 1-5.335 2.596Z" fill="#C79B67"/></svg>