<svg width="64" height="64" fill="none" xmlns="http://www.w3.org/2000/svg"><path d="M31.483 62H14.546a5.88 5.88 0 0 1-4.141-1.712 5.832 5.832 0 0 1-1.718-4.126V43.756c.082-3.273-2.968-5.633-2.666-8.99V21.36a5.832 5.832 0 0 1 1.717-4.127 5.88 5.88 0 0 1 4.143-1.713h2.986V4.715c0-.72.289-1.41.8-1.92A2.735 2.735 0 0 1 17.594 2h14.247a2.735 2.735 0 0 1 1.926.796c.51.508.798 1.197.8 1.917v4.932a.996.996 0 0 1-1.001.997h-2.448v4.877h3.03a5.88 5.88 0 0 1 4.144 1.712 5.833 5.833 0 0 1 1.718 4.128v1.68H57a1.004 1.004 0 0 1 1.001.997v20.079a.995.995 0 0 1-1.001.997H37.345v11.05a5.832 5.832 0 0 1-1.719 4.126A5.88 5.88 0 0 1 31.483 62Zm-19.6-44.486a3.873 3.873 0 0 0-2.728 1.128 3.842 3.842 0 0 0-1.131 2.717v13.407a7.231 7.231 0 0 0 1.161 3.944 9.223 9.223 0 0 1 1.506 5.046v12.406a3.84 3.84 0 0 0 1.131 2.716 3.87 3.87 0 0 0 2.726 1.127h16.937a3.872 3.872 0 0 0 2.727-1.126 3.84 3.84 0 0 0 1.132-2.717V43.756c-.308-3.407 2.744-5.683 2.666-8.99V21.36a3.842 3.842 0 0 0-1.132-2.717 3.873 3.873 0 0 0-2.728-1.128h-3.03v3.612h.701a1.003 1.003 0 0 1 1.002.997.995.995 0 0 1-1.002.997H13.998a1.004 1.004 0 0 1-1.002-.997.995.995 0 0 1 1.002-.997h.867v-3.61l-2.982-.002Zm25.492 25.604h18.624v-8.824H40.012a9.257 9.257 0 0 1-1.51 5.509 7.164 7.164 0 0 0-1.127 3.317v-.002Zm2.637-10.82H56V30.41H40.012v1.887Zm0-3.882H56v-3.383H40.012v3.383ZM16.87 21.12h12.247V4.715c0-.244.032-.486.098-.72h-11.62a.727.727 0 0 0-.725.718V21.12ZM31.12 8.648h1.445V4.715a.737.737 0 0 0-.723-.72.726.726 0 0 0-.723.718v3.935Zm-.51 48.108c-.824.002-2.122.192-2.15-.997.03-1.187 1.326-.997 2.15-.997a1.003 1.003 0 0 1 1.002.997 1.003 1.003 0 0 1-1.001.997Zm-7.04 0c-.826.002-2.123.192-2.151-.997.03-1.187 1.325-.997 2.15-.997a1.004 1.004 0 0 1 1.002.997 1.003 1.003 0 0 1-1.001.997Zm-7.21 0c-.827.002-2.123.192-2.153-.997.03-1.187 1.328-.997 2.153-.997a1.003 1.003 0 0 1 1.001.997 1.003 1.003 0 0 1-1.001.997Zm14.25-3.644c-.824 0-2.122.192-2.15-.997.03-1.189 1.326-.997 2.15-.997a1.003 1.003 0 0 1 1.002.997.995.995 0 0 1-1.001.997Zm-7.04 0c-.826 0-2.123.192-2.151-.997.03-1.189 1.325-.997 2.15-.997a1.004 1.004 0 0 1 1.002.997.995.995 0 0 1-1.002.997Zm-7.21 0c-.827 0-2.123.192-2.153-.997.03-1.189 1.328-.997 2.153-.997a1.003 1.003 0 0 1 1.001.997.995.995 0 0 1-1.001.997Zm14.25-3.644c-.824 0-2.122.192-2.15-.997.03-1.189 1.326-1 2.15-.997a1.003 1.003 0 0 1 1.002.997.995.995 0 0 1-1.001.997Zm-7.04 0c-.826 0-2.123.192-2.151-.997.03-1.189 1.325-1 2.15-.997a1.004 1.004 0 0 1 1.002.997.995.995 0 0 1-1.002.997Zm-7.21 0c-.827 0-2.123.192-2.153-.997.03-1.189 1.328-1 2.153-.997a1.003 1.003 0 0 1 1.001.997.995.995 0 0 1-1.001.997Zm14.249-3.646c-.825 0-2.123.19-2.151-.997.03-1.189 1.326-1 2.15-.997a1.003 1.003 0 0 1 1.002.997.995.995 0 0 1-1.001.997Zm-7.042 0c-.825 0-2.122.19-2.15-.997.03-1.189 1.325-1 2.15-.997a1.003 1.003 0 0 1 1.002.997.995.995 0 0 1-1.002.997Zm-7.21 0c-.826 0-2.122.19-2.152-.997.03-1.189 1.328-1 2.153-.997a1.003 1.003 0 0 1 1.001.997.995.995 0 0 1-1.001.997Zm13.677-4.49a2.792 2.792 0 0 1-1.97-.812 2.769 2.769 0 0 1 0-3.924 2.792 2.792 0 0 1 3.94 0 2.769 2.769 0 0 1 0 3.924 2.791 2.791 0 0 1-1.97.813Zm0-3.554a.785.785 0 0 0-.783.78.778.778 0 0 0 .783.78.784.784 0 0 0 .783-.78.778.778 0 0 0-.783-.78Zm-7.041 3.555a2.791 2.791 0 0 1-1.97-.813 2.769 2.769 0 0 1 0-3.924 2.791 2.791 0 0 1 3.94 0 2.769 2.769 0 0 1 0 3.924 2.791 2.791 0 0 1-1.97.813Zm0-3.555a.785.785 0 0 0-.783.78.778.778 0 0 0 .783.78.785.785 0 0 0 .783-.78.779.779 0 0 0-.783-.78Zm-7.21 3.555a2.791 2.791 0 0 1-1.97-.813 2.768 2.768 0 0 1 0-3.924 2.791 2.791 0 0 1 3.94 0 2.769 2.769 0 0 1 0 3.924 2.791 2.791 0 0 1-1.97.813Zm0-3.555a.785.785 0 0 0-.783.78.778.778 0 0 0 .783.78.784.784 0 0 0 .783-.78.778.778 0 0 0-.783-.78Zm17.045-3.999H13.159c-.46 0-.9-.182-1.225-.506a1.724 1.724 0 0 1-.508-1.22v-4.285c.001-.457.184-.896.509-1.219a1.738 1.738 0 0 1 1.224-.505h19.67c.458 0 .898.183 1.222.506.325.323.507.76.508 1.218v4.288c0 .457-.183.895-.508 1.218a1.74 1.74 0 0 1-1.224.505Zm-19.4-1.994h19.127v-3.746H13.43l-.002 3.746Z" fill="#C79B67"/></svg>