<svg width="34" height="34" fill="none" xmlns="http://www.w3.org/2000/svg"><path d="m17.007 11-1.832 2.85c-.411.629-.069 1.15.736 1.15h2.175c.822 0 1.147.521.736 1.15L17.007 19" stroke="#B4864F" stroke-width="2" stroke-linecap="round" stroke-linejoin="round"/><path d="M11.842 25.658V24.02C8.635 22.057 6 18.23 6 14.163c0-6.991 6.344-12.47 13.51-10.889 3.151.706 5.912 2.825 7.348 5.748 2.914 5.931-.153 12.23-4.657 14.984v1.638c0 .41.154 1.356-1.338 1.356H13.18c-1.534.014-1.339-.593-1.339-1.342ZM12 31c3.271-1.333 6.729-1.333 10 0" stroke="#B4864F" stroke-width="2" stroke-linecap="round" stroke-linejoin="round"/></svg>