<svg width="64" height="64" fill="none" xmlns="http://www.w3.org/2000/svg"><g clip-path="url(#a)" fill="#C79B67"><path fill-rule="evenodd" clip-rule="evenodd" d="M9.55 54.45c12.398 12.4 32.501 12.4 44.9 0C65.38 43.523 66.675 26.61 58.338 14.26a1 1 0 0 0-1.657 1.12c7.81 11.57 6.594 27.418-3.645 37.657-11.618 11.617-30.455 11.617-42.072 0-11.618-11.618-11.618-30.455 0-42.073C21.33.598 37.445-.52 49.049 7.615a1 1 0 0 0 1.149-1.637C37.813-2.706 20.614-1.515 9.549 9.55l.707.707-.707-.707c-12.399 12.399-12.399 32.502 0 44.9l.707-.706-.707.707Z"/><path fill-rule="evenodd" clip-rule="evenodd" d="M6.188 32c0 14.234 11.578 25.813 25.812 25.813 14.234 0 25.812-11.58 25.812-25.813C57.812 17.766 46.234 6.188 32 6.188 17.766 6.188 6.187 17.766 6.187 32ZM32 55.813C18.87 55.813 8.187 45.129 8.187 32 8.188 18.87 18.871 8.188 32 8.188 45.13 8.188 55.812 18.87 55.812 32c0 13.13-10.683 23.813-23.812 23.813Z"/><path fill-rule="evenodd" clip-rule="evenodd" d="M27.875 32a4.125 4.125 0 1 0 8.25 0 4.125 4.125 0 0 0-8.25 0ZM32 34.125a2.125 2.125 0 1 1 0-4.25 2.125 2.125 0 0 1 0 4.25Z"/><path fill-rule="evenodd" clip-rule="evenodd" d="M32 29.875a1 1 0 0 0 1-1V18.75a1 1 0 1 0-2 0v10.125a1 1 0 0 0 1 1ZM39.78 39.778a1 1 0 0 0 0-1.414l-4.862-4.861a1 1 0 0 0-1.414 1.414l4.861 4.861a1 1 0 0 0 1.414 0ZM32 14.517a1 1 0 0 0 1-1v-1.265a1 1 0 1 0-2 0v1.265a1 1 0 0 0 1 1ZM23.258 16.86a1 1 0 0 0 .366-1.366l-.633-1.097a1 1 0 1 0-1.732 1l.633 1.097a1 1 0 0 0 1.366.366ZM16.857 23.259a1 1 0 0 0-.366-1.366l-1.096-.633a1 1 0 0 0-1 1.732l1.096.633a1 1 0 0 0 1.366-.366ZM11.25 32a1 1 0 0 0 1 1h1.266a1 1 0 1 0 0-2H12.25a1 1 0 0 0-1 1ZM14.029 42.374a1 1 0 0 0 1.366.367l1.096-.633a1 1 0 0 0-1-1.732l-1.096.633a1 1 0 0 0-.366 1.365ZM21.625 49.97a1 1 0 0 0 1.366-.367l.633-1.096a1 1 0 0 0-1.732-1l-.633 1.096a1 1 0 0 0 .366 1.366ZM32 52.749a1 1 0 0 0 1-1v-1.266a1 1 0 1 0-2 0v1.266a1 1 0 0 0 1 1ZM42.375 49.97a1 1 0 0 0 .366-1.367l-.633-1.096a1 1 0 0 0-1.732 1l.633 1.096a1 1 0 0 0 1.366.366ZM49.967 42.374a1 1 0 0 0-.367-1.366l-1.096-.632a1 1 0 1 0-1 1.732l1.096.633a1 1 0 0 0 1.367-.367ZM49.484 32a1 1 0 0 0 1 1h1.266a1 1 0 1 0 0-2h-1.266a1 1 0 0 0-1 1ZM47.138 23.259a1 1 0 0 0 1.366.366l1.096-.633a1 1 0 1 0-1-1.732l-1.096.633a1 1 0 0 0-.366 1.366ZM40.742 16.86a1 1 0 0 0 1.366-.366l.633-1.097a1 1 0 0 0-1.732-1l-.633 1.097a1 1 0 0 0 .366 1.366Z"/><path d="M54.765 9.61a1.249 1.249 0 1 1-1.767 1.767 1.249 1.249 0 0 1 1.767-1.766Z"/></g><defs><clipPath id="a"><path fill="#fff" d="M0 0h64v64H0z"/></clipPath></defs></svg>