<svg width="64" height="64" fill="none" xmlns="http://www.w3.org/2000/svg"><path d="M58.961 8.35A1.039 1.039 0 0 0 60 7.31V4.039A1.04 1.04 0 0 0 58.961 3H15.943a1.04 1.04 0 0 0-1.04 1.039v45.018a1.039 1.039 0 0 0 1.04 1.04H58.96A1.04 1.04 0 0 0 60 49.056V10.773a1.04 1.04 0 0 0-2.078 0v15.802h-4.127a1.04 1.04 0 0 0 0 2.078h4.127v19.365H30.236v-5.027a1.04 1.04 0 0 0-2.078 0v5.027H16.982V5.078h11.176V35.51a1.039 1.039 0 0 0 2.078 0v-6.857H48.73a1.039 1.039 0 1 0 0-2.078H30.236V5.078h27.686V7.31a1.04 1.04 0 0 0 1.039 1.04Zm-47.183.646L8.35 3.49a1.04 1.04 0 0 0-1.764 0L3.157 8.996a1.039 1.039 0 0 0 .882 1.589h2.39v4.344c.004.273.115-1.466.31-1.275a1.04 1.04 0 0 0 1.458 0c.194-.191.306 1.548.31 1.275v-4.344h2.39a1.04 1.04 0 0 0 .881-1.589Zm-5.868-.49 1.558-2.501 1.557 2.502H5.91Zm5.895 32.54a1.039 1.039 0 0 0-.909-.534h-2.39V15.7a1.04 1.04 0 0 0-2.077 0v24.812h-2.39a1.04 1.04 0 0 0-.882 1.588l3.429 5.506a1.039 1.039 0 0 0 1.764 0l3.428-5.506a1.038 1.038 0 0 0 .027-1.054Zm-4.337 4.046L5.91 42.59h3.115l-1.557 2.502ZM59.51 56.65l-5.506-3.428a1.04 1.04 0 0 0-1.588.882v2.39H22.488v-2.39a1.039 1.039 0 0 0-1.588-.882l-5.506 3.428a1.038 1.038 0 0 0 0 1.764l5.506 3.429a1.04 1.04 0 0 0 1.588-.882v-2.39h29.927v2.39a1.04 1.04 0 0 0 1.589.882l5.506-3.429a1.04 1.04 0 0 0 0-1.764Zm-39.1 2.44-2.502-1.558 2.502-1.557v3.115Zm34.084 0v-3.115l2.501 1.557-2.502 1.558Z" fill="#C79B67"/></svg>