<svg width="62" height="64" fill="none" xmlns="http://www.w3.org/2000/svg"><path d="M50 6.781C45.375 3.088 39.529.914 33.214 1.003 18.951 1.203 7.4 12.8 7 27.227a.748.748 0 0 0 .742.773H22.97M27 28.271h6.594L52.425 46.78c.304.298.8.293 1.094-.014 4.733-4.924 7.596-11.6 7.477-18.934-.111-6.88-2.868-13.131-7.298-17.832" stroke="#C79B67" stroke-width="2" stroke-miterlimit="10" stroke-linecap="round" stroke-linejoin="round"/><path d="M28 33.752v25.495a.752.752 0 0 1-.771.753C12.925 59.599 1.401 48.075 1 33.772A.753.753 0 0 1 1.753 33h25.495a.752.752 0 0 1 .752.752Z" stroke="#C79B67" stroke-width="2" stroke-miterlimit="10" stroke-linecap="round" stroke-linejoin="round" stroke-dasharray="12 36"/><path d="m42.025 44.328-6.794-7.106c-.454-.475-1.231-.138-1.231.534v24.489c0 .424.334.767.74.755 6.59-.194 12.565-2.964 17.036-7.381a.778.778 0 0 0 .012-1.08l-6.859-7.174M18 47.5a1.5 1.5 0 1 1 3 0 1.5 1.5 0 0 1-3 0ZM12 41.5a1.5 1.5 0 1 1 3 0 1.5 1.5 0 0 1-3 0ZM13 48l7-7M29 18H19M30 21H19" stroke="#C79B67" stroke-width="2" stroke-miterlimit="10" stroke-linecap="round" stroke-linejoin="round"/></svg>