<svg width="64" height="64" fill="none" xmlns="http://www.w3.org/2000/svg"><path d="m2.132 7.5 3.999 6.996a.999.999 0 0 0 .624.474l3.73.933L23.28 28.697l1.414-1.414L11.699 14.29a.998.998 0 0 0-.464-.263l-3.584-.899-3.404-5.96 2.918-2.92 5.963 3.408.9 3.585a.997.997 0 0 0 .263.464L27.285 24.7l1.414-1.414-12.795-12.794-.932-3.728a1 1 0 0 0-.474-.626L7.501 2.139a1 1 0 0 0-1.2.16l-3.998 4a1 1 0 0 0-.171 1.2ZM43.69 21.7 21.7 43.69l-1.414-1.414 21.99-21.99L43.69 21.7ZM17.85 44.468a.999.999 0 0 0-.856-.485h-5.998a1 1 0 0 0-.856.485l-3 4.997a1 1 0 0 0 0 1.03l3 4.997a1 1 0 0 0 .856.485h5.998a1 1 0 0 0 .856-.485l2.999-4.997a1 1 0 0 0 0-1.03l-2.998-4.998Zm-1.422 9.51h-4.866L9.163 49.98l2.4-3.998h4.865l2.4 3.998-2.4 3.998Z" fill="#C79B67"/><path d="M49.98 25.991c6.601.022 11.972-5.312 11.994-11.913a11.956 11.956 0 0 0-.367-2.98 1 1 0 0 0-1.676-.466l-6.223 6.218-4.937-1.645-1.646-4.936 6.222-6.223a1 1 0 0 0-.468-1.677C46.476.748 39.972 4.623 38.35 11.025c-.246.97-.37 1.97-.366 2.971.002.787.083 1.572.243 2.342l-21.891 21.89c-.77-.159-1.555-.24-2.342-.243C7.37 37.985 2 43.355 2 49.98c0 6.624 5.37 11.994 11.995 11.994 6.625 0 11.995-5.37 11.995-11.994a11.76 11.76 0 0 0-.243-2.342l5.24-5.24 2.293 2.291a1 1 0 0 0 1.413 0l.5-.5a1.125 1.125 0 0 1 1.585 0 1.12 1.12 0 0 1 .002 1.584l-.502.501a1 1 0 0 0 0 1.414L48.202 59.61a8.068 8.068 0 0 0 11.46-11.357l-.05-.052L47.687 36.28a1 1 0 0 0-1.414 0l-.5.5a1.125 1.125 0 0 1-1.585 0 1.12 1.12 0 0 1-.002-1.583l.002-.002.5-.5a1 1 0 0 0 0-1.413l-2.292-2.292 5.24-5.241c.771.16 1.556.24 2.343.243Zm3.927 33.984a6.074 6.074 0 0 1-2.126-.387l7.807-7.807a6.061 6.061 0 0 1-5.681 8.194ZM42.583 33.997a3.12 3.12 0 0 0 4.398 4.392l11.217 11.227c.122.122.236.25.346.382l-8.546 8.546a5.847 5.847 0 0 1-.383-.346L38.39 46.97a3.12 3.12 0 0 0-4.398-4.392l-1.599-1.599 8.591-8.578 1.6 1.595Zm4.036-10.053-22.675 22.67a1 1 0 0 0-.264.95c1.37 5.386-1.883 10.863-7.27 12.234-5.385 1.371-10.862-1.883-12.234-7.269-1.37-5.385 1.884-10.862 7.27-12.234a10.068 10.068 0 0 1 4.965 0 1.01 1.01 0 0 0 .95-.263L40.03 17.36a.999.999 0 0 0 .263-.95c-1.362-5.322 1.848-10.74 7.17-12.103a9.954 9.954 0 0 1 3.083-.29l-5.273 5.274a.999.999 0 0 0-.241 1.022l1.999 5.998a.999.999 0 0 0 .632.631l5.998 2a1 1 0 0 0 1.022-.242l5.273-5.272c.012.189.018.378.018.567.028 5.492-4.401 9.967-9.894 9.996a9.962 9.962 0 0 1-2.517-.311 1 1 0 0 0-.95.263h.005Z" fill="#C79B67"/><path d="m53.686 52.272-1.414 1.413-9.995-9.995 1.413-1.414 9.996 9.995Z" fill="#C79B67"/></svg>