<svg width="63" height="47" fill="none" xmlns="http://www.w3.org/2000/svg"><path d="m25.559 1-3.4 3.442m-10.352.002L8.407 1M42.3 36.897l1.401 3.688c.805 2.117 3.765 2.117 4.57 0l1.401-3.69m-7.372.002v-.001c-4.61-.944-8.675-3.745-10.801-8.035m10.801 8.036c2.41.495 4.976.493 7.372-.001m0 0v-.002c3.052-.624 5.91-2.076 8.119-4.299M53.38 8.592v3.013c0 3.445 2.76 6.239 6.162 6.239h1.868m0 0c-1.895-6.618-8.122-10.846-15.428-10.846-2.665 0-5.179.561-7.39 1.592m22.818 9.254c.383 1.338.589 2.774.589 4.29 0 2.577-.594 4.925-1.651 6.961M38.593 8.59v3.015c0 3.445-2.758 6.239-6.162 6.239h-.086m6.248-9.254c-3.137 1.46-5.666 3.863-7.156 6.943m22.242 6.426v1.497m-15.391-1.497v1.497m1.153 12.583-.002.002a11.921 11.921 0 0 0-5.2 9.876h23.497c0-4.115-2.065-7.741-5.201-9.877l-.002-.001M31.437 15.533c.998 2.002 1.536 4.286 1.536 6.728 0 8.984-7.201 15.106-15.986 15.106m14.45-21.834c-2.161-4.349-6.296-7.127-10.91-8.036m2.344 15.931c0-.948.76-1.718 1.697-1.718s1.696.77 1.696 1.718m-15.163 0c0-.948-.759-1.718-1.697-1.718-.936 0-1.695.77-1.695 1.718m11.077 2.008a2.366 2.366 0 0 1-3.598 0m-13.763-6.84A15.644 15.644 0 0 0 1 22.261c0 9.011 7.233 15.106 15.987 15.106M1.425 18.597c1.162-4.838 4.611-8.506 9.166-10.273M1.425 18.596l10.085-1.891c4.638-.87 8.13-4.64 8.787-9.252m-3.31 29.914 1.082 2.488c.744 1.71 2.82 2.35 4.38 1.345l3.809-2.454m-9.271-1.379-1.083 2.488c-.745 1.71-2.821 2.35-4.379 1.345L7.71 38.742M20.527 7.497a6.475 6.475 0 0 0-.23-.044m.23.044c.673 4.592 4.158 8.34 8.78 9.208l2.844.532M20.297 7.453c-3.127-.577-6.587-.341-9.706.871m0 0v.009m0-.009-.001-.082c0-3.574 2.864-6.472 6.393-6.472 3.547 0 6.392 2.913 6.392 6.472l-.001.08v.01m.14 27.814A11.893 11.893 0 0 1 28.702 46H13.257m-4.311 0H5.263c0-4.038 2.006-7.69 5.189-9.854m35.535-9.806s2.115-1.43 3.415.562c1.297 1.99 2.484 2.102 2.484 2.102s-2.851 3.537-5.899 1.06c-3.047 2.477-5.899-1.06-5.899-1.06s1.188-.112 2.486-2.102c1.299-1.991 3.413-.562 3.413-.562Z" stroke="#C79B67" stroke-width="2" stroke-miterlimit="10" stroke-linecap="round" stroke-linejoin="round"/></svg>