<svg width="380" height="163" fill="none" xmlns="http://www.w3.org/2000/svg"><path d="M.5 21.6c0-4.51 0-7.854.284-10.465.281-2.601.839-4.417 1.912-5.895A11.5 11.5 0 0 1 5.24 2.696c1.478-1.073 3.294-1.63 5.895-1.912C13.746.5 17.09.5 21.6.5h336.8c4.511 0 7.854 0 10.465.284 2.601.281 4.417.839 5.895 1.912a11.52 11.52 0 0 1 2.544 2.544c1.073 1.478 1.631 3.294 1.912 5.895.283 2.611.284 5.954.284 10.465v102.8c0 4.511-.001 7.854-.284 10.465-.281 2.601-.839 4.417-1.912 5.895a11.54 11.54 0 0 1-2.544 2.544c-1.478 1.073-3.294 1.631-5.895 1.912-2.611.283-5.954.284-10.465.284H69.354c-4.637 0-7.106 0-9.314.869-.728.287-1.427.641-2.089 1.058-2.007 1.266-3.467 3.257-6.21 6.996l-.077.105-.224.306c-1.763 2.404-3.06 4.17-4.203 5.395-1.14 1.221-2.069 1.84-3.076 2.031a5.527 5.527 0 0 1-2.052 0c-1.007-.191-1.936-.81-3.075-2.031-1.143-1.225-2.44-2.991-4.204-5.395l-1.182-1.611-.05-.07c-1.827-2.49-2.8-3.815-4.014-4.813a12.497 12.497 0 0 0-4.838-2.45c-1.523-.39-3.167-.39-6.255-.39h-.086c-2.993 0-5.211 0-6.974-.129-1.757-.127-3.021-.381-4.112-.867a11.498 11.498 0 0 1-5.823-5.823c-.486-1.091-.74-2.355-.867-4.113C.5 132.806.5 130.588.5 127.595V21.6Z" fill="#fff" stroke="#EFEFEF"/></svg>