<svg width="60" height="60" fill="none" xmlns="http://www.w3.org/2000/svg"><path d="M60 5.958a3.034 3.034 0 0 0-.9-2.17L56.212.9a3.034 3.034 0 0 0-2.16-.9h-.01A3.006 3.006 0 0 0 51.9.9L38.8 14H13V3a3 3 0 0 0-3-3H8a8.009 8.009 0 0 0-8 8v44.25A8.218 8.218 0 0 0 8.29 60H57a3 3 0 0 0 3-3V17a3 3 0 0 0-3-3h-3.8l5.9-5.9a3.014 3.014 0 0 0 .9-2.142ZM35.78 25a.667.667 0 0 1-.572-.2.692.692 0 0 1-.2-.564l.379-3.4c.016-.071.036-.141.06-.21l3.939 3.939c-.065.014-.124.046-.192.054l-3.414.38Zm5.239-1.633-4.376-4.377 10.9-10.9 4.374 4.373-10.898 10.904Zm7.934-16.692 1.483-1.482 4.372 4.373-1.482 1.483-4.373-4.374ZM2 8a6.006 6.006 0 0 1 6-6h2a1 1 0 0 1 1 1v40a1 1 0 0 1-1 1H8a7.983 7.983 0 0 0-6 2.714V8Zm55 8a1 1 0 0 1 1 1v40a1 1 0 0 1-1 1H8.29A6.2 6.2 0 0 1 2 52.22V52a6.006 6.006 0 0 1 6-6h2a3 3 0 0 0 3-3V16h23.8l-2.271 2.27a3.863 3.863 0 0 0-1.13 2.335l-.378 3.407c-.031.332 0 .667.093.988H16a1 1 0 0 0 0 2h3v27a1 1 0 1 0 2 0V40h11v8h-7a1 1 0 0 0 0 2h20a2 2 0 0 0 2-2V33a1 1 0 1 0-2 0v5H21V27h14.708c.097 0 .195-.005.292-.016l3.417-.389a3.915 3.915 0 0 0 2.3-1.095l9.488-9.5H57ZM45 40v8H34v-8h11ZM57.69 6.682 56.222 8.15 51.85 3.779l1.469-1.469a1.027 1.027 0 0 1 1.476.004L57.687 5.2a1.05 1.05 0 0 1 .232 1.148c-.054.125-.132.239-.23.334Z" fill="#C79B67"/></svg>