<svg width="64" height="64" fill="none" xmlns="http://www.w3.org/2000/svg"><path d="M20.2 55.83c-1.82 0-3.04-.37-3.08-.39a.898.898 0 0 1-.42-.27L2.02 39.48a.994.994 0 0 1-.11-1.22c.25-.38.72-.56 1.15-.42.38.12 9.34 2.79 14.3-9.28 5.52-13.45 16.53-16.24 17-16.36.31-.08.65.01.89.22L51.27 26.5c.27.23.39.59.32.94s-.32.64-.65.75c-.12.04-11.9 4.29-17.05 16.82-3.8 9.28-9.99 10.82-13.69 10.82Zm-2.23-2.22c1.49.38 9.5 1.8 14.07-9.35 4.41-10.74 13.15-15.69 16.7-17.31L34.35 14.3c-2.11.69-10.65 4.1-15.14 15.03-3.86 9.39-10.12 10.84-13.84 10.8l12.6 13.48Z" fill="#C79B67"/><path d="M19.559 59.98c-1.05 0-1.7-.09-1.73-.1-.22-.04-.42-.14-.57-.3l-14.69-15.7a.994.994 0 0 1-.11-1.22.98.98 0 0 1 1.15-.41c.01 0 1.44.44 3.45.26.1-.01.19 0 .29.02.54.11.9.64.79 1.18-.09.47-.5.8-.96.8-.44.04-.85.05-1.23.05l12.53 13.39c1.95.2 11.66.58 16.26-10.61.24-.57.48-1.12.74-1.66.24-.5.83-.71 1.33-.48.5.24.71.83.48 1.33-.24.51-.47 1.03-.7 1.57-4.41 10.68-13.28 11.88-17.03 11.88Zm20.18-18.53a1.003 1.003 0 0 1-.8-1.6c3.81-5.08 8.06-7.51 10.32-8.53l-2.24-1.97c-.42-.36-.46-1-.09-1.41.36-.42 1-.46 1.41-.09l3.48 3.06a.995.995 0 0 1 .074 1.437.993.993 0 0 1-.454.273c-.06.02-5.92 1.8-10.9 8.44-.19.25-.49.39-.8.39Zm-22.9-8.54a1.004 1.004 0 0 1-.98-1.24c.13-.53.07-.43-.31-.91-.4-.51-1.57-1.38-4.9-1.55-7.77-.4-8.2-5.71-8.2-5.77-.02-.29.09-.58.3-.78.21-.2.49-.3.79-.28l.9.08c-1.21-1.02-2.01-2.19-2.38-3.48-.83-2.9.86-5.28.93-5.38a1 1 0 0 1 1.3-.29l.69.38c-.47-1.1-.69-2.22-.65-3.35.13-3.63 2.88-6 3-6.1.31-.26.75-.31 1.11-.12.34.19.55.57.52.98-.18 2.04 2.63 4.18 5.34 6.25 3.36 2.57 6.84 5.22 5.64 8.54-1.51 4.19.12 5.45.19 5.5.43.32.55.94.24 1.38-.31.44-.9.57-1.35.28-.12-.08-3.04-2.06-.96-7.84.7-1.95-2.18-4.15-4.97-6.28-2.33-1.78-4.73-3.61-5.69-5.71-.53.81-1.04 1.92-1.08 3.21-.06 1.87.87 3.75 2.75 5.59.36.35.4.91.1 1.31-.3.4-.85.52-1.29.28l-3.68-2.05c-.28.69-.55 1.75-.21 2.89.52 1.77 2.29 3.28 5.25 4.48.46.19.71.68.6 1.16-.12.48-.57.79-1.06.76l-3.89-.35c.63 1.07 2.16 2.51 5.88 2.7 3.22.16 5.39.97 6.44 2.4.9 1.22.64 2.41.6 2.54a.99.99 0 0 1-.97.77Z" fill="#C79B67"/><path d="M44.568 55.99c-1.66 0-4.99-.72-7.1-6.01-1.21-3.05-2.43-3.87-3.05-4.09-.65-.23-1.1.02-1.12.03-.47.27-1.08.12-1.36-.34a.991.991 0 0 1 .3-1.35c.12-.08 1.22-.75 2.74-.26 1.71.55 3.17 2.32 4.34 5.27 1.38 3.46 3.22 4.45 4.45 4.7l-1.58-3.57c-.2-.45-.04-.98.38-1.25.42-.26.97-.18 1.29.19 2.1 2.43 4.07 3.62 5.96 3.53 1.18-.06 2.09-.65 2.65-1.13l-3.13-2.83a1 1 0 0 1 1.13-1.63c2.35 1.2 4.43 1.47 6.18.81 1.21-.45 2.09-1.29 2.69-2.05-2.3-.24-4.8-1.92-7.24-3.56-2.91-1.96-5.92-3.98-7.54-2.69-3.9 3.1-7.7 1.26-9.17-.14a.998.998 0 0 1 1.38-1.44c.31.29 3.12 2.76 6.54.02 2.76-2.2 6.39.24 9.9 2.6 2.83 1.9 5.76 3.88 7.63 3.05.37-.16.8-.09 1.1.19.29.28.39.71.24 1.09-.06.14-1.42 3.51-4.81 4.8a7.7 7.7 0 0 1-3.39.46l.58.53c.38.34.44.91.14 1.32-.07.1-1.78 2.46-4.79 2.61-1.34.06-2.7-.32-4.06-1.14l.37.82a1.002 1.002 0 0 1-.65 1.37c-.01 0-.4.09-1 .09Zm-9.94-37.81c-3.37 0-5.74-1.71-5.87-1.81-.44-.33-.54-.95-.21-1.4.33-.44.95-.54 1.4-.21.15.11 3.64 2.58 7.93.74.5-.22 1.09.01 1.31.52.22.51-.01 1.1-.52 1.31-1.44.62-2.81.85-4.04.85ZM45.298 31c-.36 0-.71-.2-.89-.54-1.78-3.43.07-6.5 1.29-7.65a.987.987 0 0 1 1.41.05c.38.4.36 1.03-.04 1.41-.1.1-2.4 2.35-.89 5.27.25.49.06 1.09-.43 1.35-.14.08-.29.11-.45.11Zm-20.54 23.96c-.23 0-.46-.08-.65-.24-4.04-3.48-9.28-2.35-9.34-2.33-.54.12-1.07-.22-1.2-.75-.12-.54.21-1.07.75-1.2.25-.06 6.27-1.39 11.09 2.77a.996.996 0 0 1-.65 1.75ZM7.298 44.67a1 1 0 0 1-.13-1.99c4.28-.58 4.06-5.32 4.05-5.52a.996.996 0 0 1 .94-1.05.978.978 0 0 1 1.05.94c.13 2.35-.91 6.96-5.78 7.62-.04-.01-.08 0-.13 0Zm25.25-14.23c-.17 0-.34-.01-.51-.04a2.933 2.933 0 0 1-2.38-3.39c.14-.77.56-1.44 1.21-1.89.64-.45 1.42-.62 2.19-.49 1.59.28 2.66 1.8 2.38 3.39a2.944 2.944 0 0 1-2.89 2.42Zm0-3.86a.928.928 0 0 0-.91.77c-.09.5.25.99.75 1.08.24.04.49-.01.69-.15.2-.14.34-.36.38-.6.09-.5-.25-.99-.75-1.08-.05-.02-.11-.02-.16-.02Zm-12.38 18.56c-.17 0-.34-.01-.51-.04a2.933 2.933 0 0 1-2.38-3.39c.14-.77.56-1.44 1.21-1.89.64-.45 1.42-.62 2.19-.49 1.59.28 2.66 1.8 2.38 3.39a2.95 2.95 0 0 1-2.89 2.42Zm-.01-3.86a.928.928 0 0 0-.91.77c-.09.51.25.99.75 1.08.24.05.49-.01.69-.15.2-.14.34-.36.38-.6.09-.5-.25-.99-.75-1.08-.05-.02-.1-.02-.16-.02Z" fill="#C79B67"/><path fill-rule="evenodd" clip-rule="evenodd" d="M26.5 38.5a3.5 3.5 0 1 0 0-7 3.5 3.5 0 0 0 0 7Zm0 2a5.5 5.5 0 1 0 0-11 5.5 5.5 0 0 0 0 11Z" fill="#C79B67"/></svg>