<svg width="64" height="64" fill="none" xmlns="http://www.w3.org/2000/svg"><g clip-path="url(#a)"><path d="m52.641 38.444 7.756-9.583c1.419-1.753.174-4.37-2.077-4.37h-7.57c-1.851 0-3.143-1.838-2.52-3.584l5.824-16.323C54.677 2.837 53.385 1 51.534 1H36.5a2.672 2.672 0 0 0-2.525 1.796M23.96 31.502c-.608 1.743.683 3.566 2.525 3.566h8.354c1.78 0 3.063 1.71 2.57 3.423l-6.558 22.79c-.403 1.403 1.407 2.35 2.325 1.215L49.49 42.337M28.567 10.67l-4.464 10.66M11.26 9.59H6.42m4.84 6.524H4m7.26 6.525H6.42M24.17 12.47c0 1.269-.883 2.297-1.972 2.297-1.09 0-1.973-1.028-1.973-2.297 0-1.269.883-2.297 1.973-2.297S24.17 11.2 24.17 12.47Zm8.13 7.289c0 1.269-.882 2.297-1.972 2.297-1.09 0-1.973-1.028-1.973-2.297 0-1.269.884-2.297 1.973-2.297 1.09 0 1.973 1.028 1.973 2.297Zm-17.005-3.645c0-6.07 4.91-10.991 10.968-10.991s10.968 4.921 10.968 10.991c0 6.07-4.91 10.992-10.968 10.992s-10.968-4.921-10.968-10.992Z" stroke="#C79B67" stroke-width="2" stroke-miterlimit="10" stroke-linecap="round" stroke-linejoin="round"/></g><defs><clipPath id="a"><path fill="#fff" d="M0 0h64v64H0z"/></clipPath></defs></svg>