<svg width="64" height="64" fill="none" xmlns="http://www.w3.org/2000/svg"><g clip-path="url(#a)"><path d="M10.834 22.545c-.666-.014-1.364-.021-2.096-.021-2.873 0-5.217.116-7.23.305a.63.63 0 0 0-.57.629V49.08c0 .373.32.663.69.629 1.986-.183 4.295-.294 7.11-.294 15.282 0 15.647 3.276 30.217 3.434m14.029-11.221v9.563a.632.632 0 0 1-.514.622c-2.435.462-5.221.846-9.125.985M4.73 34.244v-4.799a3.127 3.127 0 0 0 3.1-3.125 88.918 88.918 0 0 1 3.045.02m38.317 15.394v3.98a3.129 3.129 0 0 0-2.877 3.115c-1.74.144-3.783.232-6.266.232-7.416 0-11.022-.792-14.841-1.63-4.046-.89-8.23-1.808-16.47-1.808-.29 0-.576 0-.86.003a3.124 3.124 0 0 0-3.148-3.125v-3.87m28.585 1.092c-.516 4.421-3.165 7.976-6.355 7.976-3.56 0-6.445-4.38-6.445-9.552m6.24-3.542c3.504.348 6.044.906 8.533 1.453 3.818.838 7.425 1.63 14.84 1.63 2.483 0 4.526-.088 6.267-.232a3.127 3.127 0 0 1 2.875-3.115v-13.02a3.122 3.122 0 0 1-3.326-3.12 87.295 87.295 0 0 1-5.817.182c-8.238 0-12.422-.92-16.467-1.808-3.819-.839-7.426-1.631-14.842-1.631-.308 0-.61.001-.91.004a3.126 3.126 0 0 1-3.1 3.125v13.056a3.124 3.124 0 0 1 3.148 3.125 97.842 97.842 0 0 1 4.433.06m21.083-6.955c-.207 4.912-3.007 8.975-6.432 8.975-3.56 0-6.446-4.389-6.446-9.56s2.886-9.41 6.446-9.41c2.627 0 4.886 2.307 5.89 5.595m6.506 4.918h3.883m-32.559-3.28h3.883m37.674-11.006c-3.02.562-6.61 1-12.19 1-15.653 0-15.653-3.44-31.31-3.44-2.872 0-5.217.115-7.228.304a.633.633 0 0 0-.572.63v25.621c0 .374.32.664.69.63 1.986-.182 4.295-.293 7.11-.293 15.657 0 15.657 3.438 31.31 3.438 5.723 0 9.353-.46 12.422-1.04a.632.632 0 0 0 .514-.622V14.214a.632.632 0 0 0-.746-.623Z" stroke="#C79B67" stroke-width="2" stroke-miterlimit="10" stroke-linecap="round" stroke-linejoin="round"/></g><defs><clipPath id="a"><path fill="#fff" d="M0 0h64v64H0z"/></clipPath></defs></svg>