<svg width="58" height="56" fill="none" xmlns="http://www.w3.org/2000/svg"><path d="M56.717 28.397a.999.999 0 0 0 .33-.826l-.447-5.52a1 1 0 0 0-1.421-.823c-1.353.633-2.375.803-2.735.46-.8-.768-.104-4.227 1.047-6.975a1 1 0 0 0-.124-.99l-3.53-4.673a1.005 1.005 0 0 0-1.651.08c-.93 1.523-1.645 1.98-1.954 1.914-1.037-.217-2.238-3.861-2.667-6.997a1.002 1.002 0 0 0-.633-.798l-5.32-2.04a1 1 0 0 0-1.354.843c-.138 1.499-.524 2.483-1.031 2.633-1.203.364-4.048-2.27-5.638-4.301a.986.986 0 0 0-.874-.38L22.947.5a1.008 1.008 0 0 0-.793 1.474c.79 1.455.828 2.256.599 2.522-.724.84-4.377.248-7.333-.832a1 1 0 0 0-.965.156L10.092 7.29a1.007 1.007 0 0 0 .106 1.64c1.43.86 1.873 1.527 1.81 1.864-.2 1.056-3.741 2.372-6.795 2.894a.998.998 0 0 0-.752.595l-2.238 5.27a1.006 1.006 0 0 0 .836 1.387c1.53.13 2.533.51 2.682 1.014.353 1.197-2.33 4.052-4.402 5.65a1.001 1.001 0 0 0-.385.873l.447 5.57a1.007 1.007 0 0 0 1.444.814c1.74-.87 2.678-.882 2.976-.601.83.779.07 4.416-1.161 7.322a1 1 0 0 0 .12.992L8.114 47a1.005 1.005 0 0 0 1.618-.028c.913-1.305 1.769-2.01 2.29-1.874 1.234.308 2.337 4.199 2.66 6.89a1.003 1.003 0 0 0 .637.815l5.22 1.989a1.007 1.007 0 0 0 1.35-.827c.155-1.423.535-2.323 1.042-2.472 1.264-.365 4.08 2.248 5.588 4.133a.998.998 0 0 0 .87.37l5.47-.496a1.007 1.007 0 0 0 .84-1.364c-.54-1.36-.615-2.366-.21-2.765 1.009-.991 4.952-.006 7.297.973a.998.998 0 0 0 1.007-.14l4.326-3.43a1.004 1.004 0 0 0-.09-1.63c-1.402-.881-1.828-1.56-1.76-1.9.217-1.073 3.645-2.33 6.71-2.83a1 1 0 0 0 .753-.582l2.337-5.271a.999.999 0 0 0-.914-1.406c-1.69 0-2.432-.365-2.563-.707-.4-1.048 1.81-3.974 4.126-6.051Zm-5.994 6.764c.392 1.026 1.379 1.66 2.94 1.893l-1.543 3.478c-3.406.485-11.256 3.17-6.281 7.495l-2.835 2.25c-3.047-1.334-11.153-3.094-9.576 3.343l-3.694.336c-1.95-2.513-8.011-7.843-9.621-1.468l-3.528-1.343c-.304-2.062-1.34-7.301-4.076-7.99-1.49-.367-2.76.658-3.587 1.594L6.72 41.825c1.488-3.382 3.287-11.618-3.44-9.34l-.29-3.635c2.72-2.038 8.303-8.196 1.582-9.71l1.519-3.577c2.263-.435 7.374-1.707 7.882-4.397a3.39 3.39 0 0 0-1.574-3.154l2.867-2.28c3.156 1.242 11.382 2.76 9.265-3.36l3.825-.33c1.255 1.52 4.75 5.35 7.434 4.563 1.142-.335 1.9-1.37 2.269-3.08l3.612 1.383c.37 2.338 1.49 7.537 4.152 8.094 1.376.29 2.51-.703 3.255-1.637l2.353 3.114c-.724 1.865-2.35 6.753-.372 8.652.827.792 2.053.934 3.656.429l.299 3.687c-1.455 1.364-5.293 5.292-4.291 7.914Z" fill="#C79B67"/><path d="M29 8.782A19.24 19.24 0 0 0 9.783 28c1.055 25.495 37.383 25.487 38.435 0A19.24 19.24 0 0 0 29 8.782Zm0 36.436A17.237 17.237 0 0 1 11.783 28c.945-22.842 33.493-22.835 34.435 0A17.237 17.237 0 0 1 29 45.218Z" fill="#C79B67"/><path d="M29 21.282A6.725 6.725 0 0 0 22.283 28c.315 8.89 13.12 8.889 13.435 0A6.725 6.725 0 0 0 29 21.282Zm0 11.436c-6.234-.198-6.233-9.24 0-9.436 6.235.198 6.233 9.239 0 9.436Zm0-18a1 1 0 1 0 0 2A11.295 11.295 0 0 1 40.282 28a1 1 0 1 0 2 0A13.297 13.297 0 0 0 29 14.718Z" fill="#C79B67"/></svg>