<svg width="32" height="32" fill="none" xmlns="http://www.w3.org/2000/svg"><path fill-rule="evenodd" clip-rule="evenodd" d="M3 4.036C3 2.359 4.343 1 6 1h20c1.657 0 3 1.36 3 3.036v18.892a3.04 3.04 0 0 1-1.658 2.716l-10 5.036a2.968 2.968 0 0 1-2.684 0l-10-5.036A3.04 3.04 0 0 1 3 22.928V4.036Zm3-1.012c-.552 0-1 .453-1 1.012v18.892c0 .384.214.734.553.905l10 5.036a.99.99 0 0 0 .894 0l10-5.036c.339-.171.553-.521.553-.905V4.036c0-.559-.448-1.012-1-1.012H6Z" fill="#BB1C26"/><path d="M16 8.797a1.21 1.21 0 0 0-1.2 1.265l.225 5.698c.02.53.451.948.975.948a.981.981 0 0 0 .975-.948l.225-5.698A1.21 1.21 0 0 0 16 8.797ZM14.563 19.714c0-.786.63-1.423 1.406-1.423.776 0 1.406.637 1.406 1.423 0 .787-.63 1.424-1.406 1.424a1.415 1.415 0 0 1-1.406-1.424Z" fill="#BB1C26"/></svg>