<svg width="64" height="64" fill="none" xmlns="http://www.w3.org/2000/svg"><g clip-path="url(#a)" fill="#C79B67"><path d="M24.643 40.946H2.022V10.054h5.116c.268 0 .525-.108.714-.3a1.036 1.036 0 0 0 0-1.453C7.662 8.108 7.406 8 7.138 8H1.01c-.268 0-.525.108-.715.3-.19.193-.296.455-.296.727v32.946c0 .272.107.534.296.726.19.193.447.301.715.301h23.632c.268 0 .525-.108.715-.3a1.036 1.036 0 0 0 0-1.453c-.19-.193-.447-.301-.715-.301Zm14.22-30.892h5.115V20.09c0 .272.106.533.296.726a1.003 1.003 0 0 0 1.43 0c.19-.193.296-.454.296-.726V9.027c0-.272-.106-.534-.296-.726-.19-.193-.447-.301-.715-.301h-6.127c-.268 0-.525.108-.715.3a1.036 1.036 0 0 0 0 1.453c.19.193.447.301.715.301Zm-24.643 0h17.56c.269 0 .526-.108.715-.3a1.036 1.036 0 0 0 0-1.453C32.305 8.108 32.05 8 31.78 8H14.22c-.269 0-.526.108-.715.3a1.036 1.036 0 0 0 0 1.453c.19.193.446.301.715.301Z"/><path d="M8 21.164V19.76a1.01 1.01 0 0 0-.293-.711.997.997 0 0 0-1.414 0A1.01 1.01 0 0 0 6 19.76v2.405c0 .267.105.523.293.712A.997.997 0 0 0 7 23.17h4.575c.265 0 .519-.106.707-.294a1.01 1.01 0 0 0 0-1.423.997.997 0 0 0-.707-.295L8 21.164Zm3.555 6.298H8v-1.398a1.01 1.01 0 0 0-.293-.712.997.997 0 0 0-1.414 0 1.01 1.01 0 0 0-.293.712v2.404c0 .267.105.523.293.712a.997.997 0 0 0 .707.295h4.575c.265 0 .519-.106.707-.295a1.01 1.01 0 0 0 0-1.423.997.997 0 0 0-.707-.295h-.02ZM7 31.362a.997.997 0 0 0-.707.294 1.01 1.01 0 0 0-.293.711v2.405c0 .267.105.523.293.711a.997.997 0 0 0 .707.295h4.575c.265 0 .519-.106.707-.295a1.01 1.01 0 0 0 0-1.422.997.997 0 0 0-.707-.295H8v-1.399a1.01 1.01 0 0 0-.293-.711A.997.997 0 0 0 7 31.36Zm13.544-10.198h-3.575V19.76a1.01 1.01 0 0 0-.293-.711.997.997 0 0 0-1.414 0 1.01 1.01 0 0 0-.293.711v2.405c0 .267.106.523.293.712a.997.997 0 0 0 .707.294h4.575c.265 0 .52-.106.707-.294a1.01 1.01 0 0 0-.707-1.718v.005Zm0 6.298h-3.575v-1.398a1.01 1.01 0 0 0-.293-.712.997.997 0 0 0-1.414 0 1.01 1.01 0 0 0-.293.712v2.404c0 .267.106.523.293.712a.997.997 0 0 0 .707.295h4.575c.265 0 .52-.106.707-.295a1.01 1.01 0 0 0 0-1.423.997.997 0 0 0-.707-.295Zm-4.575 3.9a.997.997 0 0 0-.707.294 1.01 1.01 0 0 0-.293.711v2.405c0 .267.106.523.293.711a.997.997 0 0 0 .707.295h4.575c.265 0 .52-.106.707-.295a1.01 1.01 0 0 0 0-1.422.997.997 0 0 0-.707-.295h-3.575v-1.399a1.01 1.01 0 0 0-.293-.711.997.997 0 0 0-.707-.295Zm13.559-10.198h-3.575V19.76c0-.266-.105-.522-.293-.711a.997.997 0 0 0-1.414 0 1.009 1.009 0 0 0-.293.711v2.405c0 .267.106.523.293.712a.997.997 0 0 0 .707.294h4.575c.265 0 .52-.106.707-.294a1.01 1.01 0 0 0 0-1.423.997.997 0 0 0-.707-.295v.005Zm0 6.298h-3.575v-1.398a1.01 1.01 0 0 0-.293-.712.997.997 0 0 0-1.414 0 1.01 1.01 0 0 0-.293.712v2.404c0 .267.106.523.293.712a.997.997 0 0 0 .707.295h4.575c.265 0 .52-.106.707-.295a1.01 1.01 0 0 0 0-1.423.997.997 0 0 0-.707-.295Zm-4.575 3.9a.997.997 0 0 0-.707.294 1.01 1.01 0 0 0-.293.711v2.405c0 .267.106.523.293.711a.997.997 0 0 0 .707.295h4.575c.265 0 .52-.106.707-.295a1.01 1.01 0 0 0 0-1.422.997.997 0 0 0-.707-.295h-3.575v-1.399a1.01 1.01 0 0 0-.293-.711.997.997 0 0 0-.707-.295Zm8.99-8.186h4.554c.265 0 .52-.106.707-.294a1.01 1.01 0 0 0-.707-1.718h-3.555V19.76a1.01 1.01 0 0 0-.293-.711.997.997 0 0 0-1.414 0 1.01 1.01 0 0 0-.293.711v2.405a1.012 1.012 0 0 0 .617.934c.121.051.252.077.383.077Zm0 6.299h4.554c.265 0 .52-.106.707-.295a1.01 1.01 0 0 0-.707-1.718h-3.555v-1.398a1.01 1.01 0 0 0-.293-.712.997.997 0 0 0-1.414 0 1.01 1.01 0 0 0-.293.712v2.404c0 .267.106.523.293.712a.997.997 0 0 0 .707.295Zm0 6.303h4.554c.265 0 .52-.106.707-.295a1.01 1.01 0 0 0-.707-1.717h-3.555v-1.399a1.01 1.01 0 0 0-.293-.711.997.997 0 0 0-1.414 0 1.01 1.01 0 0 0-.293.711v2.405c0 .267.106.523.293.711a.997.997 0 0 0 .707.295ZM10.564 15.47c.265 0 .52-.106.707-.294a1.01 1.01 0 0 0 .293-.712V1.006a1.01 1.01 0 0 0-.293-.711.997.997 0 0 0-1.414 0 1.01 1.01 0 0 0-.293.711v13.457c0 .267.105.523.293.712a.997.997 0 0 0 .707.294Zm24.372 0c.265 0 .52-.106.707-.294a1.01 1.01 0 0 0 .293-.712V1.006a1.01 1.01 0 0 0-.293-.711.997.997 0 0 0-1.414 0 1.01 1.01 0 0 0-.293.711v13.457c0 .267.106.523.293.712a.997.997 0 0 0 .707.294Zm29.058 10.987c0-3.018-4.645-5.332-10.8-5.332-6.154 0-10.798 2.294-10.798 5.332v.237c-.008.07-.008.14 0 .211v8.552c0 .267.105.523.292.711a.997.997 0 0 0 1.414 0 1.01 1.01 0 0 0 .293-.71v-.474c1.925 1.333 5.08 2.174 8.8 2.174 3.72 0 6.874-.84 8.799-2.174v2.284c0 1.389-3.35 3.32-8.8 3.32h-.465a9.164 9.164 0 0 1-1.574-.08 1.001 1.001 0 0 0-.745.202 1.016 1.016 0 0 0 .485 1.81c.505.071 1.014.105 1.525.1h.775c3.72 0 6.874-.84 8.799-2.172v2.283c0 1.389-3.35 3.32-8.8 3.32h-.465a8.987 8.987 0 0 1-1.574-.085 1.003 1.003 0 0 0-.745.202 1.016 1.016 0 0 0 .485 1.81c.505.072 1.014.106 1.525.101h.775c3.72 0 6.874-.84 8.799-2.173v2.284c0 1.388-3.35 3.32-8.8 3.32h-.465a9.164 9.164 0 0 1-1.574-.08 1.001 1.001 0 0 0-1.004.5 1.018 1.018 0 0 0 .744 1.512 10.29 10.29 0 0 0 1.525.1h.775c3.72 0 6.874-.84 8.799-2.173v2.284c0 1.389-3.35 3.32-8.8 3.32h-.465a9.026 9.026 0 0 1-1.574-.085 1.004 1.004 0 0 0-.745.202 1.016 1.016 0 0 0 .485 1.81c.505.072 1.014.105 1.525.1h.775c6.154 0 10.799-2.293 10.799-5.332V26.9c.007-.07.007-.141 0-.211v-.232Zm-10.8-3.315c5.45 0 8.8 1.937 8.8 3.32 0 1.384-3.35 3.32-8.8 3.32-5.449 0-8.799-1.936-8.799-3.32 0-1.383 3.35-3.32 8.8-3.32Zm0 12.023c-5.449 0-8.799-1.937-8.799-3.32v-2.229c1.925 1.334 5.08 2.174 8.8 2.174 3.72 0 6.874-.84 8.799-2.174v2.219c0 1.368-3.35 3.32-8.8 3.32v.01Z"/><path d="M38 38c-6.266 0-10.994 2.214-10.994 5.146v.228a.927.927 0 0 0 0 .204v15.276C27.006 61.767 31.734 64 38 64s10.994-2.214 10.994-5.146V43.578a.927.927 0 0 0 0-.204v-.228C48.994 40.214 44.266 38 38 38Zm8.958 15.592c0 1.34-3.41 3.204-8.958 3.204s-8.958-1.869-8.958-3.204V51.38c1.96 1.286 5.171 2.097 8.958 2.097s6.999-.811 8.958-2.097v2.213Zm0-5.257c0 1.34-3.41 3.204-8.958 3.204s-8.958-1.87-8.958-3.204v-2.136c1.96 1.286 5.171 2.097 8.958 2.097s6.999-.8 8.958-2.097v2.136ZM38 39.937c5.548 0 8.958 1.869 8.958 3.204 0 1.335-3.41 3.204-8.958 3.204s-8.958-1.87-8.958-3.204c0-1.335 3.405-3.2 8.958-3.2v-.004Zm0 22.116c-5.548 0-8.958-1.868-8.958-3.203v-2.204c1.96 1.286 5.171 2.097 8.958 2.097s6.999-.811 8.958-2.097v2.203c0 1.34-3.41 3.21-8.958 3.21v-.006Z"/></g><defs><clipPath id="a"><path fill="#fff" d="M0 0h64v64H0z"/></clipPath></defs></svg>