<svg width="510" height="85" fill="none" xmlns="http://www.w3.org/2000/svg"><path d="M.5 21.6c0-4.51 0-7.854.284-10.465.281-2.601.839-4.417 1.912-5.895A11.5 11.5 0 0 1 5.24 2.696c1.478-1.073 3.294-1.63 5.895-1.912C13.746.5 17.09.5 21.6.5h466.8c4.511 0 7.854 0 10.465.284 2.601.281 4.417.839 5.895 1.912a11.52 11.52 0 0 1 2.544 2.544c1.073 1.478 1.631 3.294 1.912 5.895.283 2.611.284 5.954.284 10.465v22.8c0 4.51-.001 7.854-.284 10.465-.281 2.601-.839 4.417-1.912 5.895a11.52 11.52 0 0 1-2.544 2.544c-1.478 1.073-3.294 1.63-5.895 1.912-2.611.283-5.954.284-10.465.284H69.878c-4.852 0-7.436 0-9.723.942-.753.31-1.474.693-2.153 1.143-2.06 1.368-3.524 3.534-6.273 7.603l-.078.115c-1.816 2.688-3.154 4.666-4.336 6.038-1.18 1.37-2.143 2.06-3.186 2.27a5.5 5.5 0 0 1-2.214-.01c-1.042-.218-1.994-.908-3.15-2.268-1.16-1.364-2.463-3.326-4.234-5.993l-1.03-1.551-.048-.072c-1.703-2.565-2.609-3.93-3.764-4.977a12.5 12.5 0 0 0-5.326-2.857c-1.511-.383-3.15-.383-6.228-.383h-.087c-2.825 0-4.919 0-6.584-.115-1.661-.114-2.86-.34-3.899-.774a11.5 11.5 0 0 1-6.176-6.177c-.434-1.038-.66-2.237-.774-3.898C.5 52.871.5 50.776.5 47.952V21.6Z" fill="#fff" stroke="#EFEFEF"/></svg>