<svg width="62" height="62" fill="none" xmlns="http://www.w3.org/2000/svg"><path d="M59 25h-3v-4a10.011 10.011 0 0 0-10-10H36a10.011 10.011 0 0 0-10 10h-6V11a5.006 5.006 0 0 0-5-5h-1V3a3 3 0 0 0-3-3H3a3 3 0 0 0-3 3v56a3 3 0 0 0 3 3h8a3 3 0 0 0 3-3v-3h1a5.006 5.006 0 0 0 5-5V41h6a10.011 10.011 0 0 0 10 10h10a10.011 10.011 0 0 0 10-10v-4h3a3 3 0 0 0 3-3v-6a3 3 0 0 0-3-3ZM12 59a1 1 0 0 1-1 1H3a1 1 0 0 1-1-1V3a1 1 0 0 1 1-1h8a1 1 0 0 1 1 1v56Zm6-8a3 3 0 0 1-3 3h-1V8h1a3 3 0 0 1 3 3v40Zm27-2h-4V13h4v36ZM20 39V23h6v16h-6Zm8 2V21a8.009 8.009 0 0 1 8-8h3v36h-3a8.009 8.009 0 0 1-8-8Zm26 0a8.008 8.008 0 0 1-7 7.931V13.069A8.008 8.008 0 0 1 54 21v20Zm6-7a1 1 0 0 1-1 1h-3v-8h3a1 1 0 0 1 1 1v6Z" fill="#C79B67"/></svg>