<svg width="24" height="24" fill="none" xmlns="http://www.w3.org/2000/svg"><path d="M21 17.697c0 .324-.072.657-.225.981-.154.324-.352.63-.613.918-.442.486-.929.837-1.479 1.062a4.532 4.532 0 0 1-1.757.342c-.92 0-1.902-.216-2.938-.657a15.838 15.838 0 0 1-3.101-1.782 25.906 25.906 0 0 1-2.957-2.52 25.583 25.583 0 0 1-2.514-2.943c-.74-1.026-1.334-2.052-1.767-3.069C3.216 9.003 3 8.022 3 7.086c0-.612.108-1.197.324-1.737a4.142 4.142 0 0 1 1.037-1.503C4.938 3.279 5.569 3 6.236 3c.252 0 .505.054.73.162.234.108.442.27.604.504L9.66 6.609c.162.225.28.432.36.63.082.189.127.378.127.549 0 .216-.063.432-.19.639a3.062 3.062 0 0 1-.504.639l-.685.711a.481.481 0 0 0-.145.36c0 .072.01.135.027.207.028.072.055.126.073.18.162.297.441.684.838 1.152.405.468.838.945 1.307 1.422.486.477.955.918 1.433 1.323.469.396.856.666 1.163.828.045.018.099.045.162.072a.624.624 0 0 0 .225.036c.153 0 .27-.054.37-.153l.685-.675c.225-.225.441-.396.649-.504.207-.126.415-.189.64-.189.171 0 .351.036.55.117.198.081.405.198.63.351l2.984 2.115c.234.162.397.351.496.576.09.225.144.45.144.702Z" stroke="#fff" stroke-width="2" stroke-miterlimit="10"/><path d="M18 9c0-.514-.403-1.303-1.003-1.946C16.45 6.463 15.72 6 15 6M21 9c0-3.317-2.683-6-6-6" stroke="#fff" stroke-width="2" stroke-linecap="round" stroke-linejoin="round"/></svg>