<svg width="64" height="64" fill="none" xmlns="http://www.w3.org/2000/svg"><path d="M16.282 2c-1.84 0-3.283 1.056-3.283 2.405V7.05H6.983A4.018 4.018 0 0 0 4.168 8.2 3.9 3.9 0 0 0 3 10.975V58.08a3.897 3.897 0 0 0 1.169 2.771A4.016 4.016 0 0 0 6.983 62H57.02a4.014 4.014 0 0 0 2.812-1.15A3.896 3.896 0 0 0 61 58.08V10.974c0-1.04-.42-2.037-1.166-2.773a4.016 4.016 0 0 0-2.813-1.151H51V4.405C51 3.056 49.56 2 47.72 2c-1.84 0-3.282 1.056-3.282 2.405V7.05h-9.156V4.405C35.283 3.056 33.841 2 32 2c-1.84 0-3.283 1.056-3.283 2.405V7.05h-9.152V4.405C19.565 3.056 18.123 2 16.282 2Zm-1.278 2.42c.06-.13.521-.445 1.278-.445s1.217.315 1.278.445v2.63h-2.556V4.42Zm-10 14.975h53.991v29.389h-7.472c-.266 0-.521.104-.71.29a.98.98 0 0 0-.293.698v7.362H6.983a1.995 1.995 0 0 1-1.398-.571c-.371-.366-.58-.861-.58-1.378v-35.79ZM57.577 50.76l-5.052 4.978V50.76h5.052Zm-.556 9.266H6.983a2 2 0 0 1-1.181-.386 1.953 1.953 0 0 1-.715-1.003 4.006 4.006 0 0 0 1.896.473h44.54c.265 0 .52-.104.709-.289l6.764-6.664v5.924c-.001.515-.21 1.01-.58 1.375-.37.364-.872.57-1.395.57ZM46.443 4.42c.06-.13.52-.444 1.279-.444.756 0 1.215.315 1.274.444v2.63h-2.552V4.42Zm-15.721 0c.06-.13.521-.445 1.278-.445s1.217.315 1.278.445v2.63h-2.556V4.42ZM32 13.21c.266 0 .52-.104.709-.29a.98.98 0 0 0 0-1.396 1.01 1.01 0 0 0-.709-.29c-.754 0-1.215-.315-1.278-.445V9.025h13.717v1.78c0 1.35 1.442 2.406 3.283 2.406.265 0 .52-.104.708-.29a.98.98 0 0 0 0-1.396 1.01 1.01 0 0 0-.708-.29c-.756 0-1.217-.315-1.279-.444V9.025h10.578a1.993 1.993 0 0 1 1.396.572c.37.366.578.86.578 1.377v6.446H5.005v-6.446c0-.517.209-1.012.58-1.377.37-.366.873-.571 1.398-.572h6.016v1.78c0 1.35 1.442 2.406 3.283 2.406.266 0 .521-.104.709-.29a.98.98 0 0 0 0-1.396 1.01 1.01 0 0 0-.709-.29c-.754 0-1.215-.315-1.278-.445V9.025h13.713v1.78c0 1.35 1.442 2.406 3.283 2.406Zm-8.344 17.932h5.101c.266 0 .52-.104.709-.289a.98.98 0 0 0 .293-.698v-4.434a.98.98 0 0 0-.293-.699 1.01 1.01 0 0 0-.709-.289h-5.1c-.267 0-.522.104-.71.29a.98.98 0 0 0-.293.698v4.434a.98.98 0 0 0 .293.698c.188.185.443.29.71.29Zm1.003-4.434h3.096v2.459h-3.096v-2.459Zm10.584 4.434h5.1c.267 0 .522-.104.71-.289a.98.98 0 0 0 .293-.698v-4.434a.98.98 0 0 0-.293-.699 1.01 1.01 0 0 0-.71-.289h-5.1c-.266 0-.52.104-.709.29a.98.98 0 0 0-.293.698v4.434a.98.98 0 0 0 .293.698c.188.185.443.29.709.29Zm1.002-4.434h3.096v2.459h-3.096v-2.459ZM12.07 41.992h5.104c.266 0 .521-.104.71-.289a.98.98 0 0 0 .293-.698v-4.43a.98.98 0 0 0-.294-.7 1.01 1.01 0 0 0-.709-.289H12.07c-.266 0-.52.105-.709.29a.98.98 0 0 0-.293.698v4.43a.98.98 0 0 0 .293.7c.188.184.443.288.71.288Zm1.003-4.43h3.099v2.455h-3.1v-2.455Zm10.584 4.43h5.101c.266 0 .52-.104.709-.289a.98.98 0 0 0 .293-.698v-4.43a.98.98 0 0 0-.293-.7 1.01 1.01 0 0 0-.709-.289h-5.1c-.267 0-.522.105-.71.29a.98.98 0 0 0-.293.698v4.43a.98.98 0 0 0 .293.7c.188.184.443.288.71.288Zm1.003-4.43h3.096v2.455h-3.096v-2.455Zm10.584 4.43h5.1c.267 0 .522-.104.71-.289a.98.98 0 0 0 .293-.698v-4.43a.98.98 0 0 0-.293-.7 1.01 1.01 0 0 0-.71-.289h-5.1c-.266 0-.52.105-.709.29a.98.98 0 0 0-.293.698v4.43a.98.98 0 0 0 .293.7c.188.184.443.288.709.288Zm1.002-4.43h3.096v2.455h-3.096v-2.455ZM12.07 52.842h5.104c.266 0 .521-.105.71-.29a.98.98 0 0 0 .293-.698v-4.43a.98.98 0 0 0-.294-.7 1.01 1.01 0 0 0-.709-.289H12.07c-.266 0-.52.104-.709.29a.98.98 0 0 0-.293.698v4.43a.98.98 0 0 0 .293.7c.188.184.443.288.71.288Zm1.003-4.431h3.099v2.455h-3.1v-2.455Zm10.584 4.43h5.101c.266 0 .52-.104.709-.289a.98.98 0 0 0 .293-.698v-4.43a.98.98 0 0 0-.293-.7 1.01 1.01 0 0 0-.709-.289h-5.1c-.267 0-.522.104-.71.29a.98.98 0 0 0-.293.698v4.43a.98.98 0 0 0 .293.7c.188.184.443.288.71.288Zm1.003-4.43h3.096v2.455h-3.096v-2.455Zm-12.59-17.268h5.104c.266 0 .521-.104.71-.289a.98.98 0 0 0 .293-.698v-4.434a.98.98 0 0 0-.294-.699 1.01 1.01 0 0 0-.709-.289H12.07c-.266 0-.52.104-.709.29a.98.98 0 0 0-.293.698v4.434a.98.98 0 0 0 .293.698c.188.185.443.29.71.29Zm1.003-4.434h3.099v2.459h-3.1v-2.459Zm38.859 8.877H46.83c-.266 0-.52.105-.709.29a.98.98 0 0 0-.294.698v4.43a.98.98 0 0 0 .294.7c.188.184.443.288.709.288h5.1c.267 0 .522-.104.71-.289a.98.98 0 0 0 .293-.698v-4.43a.98.98 0 0 0-.293-.7 1.01 1.01 0 0 0-.71-.289Zm-1.003 4.431h-3.096v-2.455h3.096v2.455ZM35.243 52.841h5.1c.267 0 .522-.104.71-.289a.98.98 0 0 0 .293-.698v-4.43a.98.98 0 0 0-.293-.7 1.01 1.01 0 0 0-.71-.289h-5.1c-.266 0-.52.104-.709.29a.98.98 0 0 0-.293.698v4.43a.98.98 0 0 0 .293.7c.188.184.443.288.709.288Zm1.002-4.43h3.096v2.455h-3.096v-2.455Zm9.737-19.85a.988.988 0 0 1-.3-.699.977.977 0 0 1 .291-.702 1.005 1.005 0 0 1 .71-.291 1.017 1.017 0 0 1 .712.29l1.29 1.262 2.623-3.054a1.012 1.012 0 0 1 1.413-.116.978.978 0 0 1 .118 1.392l-3.325 3.87a1.002 1.002 0 0 1-.723.35h-.043a1.01 1.01 0 0 1-.707-.287l-2.06-2.015Z" fill="#C79B67"/></svg>