<svg width="64" height="64" fill="none" xmlns="http://www.w3.org/2000/svg"><path d="M50 20h2v4h-2v-4Zm-4 0h2v4h-2v-4Zm-4 0h2v4h-2v-4Zm-4 0h2v4h-2v-4Zm12 19h2v2h-2v-2Zm-4 0h2v2h-2v-2Zm-4 0h2v2h-2v-2Zm-4 0h2v2h-2v-2Z" fill="#C79B67"/><path d="M5 35.925V42a5.006 5.006 0 0 0 5 5h18.078l17.8 8.542a4.651 4.651 0 0 0 6.211-2.2l3.093-6.5A5 5 0 0 0 59 42v-3.184l2.545-5.346a4.683 4.683 0 0 0-2.192-6.226l-.353-.17V20a5.006 5.006 0 0 0-5-5H33.838L18.124 7.456a4.649 4.649 0 0 0-6.211 2.2l-2.575 5.41A4.992 4.992 0 0 0 5 19.999v4.183L2.454 29.53a4.684 4.684 0 0 0 2.192 6.227l.353.169Zm54-6.548a2.677 2.677 0 0 1 .739 3.233L59 34.16v-4.784Zm-8.72 23.101a2.649 2.649 0 0 1-3.539 1.258l-14.04-6.735h20.19l-2.61 5.477ZM57 42.001a3 3 0 0 1-3 3H21V33.436a11.92 11.92 0 0 0 8.278 3.33v-2.001A9.935 9.935 0 0 1 22.388 32H57v10ZM21.932 29.379l1.968-4.946a2.274 2.274 0 0 1 4.36.573 2.273 2.273 0 0 1-1.41 2.394l-4.918 1.979ZM54 16.999a3 3 0 0 1 3 3v10H25.752l1.844-.74a4.28 4.28 0 1 0-5.552-5.567L21 26.314v-9.315h33Zm-40.28-6.481a2.65 2.65 0 0 1 3.539-1.258l11.959 5.739H11.586l2.134-4.481ZM7 19.999a3 3 0 0 1 3-3h9v8.617l-.767-1.924a4.272 4.272 0 0 0-8.2 1.064 4.273 4.273 0 0 0 2.65 4.503l1.842.74H7V20Zm11.347 9.38-4.918-1.98a2.28 2.28 0 1 1 2.947-2.97l1.97 4.95Zm-11.348 2.62h10.89a9.935 9.935 0 0 1-6.89 2.766v2a11.913 11.913 0 0 0 8-3.075V45h-9a3 3 0 0 1-3-3V32Zm-2.738-1.61L5 28.839v4.785a2.677 2.677 0 0 1-.738-3.233Z" fill="#C79B67"/></svg>