<svg width="64" height="64" fill="none" xmlns="http://www.w3.org/2000/svg"><g clip-path="url(#a)"><path d="M57.536 23.742a26.674 26.674 0 0 0-1.638-3.962l4.569-4.569L48.789 3.533l-4.57 4.57a26.68 26.68 0 0 0-3.96-1.639V0H23.741v6.464a26.68 26.68 0 0 0-3.962 1.638l-4.569-4.569L3.533 15.211l4.57 4.57a26.68 26.68 0 0 0-1.639 3.96H0v16.517h6.464a26.68 26.68 0 0 0 1.638 3.962l-4.569 4.569 11.678 11.678 4.57-4.57c1.274.652 2.599 1.2 3.96 1.639V64h16.517v-6.464a26.674 26.674 0 0 0 3.962-1.638l4.569 4.569 11.678-11.678-4.57-4.57c.652-1.274 1.2-2.599 1.639-3.96H64V23.741h-6.464ZM2.065 25.806H8l.216-.743a24.668 24.668 0 0 1 2.058-4.976l.373-.68-4.196-4.196 8.758-8.758 4.197 4.196.679-.373a24.669 24.669 0 0 1 4.976-2.058L25.806 8V2.065h5.162l-.002 13.362 1.447-.632a4.133 4.133 0 0 1 5.78 3.785 4.133 4.133 0 0 1-5.781 3.786l-1.453-.636.005 9.235-6.275.003a6.2 6.2 0 0 0-6.108-7.226 6.2 6.2 0 0 0-6.108 7.226H2.065v-5.162Zm28.903 36.13h-5.162v-5.937l-.743-.216a24.666 24.666 0 0 1-4.976-2.058l-.68-.373-4.196 4.196-8.758-8.758 4.196-4.197-.373-.679a24.669 24.669 0 0 1-2.058-4.976L8 38.193H2.065v-5.16l13.362.001-.632-1.447a4.133 4.133 0 0 1 3.785-5.78 4.133 4.133 0 0 1 3.786 5.781l-.636 1.453 9.235-.005.003 6.276a6.2 6.2 0 0 0-7.226 6.108 6.2 6.2 0 0 0 7.226 6.107v10.408Zm30.967-23.742H56l-.216.743a24.666 24.666 0 0 1-2.058 4.976l-.373.68 4.196 4.196-8.758 8.758-4.197-4.196-.679.373a24.671 24.671 0 0 1-4.976 2.058l-.745.217v5.936h-5.16l.001-13.362-1.447.632a4.133 4.133 0 0 1-5.78-3.785 4.133 4.133 0 0 1 5.781-3.786l1.453.636-.005-9.235 6.276-.003a6.2 6.2 0 0 0 6.108 7.226 6.2 6.2 0 0 0 6.107-7.226h10.408v5.162Zm0-7.226-13.362-.002.632 1.447a4.133 4.133 0 0 1-3.785 5.78 4.133 4.133 0 0 1-3.786-5.781l.636-1.453-9.235.005-.003-6.275a6.2 6.2 0 0 0 7.226-6.108 6.2 6.2 0 0 0-7.226-6.108V2.065h5.162V8l.743.216a24.668 24.668 0 0 1 4.976 2.058l.68.373 4.196-4.196 8.758 8.758-4.196 4.197.373.679a24.671 24.671 0 0 1 2.058 4.976l.217.744h5.936v5.162Z" fill="#C79B67"/></g><defs><clipPath id="a"><path fill="#fff" d="M0 0h64v64H0z"/></clipPath></defs></svg>