<svg width="64" height="64" fill="none" xmlns="http://www.w3.org/2000/svg"><path d="M57 42v9c0 2.21-1.759 4-3.928 4H5.928C3.759 55 2 53.21 2 51V23c0-2.21 1.759-4 3.929-4H53.07C55.242 19 57 20.79 57 23v15" stroke="#C79B67" stroke-width="2" stroke-miterlimit="10" stroke-linecap="round" stroke-linejoin="round"/><path d="M6 15a3.9 3.9 0 0 1 2.572-1.42L55.43 8.026c2.157-.255 4.109 1.316 4.36 3.51l3.183 27.813c.251 2.194-1.293 4.18-3.45 4.436l-2.339.277M8.044 43h7.862m-7.863 5H27.7m-7.863-5H27.7m3.931 0h7.862m3.932 0h7.862m-39.312-9h1.965m1.966 4h-5.897c-1.085 0-1.966-.895-1.966-2v-4c0-1.105.88-2 1.966-2h5.897c1.086 0 1.966.895 1.966 2v4c0 1.105-.88 2-1.966 2Z" stroke="#C79B67" stroke-width="2" stroke-miterlimit="10" stroke-linecap="round" stroke-linejoin="round"/><path d="M48.836 35A9.367 9.367 0 0 0 50 30.5c0-1.62-.426-3.144-1.164-4.5m-3.926 7.194a5.593 5.593 0 0 0 .711-2.694c0-.972-.267-1.881-.71-2.694M41 31.396c.15-.27.242-.572.242-.896 0-.325-.092-.626-.242-.895" stroke="#C79B67" stroke-width="2" stroke-miterlimit="10" stroke-linecap="round" stroke-linejoin="round"/></svg>