<svg width="64" height="64" fill="none" xmlns="http://www.w3.org/2000/svg"><path d="M61 14H43a1 1 0 0 0-1 1v23H20v-3a1 1 0 0 0-1-1h-3v2h2v2h-4v-4h-2v4H8v-2h2v-2H7a1 1 0 0 0-1 1v3H3a1 1 0 0 0-1 1v22a1 1 0 0 0 1 1h58a1 1 0 0 0 1-1V15a1 1 0 0 0-1-1Zm-17 2h16v12H44V16Zm-2 28H24v-4h18v4ZM4 40h18v4H4v-4Zm0 6h18v14H4V46Zm20 0h8v14h-8V46Zm10 0h8v14h-8V46Zm10 14V30h16v30H44Z" fill="#C79B67"/><path d="M46 20h2v4h-2v-4Zm0 14h2v4h-2v-4ZM8 42a1 1 0 1 1-2 0 1 1 0 0 1 2 0Zm4 0a1 1 0 1 1-2 0 1 1 0 0 1 2 0Zm4 0a1 1 0 1 1-2 0 1 1 0 0 1 2 0Zm4 0a1 1 0 1 1-2 0 1 1 0 0 1 2 0ZM3 21h20a1 1 0 0 0 1-1v-3a1 1 0 0 0-.293-.707l-4-4A1 1 0 0 0 19 12h-1V3a1 1 0 0 0-1-1H9a1 1 0 0 0-1 1v9H7a1 1 0 0 0-.707.293l-4 4A1 1 0 0 0 2 17v3a1 1 0 0 0 1 1Zm7-17h6v8h-6V4ZM4 17.414 7.414 14h11.172L22 17.414V19H4v-1.586ZM19 48H7a1 1 0 0 0-1 1v8a1 1 0 0 0 1 1h12a1 1 0 0 0 1-1v-8a1 1 0 0 0-1-1Zm-1 8H8v-6h10v6Zm13-15h4v2h-4v-2Zm-3 10h2v4h-2v-4Zm8 0h2v4h-2v-4ZM26 27h6a1 1 0 0 0 1-1v-1a4 4 0 0 0-3-3.858V2h-2v19.142A4 4 0 0 0 25 25v1a1 1 0 0 0 1 1Zm3-4a2 2 0 0 1 2 2h-4a2 2 0 0 1 2-2Z" fill="#C79B67"/><path d="M33 19h6a1 1 0 0 0 1-1v-1a4 4 0 0 0-3-3.858V2h-2v11.142A4 4 0 0 0 32 17v1a1 1 0 0 0 1 1Zm3-4a2 2 0 0 1 2 2h-4a2 2 0 0 1 2-2Z" fill="#C79B67"/></svg>