<svg width="48" height="48" fill="none" xmlns="http://www.w3.org/2000/svg"><mask id="a" style="mask-type:luminance" maskUnits="userSpaceOnUse" x="0" y="0" width="48" height="48"><path d="M47 47V1H1v46h46Z" fill="#fff" stroke="#fff" stroke-width="2"/></mask><g mask="url(#a)" stroke="#C79B67" stroke-width="2" stroke-miterlimit="10" stroke-linecap="round" stroke-linejoin="round"><path d="m25.727 3.281 17.584.024A1.9 1.9 0 0 1 45.203 5.2v5.9H2.743v-5.9c0-1.041.854-1.894 1.895-1.894h17.82"/><path d="m43.562 36.834-.394 6.204c-.06.925-.863 1.68-1.788 1.68H2.28a1.56 1.56 0 0 1-1.572-1.68l2.033-31.94m42.461 0-1.424 22.363"/><path d="m45.2 11.099 2.092 31.974a1.53 1.53 0 0 1-1.537 1.645H41.38M7.668 16.823h4.301c.14 0 .248.116.237.259l-.329 4.3a.285.285 0 0 1-.277.259H7.3a.238.238 0 0 1-.24-.26l.33-4.3a.285.285 0 0 1 .277-.258ZM16.486 16.823h4.299c.143 0 .25.116.24.259l-.33 4.3a.288.288 0 0 1-.277.259H16.12a.239.239 0 0 1-.24-.26l.329-4.3a.285.285 0 0 1 .277-.258ZM25.305 16.823h4.298c.143 0 .25.116.24.259l-.329 4.3a.288.288 0 0 1-.278.259h-4.298a.239.239 0 0 1-.24-.26l.33-4.3a.285.285 0 0 1 .277-.258ZM7.064 25.644h4.299c.14 0 .248.116.237.259l-.329 4.3a.283.283 0 0 1-.278.256H6.695a.234.234 0 0 1-.237-.256l.329-4.3a.283.283 0 0 1 .277-.26Z"/><path d="M7.064 25.644h4.299c.14 0 .248.116.237.259l-.329 4.3a.283.283 0 0 1-.278.256H6.695a.234.234 0 0 1-.237-.256l.329-4.3a.283.283 0 0 1 .277-.26ZM15.88 25.644h4.298c.14 0 .248.116.237.259l-.329 4.3a.283.283 0 0 1-.278.256H15.51a.236.236 0 0 1-.24-.256l.33-4.3a.286.286 0 0 1 .28-.26ZM24.695 25.644h4.299c.142 0 .25.116.24.259l-.33 4.3a.285.285 0 0 1-.277.256h-4.298a.237.237 0 0 1-.24-.256l.329-4.3a.285.285 0 0 1 .277-.26ZM6.461 34.465h4.298c.14 0 .248.116.237.259l-.329 4.3a.283.283 0 0 1-.277.256H6.092a.234.234 0 0 1-.238-.256l.33-4.3a.283.283 0 0 1 .277-.259ZM15.274 34.465h4.298c.14 0 .248.116.237.259l-.329 4.3a.283.283 0 0 1-.278.256h-4.298a.234.234 0 0 1-.237-.256l.329-4.3a.283.283 0 0 1 .277-.259ZM24.095 34.465h4.298c.14 0 .248.116.237.259l-.329 4.3a.283.283 0 0 1-.278.256h-4.298a.236.236 0 0 1-.24-.256l.33-4.3a.286.286 0 0 1 .28-.259ZM34.535 18.816h4.857M34.102 23.702h4.856M33.668 28.584h4.856M33.234 33.47h4.86M32.8 38.352h4.857M14.69 12.668V9.486M20.93 12.668V9.486M27.17 12.668V9.486M8.443 12.668V9.486M33.41 12.668V9.486M39.656 12.668V9.486"/></g></svg>