<svg width="24" height="24" fill="none" xmlns="http://www.w3.org/2000/svg"><path d="M11 14.08c0 .496-.137.953-.371 1.35-.577.964-1.76 1.57-3.129 1.57s-2.552-.616-3.129-1.57A2.637 2.637 0 0 1 4 14.08c0-.855.391-1.62 1.017-2.176C5.652 11.338 6.522 11 7.49 11s1.838.348 2.474.904c.645.546 1.036 1.321 1.036 2.175Z" stroke="#fff" stroke-width="2" stroke-linecap="round" stroke-linejoin="round"/><path d="M11 14.18v2.813C11 18.753 9.434 20 7.505 20S4 18.742 4 16.993v-2.812C4 12.42 5.566 11 7.505 11c.97 0 1.84.358 2.477.93.626.573 1.018 1.371 1.018 2.25ZM22 10.995v2.01c0 .536-.429.975-.975.995h-1.91c-1.053 0-2.018-.77-2.106-1.824a1.96 1.96 0 0 1 .585-1.59c.36-.371.858-.586 1.403-.586h2.028c.546.02.975.459.975.995Z" stroke="#fff" stroke-width="2" stroke-linecap="round" stroke-linejoin="round"/><path d="M2 10.412V8.294c0-2.88 1.64-4.892 4.19-5.23C6.45 3.02 6.72 3 7 3h9c.26 0 .51.01.75.053C19.33 3.37 21 5.393 21 8.294V9.83h-2.08c-.56 0-1.07.233-1.44.636a2.198 2.198 0 0 0-.6 1.726c.09 1.143 1.08 1.98 2.16 1.98H21v1.535C21 18.882 19 21 16 21h-2.5" stroke="#fff" stroke-width="2" stroke-linecap="round" stroke-linejoin="round"/></svg>