<svg width="590" height="83" fill="none" xmlns="http://www.w3.org/2000/svg"><path d="M.5 21.6c0-4.51 0-7.854.284-10.465.281-2.601.839-4.417 1.912-5.895A11.5 11.5 0 0 1 5.24 2.696c1.478-1.073 3.294-1.63 5.895-1.912C13.746.5 17.09.5 21.6.5h546.8c4.511 0 7.854 0 10.465.284 2.601.281 4.417.839 5.895 1.912a11.52 11.52 0 0 1 2.544 2.544l.404-.293-.404.293c1.073 1.478 1.631 3.294 1.912 5.895.283 2.611.284 5.954.284 10.465v22.8c0 4.51-.001 7.854-.284 10.465-.281 2.601-.839 4.417-1.912 5.895l.404.293-.404-.293a11.52 11.52 0 0 1-2.544 2.544c-1.478 1.073-3.294 1.63-5.895 1.912-2.611.283-5.954.284-10.465.284H62.305c-1.433 0-2.196 0-2.951.092-.58.071-1.155.183-1.72.334-.735.197-1.443.482-2.773 1.018l-.036.015-36.51 14.722c-2.73 1.1-4.915-2.45-2.702-4.391 4.67-4.095 1.774-11.79-4.437-11.79H7.582A7.082 7.082 0 0 1 .5 58.418V21.6Z" fill="#fff" stroke="#EFEFEF"/></svg>