<svg width="64" height="64" fill="none" xmlns="http://www.w3.org/2000/svg"><path d="m63.383 19.196-1.256-1.175a1.95 1.95 0 0 0-1.695-.49 1.949 1.949 0 0 0-1.393 1.082l-1.355 2.88h-2.427a.938.938 0 0 0-.763.393l-4.571 6.399-.46-.23.588-1.176a.937.937 0 0 0-.318-1.2l-3.022-2.014a.938.938 0 0 0-1.445.626l-.78 4.677a.696.696 0 0 1-1.182.379.7.7 0 0 1-.205-.494v-4.408a.938.938 0 0 0-1.875 0v4.408a2.576 2.576 0 0 0 4.239 1.966c.465-.394.774-.941.873-1.543l.541-3.247 1.127.752-.637 1.274a.936.936 0 0 0 .419 1.258l2.015 1.007a.937.937 0 0 0 1.182-.293l4.756-6.66h2.54a.937.937 0 0 0 .848-.538l1.608-3.418c.005-.01.015-.032.05-.039.036-.007.053.01.061.018l1.256 1.175a.07.07 0 0 1 .014.085l-2.323 4.214a.937.937 0 0 0 1.642.905l2.323-4.214a1.943 1.943 0 0 0-.375-2.36Zm-48.217-.334 10.043 2.123c1.16.244 2.342.368 3.527.368a.937.937 0 1 0 0-1.875 15.21 15.21 0 0 1-3.139-.328l-10.043-2.122a.938.938 0 0 0-.388 1.834ZM56.198 40.32a.937.937 0 0 0-1.318.146l-2.943 3.678a.937.937 0 0 0-.164.862l2.334 7.583a.684.684 0 0 1-.059.543.684.684 0 0 1-.435.332.687.687 0 0 1-.76-.316l-3.638-6.061a.937.937 0 0 0-.907-.45l-6.388.71a.938.938 0 0 0-.785.635l-.426 1.278-4.105-1.173a.937.937 0 0 0-.87.19l-4.257 3.664a.938.938 0 0 0-.326.71v1.008a.07.07 0 0 1-.07.07h-.215a3.104 3.104 0 0 1-2.9-2.021l-1.386-3.754a.937.937 0 0 0-1.063-.595l-2.491.499a1.074 1.074 0 0 1-.973-.295l-3.496-3.496a.936.936 0 0 0-.847-.256l-2.764.553c-.27.054-.55.003-.782-.143L4.21 37.999a1.082 1.082 0 0 1-.482-.688L1.9 28.776a1.076 1.076 0 0 1 .04-.594l2.642-7.262a.936.936 0 0 0 .047-.188l.557-3.902a.937.937 0 0 0-1.856-.265l-.544 3.806-2.607 7.17a2.949 2.949 0 0 0-.112 1.628l1.829 8.535a2.968 2.968 0 0 0 1.322 1.885l9.953 6.22c.638.4 1.405.54 2.144.392l2.272-.454 3.14 3.14a2.947 2.947 0 0 0 2.667.808l1.706-.34 1.108 3a4.986 4.986 0 0 0 4.66 3.248h.214a1.947 1.947 0 0 0 1.945-1.945v-.577l3.549-3.053 4.482 1.28a.937.937 0 0 0 1.147-.605l.52-1.56 5.193-.577 3.328 5.546a2.552 2.552 0 0 0 2.823 1.17 2.577 2.577 0 0 0 1.613-1.23c.345-.61.424-1.345.218-2.015l-2.188-7.11 2.633-3.29a.936.936 0 0 0-.146-1.318Z" fill="#C79B67"/><path d="M57.272 27.537a3.964 3.964 0 0 0-3.96 3.96c0 3.371 3.162 6.572 3.297 6.706a.938.938 0 0 0 1.326 0c.134-.134 3.296-3.335 3.296-6.707a3.964 3.964 0 0 0-3.96-3.96Zm0 8.585c-.814-1.003-2.085-2.855-2.085-4.626 0-1.149.935-2.084 2.085-2.084s2.084.935 2.084 2.084c0 1.771-1.271 3.623-2.084 4.626Zm-9.41 8.125c.134-.134 3.296-3.335 3.296-6.707a3.964 3.964 0 0 0-3.96-3.96 3.964 3.964 0 0 0-3.96 3.96c0 3.372 3.163 6.573 3.297 6.707a.94.94 0 0 0 1.326 0Zm-2.748-6.707c0-1.149.935-2.084 2.084-2.084 1.15 0 2.085.935 2.085 2.084 0 1.771-1.272 3.623-2.085 4.626-.813-1.003-2.084-2.855-2.084-4.626ZM9.927 19.34a.937.937 0 0 0 .663-.275c.135-.134 3.297-3.335 3.297-6.707a3.964 3.964 0 0 0-3.96-3.96 3.964 3.964 0 0 0-3.96 3.96c0 3.372 3.163 6.573 3.297 6.707a.938.938 0 0 0 .663.275Zm0-9.066c1.15 0 2.085.935 2.085 2.084 0 1.771-1.272 3.623-2.085 4.626-.813-1.003-2.084-2.855-2.084-4.626 0-1.15.935-2.084 2.084-2.084ZM3.953 29.482c0 3.371 3.162 6.572 3.297 6.707a.938.938 0 0 0 1.325 0c.135-.135 3.297-3.336 3.297-6.707a3.964 3.964 0 0 0-3.96-3.96 3.964 3.964 0 0 0-3.959 3.96Zm6.044 0c0 1.77-1.271 3.623-2.084 4.626-.814-1.004-2.085-2.855-2.085-4.626 0-1.15.935-2.085 2.085-2.085 1.149 0 2.084.935 2.084 2.085ZM24.1 38.548c0 3.371 3.162 6.572 3.296 6.706a.936.936 0 0 0 1.326 0c.135-.134 3.297-3.335 3.297-6.706a3.964 3.964 0 0 0-3.96-3.96 3.964 3.964 0 0 0-3.96 3.96Zm6.044 0c0 1.77-1.272 3.622-2.085 4.625-.813-1.003-2.084-2.855-2.084-4.625 0-1.15.935-2.085 2.084-2.085 1.15 0 2.085.935 2.085 2.085Zm5.755-11.15a.938.938 0 0 0 .663-.275c.135-.135 3.297-3.336 3.297-6.707a3.964 3.964 0 0 0-3.96-3.96 3.964 3.964 0 0 0-3.96 3.96c0 3.371 3.162 6.572 3.297 6.707a.939.939 0 0 0 .663.274Zm0-9.067c1.15 0 2.084.935 2.084 2.085 0 1.77-1.27 3.622-2.084 4.626-.813-1.004-2.084-2.855-2.084-4.626 0-1.15.935-2.085 2.084-2.085Z" fill="#C79B67"/></svg>