<svg width="64" height="64" fill="none" xmlns="http://www.w3.org/2000/svg"><path d="M35.009 6h2a1 1 0 1 0 0-2h-2a1 1 0 1 0 0 2ZM9.002 6h22.006a1 1 0 0 0 0-2H9.002a1 1 0 1 0 0 2Z" fill="#C79B67"/><path d="M60.72 29.111a4.999 4.999 0 0 0-3.991-8.333 5.002 5.002 0 0 0-3.453 1.653L42.011 34.974V22h9.002a3.001 3.001 0 0 0 3-3V7a7.008 7.008 0 0 0-7.001-7H9.002A7.01 7.01 0 0 0 2 7v50a3 3 0 0 0 3 3h34.01a3.001 3.001 0 0 0 3-3v-7.059l18.71-20.83Zm-5.954-5.344a3.003 3.003 0 0 1 4.975.685 2.998 2.998 0 0 1-.51 3.323l-3.34 3.725-4.467-4.01 3.342-3.723ZM52.013 7v12a1 1 0 0 1-1 1H42.01V7a5 5 0 0 1 5-5 5.002 5.002 0 0 1 5.002 5ZM39.01 58H5a1 1 0 0 1-1-1V7a5.005 5.005 0 0 1 5.002-5H42.12a6.978 6.978 0 0 0-2.111 5v30.2l-4.033 4.489A2.993 2.993 0 0 0 33.008 39V24h2.941a2.011 2.011 0 0 0 1.945-2.649l-2.47-7A2.054 2.054 0 0 0 33.478 13h-6.943a2.057 2.057 0 0 0-1.945 1.351l-2.47 7A2.01 2.01 0 0 0 24.064 24h2.942v15a3.001 3.001 0 0 0-3.001 3v2h-3.001v-3.278a2 2 0 0 0 1-1.722v-1.78a2.978 2.978 0 0 0-1-5.036V26a3.999 3.999 0 0 0-4.001-4h-5.001a4.001 4.001 0 0 0-4.001 4v6.184a2.977 2.977 0 0 0-1 5.036V39a1.992 1.992 0 0 0 1 1.722V44a1 1 0 0 0 0 2h25.09l-2.933 8H14.003a1 1 0 0 0 0 2h17.005a.994.994 0 0 0 .9-.576l8.102-4V57a1 1 0 0 1-1 1Zm-.183-8.223-6.094 3.008 2.339-6.379 3.755 3.371ZM24.065 22c-.1.027-.344.8 2.47-7l7.002.017L35.95 22H24.065Zm4.942 2h2v15h-2V24Zm4.001 17a1 1 0 0 1 1 1v1.884c-.149.166.752.116-8.002.116v-2a1 1 0 0 1 1-1h6.002Zm-13.003-7a1 1 0 1 1 0 2 1 1 0 0 1 0-2Zm-1-1.816A3.002 3.002 0 0 0 17.188 34h-5.37a3.001 3.001 0 0 0-1.816-1.816V26a2 2 0 0 1 2-2h5.002a2 2 0 0 1 2 2v6.184ZM9.002 34a1 1 0 1 1 0 2.001 1 1 0 0 1 0-2.001Zm2.816 2h5.37a3 3 0 0 0 2.817 2v1H9.002v-1a3.001 3.001 0 0 0 2.816-2Zm-1.816 5h1.785l-.6 3h-1.185v-3Zm3.82 0h1.366l.6 3h-2.566l.6-3Zm3.401 0h1.782v3h-1.182l-.6-3Zm23.296 7.608L36.054 44.6l14.034-15.625 4.466 4.009-14.035 15.624Z" fill="#C79B67"/><path d="M11.002 54h-3a1 1 0 0 0 0 2h3a1 1 0 0 0 0-2Z" fill="#C79B67"/></svg>