<svg width="20" height="20" fill="none" xmlns="http://www.w3.org/2000/svg"><g clip-path="url(#a)"><path d="M0 10C0 4.477 4.476 0 10 0c5.522 0 10 4.477 10 10s-4.478 10-10 10C4.476 20 0 15.523 0 10Z" fill="#FC3F1D"/><path d="M15.711 6.565a1.772 1.772 0 0 0-1.233-1.26C13.382 5 10 5 10 5s-3.382 0-4.478.294a1.808 1.808 0 0 0-1.234 1.27C4 7.683 4 10 4 10s0 2.33.288 3.435a1.772 1.772 0 0 0 1.234 1.26C6.63 15 10 15 10 15s3.382 0 4.478-.294a1.772 1.772 0 0 0 1.234-1.259C16 12.329 16 10.012 16 10.012s.012-2.33-.289-3.447ZM8.605 12.14V7.86L12.249 10l-3.644 2.141Z" fill="#fff"/></g><defs><clipPath id="a"><path fill="#fff" d="M0 0h20v20H0z"/></clipPath></defs></svg>