<svg width="64" height="64" fill="none" xmlns="http://www.w3.org/2000/svg"><path d="M57.032 37.91H40.913l15.424-15.593a3.359 3.359 0 0 0 .966-2.36c0-.885-.347-1.734-.966-2.36L45.545 6.7a3.277 3.277 0 0 0-2.329-.974c-.873 0-1.71.35-2.328.974-3.473 3.527-10.606 10.703-14.036 14.183V7.34c-.001-.886-.35-1.735-.969-2.36A3.289 3.289 0 0 0 23.548 4H8.294a3.285 3.285 0 0 0-2.33.981A3.358 3.358 0 0 0 5 7.34v3.61c0 .265.104.52.29.707a.984.984 0 0 0 1.399 0c.185-.187.29-.442.29-.707V7.34a1.344 1.344 0 0 1 .383-.945c.247-.251.582-.393.932-.395h15.254c.351 0 .688.141.937.392.248.252.388.593.388.948v15.54L14.52 33.344a1.006 1.006 0 0 0 .012 1.402.984.984 0 0 0 1.387.012l8.55-8.639 6.313 6.382a.989.989 0 0 0 .703.305.981.981 0 0 0 .708-.293 1.001 1.001 0 0 0 .29-.715 1.011 1.011 0 0 0-.303-.711l-6.313-6.382 7.85-7.932 9.482 9.586a.983.983 0 0 0 1.387-.012 1.006 1.006 0 0 0 .012-1.402l-9.482-9.586 7.171-7.246a1.31 1.31 0 0 1 1.86 0l10.792 10.899a1.347 1.347 0 0 1 0 1.891L38.116 37.91H15.92a10.812 10.812 0 0 0-5.044 1.255 10.945 10.945 0 0 0-3.899 3.471v-9.828h5.827a.984.984 0 0 0 .7-.293 1.006 1.006 0 0 0 0-1.414.984.984 0 0 0-.7-.293H6.978v-11.22h10.844a.984.984 0 0 0 .7-.293 1.006 1.006 0 0 0 0-1.414.984.984 0 0 0-.7-.293H6.978V14.95c0-.265-.104-.52-.29-.707a.984.984 0 0 0-1.398 0c-.186.187-.29.442-.29.707 0 0 .012 26.54 0 34.01a11.114 11.114 0 0 0 3.202 7.803A10.873 10.873 0 0 0 15.921 60h19.487a.984.984 0 0 0 .7-.293 1.005 1.005 0 0 0 0-1.414.984.984 0 0 0-.7-.293H15.921c-11.866-.497-11.858-17.592 0-18.09h6.506v11.636c0 .265.104.52.29.707a.984.984 0 0 0 1.399 0c.185-.187.29-.442.29-.707V39.91h11.098v10.352c0 .265.104.52.29.707a.984.984 0 0 0 1.399 0c.185-.187.29-.442.29-.707V39.91H48.58v6.585c0 .265.104.52.29.707a.984.984 0 0 0 1.398 0c.186-.187.29-.442.29-.707V39.91h6.473c.263 0 .514.105.7.293.185.187.29.442.29.707V57c0 .265-.105.52-.29.707a.984.984 0 0 1-.7.293H39.365a.984.984 0 0 0-.7.293 1.006 1.006 0 0 0 0 1.414.984.984 0 0 0 .7.293h17.667c.787 0 1.542-.317 2.098-.88A3.02 3.02 0 0 0 60 57V40.91a3.02 3.02 0 0 0-.87-2.12 2.954 2.954 0 0 0-2.098-.88Z" fill="#C79B67"/><path d="M12.805 45.017a3.877 3.877 0 0 0-2.7 1.185 3.962 3.962 0 0 0-1.11 2.754c0 1.03.399 2.018 1.11 2.754a3.877 3.877 0 0 0 2.7 1.185 3.878 3.878 0 0 0 2.699-1.185 3.962 3.962 0 0 0 1.11-2.754c0-1.03-.398-2.018-1.11-2.754a3.878 3.878 0 0 0-2.7-1.185Zm0 5.878a1.91 1.91 0 0 1-1.317-.59 1.951 1.951 0 0 1 0-2.699 1.91 1.91 0 0 1 1.317-.589c.498.016.97.227 1.317.59a1.951 1.951 0 0 1 0 2.699 1.91 1.91 0 0 1-1.317.589Z" fill="#C79B67"/></svg>