<svg width="34" height="34" fill="none" xmlns="http://www.w3.org/2000/svg"><path d="M31 14.166v4.188c0 5.583-2.8 8.375-8.4 8.375h-.7c-.434 0-.854.21-1.12.558l-2.1 2.792c-.924 1.228-2.436 1.228-3.36 0l-2.1-2.792c-.224-.307-.742-.558-1.12-.558h-.7c-5.6 0-8.4-1.396-8.4-8.375v-6.98C3 5.793 5.8 3 11.4 3h8.4" stroke="#C79B67" stroke-width="2" stroke-miterlimit="10" stroke-linecap="round" stroke-linejoin="round"/><path d="M27.5 10a3.5 3.5 0 1 0 0-7 3.5 3.5 0 0 0 0 7ZM22.952 15.875h.018M17.284 15.875h.018M11.616 15.875h.018" stroke="#C79B67" stroke-width="2" stroke-linecap="round" stroke-linejoin="round"/></svg>