<svg width="220" height="84" fill="none" xmlns="http://www.w3.org/2000/svg"><path d="M.5 21.6c0-4.51 0-7.854.284-10.465.281-2.601.839-4.417 1.912-5.895A11.5 11.5 0 0 1 5.24 2.696c1.478-1.073 3.294-1.63 5.895-1.912C13.746.5 17.09.5 21.6.5h176.8c4.511 0 7.854 0 10.465.284 2.601.281 4.417.839 5.895 1.912a11.52 11.52 0 0 1 2.544 2.544c1.073 1.478 1.631 3.294 1.912 5.895.283 2.611.284 5.954.284 10.465v32.8c0 4.51-.001 7.854-.284 10.465-.281 2.601-.839 4.417-1.912 5.895a11.52 11.52 0 0 1-2.544 2.544c-1.478 1.073-3.294 1.63-5.895 1.912-2.611.283-5.954.284-10.465.284H26.899a8.953 8.953 0 0 0-3.36.654L7.77 82.538c-.889.36-1.6-.797-.88-1.428 2.223-1.948.845-5.61-2.11-5.61H3.27A2.77 2.77 0 0 1 .5 72.73V21.6Z" fill="#fff" stroke="#EFEFEF"/></svg>