<svg width="24" height="25" fill="none" xmlns="http://www.w3.org/2000/svg"><path d="M21.882 10.5v2.956c0 3.94-1.976 5.911-5.929 5.911h-.494c-.306 0-.603.148-.79.395l-1.483 1.97c-.652.867-1.72.867-2.372 0l-1.482-1.97c-.158-.217-.524-.395-.79-.395h-.495c-3.953 0-5.93-.985-5.93-5.911V8.529c0-3.94 1.977-5.911 5.93-5.911h5.93" stroke="#C79B67" stroke-width="2" stroke-miterlimit="10" stroke-linecap="round" stroke-linejoin="round"/><path d="M19.412 7.559a2.47 2.47 0 1 0 0-4.941 2.47 2.47 0 0 0 0 4.94ZM16.201 11.706h.013M12.2 11.706h.013M8.2 11.706h.012" stroke="#C79B67" stroke-width="2" stroke-linecap="round" stroke-linejoin="round"/></svg>