<svg width="230" height="60" fill="none" xmlns="http://www.w3.org/2000/svg"><path d="M91.905 23.478c.094-.073.302-.306.632-.703.326-.393.753-.813 1.28-1.256a10.675 10.675 0 0 1 1.825-1.221 4.649 4.649 0 0 1 2.23-.558c1.405 0 2.401.44 2.984 1.314.587.878.879 2.091.879 3.645v8.99c0 .37.208.65.629.833.42.187.886.328 1.401.427.212.05.314.199.314.443 0 .149-.023.344-.068.592-.606-.05-1.201-.092-1.788-.13a31.057 31.057 0 0 0-3.775 0c-.632.034-1.242.08-1.821.13a3.442 3.442 0 0 1-.069-.592c0-.248.103-.393.315-.443.208-.023.424-.072.647-.149.224-.072.424-.16.614-.26.185-.099.344-.213.473-.35a.694.694 0 0 0 .193-.5v-7.62c0-1.531-.174-2.558-.522-3.093-.353-.53-.924-.794-1.716-.794-.61 0-1.185.107-1.734.314-.55.21-1.034.519-1.454.923-.42.409-.757.905-1.015 1.5-.257.592-.386 1.272-.386 2.035v6.735c0 .37.197.648.594.832.398.187.84.328 1.33.427.208.05.314.199.314.443 0 .149-.023.344-.069.592-.605-.05-1.196-.092-1.768-.13a27.105 27.105 0 0 0-1.802-.057c-.629 0-1.254.019-1.871.057-.617.034-1.23.08-1.837.13a3.452 3.452 0 0 1-.068-.592c0-.248.106-.393.314-.443.42-.072.845-.202 1.277-.39.431-.186.647-.476.647-.87v-7.62c0-1.53-.17-2.557-.503-3.091-.338-.531-.898-.795-1.69-.795-.601 0-1.177.107-1.722.314a4.367 4.367 0 0 0-1.462.923 4.407 4.407 0 0 0-1.026 1.5c-.258.592-.383 1.272-.383 2.035v6.735c0 .37.205.648.614.832.409.187.844.328 1.314.427.208.05.314.199.314.443 0 .149-.023.344-.068.592-.61-.05-1.204-.092-1.787-.13a28.777 28.777 0 0 0-1.867-.057c-.686 0-1.333.019-1.943.057-.61.034-1.204.08-1.787.13a3.442 3.442 0 0 1-.068-.592c0-.248.106-.393.314-.443.511-.099.98-.24 1.401-.427.42-.187.632-.474.632-.87V23.587c0-.74-.12-1.27-.367-1.592-.246-.32-.776-.519-1.594-.591-.303-.05-.455-.222-.455-.52 0-.122.023-.282.069-.48a22 22 0 0 0 1.276-.054c.549-.038 1-.08 1.352-.13.541-.099 1.026-.206 1.45-.313.424-.11.73-.168.92-.168.33 0 .492.187.492.558 0 .343-.034.756-.102 1.24-.068.481-.106 1.115-.106 1.905.068-.076.265-.309.59-.702.326-.393.75-.813 1.273-1.26.523-.443 1.121-.844 1.795-1.203a4.72 4.72 0 0 1 2.23-.534c1.209 0 2.11.328 2.704.981.587.653.943 1.57 1.06 2.753ZM118.817 32.357c.163-.172.337-.26.523-.26.231 0 .454.21.662.63-.303.443-.655.879-1.049 1.295-.397.42-.871.797-1.416 1.13a7.5 7.5 0 0 1-1.871.794c-.7.198-1.503.297-2.416.297a7.38 7.38 0 0 1-2.658-.48 6.055 6.055 0 0 1-2.223-1.482c-.643-.664-1.155-1.492-1.541-2.477-.386-.985-.575-2.146-.575-3.478 0-1.26.227-2.417.681-3.478.455-1.061 1.045-1.966 1.769-2.722a8.292 8.292 0 0 1 2.397-1.756c.874-.42 1.719-.63 2.537-.63 2.17 0 3.749.665 4.741 1.997.992 1.332 1.488 3.07 1.488 5.215 0 .148-.068.221-.212.221l-10.115.481c0 .962.129 1.852.383 2.665.257.813.617 1.515 1.083 2.107a4.923 4.923 0 0 0 1.693 1.386c.662.332 1.412.5 2.249.5.742 0 1.458-.187 2.143-.558a5.432 5.432 0 0 0 1.727-1.397Zm-5.654-11.28c-1.158 0-2.067.48-2.715 1.442-.651.962-.977 2.222-.977 3.776l6.582-.332c.348 0 .522-.16.522-.481 0-.47-.068-.962-.208-1.481a5.043 5.043 0 0 0-.625-1.424 3.616 3.616 0 0 0-1.064-1.073c-.432-.286-.935-.428-1.515-.428ZM124.414 13.75c0-.74-.121-1.263-.367-1.572-.247-.305-.777-.5-1.591-.573-.303-.05-.454-.221-.454-.519 0-.149.022-.32.068-.519.303 0 .731-.02 1.276-.057.549-.035 1-.08 1.352-.13a10.125 10.125 0 0 0 1.45-.294c.424-.122.731-.187.92-.187.33 0 .496.187.496.554 0 .42-.034.9-.106 1.443a16.36 16.36 0 0 0-.106 1.996v9.25c.86-1.21 1.704-2.077 2.541-2.607.833-.531 1.856-.794 3.06-.794.788 0 1.549.171 2.28.519.73.347 1.374.859 1.931 1.534.557.68 1.003 1.512 1.34 2.497.337.985.504 2.107.504 3.367 0 1.382-.242 2.604-.735 3.661-.488 1.061-1.094 1.955-1.813 2.684-.724.729-1.511 1.282-2.375 1.664-.859.382-1.651.573-2.374.573-.886 0-1.734-.11-2.549-.332a10.562 10.562 0 0 1-2.2-.852c-.253.027-.499.1-.734.222a4.985 4.985 0 0 0-.629.39c-.185.137-.356.259-.504.37-.151.11-.272.164-.367.164a.985.985 0 0 1-.522-.15c.022-.392.045-.744.068-1.053.022-.31.045-.61.068-.905.023-.297.042-.599.053-.908.011-.306.019-.66.019-1.054V13.751Zm2.938 19.088a7.04 7.04 0 0 0 1.916 1.516c.697.37 1.5.553 2.405.553 1.325 0 2.329-.591 3.014-1.775.686-1.183 1.03-2.702 1.03-4.55 0-.94-.098-1.832-.295-2.684-.197-.851-.489-1.596-.871-2.237s-.844-1.145-1.378-1.516c-.534-.37-1.148-.553-1.845-.553-.465 0-.931.141-1.397.424-.466.286-.89.649-1.272 1.092a5.948 5.948 0 0 0-.943 1.5 4.173 4.173 0 0 0-.367 1.683v6.547h.003ZM154.129 32.357c.162-.172.337-.26.522-.26.231 0 .455.21.663.63-.303.443-.655.879-1.049 1.295-.398.42-.871.797-1.416 1.13a7.5 7.5 0 0 1-1.871.794c-.701.198-1.503.297-2.416.297-.932 0-1.821-.16-2.658-.48a6.047 6.047 0 0 1-2.223-1.482c-.644-.664-1.155-1.492-1.541-2.477-.387-.985-.576-2.146-.576-3.478 0-1.26.227-2.417.682-3.478.454-1.061 1.045-1.966 1.768-2.722a8.292 8.292 0 0 1 2.397-1.756c.875-.42 1.719-.63 2.537-.63 2.17 0 3.749.665 4.741 1.997.992 1.332 1.488 3.07 1.488 5.215 0 .148-.068.221-.212.221l-10.114.481c0 .962.129 1.852.382 2.665.258.813.618 1.515 1.083 2.107a4.932 4.932 0 0 0 1.693 1.386c.663.332 1.413.5 2.249.5.743 0 1.458-.187 2.144-.558a5.522 5.522 0 0 0 1.727-1.397Zm-5.658-11.28c-1.159 0-2.067.48-2.715 1.442-.651.962-.977 2.222-.977 3.776l6.581-.332c.349 0 .523-.16.523-.481 0-.47-.068-.962-.208-1.481a5.071 5.071 0 0 0-.625-1.424 3.616 3.616 0 0 0-1.064-1.073c-.428-.286-.932-.428-1.515-.428ZM165.394 35.984a87.14 87.14 0 0 0-1.859-.13 31.543 31.543 0 0 0-1.905-.057c-.636 0-1.287.019-1.958.057-.666.034-1.291.08-1.874.13a3.49 3.49 0 0 1-.068-.592c0-.248.106-.393.314-.443.515-.099.992-.24 1.435-.427.443-.187.667-.474.667-.87V13.746c0-.79-.148-1.325-.436-1.611-.291-.286-.844-.462-1.662-.538-.303-.05-.455-.222-.455-.52 0-.148.023-.32.069-.519.303 0 .723-.019 1.261-.057.534-.034 1.026-.08 1.473-.13a10.14 10.14 0 0 0 1.45-.294c.424-.122.731-.187.92-.187.212 0 .352.05.424.149.072.1.106.237.106.405 0 .42-.034.908-.106 1.462a16.145 16.145 0 0 0-.106 1.943v19.794c0 .393.216.683.648.87.431.187.916.328 1.454.428.185.05.28.198.28.443a3.899 3.899 0 0 1-.072.599ZM171.324 35.8c-.401 0-.806.008-1.219.02a34.853 34.853 0 0 0-2.053.13c-.257.022-.42.038-.488.038 0-.027-.011-.111-.034-.26a2.387 2.387 0 0 1-.034-.332c0-.248.106-.393.314-.443.606-.122 1.098-.271 1.469-.443.375-.171.561-.454.561-.851V23.596c0-.74-.121-1.271-.368-1.592-.246-.32-.776-.52-1.594-.592-.303-.05-.454-.221-.454-.519 0-.122.023-.282.068-.48.303 0 .731-.02 1.276-.054.549-.039 1-.08 1.352-.13a22.62 22.62 0 0 0 1.45-.313c.424-.11.731-.168.921-.168.329 0 .492.187.492.557 0 .344-.034.756-.102 1.24-.069.482-.106 1.116-.106 1.906v10.212c0 .393.181.676.541.851.364.172.867.32 1.522.443.186.05.281.198.281.443 0 .072-.008.187-.019.332-.012.149-.031.233-.053.26-.069 0-.228-.016-.47-.039-.242-.023-.541-.05-.894-.072a40.59 40.59 0 0 0-1.143-.057 25.9 25.9 0 0 0-1.216-.023Zm-2.045-21.607c0-.591.193-1.103.58-1.534a1.865 1.865 0 0 1 1.454-.65c.56 0 1.026.215 1.401.65.375.431.56.943.56 1.534 0 .642-.185 1.16-.56 1.554a1.857 1.857 0 0 1-1.401.592c-.583 0-1.068-.199-1.454-.592-.387-.393-.58-.912-.58-1.554ZM185.343 33.617c.113-.122.216-.198.295-.221a.668.668 0 0 1 .193-.039c.209 0 .398.16.561.481a8.648 8.648 0 0 1-1.958 1.741 4.123 4.123 0 0 1-2.242.664 5.19 5.19 0 0 1-1.329-.168c-.42-.11-.78-.328-1.087-.649-.303-.32-.541-.76-.719-1.313-.174-.557-.262-1.275-.262-2.164V21.737h-2.101v-.405c0-.172.03-.332.087-.48.057-.15.178-.222.367-.222.629 0 1.144-.172 1.538-.52.397-.343.723-.79.98-1.332.281-.591.527-1.145.735-1.664.212-.52.443-.775.701-.775h.628v3.848h4.094c0 .52-.053.905-.159 1.164a.578.578 0 0 1-.58.39h-3.359v9.173c0 .79.034 1.424.106 1.905.069.481.175.851.315 1.111s.303.428.488.5c.186.073.398.11.633.11.397 0 .765-.09 1.102-.278.348-.183.666-.4.973-.645ZM189.925 35.022c-1.004-.615-1.504-1.504-1.504-2.665 0-1.233.769-2.244 2.31-3.035a4.606 4.606 0 0 1-1.556-1.683c-.386-.703-.579-1.573-.579-2.608 0-.69.159-1.355.473-1.996a5.787 5.787 0 0 1 1.276-1.703 6.021 6.021 0 0 1 1.837-1.164 5.65 5.65 0 0 1 2.188-.428c1.167 0 2.102.15 2.799.443.7.298 1.306.664 1.821 1.111l3.465-1.592c.258.172.443.401.561.683.113.287.174.55.174.794 0 .543-.174.814-.523.814l-1.261-.035c-.443 0-.981.073-1.609.222.56.763.837 1.702.837 2.813 0 .764-.163 1.466-.489 2.108a5.02 5.02 0 0 1-1.329 1.645c-.56.458-1.223.813-1.992 1.073-.768.26-1.586.389-2.45.389-.488 0-.958-.03-1.401-.092a6.002 6.002 0 0 1-1.257-.313c-.61.294-1.03.592-1.261.89-.235.294-.352.58-.352.851 0 .199.057.39.174.573.117.183.333.343.647.48.315.134.758.249 1.33.333.571.088 1.302.13 2.188.13 1.053 0 2.041.087 2.977.26.935.171 1.757.457 2.469.85a4.574 4.574 0 0 1 1.681 1.554c.409.642.613 1.417.613 2.329 0 1.012-.193 1.924-.579 2.737a6.096 6.096 0 0 1-1.609 2.088c-.689.58-1.515 1.023-2.484 1.333-.97.309-2.026.462-3.166.462-2.193 0-3.908-.42-5.146-1.256-1.239-.84-1.856-2.184-1.856-4.032 0-.542.08-1.042.246-1.496.163-.458.368-.87.614-1.24.246-.371.522-.692.837-.963a6.65 6.65 0 0 1 .886-.664Zm.84.443c-.56.568-.874 1.282-.946 2.145a5.105 5.105 0 0 0-.034.592v.63a4.17 4.17 0 0 0 .386 1.553c.235.52.572.974 1.015 1.371.443.393.992.714 1.643.962.651.244 1.413.37 2.276.37 1.609 0 2.783-.378 3.518-1.126.735-.752 1.102-1.683 1.102-2.794 0-.47-.091-.901-.28-1.294-.19-.394-.504-.733-.947-1.02-.443-.282-1.026-.504-1.75-.664-.723-.16-1.62-.24-2.692-.24-.606 0-1.197-.035-1.768-.111a6.454 6.454 0 0 1-1.523-.374Zm3.954-6.547c.863 0 1.552-.298 2.064-.89.511-.591.768-1.405.768-2.443 0-.542-.053-1.08-.159-1.611a4.62 4.62 0 0 0-.541-1.443 3.116 3.116 0 0 0-1.034-1.054c-.432-.27-.973-.404-1.628-.404-.815 0-1.466.282-1.943.85-.477.57-.716 1.345-.716 2.33 0 .569.053 1.13.156 1.683.106.558.28 1.054.526 1.5.246.443.572.802.981 1.073.412.275.92.409 1.526.409ZM208.559 35.8c-.401 0-.806.008-1.219.02a34.388 34.388 0 0 0-2.052.13c-.254.022-.421.038-.489.038 0-.027-.011-.111-.034-.26a2.387 2.387 0 0 1-.034-.332c0-.248.106-.393.314-.443.606-.122 1.098-.271 1.47-.443.374-.171.56-.454.56-.851V23.596c0-.74-.121-1.271-.367-1.592-.246-.32-.777-.52-1.595-.592-.302-.05-.454-.221-.454-.519 0-.122.023-.282.068-.48.303 0 .731-.02 1.276-.054.549-.039 1-.08 1.352-.13.542-.1 1.026-.206 1.451-.313.424-.11.73-.168.92-.168.329 0 .492.187.492.557 0 .344-.034.756-.102 1.24-.068.482-.106 1.116-.106 1.906v10.212c0 .393.182.676.541.851.36.176.867.32 1.523.443.185.05.28.198.28.443 0 .072-.008.187-.019.332-.012.149-.03.233-.053.26-.068 0-.227-.016-.47-.039-.242-.023-.541-.05-.893-.072a40.863 40.863 0 0 0-1.144-.057 25.9 25.9 0 0 0-1.216-.023Zm-2.044-21.607c0-.591.193-1.103.579-1.534a1.865 1.865 0 0 1 1.454-.65c.56 0 1.026.215 1.401.65.375.435.561.943.561 1.534 0 .642-.186 1.16-.561 1.554a1.857 1.857 0 0 1-1.401.592c-.583 0-1.068-.199-1.454-.592-.386-.393-.579-.912-.579-1.554ZM214.387 27.994c0-1.134.205-2.207.614-3.218a8.293 8.293 0 0 1 1.662-2.627 7.83 7.83 0 0 1 2.469-1.756 7.275 7.275 0 0 1 3.06-.649c1.143 0 2.192.203 3.15.61a7.39 7.39 0 0 1 2.469 1.684c.689.714 1.223 1.585 1.61 2.608.386 1.023.579 2.142.579 3.348 0 1.16-.204 2.237-.613 3.237a8.379 8.379 0 0 1-1.663 2.607 7.918 7.918 0 0 1-2.465 1.76 7.293 7.293 0 0 1-3.064.65c-1.143 0-2.192-.203-3.15-.611a7.278 7.278 0 0 1-2.465-1.684c-.689-.714-1.223-1.577-1.61-2.588-.39-1.016-.583-2.138-.583-3.371Zm3.291-1.222c0 .913.091 1.852.28 2.814.189.962.473 1.832.86 2.607.386.775.878 1.416 1.488 1.924s1.34.76 2.204.76c1.329 0 2.363-.493 3.097-1.481.735-.99 1.102-2.26 1.102-3.81 0-.913-.087-1.867-.261-2.867-.174-1-.454-1.913-.841-2.737-.386-.825-.886-1.512-1.503-2.054-.621-.542-1.382-.813-2.291-.813-1.238 0-2.234.45-2.992 1.351-.764.897-1.143 2.332-1.143 4.306ZM89.659 57.9l1.76-8.28 2.992 7.036 2.992-7.035 1.76 8.28h-.772l-1.212-6.1-2.771 6.577-2.769-6.578-1.211 6.1h-.769ZM107.623 54.094h-6.403c0 .97.292 1.76.871 2.371.579.61 1.284.916 2.102.916.587 0 1.105-.164 1.56-.488.45-.325.799-.756 1.045-1.29l.621.381c-.28.561-.693 1.054-1.231 1.481-.537.428-1.223.642-2.052.642-1.14 0-2.037-.386-2.7-1.157-.659-.771-.988-1.745-.988-2.917 0-1.286.355-2.294 1.071-3.023.716-.725 1.572-1.088 2.56-1.088 1.015 0 1.859.39 2.533 1.164.674.783 1.011 1.787 1.011 3.008Zm-6.346-.725h5.578c-.099-.79-.402-1.44-.909-1.95-.511-.512-1.129-.764-1.863-.764a2.57 2.57 0 0 0-1.89.775c-.515.515-.822 1.16-.916 1.94ZM110.062 51.953h.034c.28-.676.727-1.184 1.333-1.52a3.93 3.93 0 0 1 1.954-.507c1.14 0 2.052.378 2.742 1.126.693.752 1.037 1.733 1.037 2.943 0 1.249-.371 2.249-1.117 2.993-.746.745-1.689 1.119-2.825 1.119-1.075 0-1.95-.325-2.624-.977-.856-.84-1.284-2.23-1.284-4.17 0-3.137.784-5.233 2.352-6.29a3.44 3.44 0 0 1 .477-.28c.17-.08.322-.148.451-.202.128-.05.303-.106.522-.16.22-.057.379-.095.477-.114.099-.02.273-.054.523-.107.25-.05.401-.084.45-.096.906-.202 1.455-.542 1.652-1.015h.916a2.906 2.906 0 0 1-.504.813c-.2.225-.447.4-.734.534a5.741 5.741 0 0 1-.716.287c-.189.057-.443.122-.761.202-1.212.256-2.087.603-2.624 1.05-.565.47-.985 1.11-1.258 1.912a8.731 8.731 0 0 0-.473 2.459Zm3.158 5.432c1.049 0 1.844-.343 2.374-1.023.531-.68.799-1.47.799-2.363 0-.89-.268-1.672-.81-2.344-.541-.672-1.272-1.004-2.2-1.004-1.003 0-1.791.34-2.367 1.016a3.497 3.497 0 0 0-.863 2.332c0 .855.238 1.607.716 2.256.552.752 1.333 1.13 2.351 1.13ZM126.027 54.094h-6.403c0 .97.291 1.76.871 2.371.579.61 1.279.916 2.101.916.587 0 1.106-.164 1.56-.488a3.174 3.174 0 0 0 1.045-1.29l.625.381c-.28.561-.693 1.054-1.23 1.481-.538.428-1.224.642-2.057.642-1.136 0-2.037-.386-2.696-1.157-.662-.771-.992-1.745-.992-2.917 0-1.286.36-2.294 1.076-3.023.715-.725 1.567-1.088 2.559-1.088 1.019 0 1.86.39 2.534 1.164.67.783 1.007 1.787 1.007 3.008Zm-6.35-.725h5.577c-.098-.79-.401-1.44-.908-1.95-.508-.512-1.129-.764-1.863-.764a2.57 2.57 0 0 0-1.89.775c-.511.515-.818 1.16-.916 1.94ZM133.438 50.098V57.9h-.735v-7.078h-3.45v4.512c0 .855-.147 1.485-.439 1.894-.329.473-.81.706-1.431.706-.072 0-.197-.011-.368-.038v-.73c.121.027.216.039.277.039.416 0 .738-.172.973-.516.174-.278.257-.732.257-1.358v-5.234h4.916ZM136.081 50.098h.735v3.252h1.779c.856 0 1.492.244 1.909.73.356.408.53.923.53 1.55 0 .702-.22 1.263-.659 1.683-.401.397-1.003.591-1.799.591h-2.495v-7.806Zm.735 7.077h1.76c.515 0 .905-.118 1.174-.362.345-.294.515-.691.515-1.188 0-.523-.178-.923-.53-1.206-.295-.229-.693-.343-1.193-.343h-1.726v3.1ZM147.843 50.098h4.919v7.074h1.101V60h-.696v-2.103h-6.313V60h-.697v-2.828c.61-.039 1.072-.382 1.375-1.031.208-.447.311-1.15.311-2.104v-3.94Zm4.184 7.077v-6.352h-3.45v3.443c0 1.379-.318 2.348-.954 2.906h4.404v.003ZM161.017 50.098V57.9h-.735v-7.078h-3.45v4.512c0 .855-.147 1.485-.439 1.894-.329.473-.81.706-1.431.706-.072 0-.197-.011-.368-.038v-.73c.121.027.216.039.277.039.416 0 .738-.172.973-.516.174-.278.257-.732.257-1.358v-5.234h4.916ZM162.849 57.9l2.386-3.405c-.576-.026-1.064-.217-1.469-.572-.413-.382-.621-.897-.621-1.55 0-.752.227-1.325.678-1.722.401-.37.996-.553 1.779-.553h2.496V57.9h-.735v-3.367h-1.283l-2.348 3.367h-.883Zm4.514-4.092v-2.985h-1.761c-.515 0-.912.114-1.192.344-.33.294-.493.687-.493 1.187 0 .485.159.855.477 1.11.296.23.697.344 1.212.344h1.757ZM178.466 50.098h.735v3.71l3.377-3.71h.955l-3.488 3.748 3.783 4.055h-.992l-3.264-3.558-.368.381v3.177h-.734v-3.177l-.368-.381-3.264 3.558h-.988l3.779-4.055-3.487-3.748h.954l3.378 3.71v-3.71h-.008ZM185.29 50.098h.734v6.253l5.325-6.692V57.9h-.735v-6.215l-5.32 6.692v-8.28h-.004ZM194.59 51.743l-.606-.44c.515-.92 1.303-1.377 2.367-1.377.719 0 1.272.183 1.651.553.401.37.606.874.606 1.512 0 .764-.288 1.306-.864 1.626.33.077.625.248.883.516.356.37.53.866.53 1.492 0 .802-.296 1.44-.882 1.913-.489.382-1.125.573-1.909.573-.81 0-1.462-.199-1.962-.592a3.46 3.46 0 0 1-.901-1.13l.659-.44c.186.42.447.753.788.997.378.294.852.44 1.412.44.625 0 1.102-.146 1.432-.44.393-.332.587-.779.587-1.34 0-.496-.171-.878-.515-1.149-.292-.229-.75-.343-1.375-.343h-.773v-.73h.568c.478 0 .852-.106 1.118-.324.306-.256.458-.588.458-.996 0-.409-.129-.745-.386-1.016-.281-.267-.667-.4-1.155-.4-.769.003-1.349.37-1.731 1.095ZM201.327 57.9v-7.802h.734v3.443h4.223v-3.443h.734V57.9h-.734v-3.635h-4.223v3.635h-.734ZM209.658 50.098h.734v6.253l5.321-6.692V57.9h-.735v-6.215l-5.32 6.692v-8.28Z" fill="#fff"/><path d="M57.066 13.758H35.811c0 .008-.003.016-.003.023-3.814.126-6.866 3.203-6.99 7.047-.008 0-.016.004-.024.004-.007 0-.015-.004-.022-.004-.125-3.844-3.177-6.92-6.99-7.047 0-.007-.004-.015-.004-.023H1.394A1.4 1.4 0 0 0 0 15.163v41.749c0 .324.261.587.583.587h5.84a.586.586 0 0 0 .582-.587V35.178c0-5.073 3.878-9.498 8.907-9.65 5.207-.157 9.474 4.05 9.474 9.261v22.119c0 .324.262.588.584.588h6.501a.586.586 0 0 0 .584-.588V35.175c0-5.074 3.877-9.498 8.906-9.651 5.207-.157 9.474 4.05 9.474 9.261v22.119c0 .324.262.588.584.588h5.839a.586.586 0 0 0 .583-.588V15.159a1.37 1.37 0 0 0-1.375-1.4Z" fill="#C79B67"/><path d="M35.664 6.463c-3.495-.114-6.294-2.936-6.408-6.46L29.235 0c-.008 0-.015.004-.023.004-.114 3.523-2.912 6.345-6.407 6.46 0 .007-.004.014-.004.022 0 .008.004.015.004.023 3.495.114 6.293 2.936 6.407 6.46.008 0 .015.003.023.003.007 0 .015-.004.022-.004.114-3.523 2.913-6.345 6.408-6.46 0-.007.003-.014.003-.022 0-.008-.003-.015-.003-.023Z" fill="#fff"/></svg>