<svg width="64" height="64" fill="none" xmlns="http://www.w3.org/2000/svg"><path d="M60.588 19.117H38.766l-.003.024c-3.915.129-7.049 3.286-7.177 7.23-.008 0-.016.005-.024.005-.007 0-.015-.004-.023-.004-.128-3.945-3.262-7.102-7.177-7.231 0-.008-.004-.016-.004-.024H3.431c-.79 0-1.431.646-1.431 1.442v42.838c0 .333.268.603.599.603h5.995c.33 0 .598-.27.598-.603v-22.3c0-5.207 3.981-9.747 9.144-9.903 5.346-.16 9.727 4.156 9.727 9.503v22.696c0 .333.269.603.6.603h6.674c.33 0 .6-.27.6-.603v-22.3c0-5.207 3.98-9.747 9.143-9.903 5.346-.16 9.727 4.156 9.727 9.503v22.696c0 .333.268.603.599.603h5.995c.33 0 .599-.27.599-.603V20.555a1.406 1.406 0 0 0-1.412-1.438Z" fill="#E00613"/><path d="M38.615 11.632c-3.589-.118-6.462-3.013-6.578-6.628-.008 0-.016-.004-.023-.004-.008 0-.016.004-.024.004-.116 3.615-2.99 6.51-6.578 6.628 0 .008-.004.015-.004.023s.004.016.004.024c3.588.117 6.462 3.012 6.578 6.628.008 0 .016.004.024.004.007 0 .015-.004.023-.004.117-3.616 2.99-6.51 6.578-6.628 0-.008.004-.016.004-.024s-.004-.015-.004-.023Z" fill="url(#a)"/><defs><linearGradient id="a" x1="25.409" y1="11.652" x2="38.616" y2="11.652" gradientUnits="userSpaceOnUse"><stop stop-color="#FFF094"/><stop offset="1" stop-color="#C79B67"/></linearGradient></defs></svg>