<svg width="561" height="541" fill="none" xmlns="http://www.w3.org/2000/svg"><g clip-path="url(#a)"><path opacity=".75" d="M503.269 118.532S386.545 1.028 305.664.005C224.772-1.007 16.92 149.176 1.56 196.182-13.8 243.177 87.565 480.22 159.24 517.004c71.675 36.784 357.342-126.692 390.097-176.757 32.766-50.064-10.236-164.498-46.079-221.715h.012Z" fill="#F4EBE1"/><path opacity=".35" d="M343.709 44.317c-7.814 2.782-9.908 10.917-12.283 13.687-3.182 3.706-7.417-7.41-17.477-4.757-10.06 2.642-9.008 8.463-13.242 11.116-4.235 2.653-6.352-3.705-11.125-1.59-4.773 2.116-7.417 4.758-8.47 6.885-1.064 2.115-6.89.526-9.007 1.59-2.117 1.063-4.761 2.641-4.761 2.641h133.452s-1.591-11.642-8.47-14.283c-6.89-2.642-13.242 4.757-17.477 1.063 0 0-4.761-14.283-21.185-16.936-1.1-.176-2.141-.281-3.123-.328M486.996 172.412c-7.814 2.782-9.908 10.917-12.283 13.688-3.182 3.705-7.417-7.411-17.477-4.758-10.06 2.642-9.007 8.463-13.242 11.116-4.235 2.642-6.352-3.705-11.125-1.59-4.761 2.116-7.417 4.758-8.469 6.885-1.065 2.116-6.891.526-9.008 1.59-2.117 1.063-4.761 2.641-4.761 2.641h133.452s-1.591-11.642-8.47-14.283c-6.89-2.642-13.242 4.757-17.476 1.064 0 0-4.762-14.284-21.186-16.937a28.312 28.312 0 0 0-3.123-.328M199.445 355.105c-3.931-8.848-11.932-19.228-28.087-21.834-29.503-4.757-40.511 24.008-46.219 30.659-5.709 6.651-13.325-13.313-31.398-8.556-18.085 4.757-16.179 15.207-23.794 19.964-7.616 4.757-11.417-6.651-19.98-2.852s-13.325 8.556-15.22 12.355c-1.906 3.799-12.364.947-16.178 2.852-3.802 1.905-8.563 4.757-8.563 4.757h239.788s-2.855-20.922-15.22-25.668c-12.364-4.757-23.794 8.556-31.397 1.905" stroke="#C79B67" stroke-miterlimit="10"/><path d="M108.809 482.295c-2.332.725-7.77 0-7.77 0-.06 0 1.559-3.436 1.689-3.638 1.476-2.366 5.712-6.076 8.735-5.327 2.177.547 3.177 2.901 2.439 4.923-.75 2.068-3.106 3.412-5.093 4.03v.012ZM58.141 480.773s-.595-3.722-.595-3.971c-.083-2.783 1.404-8.216 4.344-9.263 2.118-.749 4.248.666 4.76 2.759.523 2.14-.703 4.566-2.024 6.171-1.546 1.89-6.473 4.292-6.485 4.292v.012Z" fill="#C79B67"/><path d="M59.092 520.89c1.82.238 5.426-.797 6.437-1.094.167 1.557.37 3.091.63 4.589.132.642.215 1.308.382 1.927.142.618.297 1.236.44 1.842.345 1.249.654 2.414 1.012 3.567.178.583.345 1.13.523 1.701-.428-.892-1.142-2.307-1.226-2.426-1.344-2.045-5.14-5.231-7.782-4.506-1.904.523-2.725 2.604-2.047 4.375.702 1.808 2.797 2.937 4.558 3.448 1.94.559 6.212-.059 6.723-.13.44 1.379.869 2.722 1.31 3.971.285.82.558 1.593.832 2.342h1.797c-.357-.915-.726-1.867-1.095-2.889a166.12 166.12 0 0 1-1.261-3.543c.476-.202 4.177-1.772 5.664-3.211 1.559.987 3.332 1.832 3.641 1.974a143.67 143.67 0 0 0-1.106 4.031c-.334 1.284-.62 2.485-.893 3.626h1.75c.214-1.022.452-2.092.725-3.234.274-1.165.583-2.39.905-3.65.523.107 4.76.88 6.711.404 1.773-.428 3.927-1.474 4.688-3.258.75-1.735.012-3.852-1.868-4.458-2.618-.833-6.533 2.187-7.96 4.185-.096.131-1 1.76-1.44 2.604.202-.761.392-1.51.618-2.295.31-1.129.679-2.318 1.024-3.472.202-.594.404-1.189.618-1.795.19-.618.453-1.177.69-1.772.358-.868.762-1.748 1.167-2.627 1.142.392 4.486 1.462 6.259 1.308 1.82-.155 4.105-.868 5.129-2.509 1.011-1.605.595-3.817-1.178-4.685-2.464-1.213-6.795 1.177-8.497 2.937-.06.059-.38.464-.75.951.417-.844.846-1.688 1.298-2.532 1.297-2.39 2.689-4.78 4.07-7.182.285-.499.57-1.011.856-1.51.952.333 4.582 1.522 6.426 1.367 1.821-.154 4.105-.868 5.129-2.508 1.011-1.605.595-3.805-1.178-4.685-2.464-1.213-6.795 1.177-8.497 2.937-.06.059-.44.547-.868 1.106a98.276 98.276 0 0 0 2.118-3.972c1.178-2.33 2.201-4.684 3.022-7.05.333.119 4.558 1.605 6.616 1.426 1.821-.154 4.106-.868 5.129-2.508 1.012-1.605.595-3.817-1.178-4.685-2.463-1.213-6.795 1.177-8.496 2.937-.119.119-1.5 1.902-1.964 2.556 0-.024.024-.059.036-.083.833-2.485 1.321-4.97 1.666-7.336.357-2.366.476-4.625.547-6.706.072-2.081 0-3.995-.059-5.683-.048-.916-.107-1.748-.167-2.533l.048.036c.036.035 1.142-3.115 1.19-3.318.547-2.389.178-7.324-2.178-8.715-1.701-1.011-3.772-.143-4.57 1.581-.808 1.76-.166 4.055.703 5.672.88 1.653 3.927 4.066 4.688 4.661.048.808.095 1.676.119 2.639.036 1.689.06 3.591-.059 5.66-.024.547-.084 1.141-.131 1.724a113.08 113.08 0 0 0-.357-2.461c-.619-2.366-3.213-6.587-5.962-6.73-1.975-.107-3.415 1.605-3.332 3.508.084 1.938 1.726 3.674 3.237 4.708 1.57 1.082 5.486 1.831 6.342 1.986a47.479 47.479 0 0 1-.487 3.923c-.393 2.331-.94 4.804-1.81 7.229-.082-.012-.07 0-.154-.023 0-.928-.071-2.866-.095-3.02-.357-2.426-2.475-6.897-5.176-7.348-1.952-.321-3.57 1.224-3.69 3.115-.13 1.926 1.31 3.84 2.69 5.029 1.595 1.379 6.069 2.664 6.236 2.711a56.751 56.751 0 0 1-3.07 6.754c-.857 1.617-1.797 3.222-2.75 4.827 0-.642-.07-3.187-.095-3.377-.357-2.425-2.475-6.896-5.176-7.348-1.951-.321-3.57 1.225-3.689 3.115-.119 1.938 1.31 3.841 2.69 5.03 1.558 1.343 5.842 2.604 6.2 2.699-.43.725-.87 1.45-1.31 2.176-1.44 2.366-2.88 4.732-4.248 7.122-.476.82-.904 1.652-1.345 2.485-.011-.975-.071-2.735-.095-2.89-.357-2.425-2.475-6.896-5.176-7.348-1.952-.321-3.57 1.225-3.689 3.116-.119 1.938 1.309 3.84 2.69 5.029 1.392 1.201 4.961 2.33 5.973 2.64-.714 1.391-1.404 2.77-2.011 4.173-.25.606-.536 1.213-.75 1.819-.214.595-.44 1.189-.654 1.784a130.451 130.451 0 0 0-1.13 3.531c-.18.582-.334 1.141-.5 1.7.13-.987.32-2.556.32-2.699.013-2.449-1.392-7.193-4.01-8.049-1.88-.619-3.712.666-4.129 2.52a3.652 3.652 0 0 0-.083.714c-1.261 1.795-1.987 4.399-2.035 6.028 0 .154.143 2.021.238 2.96-.25-.749-.5-1.486-.75-2.259-.368-1.117-.713-2.306-1.058-3.46-.155-.606-.322-1.212-.476-1.831-.179-.618-.262-1.236-.405-1.854a66.941 66.941 0 0 1-.476-2.83c1.166-.309 4.558-1.261 5.938-2.354 1.428-1.142 2.94-2.985 2.892-4.923-.048-1.89-1.607-3.507-3.57-3.258-2.725.345-5.022 4.732-5.474 7.134-.012.083-.06.595-.107 1.213a70.918 70.918 0 0 1-.31-2.83c-.238-2.699-.392-5.469-.57-8.228-.037-.57-.084-1.153-.12-1.724.976-.249 4.665-1.248 6.117-2.401 1.427-1.142 2.939-2.985 2.891-4.923-.047-1.89-1.606-3.507-3.57-3.258-2.725.345-5.021 4.733-5.474 7.134a35.56 35.56 0 0 0-.118 1.403c-.12-1.498-.25-2.996-.429-4.482-.31-2.592-.75-5.125-1.38-7.538.345-.084 4.688-1.166 6.306-2.45 1.428-1.141 2.94-2.984 2.892-4.922-.047-1.891-1.606-3.508-3.57-3.258-2.725.345-5.021 4.732-5.474 7.134-.035.166-.202 2.414-.226 3.21 0-.024 0-.059-.023-.083-.679-2.533-1.643-4.875-2.654-7.039-1.011-2.164-2.154-4.126-3.249-5.897-1.094-1.772-2.201-3.329-3.189-4.697a87.158 87.158 0 0 0-1.535-2.021h.06c.047 0-.762-3.222-.845-3.424-.869-2.295-3.891-6.207-6.628-6.076-1.976.095-3.225 1.962-2.94 3.829.286 1.914 2.095 3.471 3.713 4.339 1.654.892 5.522 1.237 6.486 1.308.487.654 1 1.344 1.558 2.129.964 1.391 2.023 2.96 3.07 4.755.286.476.56.999.845 1.499-.654-.749-1.558-1.76-1.666-1.855-1.82-1.629-6.318-3.722-8.686-2.331-1.714.999-1.964 3.223-.845 4.756 1.142 1.57 3.463 2.117 5.295 2.141 1.916.035 5.581-1.499 6.39-1.843a51.427 51.427 0 0 1 1.761 3.543c.964 2.164 1.869 4.518 2.476 7.027l-.143.059c-.512-.761-1.642-2.342-1.75-2.461-1.63-1.819-5.866-4.387-8.377-3.27-1.809.809-2.297 2.985-1.356 4.637.963 1.677 3.212 2.485 5.021 2.711 2.094.274 6.533-1.117 6.7-1.177.547 2.354.916 4.804 1.166 7.324.178 1.819.285 3.674.369 5.541-.345-.547-1.82-2.616-1.952-2.758-1.63-1.82-5.866-4.388-8.377-3.27-1.809.808-2.297 2.984-1.357 4.637.964 1.676 3.213 2.485 5.022 2.711 2.047.261 6.307-1.047 6.664-1.165.035.844.083 1.688.119 2.532.107 2.77.214 5.541.392 8.275.06.952.155 1.879.25 2.806-.547-.808-1.57-2.247-1.678-2.354-1.63-1.819-5.866-4.387-8.377-3.269-1.809.808-2.296 2.984-1.356 4.637.963 1.676 3.212 2.485 5.021 2.711l.072-.024ZM536.848 449.062c-3.665 1.142-12.209 0-12.209 0-.084 0 2.463-5.398 2.653-5.719 2.309-3.721 8.961-9.547 13.732-8.358 3.428.856 4.986 4.554 3.832 7.74-1.166 3.258-4.879 5.363-8.008 6.337ZM457.238 446.673c-.083.036-.928-5.862-.94-6.23-.131-4.376 2.202-12.901 6.831-14.542 3.331-1.177 6.663 1.047 7.473 4.34.821 3.365-1.107 7.17-3.178 9.702-2.427 2.973-10.174 6.73-10.186 6.742v-.012Z" fill="#C79B67"/><path d="M458.727 509.701c2.867.369 8.532-1.248 10.114-1.724.262 2.437.572 4.851.988 7.205.202 1.011.345 2.057.595 3.02.226.975.464 1.938.69 2.901a225.034 225.034 0 0 0 1.583 5.601c.273.915.547 1.783.821 2.663-.678-1.403-1.797-3.615-1.928-3.805-2.106-3.222-8.068-8.216-12.233-7.074-2.998.82-4.283 4.09-3.213 6.872 1.095 2.842 4.391 4.613 7.164 5.41 3.046.88 9.758-.095 10.567-.214.678 2.176 1.368 4.28 2.047 6.242.44 1.284.868 2.497 1.297 3.674h2.832a296.552 296.552 0 0 1-1.726-4.53 240.792 240.792 0 0 1-1.975-5.564c.75-.31 6.557-2.783 8.901-5.042 2.451 1.558 5.236 2.878 5.724 3.104a269.96 269.96 0 0 0-1.738 6.325c-.523 2.021-.976 3.9-1.404 5.695h2.749c.345-1.617.714-3.293 1.142-5.089.429-1.819.905-3.757 1.428-5.731.833.155 7.473 1.391 10.555.642 2.797-.677 6.164-2.33 7.378-5.112 1.178-2.735.024-6.064-2.939-7.003-4.118-1.308-10.27 3.448-12.507 6.575-.143.202-1.571 2.758-2.261 4.09.322-1.189.631-2.378.976-3.615.488-1.783 1.059-3.65 1.607-5.457.321-.928.642-1.867.963-2.818.31-.963.714-1.843 1.071-2.782.56-1.368 1.202-2.747 1.833-4.126 1.785.606 7.056 2.295 9.829 2.057 2.868-.25 6.45-1.367 8.068-3.948 1.582-2.52.94-5.992-1.845-7.359-3.867-1.915-10.674 1.854-13.351 4.613-.083.095-.595.737-1.19 1.498.667-1.332 1.321-2.651 2.035-3.971 2.035-3.746 4.224-7.503 6.402-11.284.452-.785.892-1.581 1.345-2.366 1.499.523 7.199 2.402 10.102 2.152 2.868-.249 6.45-1.367 8.068-3.947 1.583-2.521.94-5.993-1.844-7.36-3.868-1.914-10.674 1.855-13.352 4.613-.095.095-.702.868-1.368 1.736a175.863 175.863 0 0 0 3.332-6.23c1.844-3.662 3.463-7.36 4.736-11.07.524.191 7.164 2.533 10.388 2.248 2.868-.25 6.45-1.368 8.068-3.948 1.583-2.521.94-5.992-1.844-7.36-3.868-1.914-10.674 1.855-13.352 4.614-.19.19-2.356 2.996-3.093 4.018.011-.047.035-.083.047-.131 1.309-3.911 2.071-7.799 2.63-11.533.547-3.721.75-7.264.857-10.534.107-3.27 0-6.266-.095-8.918a142.565 142.565 0 0 0-.262-3.971c.012 0 .071.06.071.06.06.047 1.797-4.887 1.868-5.22.857-3.757.286-11.498-3.427-13.697-2.677-1.582-5.926-.226-7.175 2.473-1.273 2.758-.262 6.361 1.095 8.905 1.392 2.604 6.164 6.397 7.365 7.325.072 1.272.143 2.627.191 4.137.047 2.652.083 5.636-.095 8.894-.048.868-.131 1.795-.203 2.699-.202-1.546-.511-3.662-.571-3.864-.976-3.722-5.045-10.344-9.353-10.582-3.106-.179-5.367 2.532-5.224 5.505.143 3.044 2.701 5.766 5.081 7.395 2.475 1.701 8.616 2.878 9.96 3.115-.178 1.998-.404 4.043-.773 6.171-.619 3.662-1.476 7.538-2.856 11.367-.131-.024-.107-.024-.238-.036-.012-1.45-.119-4.494-.155-4.744-.559-3.804-3.879-10.831-8.139-11.545-3.07-.511-5.605 1.926-5.807 4.899-.202 3.032 2.058 6.028 4.236 7.907 2.511 2.164 9.532 4.185 9.793 4.268-1.332 3.555-2.963 7.098-4.831 10.606-1.344 2.544-2.82 5.065-4.307 7.586.012-1.023-.119-5.018-.155-5.303-.559-3.805-3.879-10.832-8.139-11.545-3.07-.512-5.605 1.926-5.807 4.898-.191 3.032 2.058 6.028 4.236 7.907 2.451 2.116 9.174 4.078 9.734 4.245-.679 1.141-1.357 2.283-2.047 3.424-2.261 3.722-4.534 7.443-6.664 11.177-.738 1.296-1.416 2.603-2.106 3.899-.024-1.521-.119-4.304-.155-4.541-.559-3.805-3.879-10.832-8.139-11.546-3.07-.511-5.605 1.927-5.807 4.899-.19 3.032 2.059 6.028 4.236 7.907 2.19 1.89 7.806 3.662 9.389 4.138-1.13 2.175-2.201 4.363-3.153 6.563-.393.963-.845 1.914-1.167 2.853-.345.94-.69 1.867-1.023 2.794-.631 1.939-1.226 3.722-1.773 5.541-.286.916-.524 1.784-.785 2.675.214-1.545.499-4.006.499-4.232.024-3.853-2.201-11.296-6.294-12.639-2.952-.975-5.843 1.058-6.474 3.959a6.002 6.002 0 0 0-.131 1.118c-1.975 2.818-3.117 6.908-3.201 9.464 0 .25.214 3.163.369 4.661-.392-1.165-.785-2.331-1.178-3.555-.571-1.76-1.13-3.627-1.666-5.446-.25-.951-.5-1.914-.749-2.877-.274-.975-.417-1.938-.643-2.913-.286-1.439-.512-2.949-.75-4.447 1.821-.476 7.152-1.974 9.33-3.71 2.249-1.783 4.617-4.696 4.545-7.728-.071-2.984-2.523-5.517-5.605-5.125-4.283.535-7.877 7.432-8.591 11.213-.024.118-.095.939-.167 1.902-.178-1.474-.368-2.937-.499-4.435-.381-4.245-.619-8.585-.893-12.936l-.178-2.711c1.535-.393 7.33-1.962 9.615-3.781 2.249-1.784 4.617-4.697 4.545-7.729-.071-2.972-2.523-5.516-5.605-5.124-4.283.535-7.877 7.431-8.591 11.212-.024.131-.107 1.106-.179 2.2a170.18 170.18 0 0 0-.666-7.039c-.488-4.067-1.178-8.05-2.166-11.854.548-.131 7.366-1.831 9.913-3.853 2.249-1.783 4.617-4.696 4.545-7.728-.071-2.973-2.522-5.517-5.604-5.125-4.284.535-7.878 7.431-8.592 11.212-.047.274-.309 3.793-.357 5.054l-.036-.143c-1.071-3.983-2.57-7.657-4.176-11.058-1.595-3.4-3.38-6.48-5.105-9.262-1.714-2.794-3.451-5.231-5.01-7.383a130.37 130.37 0 0 0-2.416-3.163h.096c.083 0-1.202-5.065-1.321-5.386-1.369-3.603-6.117-9.75-10.424-9.536-3.106.155-5.069 3.079-4.617 6.028.452 3.008 3.296 5.458 5.83 6.825 2.595 1.403 8.675 1.938 10.187 2.045a148.4 148.4 0 0 1 2.439 3.353c1.511 2.176 3.189 4.661 4.831 7.467.44.749.881 1.569 1.333 2.366-1.023-1.177-2.451-2.77-2.606-2.913-2.868-2.568-9.924-5.838-13.649-3.662-2.677 1.569-3.082 5.065-1.321 7.479 1.797 2.461 5.438 3.317 8.318 3.364 2.999.048 8.77-2.354 10.031-2.889.952 1.76 1.892 3.603 2.761 5.577 1.511 3.4 2.939 7.098 3.891 11.045-.119.06-.107.048-.226.095-.809-1.201-2.582-3.685-2.749-3.876-2.57-2.865-9.222-6.896-13.161-5.148-2.844 1.26-3.617 4.696-2.142 7.277 1.512 2.639 5.046 3.899 7.902 4.268 3.284.416 10.257-1.76 10.519-1.843.857 3.698 1.452 7.55 1.833 11.51.285 2.865.452 5.778.583 8.703-.548-.856-2.868-4.114-3.059-4.34-2.57-2.865-9.222-6.896-13.16-5.148-2.844 1.26-3.618 4.696-2.142 7.276 1.511 2.64 5.045 3.9 7.901 4.269 3.213.416 9.9-1.653 10.472-1.831.059 1.332.13 2.651.178 3.983.179 4.352.333 8.703.607 12.996.095 1.486.25 2.948.393 4.423-.857-1.261-2.475-3.52-2.63-3.698-2.57-2.866-9.222-6.896-13.161-5.148-2.844 1.26-3.618 4.696-2.142 7.288 1.511 2.64 5.045 3.9 7.901 4.269l.072-.048ZM268.297 449.062c3.665 1.142 12.209 0 12.209 0 .084 0-2.463-5.398-2.653-5.719-2.309-3.721-8.961-9.547-13.732-8.358-3.427.856-4.986 4.554-3.832 7.74 1.166 3.258 4.879 5.363 8.008 6.337ZM347.907 446.673c.083.036.928-5.862.94-6.23.131-4.376-2.202-12.901-6.831-14.542-3.332-1.177-6.664 1.047-7.473 4.34-.821 3.365 1.107 7.17 3.177 9.702 2.428 2.973 10.175 6.73 10.187 6.742v-.012Z" fill="#C79B67"/><path d="M346.419 509.701c-2.867.369-8.532-1.248-10.114-1.724-.262 2.437-.571 4.851-.988 7.205-.202 1.011-.345 2.057-.595 3.02-.226.975-.464 1.938-.69 2.901a225.034 225.034 0 0 1-1.583 5.601c-.273.915-.547 1.783-.821 2.663.678-1.403 1.797-3.615 1.928-3.805 2.106-3.222 8.068-8.216 12.233-7.074 2.998.82 4.284 4.09 3.213 6.872-1.095 2.842-4.391 4.613-7.164 5.41-3.046.88-9.758-.095-10.567-.214a215.676 215.676 0 0 1-2.046 6.242 207.947 207.947 0 0 1-1.298 3.674h-2.832c.56-1.439 1.131-2.925 1.726-4.53.654-1.76 1.309-3.626 1.975-5.564-.75-.31-6.557-2.783-8.901-5.042-2.451 1.558-5.236 2.878-5.723 3.104.63 2.187 1.213 4.327 1.737 6.325.523 2.021.976 3.9 1.404 5.695h-2.749a216.805 216.805 0 0 0-1.142-5.089 216.296 216.296 0 0 0-1.428-5.731c-.833.155-7.473 1.391-10.555.642-2.796-.677-6.164-2.33-7.378-5.112-1.178-2.735-.024-6.064 2.939-7.003 4.118-1.308 10.27 3.448 12.507 6.575.143.202 1.571 2.758 2.261 4.09-.321-1.189-.631-2.378-.976-3.615-.488-1.783-1.059-3.65-1.606-5.457-.322-.928-.643-1.867-.964-2.818-.31-.963-.714-1.843-1.071-2.782-.56-1.368-1.202-2.747-1.833-4.126-1.785.606-7.056 2.295-9.829 2.057-2.868-.25-6.449-1.367-8.068-3.948-1.582-2.52-.94-5.992 1.845-7.359 3.867-1.915 10.674 1.854 13.351 4.613.083.095.595.737 1.19 1.498-.666-1.332-1.321-2.651-2.035-3.971-2.035-3.746-4.224-7.503-6.402-11.284-.452-.785-.892-1.581-1.344-2.366-1.5.523-7.2 2.402-10.103 2.152-2.868-.249-6.45-1.367-8.068-3.947-1.583-2.521-.94-5.993 1.844-7.36 3.868-1.914 10.674 1.855 13.352 4.613.095.095.702.868 1.368 1.736a175.863 175.863 0 0 1-3.332-6.23c-1.844-3.662-3.463-7.36-4.736-11.07-.523.191-7.163 2.533-10.388 2.248-2.868-.25-6.45-1.368-8.068-3.948-1.583-2.521-.94-5.992 1.844-7.36 3.868-1.914 10.674 1.855 13.352 4.614.19.19 2.356 2.996 3.094 4.018-.012-.047-.036-.083-.048-.131-1.309-3.911-2.071-7.799-2.63-11.533-.547-3.721-.75-7.264-.857-10.534-.107-3.27 0-6.266.096-8.918.071-1.438.166-2.746.261-3.971a.371.371 0 0 0-.071.06c-.06.047-1.797-4.887-1.868-5.22-.857-3.757-.286-11.498 3.427-13.697 2.677-1.582 5.926-.226 7.175 2.473 1.274 2.758.262 6.361-1.095 8.905-1.392 2.604-6.163 6.397-7.365 7.325a163.28 163.28 0 0 0-.191 4.137c-.047 2.652-.083 5.636.095 8.894.048.868.131 1.795.203 2.699.202-1.546.511-3.662.571-3.864.976-3.722 5.045-10.344 9.353-10.582 3.106-.179 5.367 2.532 5.224 5.505-.143 3.044-2.701 5.766-5.081 7.395-2.475 1.701-8.616 2.878-9.96 3.115.178 1.998.404 4.043.773 6.171.619 3.662 1.476 7.538 2.856 11.367.131-.024.107-.024.238-.036.012-1.45.119-4.494.155-4.744.559-3.804 3.879-10.831 8.139-11.545 3.07-.511 5.605 1.926 5.807 4.899.203 3.032-2.058 6.028-4.236 7.907-2.511 2.164-9.532 4.185-9.793 4.268 1.332 3.555 2.963 7.098 4.831 10.606 1.344 2.544 2.82 5.065 4.307 7.586-.011-1.023.119-5.018.155-5.303.559-3.805 3.879-10.832 8.139-11.545 3.071-.512 5.605 1.926 5.808 4.898.19 3.032-2.059 6.028-4.237 7.907-2.451 2.116-9.174 4.078-9.734 4.245.679 1.141 1.357 2.283 2.047 3.424 2.261 3.722 4.534 7.443 6.664 11.177.738 1.296 1.416 2.603 2.106 3.899.024-1.521.119-4.304.155-4.541.559-3.805 3.879-10.832 8.139-11.546 3.07-.511 5.605 1.927 5.807 4.899.191 3.032-2.058 6.028-4.236 7.907-2.19 1.89-7.806 3.662-9.389 4.138 1.131 2.175 2.202 4.363 3.153 6.563.393.963.845 1.914 1.167 2.853.345.94.69 1.867 1.023 2.794.631 1.939 1.226 3.722 1.773 5.541.286.916.524 1.784.785 2.675-.214-1.545-.499-4.006-.499-4.232-.024-3.853 2.201-11.296 6.295-12.639 2.951-.975 5.842 1.058 6.473 3.959.083.369.119.749.131 1.118 1.975 2.818 3.117 6.908 3.201 9.464 0 .25-.214 3.163-.369 4.661.393-1.165.785-2.331 1.178-3.555.571-1.76 1.13-3.627 1.666-5.446.25-.951.5-1.914.75-2.877.273-.975.416-1.938.642-2.913.286-1.439.512-2.949.75-4.447-1.821-.476-7.152-1.974-9.329-3.71-2.249-1.783-4.617-4.696-4.546-7.728.071-2.984 2.523-5.517 5.605-5.125 4.283.535 7.877 7.432 8.591 11.213.024.118.095.939.167 1.902.178-1.474.369-2.937.499-4.435.381-4.245.619-8.585.893-12.936l.178-2.711c-1.535-.393-7.33-1.962-9.614-3.781-2.249-1.784-4.617-4.697-4.546-7.729.071-2.972 2.523-5.516 5.605-5.124 4.284.535 7.877 7.431 8.591 11.212.024.131.107 1.106.179 2.2.178-2.355.392-4.709.666-7.039.488-4.067 1.178-8.05 2.166-11.854-.548-.131-7.366-1.831-9.913-3.853-2.249-1.783-4.617-4.696-4.545-7.728.071-2.973 2.522-5.517 5.604-5.125 4.284.535 7.878 7.431 8.592 11.212.048.274.309 3.793.357 5.054l.036-.143c1.071-3.983 2.57-7.657 4.176-11.058 1.595-3.4 3.38-6.48 5.105-9.262 1.714-2.794 3.451-5.231 5.01-7.383a130.37 130.37 0 0 1 2.416-3.163h-.096c-.083 0 1.202-5.065 1.321-5.386 1.369-3.603 6.117-9.75 10.424-9.536 3.106.155 5.07 3.079 4.617 6.028-.452 3.008-3.296 5.458-5.83 6.825-2.595 1.403-8.675 1.938-10.186 2.045a145.223 145.223 0 0 0-2.44 3.353c-1.511 2.176-3.189 4.661-4.831 7.467-.44.749-.881 1.569-1.333 2.366 1.024-1.177 2.451-2.77 2.606-2.913 2.868-2.568 9.924-5.838 13.649-3.662 2.677 1.569 3.082 5.065 1.321 7.479-1.797 2.461-5.438 3.317-8.318 3.364-2.999.048-8.77-2.354-10.031-2.889-.952 1.76-1.892 3.603-2.761 5.577-1.511 3.4-2.939 7.098-3.891 11.045.119.06.107.048.226.095.809-1.201 2.582-3.685 2.749-3.876 2.57-2.865 9.222-6.896 13.161-5.148 2.844 1.26 3.617 4.696 2.142 7.277-1.512 2.639-5.046 3.899-7.902 4.268-3.284.416-10.257-1.76-10.519-1.843-.857 3.698-1.452 7.55-1.833 11.51-.285 2.865-.452 5.778-.583 8.703.548-.856 2.868-4.114 3.059-4.34 2.57-2.865 9.222-6.896 13.161-5.148 2.844 1.26 3.617 4.696 2.141 7.276-1.511 2.64-5.045 3.9-7.901 4.269-3.213.416-9.9-1.653-10.472-1.831-.059 1.332-.13 2.651-.178 3.983-.178 4.352-.333 8.703-.607 12.996-.095 1.486-.25 2.948-.393 4.423.857-1.261 2.476-3.52 2.63-3.698 2.571-2.866 9.222-6.896 13.161-5.148 2.844 1.26 3.618 4.696 2.142 7.288-1.511 2.64-5.045 3.9-7.901 4.269l-.072-.048Z" fill="#C79B67"/><path d="M463.194 231.614s3.474 5.783 5.334 7.407c1.849 1.624 17.372-2.08 31.281 17.816 13.897 19.895 5.732 33.458 10.926 46.659s22.191 8.493 21.255 40.082c-.948 31.601-15.582 44.802-33.994 48.575-18.413 3.774-14.635 10.374-23.607 18.867s-20.308 5.655-27.385 0c-7.089-5.654-9.44-11.787-6.141-24.521 3.298-12.734 17.944-53.283 12.75-69.323-5.194-16.028-10.387-26.881-4.246-41.496 6.141-14.614 11.148-23.505 8.317-27.278l-5.662-7.547 11.195-9.229-.023-.012Z" fill="#283135" stroke="#283135" stroke-miterlimit="10"/><path d="M394.493 282.865s-26.672 9.416-40.651 21.11c-13.979 11.694-37.071 53.26-37.071 75.994s5.534 67.559 4.551 98.727c-.971 31.181-3.58 62.034-3.58 62.034H458.89s-13.979-20.456-26.344-54.884c-12.353-34.428-8.13-46.122 2.597-67.232s35.445-50.012 36.1-83.143c.655-33.132-16.19-52.91-21.594-55.2-5.405-2.289-40.194-1.962-55.156 2.582v.012Z" fill="#D32A34" stroke="#283135" stroke-miterlimit="10"/><path d="M320.923 489.503c3.053-22.092 6.422-49.919 6.422-49.919l25.385 27.605s-12.762-18.493-7.896-28.738c4.866-10.246 81.242-66.485 81.242-66.485s10.716-6.764 11.85-23.096c1.123-16.343-119.05 48.459-119.05 48.459s-.199 5.642-.503 14.451c1.544 21.694 3.568 47.08 2.936 66.928-.117 3.622-.245 7.232-.398 10.795h.012Z" fill="#283135" stroke="#283135" stroke-miterlimit="10"/><path d="M386.596 146.485s-17.278 15-18.588 21.005c-1.311 6.005 3.193 8.061-3.381 16.507-6.574 8.435-13.71 11.25-12.774 15.946.936 4.685 7.323 5.631 8.071 7.687.749 2.068.538 6.846 2.609 16.216 2.07 9.381 10.914 26.764 13.359 29.392 2.445 2.629 13.71-.186 17.465-1.88 0 0 1.521.665 1.895 12.103.375 11.437-6.153 23.68-6.153 23.68s-14.529 10.269-13.371 12.126c1.158 1.858 33.363-9.019 47.962-13.657 14.599-4.626 25.946-5.327 25.946-5.327s-4.293-22.757-7.533-33.166c-3.241-10.409 8.106-19.206 10.89-38.412 2.785-19.206 12.517-32.161-8.574-49.743-21.08-17.582-42.862-18.739-48.418-17.582-5.557 1.156-9.405 5.105-9.405 5.105Z" fill="#fff" stroke="#283135" stroke-miterlimit="10"/><path d="M375.216 229.08c3.839-1.279 6.698-7.656 7.377-5.829.678 1.828-2.519 10.268-6.351 11.553-3.838 1.279-7.493-1.495-8.172-3.322-.679-1.828 3.315-1.117 7.146-2.402Z" fill="#283135" stroke="#283135" stroke-miterlimit="10"/><ellipse cx="377.845" cy="185.749" rx="3.509" ry="3.505" fill="#283135"/><path d="M383.99 177.883c-4.476-3.755-11.688-3.276-13.033-.071-.661 1.566 1.38 2.882 2.4 1.542.012-.024.035-.048.047-.071 1.693-2.285 1.685-2.504 8.537-.543 2.34.584 3.51 0 2.049-.869v.012ZM390.912 146.239s2.317 2.547 5.557 7.407c3.24 4.86-2.316 7.407-1.158 19.673 1.158 12.267 12.517 18.505 12.739 23.365.222 4.86 3.708 9.486 9.265 7.862 5.556-1.624 13.675-9.486 17.149 4.159 3.474 13.657-10.891 13.879-9.967 17.582.925 3.703 15.758 30.316 20.39 27.769 4.632-2.547 27.9-18.587 32.064-52.138 4.165-33.552-12.376-52.443-32.988-62.162-20.624-9.72-36.381-3.704-39.621-5.094-3.241-1.39-1.392-8.797-12.049-7.862-10.657.923-14.599 3.703-15.757 8.096-1.158 4.392 3.708 9.252 2.082 11.11-1.626 1.857-8.575-.689-9.967 5.549-1.392 6.25 4.867 8.096 4.867 8.096s13.441-15.736 17.371-13.423l.023.011Z" fill="#283135" stroke="#283135" stroke-miterlimit="10"/><path d="M189.158 243.203s3.849 8.61 5.311 12.056c1.462 3.447 2.258 8.482 4.913 19.487 2.656 11.004 11.148 57.968 18.156 77.687 7.007 19.72 17.196 39.44 20.6 40.503 3.392 1.063 9.346.631 21.875-2.126 12.528-2.757 44.16-9.755 44.16-9.755l16.354-3.61s-1.276-8.061 12.949-34.568c14.225-26.507 37.153-49.837 37.153-49.837s-11.885-1.904-30.789 10.818c-18.892 12.722-67.31 41.344-73.674 43.68-6.375 2.337-6.797-1.273-8.703-5.303-1.907-4.031-20.168-32.653-26.543-55.129-6.375-22.477-9.136-34.989-9.136-34.989s.21-1.063 3.615-7.851c3.404-6.787 7.217-13.364 4.456-17.815-2.76-4.451-8.913-5.094-14.645-1.063-5.732 4.03-26.04 17.792-26.04 17.792l-.012.023ZM296.276 178.939l-26.987 48.073-99.514-56.835s-12.038-6.168-31.55-8.446c-19.512-2.278-39.352 2.92-39.352 2.92s5.206-25.012 21.466-53.914 34.474-46.449 34.474-46.449 10.411 29.884 37.071 53.26c26.671 23.388 104.392 61.379 104.392 61.379v.012Z" fill="#fff" stroke="#283135" stroke-miterlimit="10"/><path d="m210.881 186.007-37.937-21.66s-12.037-6.168-31.549-8.446c-19.512-2.278-39.352 2.921-39.352 2.921" stroke="#EBDDCE" stroke-width="4" stroke-miterlimit="10"/><path d="M98.873 167.572c-.2 0-.398-.024-.597-.059a2.923 2.923 0 0 1-2.27-3.458c.211-1.04 5.487-25.783 21.782-54.755 16.284-28.949 34.24-46.39 34.989-47.115a2.922 2.922 0 0 1 4.129.07 2.913 2.913 0 0 1-.07 4.124c-.175.175-18.12 17.617-33.959 45.771-15.851 28.19-21.103 52.828-21.15 53.073a2.934 2.934 0 0 1-2.866 2.325l.012.024ZM203.744 189.581l65.532 37.43 26.987-48.072s-34.988-17.103-66.07-35.421l-26.461 46.063h.012Z" fill="#C79B67" stroke="#283135" stroke-miterlimit="10"/><path d="m272.493 193.682-14.751 25.981M283.502 174.289l-6.551 11.554" stroke="#283135" stroke-miterlimit="10"/><path d="m217.992 186.848-4.457 9.112 2.843 3.236s-2.632 8.306-10.751 16.612l-8.118 8.306s-9.124 4.054-12.774 4.054c-3.65 0-6.282.409-6.493 4.054-.198 3.645-.608 9.93 2.843 14.381 3.451 4.451 3.849 2.629 5.475 1.624 1.626-1.017 14.201-4.253 25.349-12.968 11.16-8.715 15.418-14.381 15.418-14.381s6.282 7.092 7.51 5.877c1.229-1.215 13.792-22.489 13.792-22.489l-30.625-17.418h-.012Z" fill="#fff" stroke="#283135" stroke-miterlimit="10"/><path d="m215.361 196.778 18.448 27.547" stroke="#283135" stroke-miterlimit="10"/><path d="M215.361 201.065s-4.152-3.341-6.691-2.301c-2.538 1.039-4.621 5.303-4.153 7.838.457 2.536 1.966 8.645 4.153 8.412 2.188-.234 3.697-7.722 3.697-7.722s2.655-5.187 3.006-6.227h-.012Z" fill="#fff" stroke="#283135" stroke-miterlimit="10"/><path d="M204.737 203.717s-2.772-3.925-6.808-.456c-4.036 3.47-2.199 8.073-.924 11.986 1.275 3.926 3.813 6.227 5.767 5.421 1.965-.806 3.579-3.575 3.696-4.953.117-1.379 0-3.692 0-3.692s-2.538-5.07-1.731-8.306Z" fill="#fff" stroke="#283135" stroke-miterlimit="10"/><path d="M195.274 208.904s-3.006-.351-5.077 3.458c-2.082 3.808 1.275 10.257 2.305 13.376 1.041 3.108 2.772 3.925 5.194 3.341 2.421-.572 3.111-2.535 3.111-4.381 0-1.845-1.041-4.731-1.041-4.731s-2.655-3.925-3.462-6.46c-.808-2.535-1.041-4.615-1.041-4.615l.011.012Z" fill="#fff" stroke="#283135" stroke-miterlimit="10"/><path d="M190.081 219.628s-3.463-4.381-6.235-1.962c-2.773 2.418-1.732 6.343.35 8.761 2.083 2.419 5.077 3.809 6.692 3.341 1.614-.455 2.199-2.535 2.199-2.535l-3.006-7.605Z" fill="#fff" stroke="#283135" stroke-miterlimit="10"/><path d="M221.595 250.645s7.849-12.909 10.388-16.484c2.538-3.575 2.457-5.467 2.843-7.395.386-1.939-7.347-10.701-9.078-13.469-1.731-2.769-2.889-2.419-6.925-4.031-4.036-1.612-5.884-5.993-8.423-4.264-2.538 1.729-.69 8.306 1.158 10.374 1.849 2.079 5.884 3.925 5.884 3.925l3.58 8.528s-13.277 7.722-15.126 12.687c-1.848 4.954.574 10.036 1.159 11.064" fill="#fff"/><path d="M221.595 250.645s7.849-12.909 10.388-16.484c2.538-3.575 2.457-5.467 2.843-7.395.386-1.939-7.347-10.701-9.078-13.469-1.731-2.769-2.889-2.419-6.925-4.031-4.036-1.612-5.884-5.993-8.423-4.264-2.538 1.729-.69 8.306 1.158 10.374 1.849 2.079 5.884 3.925 5.884 3.925l3.58 8.528s-13.277 7.722-15.126 12.687c-1.848 4.954.574 10.036 1.159 11.064" stroke="#283135" stroke-miterlimit="10"/><path d="M201.031 245.178a131.529 131.529 0 0 1-4.55 2.488c-.831.444-1.685.199-2.176-.467-.503-.666-.409-1.426.41-1.893a119.864 119.864 0 0 1 4.55-2.488c.831-.432 1.673-.175 2.164.479.492.654.41 1.413-.398 1.881ZM201.078 251.066c-1.392.864-3.428 2.149-4.855 2.979-.877.514-1.661.28-2.094-.503-.432-.782-.21-1.67.644-2.208 1.38-.876 3.345-2.067 4.784-2.803.878-.456 1.638-.176 2.071.549.421.724.304 1.46-.538 1.986h-.012ZM200.459 257.713c-1.369.969-3.37 2.43-4.773 3.364-.854.573-1.65.362-2.071-.455-.421-.818-.187-1.753.644-2.372a55.346 55.346 0 0 1 4.831-3.166c.889-.502 1.661-.327 2.07.467.41.783.129 1.566-.713 2.15l.012.012ZM199.944 264.337c-1.381.958-3.264 2.652-4.586 3.703-.807.643-1.603.491-2.047-.315-.445-.818-.246-1.776.538-2.465 1.299-1.122 3.287-2.524 4.691-3.435.854-.549 1.638-.432 2.07.339.433.771.176 1.589-.666 2.173ZM199.767 271.136a174.207 174.207 0 0 1-4.223 4.042c-.76.689-1.544.607-2.047-.164-.491-.771-.374-1.729.351-2.465 1.193-1.203 3.018-2.827 4.363-3.796.819-.596 1.579-.561 2.071.187.491.747.21 1.495-.515 2.208v-.012ZM200.177 277.584c-1.158 1.134-2.702 3.049-3.814 4.264-.678.736-1.474.725-2.047.035-.561-.689-.55-1.635.094-2.418 1.064-1.285 2.772-2.944 4.012-4.007.749-.642 1.521-.677 2.071-.023.549.654.386 1.46-.328 2.149h.012ZM201.301 283.917c-1.076 1.18-2.433 3.189-3.427 4.486-.597.794-1.404.853-2.047.233-.644-.619-.714-1.542-.141-2.371.936-1.355 2.504-3.073 3.615-4.217.678-.701 1.462-.783 2.071-.222.608.572.584 1.366-.071 2.091ZM203.056 289.816c-.854 1.344-2.07 3.341-2.971 4.673-.55.818-1.357.935-2.047.397-.69-.537-.877-1.413-.374-2.254a41.9 41.9 0 0 1 3.146-4.475c.62-.748 1.381-.899 2.059-.397.69.502.69 1.238.176 2.056h.011ZM205.57 295.482c-.819 1.355-1.86 3.411-2.655 4.789-.491.842-1.31 1.029-2.047.585-.749-.444-1.006-1.274-.562-2.15.737-1.425 1.919-3.329 2.819-4.638.55-.794 1.334-1.005 2.059-.584.726.421.878 1.157.386 1.986v.012ZM208.529 300.657a157.1 157.1 0 0 1-2.386 4.895c-.445.865-1.275 1.098-2.047.724-.772-.373-1.112-1.156-.702-2.044.667-1.449 1.684-3.423 2.491-4.778.492-.83 1.287-1.075 2.059-.724.772.35.983 1.051.585 1.927ZM211.922 305.669c-.655 1.425-1.579 3.458-2.269 4.872-.433.864-1.24 1.168-2.036.876-.795-.292-1.134-1.04-.748-1.916a82.393 82.393 0 0 1 2.339-4.813c.445-.853 1.252-1.145 2.036-.865.783.281 1.088.982.69 1.846h-.012ZM215.339 310.541c-.667 1.483-1.474 3.691-2.106 5.222-.386.934-1.169 1.203-2 .864-.842-.339-1.17-1.203-.842-2.138.538-1.53 1.52-3.575 2.234-5 .433-.876 1.228-1.168 2-.864.784.303 1.112 1.004.714 1.916ZM218.895 315.973c-.432 1.589-.947 3.902-1.415 5.502-.293.981-1.076 1.274-1.93.923-.842-.35-1.357-1.18-1.135-2.196.374-1.671 1.1-3.855 1.778-5.374.41-.923 1.123-1.273 1.942-.923.831.35 1.018 1.098.749 2.068h.011ZM222.92 321.113c-.433 1.542-.468 3.879-.678 5.502-.117.982-.901 1.332-1.767 1.075-.865-.268-1.521-1.004-1.45-2.032.117-1.694.702-3.856 1.181-5.409.293-.958.983-1.344 1.79-1.087.807.257 1.181 1.028.912 1.963l.012-.012ZM227.645 325.599c.023 1.507-.023 3.563.117 5.093.082.935-.503 1.543-1.404 1.449-.901-.093-1.637-.783-1.778-1.764-.234-1.612 0-3.668.281-5.199.164-.934.76-1.402 1.603-1.273.83.129 1.181.771 1.193 1.682l-.012.012ZM233.049 328.963c.222 1.472.725 3.4.971 4.895.152.912-.222 1.578-1.135 1.648-.912.058-1.906-.479-2.164-1.426-.409-1.565-.643-3.574-.62-5.14.012-.958.702-1.285 1.509-1.332.807-.058 1.299.468 1.439 1.367v-.012ZM239.004 331.032c.503 1.46 1.38 3.387 1.906 4.871.316.9-.175 1.542-1.006 1.752-.83.211-1.789-.07-2.14-.969-.585-1.472-1.275-3.353-1.556-4.872-.164-.923.316-1.542 1.099-1.764.784-.222 1.392.082 1.697.97v.012ZM245.179 331.931c.725 1.413 1.837 3.247 2.562 4.708.445.888-.047 1.612-.866 1.927-.818.316-1.825.141-2.316-.701-.807-1.378-1.649-3.142-2.152-4.614-.304-.9.164-1.589.889-1.939.737-.351 1.439-.246 1.883.619ZM251.768 331.989c.795 1.414 2.117 3.178 3.006 4.568.538.853.14 1.682-.643 2.115-.784.432-1.802.362-2.375-.456-.948-1.332-1.919-3.061-2.62-4.498-.422-.876-.012-1.67.666-2.114.679-.444 1.486-.479 1.977.385h-.011ZM258.176 331.452c.925 1.32 2.176 3.061 3.077 4.439.55.841.363 1.764-.374 2.313-.749.55-1.685.421-2.27-.373a60.421 60.421 0 0 1-2.924-4.416c-.503-.841-.176-1.706.468-2.22.643-.514 1.462-.561 2.023.245v.012ZM264.623 331.032a158.955 158.955 0 0 0 3.205 4.906c.573.841.597 1.659-.152 2.185-.749.525-1.65.28-2.211-.573a551.069 551.069 0 0 0-3.182-4.813c-.55-.829-.339-1.659.328-2.138.655-.479 1.485-.42 2.023.433h-.011ZM270.413 331.499c.948 1.331 2.702 3.177 3.79 4.427.667.759.62 1.589-.105 2.126-.725.538-1.591.421-2.316-.327-1.17-1.238-2.656-3.364-3.58-4.743-.561-.841-.62-1.67.117-2.161.725-.491 1.509-.129 2.094.689v-.011ZM276.483 331.101c1.018 1.204 2.808 2.641 4.048 3.657.76.619.748 1.437.128 2.044-.62.608-1.497.701-2.293.106-1.31-.982-2.807-2.711-3.801-3.972-.609-.771-.667-1.566-.059-2.138.608-.573 1.345-.421 1.965.315l.012-.012ZM281.805 329.677c1.217.899 2.995 1.95 4.34 2.722.819.467 1.041 1.285.538 1.997-.503.701-1.298 1.005-2.164.549-1.404-.747-3.077-2.149-4.258-3.131-.725-.595-.936-1.343-.456-2.021.479-.677 1.263-.677 2-.116ZM286.73 326.873c1.439.455 3.392 1.133 4.843 1.682.877.339 1.041 1.191.678 1.962-.362.76-1.111 1.309-2.047 1.017-1.532-.479-3.392-1.262-4.726-2.068-.819-.491-1.064-1.227-.69-1.986.374-.759 1.065-.876 1.942-.596v-.011ZM290.93 322.877c1.474.398 3.545.584 5.089.888.936.187 1.228 1.052 1.006 1.881-.222.829-.901 1.53-1.86 1.414-1.579-.199-3.357-.76-4.785-1.344-.865-.362-1.158-1.121-1.006-1.904.152-.783.667-1.18 1.568-.935h-.012ZM294.686 317.819c1.544.257 3.649.268 5.264.397.982.082 1.392.911 1.298 1.787-.093.865-.713 1.636-1.684 1.613-1.591-.047-3.498-.398-5.019-.713-.924-.199-1.333-.993-1.298-1.799.035-.795.491-1.437 1.439-1.285ZM297.879 312.433c1.614.012 3.779-.023 5.428.023 1.006.035 1.509.806 1.497 1.694 0 .888-.561 1.659-1.544 1.683-1.614.046-3.65-.059-5.241-.234-.971-.105-1.462-.865-1.497-1.694-.035-.841.374-1.472 1.357-1.472ZM301.048 306.674c1.661 0 3.825-.094 5.522-.14 1.029-.024 1.661.794 1.637 1.717-.023.923-.596 1.647-1.602 1.659-1.65.012-3.732-.023-5.346-.094-.983-.035-1.556-.747-1.615-1.6-.058-.853.387-1.542 1.393-1.542h.011ZM304.501 300.564a71.263 71.263 0 0 0 5.791-.865c1.087-.222 1.649.573 1.672 1.577.024 1.005-.526 2.056-1.637 2.278-1.825.351-4.071.386-5.861.433-1.088.023-1.579-.748-1.568-1.659.024-.912.515-1.648 1.603-1.753v-.011ZM307.775 293.227c1.801-.572 3.919-1.565 5.626-2.453 1.042-.537 1.673.327 1.79 1.355.117 1.028-.28 2.465-1.38 2.921-1.813.736-3.907 1.67-5.732 2.079-1.111.245-1.65-.526-1.731-1.484-.071-.957.327-2.056 1.427-2.406v-.012ZM309.976 284.769c1.696-.923 3.614-2.289 5.24-3.364.983-.654 1.708.035 1.954 1.063.245 1.04 0 2.442-.995 3.131-1.637 1.121-3.638 2.325-5.369 3.142-1.064.503-1.72-.245-1.895-1.215-.175-.969.035-2.184 1.065-2.745v-.012ZM311.179 276.077c1.451-1.156 3.322-2.722 4.878-3.75.948-.619 1.743.035 2.059.958.316.923.187 2.115-.737 2.769-1.532 1.075-3.392 2.523-4.937 3.505-.935.595-1.672.105-2.012-.806-.327-.9-.14-1.975.737-2.687l.012.011ZM311.869 268.799c1.427-.724 3.556-1.659 4.995-2.301.877-.386 1.673-.222 2.07.502.398.725.082 1.402-.784 1.811-1.438.678-3.602 1.636-4.936 2.558-.807.561-1.638.398-2.035-.362-.398-.759-.176-1.764.701-2.208h-.011Z" fill="#C79B67" stroke="#283135" stroke-miterlimit="10"/><path d="M194.831 247.69c1.357.806 3.334 2.021 4.644 2.92.796.549 1.626.351 2.106-.327.48-.666.363-1.484-.433-2.033-1.31-.899-3.392-2.044-4.773-2.827-.842-.467-1.672-.362-2.14.339-.48.701-.223 1.437.596 1.928ZM194.55 254.08c1.276.969 2.995 2.161 4.317 3.049.807.549 1.661.245 2.152-.432.503-.678.527-1.554-.269-2.138a194.506 194.506 0 0 0-4.363-3.131c-.819-.561-1.684-.292-2.187.42-.503.725-.445 1.624.339 2.22l.011.012ZM194.024 261.183c1.275.993 2.983 2.033 4.34 2.85.83.503 1.661.129 2.129-.56.468-.69.503-1.566-.316-2.115-1.345-.899-3.007-2.138-4.352-3.061-.819-.572-1.649-.198-2.117.549-.468.748-.456 1.741.316 2.337ZM193.731 268.251c1.311.934 3.077 1.775 4.457 2.523.843.456 1.638-.035 2.059-.724.41-.701.421-1.566-.421-2.045-1.392-.782-3.053-1.939-4.422-2.815-.842-.526-1.649-.059-2.059.701-.421.771-.397 1.787.398 2.36h-.012ZM193.954 275.505c1.357.83 3.182 1.484 4.632 2.033.878.339 1.638-.14 1.989-.865.351-.724.269-1.553-.62-1.927-1.451-.619-3.17-1.624-4.586-2.383-.865-.468-1.626.058-1.988.841-.351.782-.258 1.799.561 2.301h.012ZM194.83 282.304c1.439.678 3.334 1.192 4.843 1.589.913.234 1.614-.292 1.895-1.028.281-.736.07-1.542-.842-1.799-1.497-.432-3.334-1.343-4.808-1.927-.901-.363-1.603.186-1.883 1.004-.281.818-.07 1.753.795 2.173v-.012ZM196.388 289.01c1.509.514 3.533.794 5.066 1.063.935.164 1.579-.409 1.778-1.18.199-.783-.129-1.495-1.065-1.67-1.521-.293-3.498-.982-5.018-1.426-.924-.268-1.591.339-1.79 1.169-.199.829.105 1.729 1.018 2.044h.011ZM198.645 295.202c1.556.362 3.673.479 5.241.549.947.047 1.59-.502 1.707-1.32.129-.818-.304-1.449-1.263-1.53-1.567-.141-3.661-.549-5.229-.842-.959-.175-1.579.421-1.708 1.274-.128.853.293 1.647 1.24 1.869h.012ZM201.511 301.101c1.591.199 3.825.094 5.405.082.97 0 1.555-.619 1.614-1.437.058-.829-.456-1.39-1.427-1.402-1.58-.011-3.79-.21-5.381-.327-.971-.07-1.568.538-1.638 1.39-.059.853.444 1.566 1.415 1.683l.012.011ZM204.775 306.475c1.602.07 3.872-.128 5.463-.28.959-.093 1.567-.678 1.579-1.519.011-.841-.562-1.355-1.521-1.296-1.579.093-3.86.081-5.475.081-.982 0-1.567.619-1.579 1.484 0 .864.562 1.495 1.533 1.53ZM208.308 311.545c1.591-.152 3.872-.21 5.463-.374.971-.093 1.533-.701 1.533-1.542 0-.853-.562-1.378-1.533-1.343-1.591.058-3.895.245-5.486.35-.971.07-1.544.748-1.544 1.531 0 .782.608 1.472 1.579 1.378h-.012ZM211.911 316.791c1.626.011 3.755-.141 5.358-.292.971-.094 1.485-.818 1.462-1.659-.012-.842-.526-1.496-1.521-1.449-1.626.082-3.813.093-5.463.152-1.006.035-1.52.829-1.474 1.717.047.9.644 1.519 1.638 1.519v.012ZM216.263 322.562c1.637-.023 3.673-.362 5.24-.654.96-.175 1.357-.946 1.252-1.764-.105-.818-.643-1.437-1.626-1.297-1.614.234-3.802.304-5.451.409-1.006.07-1.439.829-1.287 1.717.152.888.866 1.601 1.86 1.589h.012ZM221.198 327.772c1.614-.175 3.556-.818 5.042-1.32.9-.304 1.169-1.052.959-1.834-.211-.771-.819-1.25-1.755-.982-1.532.456-3.708.69-5.323.947-.982.163-1.286.946-1.006 1.799.281.853 1.1 1.483 2.083 1.378v.012ZM227.046 332.071c1.521-.549 3.533-1.238 4.913-1.939.843-.421.995-1.227.62-1.951-.374-.725-1.029-.9-1.953-.631a182.054 182.054 0 0 0-5.182 1.624c-.96.315-1.065 1.156-.632 1.939.444.783 1.298 1.297 2.223.97l.011-.012ZM233.552 335.319c1.439-.794 3.205-1.986 4.41-2.967.737-.596.807-1.379.304-1.998-.503-.619-1.263-.677-2.012-.093-1.24.958-3.322 1.857-4.785 2.57-.889.432-.982 1.227-.374 1.916.608.677 1.579 1.063 2.457.572ZM240.558 337.375c1.31-.958 2.808-2.78 3.884-3.925.655-.689.678-1.484.047-2.01-.632-.537-1.428-.397-2.094.293-1.077 1.144-2.878 2.511-4.13 3.516-.76.607-.76 1.425-.128 2.009.643.596 1.614.69 2.409.105l.012.012ZM247.53 338.181c1.251-1.133 2.597-3.177 3.521-4.533.561-.817.538-1.612-.176-2.091-.725-.467-1.497-.222-2.094.596-.959 1.332-2.702 2.991-3.895 4.171-.725.724-.597 1.53.152 2.044.749.526 1.72.491 2.492-.21v.023ZM254.736 338.193c1.088-1.308 2.199-3.551 3.03-4.988.503-.876.362-1.706-.398-2.126-.761-.421-1.521-.117-2.036.759-.842 1.449-2.386 3.388-3.415 4.755-.632.829-.433 1.647.374 2.114.807.456 1.778.281 2.445-.514ZM261.393 337.667c.854-1.46 2.07-3.539 2.807-5.011.456-.9.176-1.648-.55-2.08-.725-.432-1.438-.304-1.977.561-.865 1.425-2.175 3.54-3.029 5.023-.515.9-.293 1.718.514 2.173.808.467 1.708.222 2.223-.677l.012.011ZM268.119 337.667c.726-1.39 1.521-3.119 2.153-4.532.386-.865-.059-1.729-.725-2.208-.679-.479-1.474-.503-1.931.327-.737 1.367-1.473 3.119-2.175 4.544-.433.865-.176 1.834.573 2.337.737.502 1.673.385 2.117-.456l-.012-.012ZM274.542 337.562c.737-1.402 1.333-3.33 1.801-4.813.281-.9-.117-1.671-.83-2.056-.714-.386-1.439-.222-1.755.665-.526 1.461-1.509 3.33-2.176 4.779-.398.887.059 1.67.831 2.044.772.374 1.684.222 2.129-.631v.012ZM281.058 336.254c.562-1.437.889-3.505 1.065-5.012.105-.923-.445-1.565-1.217-1.776-.772-.198-1.462.07-1.614 1.005-.246 1.53-.796 3.458-1.287 4.953-.304.912.222 1.577 1.041 1.799.819.222 1.673-.105 2.024-.981l-.012.012ZM286.953 333.754c.164-1.554.082-3.692.129-5.234.023-.946-.608-1.46-1.404-1.53-.795-.07-1.404.42-1.439 1.343-.047 1.519.035 3.692-.257 5.21-.176.923.374 1.554 1.193 1.613.819.058 1.673-.444 1.778-1.391v-.011ZM292.44 329.793c.105-1.601-.433-3.879-.761-5.386-.198-.922-.737-1.472-1.544-1.366-.795.116-1.134.747-.959 1.694.292 1.553.292 3.843.257 5.455-.023.982.585 1.484 1.451 1.379.866-.117 1.486-.806 1.556-1.788v.012ZM297.094 324.887c-.164-1.671-.936-3.972-1.486-5.491-.339-.935-.959-1.402-1.766-1.133-.796.268-1.029 1.028-.725 1.974.514 1.542.807 3.984 1.041 5.619.14 1.005.819 1.426 1.673 1.145.854-.28 1.345-1.098 1.251-2.114h.012ZM301.201 319.221c-.409-1.647-1.485-3.914-2.164-5.409-.421-.911-1.135-1.32-1.918-.958-.784.362-.96 1.156-.562 2.079.655 1.519 1.334 3.949 1.813 5.561.293.982 1.03 1.344 1.872.97.842-.374 1.217-1.25.959-2.255v.012ZM304.688 313.391c-.585-1.589-1.685-3.82-2.469-5.292-.479-.899-1.24-1.227-2.035-.829-.796.397-.983 1.203-.538 2.114.725 1.519 1.649 3.855 2.304 5.421.398.958 1.182 1.273 2.001.853.819-.421 1.111-1.297.748-2.278l-.011.011ZM308.081 307.457a231.06 231.06 0 0 0-2.352-5.643c-.433-1.005-1.298-1.157-2.117-.689-.819.467-1.135 1.332-.76 2.336.62 1.636 1.555 3.949 2.363 5.468.491.922 1.24 1.226 2.082.841.842-.386 1.17-1.297.772-2.302l.012-.011ZM311.811 300.4a102.605 102.605 0 0 0-2.738-5.841c-.538-1.028-1.438-1.004-2.175-.339-.737.666-1.041 1.718-.585 2.757.76 1.706 1.766 4.019 2.562 5.701.479 1.017 1.368 1.134 2.199.55.83-.585 1.205-1.741.737-2.816v-.012ZM314.945 291.207c-.936-1.799-2.269-3.961-3.451-5.503-.713-.946-1.591-.771-2.199.047-.62.818-.784 2.033-.152 3.026 1.029 1.635 2.176 3.913 3.147 5.56.596 1.005 1.474 1.005 2.211.187.737-.817 1.017-2.231.444-3.317ZM316.818 281.603a34.81 34.81 0 0 0-4.106-4.719c-.842-.806-1.638-.327-2.118.502-.479.83-.561 1.846.188 2.734 1.24 1.448 2.737 3.434 3.848 5.035.679.981 1.579.701 2.153-.234.585-.934.725-2.325.023-3.318h.012ZM317.73 272.538c-1.135-1.355-2.831-2.418-4.258-3.33-.866-.549-1.685-.303-2.153.421-.479.724-.573 1.612.281 2.22 1.415 1.004 2.971 2.651 4.2 3.925.748.783 1.626.526 2.152-.327.526-.853.48-2.103-.222-2.921v.012ZM318.526 266.533a116.575 116.575 0 0 0-4.223-2.804c-.784-.49-1.626-.315-2.176.269-.549.596-.538 1.332.211 1.858 1.228.864 2.948 1.997 4.223 2.803.784.491 1.626.316 2.176-.268.55-.596.538-1.332-.211-1.858ZM341.277 208.132h-16.119a3.694 3.694 0 0 0-3.697 3.692v25.643a3.694 3.694 0 0 0 3.697 3.691h16.119a3.694 3.694 0 0 0 3.697-3.691v-25.643a3.694 3.694 0 0 0-3.697-3.692Z" fill="#C79B67" stroke="#283135" stroke-miterlimit="10"/><path d="M466.013 319.991s-9.019-20.21-27.069-21.846c-18.05-1.635-29.807 4.37-40.206 15.573-10.388 11.203-59.625 51.893-64.538 54.346-4.925 2.454-2.456-45.608 1.369-60.082 3.825-14.475 15.312-46.706 14.225-55.713-1.1-9.007-10.119-32.501-13.126-37.139-3.006-4.637-1.099-11.203-5.474-10.923-4.375.269-5.475 6.554-5.194 9.837.269 3.283 2.737 14.743 2.737 14.743s-3.825-5.467-5.744-9.836c-1.918-4.37-2.187-4.101-6.012-3.821-3.825.281-4.375 5.736-4.375 5.736s-6.013 5.187-6.294 10.374c-.281 5.187.269 7.921.269 10.106 0 2.184-1.918 10.923-.269 14.743 1.638 3.82 12.856 14.743 13.675 18.026.819 3.282-2.456 34.685-14.225 58.996-11.756 24.311-13.675 47.243-15.312 68.283-1.638 21.028 3.006 24.311 7.381 25.129 4.375.818 46.769-2.185 72.469-15.292 25.701-13.108 57.706-32.769 57.706-32.769s8.879 12.231 31.175-15.842c12.576-15.841 6.832-42.605 6.832-42.605v-.024Z" fill="#fff" stroke="#283135" stroke-miterlimit="10"/><path d="m427.994 378.438 20.238-9.287" stroke="#283135" stroke-miterlimit="10"/><path d="M332.281 369.419s-7.662 10.923-11.219 18.295l11.219-18.295Z" fill="#fff"/><path d="M332.281 369.419s-7.662 10.923-11.219 18.295M312.594 220.843s1.754 8.493 3.661 10.771M307.096 237.911s1.719 4.568 3.626 6.858M328.725 228.764s4.878 6.857 5.264 8.376M423.724 223.833s-2.023 3.026-5.053 4.031-5.381-.339-5.381-.339-1.685 11.087-12.786 18.482M380.852 500.893c1.824 1.367 3.649 2.582 5.486 3.622M339.967 448.708s17.055 31.448 36.544 48.645M360.205 491.313c8.388 8.108 20.378 19.382 25.537 22.699M351.268 482.551s2.292 2.29 5.732 5.643M422.006 385.179s1.193 20.187 8.914 29.685M416.062 392.293l4.165 12.477M426.768 464.736l-11.885-22.559" stroke="#283135" stroke-miterlimit="10"/><path d="m84.996 20.222 29.877 36.53M73.813 6.542l4.96 6.075M29.408 65.117l45.248 21.764M71.299 125.375H39.457M51.74 163.775l-32.392 10.129M75.486 156.333l-8.06 2.524M139.169 42.524l-9.218-33.47" stroke="#C79B67" stroke-width="4" stroke-miterlimit="10" stroke-linecap="round"/><path d="M520.842 540.742H32.471" stroke="#283135" stroke-miterlimit="10"/></g><defs><clipPath id="a"><path fill="#fff" d="M0 0h561v541H0z"/></clipPath></defs></svg>