<svg width="451" height="434" fill="none" xmlns="http://www.w3.org/2000/svg"><g clip-path="url(#a)"><path opacity=".75" d="M404.192 95.088S310.563.825 245.685.004C180.798-.808 14.072 119.672 1.752 157.381c-12.32 37.7 68.987 227.86 126.48 257.369 57.493 29.508 286.638-101.634 312.912-141.797 26.283-40.163-8.211-131.964-36.962-177.864h.01Z" fill="#F4EBE1"/><path opacity=".35" d="M276.201 35.552c-6.268 2.231-7.948 8.758-9.853 10.98-2.552 2.972-5.949-5.945-14.019-3.816-8.07 2.119-7.225 6.788-10.622 8.917-3.397 2.128-5.095-2.973-8.924-1.275-3.828 1.697-5.949 3.816-6.793 5.523-.854 1.697-5.527.422-7.226 1.275-1.698.853-3.819 2.119-3.819 2.119h107.047s-1.276-9.34-6.793-11.458c-5.527-2.12-10.622 3.816-14.019.853 0 0-3.819-11.459-16.994-13.587a22.774 22.774 0 0 0-2.505-.263M391.138 138.312c-6.268 2.232-7.947 8.758-9.852 10.98-2.553 2.973-5.949-5.945-14.019-3.816-8.07 2.119-7.226 6.789-10.622 8.917-3.397 2.119-5.096-2.972-8.924-1.275-3.819 1.697-5.949 3.816-6.794 5.523-.854 1.697-5.527.422-7.225 1.275-1.699.853-3.819 2.119-3.819 2.119H436.93s-1.276-9.339-6.794-11.458c-5.527-2.119-10.622 3.816-14.019.853 0 0-3.819-11.458-16.993-13.587a22.566 22.566 0 0 0-2.506-.262M160.482 284.872c-3.153-7.099-9.571-15.425-22.53-17.516-23.665-3.816-32.495 19.26-37.074 24.595-4.58 5.336-10.688-10.68-25.186-6.864-14.506 3.817-12.977 12.2-19.085 16.016-6.11 3.816-9.159-5.335-16.027-2.288-6.87 3.047-10.688 6.864-12.208 9.911-1.53 3.048-9.919.76-12.978 2.288-3.05 1.529-6.869 3.817-6.869 3.817H200.87s-2.29-16.785-12.208-20.592c-9.919-3.816-19.086 6.864-25.186 1.529" stroke="#C79B67" stroke-miterlimit="10"/><path d="M87.78 386.905c-1.872.582-6.234 0-6.234 0-.047 0 1.25-2.756 1.356-2.918 1.183-1.898 4.581-4.874 7.006-4.274 1.746.439 2.548 2.328 1.957 3.949-.602 1.66-2.492 2.738-4.086 3.234v.009ZM47.136 385.684s-.477-2.985-.477-3.186c-.067-2.232 1.126-6.591 3.484-7.43 1.699-.601 3.407.534 3.818 2.213.42 1.717-.563 3.663-1.623 4.95-1.24 1.517-5.192 3.444-5.202 3.444v.009Z" fill="#C79B67"/><path d="M47.9 417.867c1.46.19 4.352-.639 5.163-.878.134 1.25.296 2.48.506 3.682.105.515.172 1.049.305 1.545.115.496.24.992.354 1.479.276 1.001.525 1.936.811 2.861.143.467.277.906.42 1.364-.344-.715-.916-1.85-.983-1.946-1.079-1.64-4.124-4.197-6.243-3.615-1.527.42-2.185 2.089-1.641 3.51.563 1.45 2.243 2.356 3.655 2.766 1.556.449 4.983-.047 5.393-.105.353 1.107.697 2.185 1.05 3.186.23.658.449 1.278.668 1.879H58.8a93.708 93.708 0 0 1-.878-2.318 130.42 130.42 0 0 1-1.012-2.842c.382-.162 3.35-1.421 4.543-2.575a28.984 28.984 0 0 0 2.921 1.583c-.324 1.116-.62 2.203-.888 3.234-.267 1.03-.496 1.993-.715 2.909h1.403a91.5 91.5 0 0 1 .582-2.595c.22-.934.468-1.917.725-2.928.42.086 3.818.706 5.384.324 1.422-.343 3.15-1.182 3.76-2.613.602-1.393.01-3.091-1.498-3.577-2.1-.668-5.24 1.755-6.386 3.357-.076.105-.802 1.412-1.155 2.089.163-.61.315-1.211.497-1.841.248-.906.544-1.859.82-2.785.163-.477.325-.954.497-1.44.153-.496.363-.944.553-1.421.287-.696.611-1.402.936-2.108.916.315 3.599 1.173 5.02 1.049 1.461-.124 3.294-.696 4.115-2.013.811-1.287.477-3.061-.945-3.758-1.976-.972-5.45.945-6.816 2.356-.047.048-.305.372-.6.763.333-.677.677-1.354 1.04-2.031 1.04-1.917 2.157-3.835 3.264-5.761.229-.401.458-.811.687-1.212.764.267 3.675 1.221 5.155 1.097 1.46-.124 3.293-.696 4.114-2.012.81-1.288.477-3.053-.945-3.758-1.976-.973-5.45.944-6.816 2.355-.047.048-.353.439-.697.888a79.449 79.449 0 0 0 1.7-3.186 46.085 46.085 0 0 0 2.424-5.656c.267.095 3.656 1.287 5.307 1.144 1.46-.124 3.293-.696 4.114-2.012.811-1.288.477-3.062-.945-3.759-1.976-.972-5.45.945-6.815 2.356-.096.096-1.203 1.527-1.575 2.051 0-.019.019-.048.029-.067.668-1.993 1.06-3.987 1.336-5.885.286-1.898.382-3.71.439-5.379.057-1.67 0-3.205-.048-4.56a83.718 83.718 0 0 0-.133-2.031l.038.028c.028.029.916-2.499.954-2.661.44-1.917.143-5.875-1.747-6.991-1.364-.811-3.025-.115-3.665 1.268-.649 1.412-.133 3.253.563 4.55.707 1.326 3.15 3.262 3.761 3.739.038.648.076 1.345.096 2.117.028 1.355.047 2.881-.048 4.541-.02.438-.067.915-.105 1.383a91.134 91.134 0 0 0-.286-1.975c-.497-1.898-2.578-5.284-4.783-5.398-1.584-.086-2.739 1.287-2.672 2.813.067 1.555 1.384 2.948 2.596 3.778 1.26.868 4.4 1.468 5.088 1.592a38.28 38.28 0 0 1-.392 3.148c-.315 1.87-.754 3.854-1.45 5.799-.067-.009-.058 0-.125-.019 0-.744-.057-2.298-.076-2.422-.286-1.946-1.985-5.533-4.152-5.895-1.566-.258-2.864.982-2.96 2.499-.104 1.545 1.05 3.081 2.158 4.035 1.28 1.106 4.868 2.136 5.002 2.174a45.39 45.39 0 0 1-2.463 5.418c-.687 1.297-1.441 2.585-2.205 3.873 0-.515-.057-2.557-.076-2.709-.287-1.946-1.986-5.532-4.152-5.895-1.566-.257-2.864.983-2.96 2.499-.095 1.555 1.05 3.081 2.158 4.035 1.25 1.078 4.687 2.089 4.973 2.165-.344.582-.697 1.164-1.05 1.746-1.155 1.898-2.31 3.796-3.408 5.713-.382.658-.725 1.326-1.078 1.994-.01-.783-.058-2.194-.077-2.318-.286-1.946-1.985-5.533-4.152-5.895-1.565-.258-2.863.982-2.959 2.499-.095 1.555 1.05 3.081 2.157 4.035 1.117.963 3.98 1.869 4.792 2.117-.573 1.116-1.126 2.223-1.613 3.348-.2.487-.43.973-.601 1.46-.172.476-.354.953-.525 1.43-.325.983-.63 1.908-.907 2.833-.143.468-.267.916-.401 1.364.105-.792.258-2.051.258-2.165.01-1.965-1.117-5.771-3.217-6.457-1.508-.496-2.978.534-3.312 2.022-.038.19-.067.381-.067.572-1.012 1.44-1.594 3.529-1.632 4.836 0 .124.114 1.621.19 2.375-.2-.601-.4-1.192-.6-1.812-.297-.897-.573-1.851-.85-2.776-.124-.486-.258-.973-.382-1.469-.143-.496-.21-.992-.325-1.488a53.663 53.663 0 0 1-.381-2.27c.935-.248 3.655-1.011 4.763-1.889 1.145-.915 2.357-2.394 2.32-3.948-.04-1.517-1.29-2.814-2.864-2.614-2.186.277-4.029 3.796-4.391 5.723-.01.067-.048.477-.086.973a57.393 57.393 0 0 1-.248-2.27c-.191-2.165-.315-4.388-.458-6.601-.03-.458-.067-.925-.096-1.383.783-.2 3.742-1.001 4.906-1.926 1.146-.916 2.358-2.395 2.32-3.949-.038-1.517-1.289-2.814-2.864-2.614-2.186.277-4.028 3.796-4.39 5.723-.01.067-.058.563-.096 1.126a89.631 89.631 0 0 0-.344-3.596c-.248-2.08-.6-4.111-1.107-6.048.277-.066 3.761-.934 5.06-1.964 1.145-.916 2.357-2.395 2.319-3.949-.039-1.517-1.289-2.814-2.864-2.614-2.186.277-4.028 3.796-4.39 5.723-.03.134-.163 1.936-.182 2.576 0-.02 0-.048-.02-.067-.543-2.032-1.316-3.911-2.128-5.647-.811-1.736-1.727-3.31-2.606-4.731-.878-1.421-1.765-2.671-2.558-3.767a68.563 68.563 0 0 0-1.231-1.622h.048c.038 0-.611-2.585-.678-2.747-.697-1.841-3.121-4.979-5.317-4.874-1.584.076-2.586 1.574-2.357 3.071.229 1.536 1.68 2.785 2.978 3.482 1.327.715 4.429.992 5.202 1.049.391.525.802 1.078 1.25 1.707.773 1.116 1.623 2.375 2.463 3.816.23.381.449.801.678 1.201-.525-.601-1.25-1.411-1.337-1.488-1.46-1.306-5.068-2.985-6.968-1.869-1.374.801-1.575 2.585-.677 3.815.916 1.259 2.777 1.698 4.247 1.717 1.537.029 4.477-1.202 5.126-1.478.487.896.964 1.841 1.413 2.842.773 1.736 1.498 3.625 1.985 5.637-.067.029-.048.019-.114.048-.41-.611-1.318-1.879-1.404-1.974-1.307-1.46-4.705-3.52-6.72-2.624-1.45.649-1.842 2.395-1.087 3.72.773 1.345 2.577 1.994 4.028 2.175 1.68.22 5.24-.896 5.373-.944.44 1.888.735 3.853.936 5.875.143 1.46.229 2.948.296 4.445-.277-.438-1.46-2.098-1.566-2.213-1.307-1.459-4.705-3.519-6.72-2.623-1.45.649-1.842 2.394-1.087 3.72.773 1.345 2.577 1.994 4.027 2.175 1.642.21 5.06-.839 5.346-.935.028.678.067 1.355.095 2.032.086 2.222.172 4.445.315 6.639.048.763.124 1.507.2 2.251-.438-.649-1.26-1.803-1.345-1.889-1.308-1.459-4.706-3.52-6.72-2.623-1.45.649-1.842 2.394-1.088 3.72.773 1.345 2.577 1.993 4.028 2.175l.057-.019ZM431.127 360.246c-2.94.915-9.793 0-9.793 0-.067 0 1.975-4.331 2.128-4.588 1.852-2.986 7.188-7.66 11.015-6.706 2.749.687 4 3.653 3.074 6.21-.936 2.613-3.914 4.301-6.424 5.084ZM367.27 358.329c-.067.029-.745-4.702-.754-4.998-.105-3.51 1.766-10.349 5.479-11.666 2.672-.944 5.345.84 5.994 3.482.659 2.699-.888 5.752-2.548 7.783-1.948 2.385-8.161 5.399-8.171 5.408v-.009Z" fill="#C79B67"/><path d="M368.464 408.891c2.3.296 6.844-1.002 8.113-1.383.21 1.955.458 3.892.792 5.78.163.811.277 1.65.478 2.423.181.782.372 1.555.553 2.327.43 1.574.831 3.033 1.27 4.493.219.734.439 1.43.658 2.136-.544-1.125-1.441-2.899-1.546-3.052-1.69-2.585-6.472-6.591-9.812-5.675-2.406.658-3.437 3.281-2.578 5.513.879 2.28 3.523 3.701 5.747 4.34 2.443.706 7.827-.076 8.476-.172a172.769 172.769 0 0 0 1.641 5.008c.354 1.03.697 2.003 1.041 2.947h2.272a234.01 234.01 0 0 1-1.384-3.634 194.581 194.581 0 0 1-1.585-4.464c.601-.248 5.259-2.232 7.14-4.044 1.966 1.249 4.2 2.308 4.591 2.489a216.271 216.271 0 0 0-1.394 5.075c-.42 1.621-.782 3.128-1.126 4.569h2.205c.277-1.298.573-2.643.916-4.083.344-1.459.726-3.014 1.146-4.597.668.124 5.994 1.116 8.466.515 2.243-.544 4.945-1.87 5.918-4.102.945-2.194.019-4.864-2.357-5.618-3.303-1.049-8.238 2.766-10.032 5.275-.115.162-1.26 2.213-1.814 3.281.258-.954.506-1.908.783-2.9.391-1.43.849-2.928 1.288-4.378.258-.744.516-1.497.774-2.26.248-.773.572-1.479.859-2.232.448-1.097.964-2.204 1.47-3.31 1.431.486 5.66 1.841 7.884 1.65 2.3-.2 5.173-1.097 6.471-3.167 1.27-2.022.755-4.807-1.479-5.904-3.102-1.535-8.562 1.488-10.71 3.701-.067.076-.477.591-.954 1.202.534-1.068 1.059-2.127 1.632-3.186 1.632-3.004 3.389-6.019 5.135-9.052.363-.629.716-1.268 1.079-1.898 1.203.42 5.775 1.927 8.104 1.727 2.3-.201 5.173-1.097 6.471-3.167 1.27-2.022.754-4.807-1.479-5.904-3.102-1.536-8.562 1.488-10.71 3.701-.076.076-.563.696-1.098 1.392.926-1.66 1.824-3.319 2.673-4.998 1.48-2.938 2.778-5.904 3.799-8.88.42.153 5.746 2.032 8.333 1.803 2.3-.201 5.173-1.097 6.472-3.167 1.269-2.022.754-4.807-1.48-5.904-3.102-1.536-8.562 1.488-10.71 3.701-.152.152-1.889 2.403-2.481 3.224.009-.039.028-.067.038-.105 1.05-3.138 1.661-6.257 2.109-9.253.439-2.985.602-5.827.688-8.45.086-2.623 0-5.027-.077-7.154a108.508 108.508 0 0 0-.21-3.186c.01 0 .058.048.058.048.047.038 1.441-3.921 1.498-4.188.687-3.014.229-9.223-2.749-10.988-2.148-1.268-4.753-.181-5.756 1.984-1.021 2.213-.21 5.103.879 7.144 1.116 2.089 4.944 5.132 5.908 5.876.057 1.021.115 2.108.153 3.319.038 2.127.067 4.521-.077 7.135-.038.696-.105 1.44-.162 2.165-.162-1.24-.41-2.938-.458-3.1-.783-2.985-4.047-8.298-7.503-8.489-2.491-.143-4.304 2.032-4.19 4.416.115 2.442 2.167 4.626 4.076 5.933 1.985 1.364 6.911 2.308 7.989 2.499-.143 1.603-.324 3.243-.62 4.951-.497 2.937-1.184 6.047-2.291 9.118-.105-.019-.086-.019-.191-.028-.01-1.164-.095-3.606-.124-3.806-.449-3.052-3.112-8.69-6.529-9.262-2.463-.41-4.496 1.545-4.658 3.93-.162 2.432 1.651 4.836 3.398 6.343 2.014 1.736 7.646 3.357 7.856 3.424-1.069 2.852-2.377 5.695-3.876 8.508-1.078 2.042-2.262 4.064-3.455 6.086.01-.821-.095-4.025-.124-4.254-.449-3.053-3.112-8.69-6.529-9.262-2.463-.41-4.496 1.545-4.658 3.93-.153 2.432 1.651 4.836 3.398 6.343 1.966 1.698 7.359 3.271 7.808 3.405a397.75 397.75 0 0 1-1.642 2.747c-1.813 2.985-3.636 5.971-5.345 8.966-.592 1.04-1.136 2.089-1.689 3.128-.02-1.22-.096-3.452-.125-3.643-.448-3.052-3.111-8.69-6.528-9.262-2.463-.41-4.496 1.545-4.658 3.93-.153 2.432 1.651 4.836 3.398 6.343 1.756 1.517 6.261 2.938 7.531 3.319a83.233 83.233 0 0 0-2.53 5.265c-.315.773-.677 1.536-.935 2.29-.277.753-.554 1.497-.821 2.241-.506 1.555-.983 2.986-1.422 4.445-.229.734-.42 1.431-.63 2.146.172-1.24.401-3.214.401-3.396.019-3.09-1.766-9.061-5.05-10.139-2.367-.782-4.686.849-5.192 3.176a4.73 4.73 0 0 0-.105.897c-1.585 2.261-2.501 5.542-2.568 7.593 0 .2.172 2.537.296 3.739-.315-.935-.63-1.87-.945-2.852-.458-1.412-.907-2.91-1.336-4.369-.201-.763-.401-1.536-.602-2.308-.219-.782-.334-1.555-.515-2.337-.229-1.154-.41-2.366-.601-3.567 1.46-.382 5.736-1.584 7.483-2.976 1.804-1.431 3.704-3.768 3.646-6.2-.057-2.394-2.023-4.426-4.495-4.111-3.437.429-6.319 5.961-6.892 8.994-.019.096-.076.754-.134 1.526-.143-1.182-.296-2.355-.401-3.557-.305-3.405-.496-6.887-.715-10.378l-.144-2.175c1.232-.314 5.88-1.574 7.713-3.033 1.804-1.431 3.703-3.768 3.646-6.2-.057-2.384-2.024-4.426-4.496-4.111-3.436.429-6.319 5.962-6.891 8.995-.019.105-.086.887-.143 1.764a138.435 138.435 0 0 0-.535-5.646c-.391-3.262-.945-6.458-1.737-9.51.439-.105 5.908-1.469 7.951-3.09 1.804-1.431 3.703-3.768 3.646-6.2-.057-2.385-2.023-4.426-4.496-4.111-3.436.429-6.319 5.961-6.891 8.994-.038.22-.248 3.043-.287 4.054l-.028-.114c-.859-3.196-2.062-6.143-3.351-8.871-1.279-2.728-2.71-5.198-4.094-7.43-1.375-2.242-2.769-4.197-4.019-5.924a106.425 106.425 0 0 0-1.938-2.537h.077c.067 0-.964-4.063-1.06-4.321-1.097-2.89-4.906-7.821-8.361-7.649-2.492.124-4.066 2.47-3.704 4.836.363 2.413 2.644 4.378 4.677 5.475 2.081 1.125 6.959 1.554 8.171 1.64.611.82 1.26 1.698 1.957 2.69 1.212 1.745 2.558 3.739 3.875 5.99.353.601.706 1.259 1.069 1.898-.821-.944-1.966-2.222-2.09-2.337-2.301-2.06-7.961-4.683-10.949-2.938-2.147 1.26-2.472 4.064-1.059 6 1.441 1.974 4.362 2.661 6.672 2.699 2.405.039 7.035-1.888 8.047-2.317a61.304 61.304 0 0 1 2.214 4.473c1.212 2.728 2.358 5.694 3.121 8.861-.095.048-.086.038-.181.076-.649-.963-2.071-2.956-2.205-3.109-2.062-2.299-7.397-5.532-10.557-4.13-2.281 1.011-2.902 3.767-1.718 5.837 1.212 2.118 4.047 3.129 6.338 3.425 2.634.333 8.228-1.412 8.438-1.479.687 2.967 1.164 6.057 1.47 9.233.229 2.299.362 4.636.467 6.982-.439-.687-2.3-3.3-2.453-3.481-2.061-2.299-7.397-5.532-10.557-4.13-2.281 1.011-2.901 3.767-1.718 5.837 1.213 2.118 4.047 3.129 6.338 3.424 2.577.334 7.942-1.325 8.4-1.469.048 1.069.105 2.128.143 3.196.143 3.491.267 6.982.487 10.425.076 1.192.2 2.366.315 3.548-.687-1.011-1.985-2.823-2.109-2.966-2.062-2.299-7.398-5.532-10.557-4.13-2.282 1.011-2.902 3.768-1.719 5.847 1.213 2.117 4.048 3.128 6.338 3.424l.058-.038ZM215.712 360.246c2.94.916 9.794 0 9.794 0 .067 0-1.976-4.331-2.129-4.588-1.852-2.986-7.187-7.659-11.015-6.705-2.749.686-3.999 3.653-3.073 6.209.935 2.613 3.913 4.302 6.423 5.084ZM279.57 358.329c.067.029.744-4.702.754-4.998.105-3.51-1.766-10.349-5.479-11.666-2.673-.944-5.345.84-5.994 3.482-.659 2.699.887 5.752 2.548 7.783 1.947 2.385 8.161 5.399 8.171 5.408v-.009Z" fill="#C79B67"/><path d="M278.376 408.891c-2.301.296-6.844-1.002-8.114-1.383-.21 1.955-.458 3.892-.792 5.78-.162.811-.277 1.65-.477 2.423-.182.782-.373 1.555-.554 2.327-.429 1.574-.83 3.033-1.269 4.493-.22.734-.439 1.43-.659 2.136.544-1.125 1.441-2.899 1.546-3.052 1.69-2.585 6.472-6.591 9.813-5.675 2.405.658 3.436 3.281 2.577 5.513-.878 2.28-3.522 3.701-5.746 4.34-2.444.706-7.827-.076-8.476-.172a172.694 172.694 0 0 1-1.642 5.008 161.47 161.47 0 0 1-1.041 2.947h-2.271c.448-1.154.907-2.346 1.384-3.634a190.03 190.03 0 0 0 1.584-4.464c-.601-.248-5.259-2.232-7.139-4.044-1.967 1.249-4.2 2.308-4.592 2.489.506 1.755.974 3.472 1.394 5.075.42 1.621.783 3.128 1.126 4.569h-2.205a170.089 170.089 0 0 0-.916-4.083 170.817 170.817 0 0 0-1.145-4.597c-.669.124-5.995 1.116-8.467.515-2.243-.544-4.944-1.87-5.918-4.102-.945-2.194-.019-4.864 2.358-5.618 3.302-1.049 8.237 2.766 10.032 5.275.114.162 1.26 2.213 1.813 3.281-.258-.954-.506-1.908-.783-2.9-.391-1.43-.849-2.928-1.288-4.378-.258-.744-.516-1.497-.773-2.26-.248-.773-.573-1.479-.859-2.232-.449-1.097-.964-2.204-1.47-3.31-1.432.486-5.661 1.841-7.885 1.65-2.3-.2-5.173-1.097-6.471-3.167-1.27-2.022-.754-4.807 1.479-5.904 3.103-1.535 8.562 1.488 10.71 3.701.067.076.477.591.955 1.202-.535-1.068-1.06-2.127-1.633-3.186-1.632-3.004-3.388-6.019-5.135-9.052-.363-.629-.716-1.268-1.079-1.898-1.202.42-5.774 1.927-8.103 1.727-2.301-.201-5.174-1.097-6.472-3.167-1.269-2.022-.754-4.807 1.479-5.904 3.103-1.536 8.562 1.488 10.71 3.701.076.076.563.696 1.098 1.392a140.953 140.953 0 0 1-2.673-4.998c-1.479-2.938-2.777-5.904-3.799-8.88-.42.153-5.746 2.032-8.333 1.803-2.3-.201-5.173-1.097-6.471-3.167-1.27-2.022-.754-4.807 1.479-5.904 3.102-1.536 8.562 1.488 10.71 3.701.153.152 1.89 2.403 2.482 3.224-.01-.039-.029-.067-.039-.105-1.05-3.138-1.66-6.257-2.109-9.253-.439-2.985-.601-5.827-.687-8.45-.086-2.623 0-5.027.076-7.154.057-1.154.134-2.204.21-3.186-.01 0-.057.048-.057.048-.048.038-1.442-3.921-1.499-4.188-.687-3.014-.229-9.223 2.749-10.988 2.148-1.268 4.754-.181 5.756 1.984 1.021 2.213.21 5.103-.878 7.144-1.117 2.089-4.945 5.132-5.909 5.876a132.734 132.734 0 0 0-.152 3.319c-.039 2.127-.067 4.521.076 7.135.038.696.105 1.44.162 2.165.162-1.24.411-2.938.458-3.1.783-2.985 4.048-8.298 7.503-8.489 2.491-.143 4.305 2.032 4.19 4.416-.114 2.442-2.167 4.626-4.076 5.933-1.985 1.364-6.91 2.308-7.989 2.499.143 1.603.325 3.243.621 4.951.496 2.937 1.183 6.047 2.29 9.118.105-.019.086-.019.191-.028.01-1.164.096-3.606.124-3.806.449-3.052 3.112-8.69 6.529-9.262 2.463-.41 4.496 1.545 4.658 3.93.163 2.432-1.651 4.836-3.398 6.343-2.014 1.736-7.645 3.357-7.855 3.424 1.069 2.852 2.376 5.695 3.875 8.508 1.078 2.042 2.262 4.064 3.455 6.086-.009-.821.096-4.025.124-4.254.449-3.053 3.112-8.69 6.529-9.262 2.463-.41 4.496 1.545 4.658 3.93.153 2.432-1.651 4.836-3.398 6.343-1.966 1.698-7.359 3.271-7.808 3.405a397.75 397.75 0 0 0 1.642 2.747c1.814 2.985 3.637 5.971 5.345 8.966.592 1.04 1.136 2.089 1.69 3.128.019-1.22.095-3.452.124-3.643.448-3.052 3.112-8.69 6.529-9.262 2.462-.41 4.495 1.545 4.658 3.93.152 2.432-1.652 4.836-3.398 6.343-1.757 1.517-6.262 2.938-7.531 3.319a83.768 83.768 0 0 1 2.529 5.265c.315.773.678 1.536.935 2.29.277.753.554 1.497.821 2.241.506 1.555.983 2.986 1.423 4.445.229.734.42 1.431.63 2.146-.172-1.24-.401-3.214-.401-3.396-.019-3.09 1.765-9.061 5.049-10.139 2.367-.782 4.687.849 5.193 3.176.066.296.095.601.105.897 1.584 2.261 2.5 5.542 2.567 7.593 0 .2-.172 2.537-.296 3.739.315-.935.63-1.87.945-2.852a171.7 171.7 0 0 0 1.337-4.369c.2-.763.4-1.536.601-2.308.219-.782.334-1.555.515-2.337.229-1.154.411-2.366.602-3.567-1.461-.382-5.737-1.584-7.484-2.976-1.804-1.431-3.703-3.768-3.646-6.2.057-2.394 2.024-4.426 4.496-4.111 3.436.429 6.319 5.961 6.891 8.994.019.096.077.754.134 1.526.143-1.182.296-2.355.401-3.557.305-3.405.496-6.887.716-10.378l.143-2.175c-1.231-.314-5.88-1.574-7.712-3.033-1.805-1.431-3.704-3.768-3.647-6.2.058-2.384 2.024-4.426 4.496-4.111 3.436.429 6.319 5.962 6.892 8.995.019.105.086.887.143 1.764.143-1.888.315-3.777.534-5.646.392-3.262.945-6.458 1.738-9.51-.44-.105-5.909-1.469-7.952-3.09-1.804-1.431-3.703-3.768-3.646-6.2.057-2.385 2.024-4.426 4.496-4.111 3.436.429 6.319 5.961 6.892 8.994.038.22.248 3.043.286 4.054l.029-.114c.859-3.196 2.061-6.143 3.35-8.871 1.279-2.728 2.711-5.198 4.095-7.43 1.374-2.242 2.768-4.197 4.018-5.924.687-.925 1.327-1.764 1.938-2.537h-.076c-.067 0 .964-4.063 1.059-4.321 1.098-2.89 4.906-7.821 8.362-7.649 2.491.124 4.066 2.47 3.703 4.836-.363 2.413-2.644 4.378-4.677 5.475-2.081 1.125-6.958 1.554-8.171 1.64-.611.82-1.26 1.698-1.956 2.69-1.213 1.745-2.559 3.739-3.876 5.99-.353.601-.706 1.259-1.069 1.898.821-.944 1.966-2.222 2.091-2.337 2.3-2.06 7.96-4.683 10.948-2.938 2.147 1.26 2.472 4.064 1.059 6-1.441 1.974-4.362 2.661-6.672 2.699-2.405.039-7.034-1.888-8.046-2.317a60.903 60.903 0 0 0-2.215 4.473c-1.212 2.728-2.357 5.694-3.121 8.861.095.048.086.038.181.076.649-.963 2.072-2.956 2.205-3.109 2.062-2.299 7.398-5.532 10.557-4.13 2.282 1.011 2.902 3.767 1.718 5.837-1.212 2.118-4.047 3.129-6.338 3.425-2.634.333-8.228-1.412-8.437-1.479-.688 2.967-1.165 6.057-1.47 9.233-.23 2.299-.363 4.636-.468 6.982.439-.687 2.3-3.3 2.453-3.481 2.062-2.299 7.397-5.532 10.557-4.13 2.281 1.011 2.902 3.767 1.718 5.837-1.212 2.118-4.047 3.129-6.338 3.424-2.577.334-7.942-1.325-8.4-1.469-.047 1.069-.105 2.128-.143 3.196-.143 3.491-.267 6.982-.487 10.425-.076 1.192-.2 2.366-.315 3.548.688-1.011 1.986-2.823 2.11-2.966 2.062-2.299 7.397-5.532 10.557-4.13 2.281 1.011 2.901 3.768 1.718 5.847-1.212 2.117-4.047 3.128-6.338 3.424l-.057-.038Z" fill="#C79B67"/><path d="M372.046 185.805s2.786 4.639 4.278 5.942c1.483 1.303 13.935-1.668 25.092 14.292 11.147 15.96 4.598 26.841 8.764 37.431 4.166 10.59 17.8 6.813 17.049 32.155-.76 25.35-12.498 35.94-27.268 38.968-14.769 3.027-11.738 8.322-18.935 15.135-7.198 6.813-16.29 4.536-21.967 0-5.686-4.536-7.572-9.456-4.926-19.671 2.646-10.216 14.394-42.745 10.228-55.613-4.167-12.858-8.333-21.564-3.407-33.288 4.927-11.724 8.943-18.856 6.672-21.884l-4.542-6.054 8.98-7.403-.018-.01Z" fill="#283135" stroke="#283135" stroke-miterlimit="10"/><path d="M316.937 226.919s-21.394 7.554-32.607 16.935c-11.213 9.381-29.736 42.726-29.736 60.964 0 18.237 4.438 54.197 3.65 79.201-.779 25.013-2.871 49.764-2.871 49.764h113.22s-11.213-16.41-21.132-44.029c-9.909-27.618-6.521-36.999 2.083-53.934 8.605-16.935 28.432-40.121 28.958-66.699.525-26.579-12.987-42.445-17.322-44.282-4.335-1.837-32.242-1.575-44.243 2.071v.009Z" fill="#D32A34" stroke="#283135" stroke-miterlimit="10"/><path d="M257.924 392.688c2.45-17.722 5.152-40.046 5.152-40.046l20.362 22.146s-10.237-14.836-6.334-23.055c3.904-8.219 65.168-53.335 65.168-53.335s8.595-5.426 9.505-18.528c.901-13.111-95.495 38.874-95.495 38.874s-.159 4.527-.403 11.593c1.239 17.404 2.862 37.769 2.355 53.691a841.477 841.477 0 0 1-.319 8.66h.009Z" fill="#283135" stroke="#283135" stroke-miterlimit="10"/><path d="M310.603 117.513s-13.859 12.033-14.91 16.85c-1.051 4.818 2.562 6.467-2.712 13.243-5.273 6.766-10.997 9.025-10.246 12.792.75 3.758 5.874 4.518 6.474 6.167.601 1.659.432 5.492 2.093 13.008 1.661 7.526 8.754 21.471 10.716 23.58 1.961 2.108 10.997-.15 14.009-1.509 0 0 1.22.534 1.52 9.709.3 9.175-4.936 18.997-4.936 18.997s-11.654 8.237-10.725 9.728c.929 1.49 26.762-7.236 38.472-10.956 11.711-3.711 20.813-4.274 20.813-4.274s-3.444-18.256-6.043-26.606c-2.6-8.351 6.502-15.408 8.736-30.815 2.233-15.407 10.04-25.8-6.878-39.905-16.909-14.104-34.381-15.032-38.838-14.104-4.457.927-7.545 4.095-7.545 4.095Z" fill="#fff" stroke="#283135" stroke-miterlimit="10"/><path d="M301.476 183.772c3.079-1.026 5.372-6.141 5.917-4.675.544 1.465-2.021 8.236-5.094 9.267-3.079 1.026-6.011-1.199-6.555-2.665-.545-1.466 2.659-.896 5.732-1.927Z" fill="#283135" stroke="#283135" stroke-miterlimit="10"/><ellipse cx="303.585" cy="149.012" rx="2.815" ry="2.812" fill="#283135"/><path d="M308.512 142.701c-3.59-3.012-9.374-2.628-10.453-.057-.53 1.257 1.106 2.312 1.925 1.237.009-.019.028-.038.037-.057 1.358-1.832 1.352-2.009 6.848-.435 1.877.468 2.815 0 1.643-.697v.009ZM314.066 117.316s1.857 2.043 4.457 5.942c2.599 3.899-1.858 5.942-.929 15.782s10.04 14.845 10.218 18.744c.179 3.898 2.975 7.61 7.432 6.307 4.457-1.303 10.969-7.61 13.756 3.336 2.787 10.956-8.736 11.134-7.995 14.105.742 2.971 12.64 24.32 16.356 22.277 3.715-2.043 22.379-14.911 25.719-41.827 3.341-26.916-9.927-42.07-26.461-49.867-16.543-7.798-29.182-2.971-31.781-4.086-2.6-1.116-1.117-7.057-9.665-6.308-8.549.741-11.711 2.971-12.64 6.495-.929 3.524 2.975 7.423 1.671 8.913-1.305 1.49-6.878-.553-7.995 4.451-1.117 5.014 3.903 6.495 3.903 6.495s10.782-12.624 13.935-10.768l.019.009Z" fill="#283135" stroke="#283135" stroke-miterlimit="10"/><path d="M152.23 195.102s3.088 6.907 4.261 9.672c1.172 2.764 1.811 6.804 3.941 15.632s8.942 46.503 14.563 62.322c5.62 15.82 13.793 31.64 16.524 32.492 2.721.853 7.497.507 17.547-1.705 10.049-2.212 35.422-7.826 35.422-7.826l13.118-2.896s-1.023-6.466 10.388-27.731c11.41-21.264 29.801-39.98 29.801-39.98s-9.533-1.527-24.697 8.678c-15.154 10.206-53.992 33.167-59.097 35.042-5.114 1.874-5.451-1.022-6.981-4.255-1.529-3.233-16.177-26.194-21.291-44.226-5.114-18.031-7.328-28.068-7.328-28.068s.169-.853 2.899-6.298c2.731-5.445 5.79-10.722 3.575-14.292-2.214-3.571-7.15-4.086-11.748-.853-4.598 3.233-20.887 14.273-20.887 14.273l-.01.019ZM238.154 143.548l-21.648 38.565-79.825-45.594s-9.655-4.948-25.307-6.776c-15.651-1.827-31.565 2.343-31.565 2.343s4.175-20.065 17.218-43.25C110.07 65.65 124.68 51.573 124.68 51.573s8.351 23.973 29.736 42.726c21.394 18.763 83.738 49.24 83.738 49.24v.009Z" fill="#fff" stroke="#283135" stroke-miterlimit="10"/><path d="m169.655 149.218-30.431-17.376s-9.655-4.948-25.307-6.775c-15.651-1.828-31.565 2.343-31.565 2.343" stroke="#EBDDCE" stroke-width="4" stroke-miterlimit="10"/><path d="M79.809 134.429a2.77 2.77 0 0 1-.478-.047 2.344 2.344 0 0 1-1.82-2.774c.168-.834 4.4-20.683 17.471-43.925 13.062-23.224 27.465-37.216 28.066-37.797a2.344 2.344 0 0 1 3.312.056 2.337 2.337 0 0 1-.056 3.309c-.141.14-14.535 14.132-27.24 36.718-12.715 22.614-16.928 42.38-16.965 42.576a2.353 2.353 0 0 1-2.3 1.865l.01.019ZM163.931 152.086l52.566 30.027 21.648-38.565s-28.066-13.72-52.998-28.415l-21.225 36.953h.009Z" fill="#C79B67" stroke="#283135" stroke-miterlimit="10"/><path d="m219.079 155.375-11.833 20.843M227.907 139.818l-5.255 9.269" stroke="#283135" stroke-miterlimit="10"/><path d="m175.36 149.893-3.575 7.31 2.28 2.596s-2.111 6.663-8.623 13.326l-6.512 6.664s-7.319 3.252-10.247 3.252-5.039.328-5.208 3.252c-.159 2.924-.488 7.966 2.28 11.536 2.768 3.571 3.087 2.109 4.392 1.303 1.304-.815 11.391-3.411 20.334-10.403 8.951-6.991 12.367-11.536 12.367-11.536s5.039 5.688 6.024 4.714c.985-.975 11.063-18.041 11.063-18.041l-24.566-13.973h-.009Z" fill="#fff" stroke="#283135" stroke-miterlimit="10"/><path d="m173.248 157.859 14.798 22.099" stroke="#283135" stroke-miterlimit="10"/><path d="M173.249 161.298s-3.331-2.68-5.367-1.846c-2.036.834-3.706 4.255-3.331 6.288.366 2.034 1.576 6.936 3.331 6.748 1.755-.187 2.965-6.195 2.965-6.195s2.13-4.161 2.412-4.995h-.01Z" fill="#fff" stroke="#283135" stroke-miterlimit="10"/><path d="M164.728 163.426s-2.224-3.149-5.461-.366c-3.238 2.784-1.764 6.476-.742 9.616 1.023 3.148 3.059 4.995 4.626 4.348 1.577-.647 2.872-2.868 2.966-3.974.093-1.105 0-2.961 0-2.961s-2.037-4.067-1.389-6.663Z" fill="#fff" stroke="#283135" stroke-miterlimit="10"/><path d="M157.138 167.587s-2.412-.282-4.073 2.774c-1.67 3.055 1.023 8.228 1.849 10.73.835 2.493 2.224 3.149 4.166 2.681 1.942-.46 2.496-2.034 2.496-3.515 0-1.481-.835-3.795-.835-3.795s-2.13-3.149-2.778-5.183a21.577 21.577 0 0 1-.835-3.702l.01.01Z" fill="#fff" stroke="#283135" stroke-miterlimit="10"/><path d="M152.971 176.19s-2.777-3.515-5.001-1.575c-2.224 1.94-1.389 5.089.281 7.029 1.671 1.94 4.073 3.055 5.368 2.68 1.295-.365 1.764-2.033 1.764-2.033l-2.412-6.101Z" fill="#fff" stroke="#283135" stroke-miterlimit="10"/><path d="M178.25 201.072s6.296-10.356 8.333-13.224c2.036-2.868 1.97-4.386 2.28-5.932.31-1.556-5.893-8.585-7.282-10.806-1.388-2.221-2.317-1.94-5.555-3.233-3.237-1.293-4.72-4.808-6.756-3.421-2.036 1.387-.553 6.664.929 8.322 1.483 1.669 4.72 3.149 4.72 3.149l2.871 6.842s-10.65 6.195-12.132 10.178c-1.483 3.973.459 8.05.929 8.875" fill="#fff"/><path d="M178.25 201.072s6.296-10.356 8.333-13.224c2.036-2.868 1.97-4.386 2.28-5.932.31-1.556-5.893-8.585-7.282-10.806-1.388-2.221-2.317-1.94-5.555-3.233-3.237-1.293-4.72-4.808-6.756-3.421-2.036 1.387-.553 6.664.929 8.322 1.483 1.669 4.72 3.149 4.72 3.149l2.871 6.842s-10.65 6.195-12.132 10.178c-1.483 3.973.459 8.05.929 8.875" stroke="#283135" stroke-miterlimit="10"/><path d="M161.753 196.686c-1.07.619-2.553 1.425-3.65 1.997-.667.356-1.352.159-1.746-.375-.403-.535-.328-1.144.329-1.519a98.469 98.469 0 0 1 3.65-1.996c.666-.347 1.342-.14 1.736.384.394.525.328 1.134-.319 1.509ZM161.789 201.41c-1.116.693-2.749 1.724-3.894 2.39-.703.412-1.332.225-1.679-.403s-.169-1.341.516-1.772c1.107-.703 2.683-1.658 3.838-2.249.703-.365 1.313-.14 1.66.441.338.581.244 1.171-.431 1.593h-.01ZM161.292 206.742c-1.097.778-2.702 1.949-3.828 2.699-.685.459-1.323.291-1.661-.366-.338-.656-.15-1.405.516-1.902a44.546 44.546 0 0 1 3.876-2.54c.713-.403 1.332-.262 1.66.375.329.628.104 1.256-.572 1.725l.009.009ZM160.88 212.056c-1.107.769-2.618 2.127-3.678 2.971-.648.515-1.286.394-1.642-.253-.357-.656-.197-1.425.431-1.978 1.042-.899 2.637-2.024 3.763-2.755.685-.44 1.314-.347 1.661.272.347.618.141 1.274-.535 1.743ZM160.739 217.51c-.948.938-2.393 2.334-3.387 3.243-.61.553-1.239.487-1.643-.131-.394-.619-.3-1.387.282-1.978.957-.965 2.421-2.268 3.5-3.045.657-.478 1.267-.45 1.661.149.394.6.169 1.2-.413 1.772v-.01ZM161.068 222.683c-.929.91-2.168 2.447-3.059 3.421-.545.591-1.183.581-1.642.028-.451-.553-.441-1.312.075-1.94.854-1.031 2.224-2.361 3.218-3.214.601-.516 1.22-.544 1.661-.019.441.525.31 1.172-.263 1.724h.01ZM161.969 227.764c-.864.946-1.952 2.558-2.75 3.598-.478.638-1.126.685-1.642.188-.516-.497-.572-1.237-.112-1.903.75-1.087 2.008-2.464 2.899-3.383.544-.562 1.173-.628 1.661-.178.488.459.469 1.097-.056 1.678ZM163.376 232.496c-.685 1.078-1.66 2.68-2.383 3.749-.441.656-1.088.75-1.642.318-.554-.431-.704-1.134-.3-1.808a33.599 33.599 0 0 1 2.524-3.59c.497-.6 1.107-.721 1.651-.318.554.403.554.993.141 1.649h.009ZM165.394 237.041c-.657 1.087-1.492 2.737-2.13 3.843-.394.674-1.051.824-1.642.468-.601-.356-.807-1.021-.451-1.724.591-1.143 1.539-2.671 2.262-3.721.441-.637 1.069-.806 1.651-.468.582.337.704.927.31 1.593v.009ZM167.768 241.193a126.42 126.42 0 0 1-1.915 3.927c-.356.693-1.022.881-1.642.581-.619-.3-.891-.928-.563-1.64a46.211 46.211 0 0 1 1.999-3.833c.394-.666 1.032-.862 1.651-.581.62.281.789.843.47 1.546ZM170.488 245.214c-.525 1.143-1.266 2.774-1.82 3.908-.347.693-.995.937-1.633.703-.638-.234-.91-.834-.6-1.537a66.02 66.02 0 0 1 1.876-3.861c.357-.684 1.004-.919 1.633-.694.629.225.873.787.554 1.481h-.01ZM173.228 249.122c-.535 1.19-1.183 2.961-1.689 4.189-.31.749-.939.965-1.605.693-.675-.272-.938-.965-.675-1.715.431-1.228 1.219-2.868 1.792-4.011.347-.703.985-.937 1.604-.693.629.243.892.806.573 1.537ZM176.083 253.479c-.348 1.275-.76 3.13-1.136 4.414-.234.788-.863 1.022-1.548.741-.676-.281-1.088-.947-.91-1.762.3-1.34.882-3.093 1.426-4.311.328-.741.901-1.022 1.558-.741.666.282.816.881.6 1.659h.01ZM179.31 257.603c-.347 1.237-.375 3.111-.544 4.414-.094.787-.722 1.068-1.417.862-.694-.215-1.22-.806-1.163-1.63.094-1.359.563-3.093.948-4.34.234-.768.788-1.077 1.435-.871.648.206.948.825.732 1.574l.009-.009ZM183.1 261.202c.019 1.208-.019 2.858.094 4.086.065.749-.404 1.237-1.126 1.162-.723-.075-1.314-.628-1.427-1.415-.187-1.294 0-2.943.225-4.171.132-.75.61-1.124 1.286-1.021.666.103.948.618.957 1.349l-.009.01ZM187.434 263.901c.179 1.181.582 2.727.779 3.926.122.731-.178 1.266-.91 1.322-.732.047-1.53-.384-1.736-1.143a16.758 16.758 0 0 1-.497-4.124c.009-.769.563-1.031 1.21-1.068.648-.047 1.042.374 1.154 1.096v-.009ZM192.212 265.56c.403 1.171 1.107 2.718 1.529 3.908.254.722-.141 1.237-.807 1.406-.666.168-1.435-.056-1.717-.778-.469-1.181-1.023-2.69-1.248-3.908-.131-.74.253-1.237.882-1.415.629-.178 1.117.065 1.361.778v.009ZM197.165 266.281c.581 1.134 1.473 2.606 2.055 3.777.356.713-.038 1.294-.695 1.547-.657.253-1.464.112-1.858-.563-.647-1.106-1.323-2.521-1.726-3.702-.244-.721.131-1.274.713-1.555.591-.281 1.154-.197 1.511.496ZM202.449 266.328c.638 1.134 1.699 2.549 2.412 3.664.432.684.113 1.35-.516 1.697-.629.346-1.445.29-1.905-.366-.76-1.068-1.539-2.455-2.102-3.608-.338-.703-.009-1.34.535-1.696.544-.356 1.192-.385 1.586.309h-.01ZM207.59 265.897c.741 1.059 1.745 2.456 2.468 3.562.441.674.291 1.415-.301 1.855-.6.441-1.351.338-1.82-.3a48.212 48.212 0 0 1-2.346-3.542c-.403-.675-.14-1.369.376-1.781.516-.412 1.173-.45 1.623.197v.009ZM212.762 265.56a126.79 126.79 0 0 0 2.571 3.936c.459.675.478 1.331-.122 1.753-.601.421-1.323.225-1.774-.46a479.58 479.58 0 0 0-2.552-3.861c-.441-.665-.272-1.331.263-1.715.525-.384 1.191-.337 1.623.347h-.009ZM217.406 265.934c.76 1.069 2.168 2.549 3.041 3.552.534.609.497 1.275-.085 1.706-.582.431-1.276.337-1.858-.263-.938-.993-2.13-2.699-2.871-3.804-.45-.675-.497-1.341.094-1.734.582-.394 1.21-.103 1.679.553v-.01ZM222.277 265.616c.816.965 2.252 2.118 3.246 2.933.61.497.601 1.153.104 1.64-.498.488-1.201.563-1.839.085-1.051-.787-2.252-2.174-3.05-3.187-.488-.618-.535-1.255-.047-1.715.488-.459 1.079-.337 1.576.253l.01-.009ZM226.546 264.473c.976.722 2.402 1.565 3.481 2.184.657.374.835 1.031.432 1.602-.404.562-1.042.806-1.736.441-1.126-.6-2.468-1.725-3.416-2.512-.582-.478-.75-1.078-.366-1.621.385-.544 1.014-.544 1.605-.094ZM230.495 262.223c1.155.366 2.722.909 3.885 1.35.704.272.835.956.544 1.574-.29.609-.891 1.05-1.642.816-1.229-.385-2.721-1.012-3.791-1.659-.656-.394-.853-.984-.553-1.593.3-.61.854-.703 1.557-.478v-.01ZM233.865 259.018c1.182.319 2.843.469 4.082.713.75.15.985.843.806 1.508-.178.666-.722 1.228-1.491 1.134-1.267-.159-2.694-.609-3.838-1.077-.695-.291-.929-.9-.807-1.528s.535-.946 1.257-.75h-.009ZM236.876 254.96c1.239.207 2.928.216 4.223.319.788.066 1.116.731 1.041 1.434-.075.693-.572 1.312-1.351 1.293-1.276-.037-2.806-.318-4.025-.571-.742-.16-1.07-.797-1.042-1.444.028-.637.394-1.153 1.154-1.031ZM239.437 250.64c1.295.009 3.031-.019 4.354.018.807.028 1.211.647 1.201 1.359 0 .713-.45 1.331-1.238 1.35a33.072 33.072 0 0 1-4.204-.188c-.779-.084-1.173-.693-1.201-1.359-.028-.674.3-1.18 1.088-1.18ZM241.981 246.02c1.333 0 3.068-.075 4.429-.113.826-.019 1.333.637 1.314 1.378-.019.74-.479 1.321-1.286 1.331a93.64 93.64 0 0 1-4.288-.075c-.788-.029-1.248-.6-1.295-1.284-.047-.684.31-1.237 1.117-1.237h.009ZM244.748 241.118a57.42 57.42 0 0 0 4.645-.693c.872-.178 1.323.459 1.342 1.265.018.806-.423 1.649-1.314 1.827-1.464.281-3.265.31-4.701.347-.873.019-1.267-.6-1.257-1.331.018-.731.412-1.321 1.285-1.406v-.009ZM247.377 235.232c1.445-.459 3.143-1.255 4.513-1.968.835-.431 1.342.263 1.436 1.087.094.825-.225 1.978-1.107 2.343-1.455.591-3.134 1.341-4.598 1.669-.892.196-1.323-.422-1.389-1.191-.056-.768.263-1.649 1.145-1.93v-.01ZM249.141 228.447c1.36-.74 2.899-1.837 4.203-2.699.789-.525 1.37.028 1.567.853.197.834 0 1.959-.797 2.512-1.314.899-2.918 1.865-4.307 2.521-.854.403-1.38-.197-1.52-.975-.141-.778.028-1.752.854-2.202v-.01ZM250.107 221.475c1.163-.928 2.664-2.184 3.912-3.009.76-.496 1.399.028 1.652.769.253.74.15 1.696-.591 2.221-1.23.862-2.721 2.024-3.96 2.811-.751.478-1.342.085-1.614-.646-.263-.722-.113-1.584.591-2.156l.01.01ZM250.659 215.636c1.145-.581 2.853-1.331 4.007-1.846.704-.309 1.342-.178 1.661.403.319.581.066 1.125-.629 1.453-1.154.543-2.89 1.312-3.96 2.052-.647.45-1.313.319-1.632-.291-.319-.609-.141-1.415.563-1.771h-.01Z" fill="#C79B67" stroke="#283135" stroke-miterlimit="10"/><path d="M156.781 198.701c1.088.647 2.674 1.621 3.725 2.343.638.441 1.304.281 1.689-.262.385-.534.291-1.191-.347-1.631-1.051-.722-2.721-1.64-3.829-2.268-.675-.375-1.341-.29-1.717.272-.384.562-.178 1.153.479 1.546ZM156.555 203.828c1.023.777 2.403 1.733 3.463 2.446.647.44 1.332.196 1.727-.347.403-.544.422-1.247-.216-1.715a160.74 160.74 0 0 0-3.5-2.512c-.657-.45-1.352-.234-1.755.338-.404.581-.357 1.302.272 1.78l.009.01ZM156.133 209.526c1.023.796 2.393 1.631 3.481 2.287.667.403 1.333.103 1.708-.45.376-.553.404-1.256-.253-1.697-1.079-.721-2.412-1.715-3.491-2.455-.657-.459-1.323-.159-1.698.44-.375.6-.366 1.397.253 1.875ZM155.898 215.196c1.051.749 2.468 1.424 3.575 2.024.676.365 1.314-.028 1.652-.581.328-.562.338-1.256-.338-1.64-1.117-.628-2.449-1.556-3.547-2.259-.675-.421-1.323-.047-1.651.563-.338.618-.319 1.433.319 1.893h-.01ZM156.078 221.015c1.088.666 2.552 1.19 3.715 1.631.704.272 1.314-.112 1.596-.694.281-.581.215-1.246-.498-1.546-1.163-.497-2.543-1.303-3.678-1.912-.694-.375-1.304.047-1.595.675-.282.628-.207 1.443.45 1.846h.01ZM156.781 226.47c1.154.543 2.674.956 3.884 1.274.732.188 1.295-.234 1.52-.824.226-.591.057-1.237-.675-1.444-1.201-.346-2.674-1.077-3.857-1.546-.722-.291-1.285.15-1.511.806-.225.656-.056 1.406.639 1.743v-.009ZM158.029 231.849c1.21.412 2.833.637 4.063.853.75.131 1.266-.328 1.426-.947.159-.628-.103-1.199-.854-1.34-1.22-.234-2.806-.787-4.025-1.143-.742-.216-1.277.272-1.436.937-.16.665.084 1.387.816 1.64h.01ZM159.839 236.817c1.248.29 2.947.384 4.204.44.76.038 1.276-.403 1.37-1.059.103-.656-.244-1.162-1.013-1.228-1.258-.112-2.937-.44-4.195-.674-.769-.141-1.266.337-1.37 1.021-.103.684.235 1.322.995 1.5h.009ZM162.139 241.549c1.276.159 3.068.075 4.335.065.779 0 1.248-.496 1.295-1.152.047-.666-.366-1.115-1.145-1.125-1.267-.009-3.04-.169-4.317-.262-.778-.057-1.257.431-1.313 1.115-.047.684.356 1.256 1.135 1.35l.01.009ZM164.756 245.86c1.286.056 3.106-.103 4.382-.225.77-.075 1.258-.543 1.267-1.218.009-.675-.45-1.087-1.22-1.04-1.267.075-3.096.065-4.391.065-.788 0-1.258.497-1.267 1.19 0 .694.45 1.2 1.229 1.228ZM167.591 249.928c1.276-.122 3.106-.169 4.382-.3.779-.075 1.229-.563 1.229-1.237 0-.685-.45-1.106-1.229-1.078-1.276.047-3.125.197-4.401.281-.779.056-1.239.6-1.239 1.228s.488 1.181 1.267 1.106h-.009ZM170.479 254.135c1.305.01 3.012-.112 4.298-.234.779-.075 1.192-.656 1.173-1.331-.01-.675-.422-1.199-1.22-1.162-1.304.066-3.059.075-4.382.122-.807.028-1.22.665-1.182 1.378.037.721.516 1.218 1.313 1.218v.009ZM173.97 258.765c1.314-.019 2.947-.29 4.204-.525.77-.14 1.089-.759 1.004-1.415-.084-.656-.516-1.152-1.304-1.04-1.295.187-3.05.244-4.373.328-.807.056-1.154.665-1.032 1.378.122.712.694 1.284 1.492 1.274h.009ZM177.93 262.944c1.295-.14 2.853-.656 4.044-1.059.723-.243.939-.843.77-1.471-.169-.618-.657-1.003-1.408-.787-1.229.365-2.974.553-4.269.759-.788.131-1.032.759-.807 1.443.225.684.882 1.19 1.67 1.106v.009ZM182.622 266.393c1.22-.44 2.834-.993 3.941-1.555.676-.338.798-.984.498-1.565-.301-.581-.826-.722-1.567-.506-1.22.365-2.9.88-4.157 1.302-.77.253-.854.928-.507 1.556.357.628 1.042 1.04 1.783.778l.009-.01ZM187.84 268.999a26.459 26.459 0 0 0 3.538-2.38c.591-.478.647-1.106.244-1.603-.404-.497-1.013-.543-1.614-.075-.995.769-2.665 1.49-3.838 2.062-.713.347-.788.984-.3 1.537.488.544 1.267.853 1.97.459ZM193.461 270.649c1.051-.769 2.252-2.231 3.115-3.149.526-.553.544-1.191.038-1.612-.507-.431-1.145-.319-1.68.234-.863.918-2.308 2.015-3.312 2.821-.61.487-.61 1.143-.104 1.612.517.478 1.295.553 1.933.084l.01.01ZM199.052 271.295c1.004-.909 2.083-2.549 2.824-3.636.451-.656.432-1.293-.14-1.678-.582-.374-1.201-.178-1.68.478-.769 1.069-2.168 2.4-3.125 3.346-.581.581-.478 1.228.122 1.64.601.422 1.38.394 1.999-.168v.018ZM204.833 271.305c.872-1.05 1.764-2.849 2.43-4.002.403-.703.291-1.368-.319-1.706-.61-.337-1.22-.093-1.633.609-.675 1.163-1.914 2.718-2.74 3.815-.507.665-.347 1.321.3 1.696.648.366 1.427.225 1.962-.412ZM210.173 270.883c.685-1.172 1.661-2.84 2.252-4.021.366-.721.141-1.321-.441-1.668s-1.154-.244-1.586.45c-.694 1.143-1.745 2.84-2.43 4.03-.413.721-.235 1.377.413 1.743.647.375 1.37.178 1.783-.544l.009.01ZM215.567 270.883c.582-1.115 1.22-2.502 1.727-3.636.31-.694-.047-1.387-.582-1.772-.544-.384-1.182-.403-1.548.263-.591 1.096-1.182 2.502-1.745 3.645-.348.694-.141 1.472.459 1.875.592.403 1.342.309 1.699-.366l-.01-.009ZM220.72 270.798c.591-1.124 1.07-2.671 1.445-3.861.225-.722-.094-1.34-.666-1.649-.572-.31-1.154-.178-1.408.534-.422 1.171-1.21 2.671-1.745 3.833-.319.712.047 1.34.666 1.64.62.3 1.352.178 1.708-.506v.009ZM225.947 269.749c.45-1.153.713-2.812.854-4.021.084-.74-.357-1.256-.976-1.424-.62-.16-1.173.056-1.295.806-.197 1.227-.638 2.774-1.032 3.973-.244.731.178 1.266.835 1.444.657.178 1.342-.085 1.623-.788l-.009.01ZM230.675 267.743c.132-1.246.066-2.961.103-4.198.019-.759-.487-1.172-1.126-1.228-.638-.056-1.126.337-1.154 1.078-.037 1.218.028 2.961-.206 4.18-.141.74.3 1.246.957 1.293.657.047 1.342-.356 1.426-1.115v-.01ZM235.076 264.566c.085-1.284-.347-3.111-.61-4.32-.159-.741-.591-1.181-1.238-1.097-.639.094-.911.6-.77 1.359.235 1.246.235 3.083.207 4.377-.019.787.469 1.19 1.163 1.105.694-.093 1.192-.646 1.248-1.433v.009ZM238.811 260.63c-.131-1.34-.751-3.186-1.192-4.405-.272-.749-.769-1.124-1.417-.909-.638.216-.825.825-.581 1.584.412 1.237.647 3.196.835 4.508.112.806.657 1.143 1.342.918.685-.225 1.079-.881 1.004-1.696h.009ZM242.105 256.085c-.328-1.322-1.192-3.14-1.736-4.34-.338-.731-.91-1.059-1.539-.768-.629.29-.769.928-.45 1.668.525 1.218 1.069 3.168 1.454 4.461.235.787.826 1.078 1.501.778.676-.3.976-1.003.77-1.809v.01ZM244.899 251.408c-.469-1.274-1.351-3.064-1.98-4.245-.384-.722-.994-.984-1.632-.666-.638.319-.789.966-.432 1.697.582 1.218 1.323 3.092 1.849 4.348.319.769.947 1.022 1.604.684.657-.337.892-1.04.601-1.827l-.01.009ZM247.62 246.647a180.878 180.878 0 0 0-1.886-4.526c-.347-.806-1.041-.928-1.698-.553s-.91 1.068-.61 1.874c.497 1.312 1.248 3.168 1.896 4.386.394.741.994.984 1.67.675.675-.309.938-1.04.619-1.846l.009-.01ZM250.614 240.987a81.691 81.691 0 0 0-2.196-4.686c-.431-.825-1.154-.806-1.745-.272a1.893 1.893 0 0 0-.469 2.212c.61 1.368 1.417 3.224 2.055 4.573.385.816 1.098.909 1.764.441.666-.469.966-1.397.591-2.259v-.009ZM253.13 233.611c-.751-1.443-1.82-3.177-2.768-4.414-.573-.759-1.276-.618-1.764.038-.498.656-.629 1.63-.122 2.427.825 1.312 1.745 3.139 2.524 4.461.478.806 1.182.806 1.773.15.592-.656.817-1.79.357-2.662ZM254.631 225.907a27.913 27.913 0 0 0-3.294-3.786c-.675-.647-1.313-.262-1.698.403-.385.666-.451 1.481.15 2.193.995 1.162 2.196 2.755 3.087 4.039.544.788 1.267.563 1.727-.187.469-.75.581-1.865.018-2.662h.01ZM255.362 218.635c-.91-1.087-2.27-1.94-3.415-2.671-.695-.44-1.351-.244-1.727.338-.384.581-.46 1.293.225 1.78 1.136.806 2.384 2.128 3.369 3.149.601.628 1.304.422 1.727-.262.422-.684.384-1.687-.179-2.343v.009ZM256 213.818a91.6 91.6 0 0 0-3.387-2.25c-.629-.393-1.304-.253-1.745.216-.441.478-.432 1.068.168 1.49a91.191 91.191 0 0 0 3.388 2.249c.629.394 1.304.253 1.745-.215.441-.478.432-1.069-.169-1.49ZM274.251 166.968h-12.93a2.964 2.964 0 0 0-2.966 2.961V190.5a2.964 2.964 0 0 0 2.966 2.962h12.93a2.963 2.963 0 0 0 2.965-2.962v-20.571a2.963 2.963 0 0 0-2.965-2.961Z" fill="#C79B67" stroke="#283135" stroke-miterlimit="10"/><path d="M374.307 256.703s-7.235-16.213-21.713-17.525c-14.479-1.312-23.909 3.505-32.251 12.492-8.332 8.988-47.827 41.63-51.768 43.598-3.951 1.968-1.971-36.588 1.098-48.199 3.068-11.612 12.282-37.469 11.41-44.694-.882-7.226-8.117-26.073-10.528-29.793-2.412-3.721-.882-8.988-4.392-8.763-3.509.216-4.391 5.258-4.166 7.891.216 2.634 2.196 11.827 2.196 11.827s-3.069-4.386-4.608-7.891c-1.538-3.505-1.754-3.289-4.823-3.064-3.068.225-3.509 4.601-3.509 4.601s-4.823 4.161-5.048 8.322c-.225 4.161.216 6.354.216 8.107 0 1.752-1.539 8.763-.216 11.827 1.313 3.065 10.312 11.827 10.969 14.461.657 2.633-1.971 27.825-11.41 47.328-9.431 19.502-10.97 37.899-12.283 54.778-1.314 16.869 2.411 19.502 5.921 20.159 3.509.656 37.515-1.753 58.13-12.268 20.615-10.515 46.288-26.288 46.288-26.288s7.122 9.812 25.007-12.708c10.087-12.708 5.48-34.179 5.48-34.179v-.019Z" fill="#fff" stroke="#283135" stroke-miterlimit="10"/><path d="m343.811 303.59 16.233-7.45" stroke="#283135" stroke-miterlimit="10"/><path d="M267.036 296.355s-6.146 8.763-8.999 14.676l8.999-14.676Z" fill="#fff"/><path d="M267.036 296.355s-6.146 8.763-8.999 14.676M251.244 177.164s1.408 6.813 2.937 8.641M246.834 190.856s1.379 3.665 2.909 5.502M264.182 183.519s3.913 5.501 4.222 6.719M340.386 179.563s-1.624 2.428-4.054 3.234-4.316-.272-4.316-.272-1.351 8.894-10.256 14.826M305.996 401.826a41.478 41.478 0 0 0 4.401 2.905M273.201 359.962s13.681 25.229 29.314 39.024M289.434 394.141c6.727 6.504 16.345 15.547 20.484 18.209M282.266 387.112s1.839 1.837 4.597 4.526M339.006 308.998s.957 16.195 7.15 23.814M334.24 314.705l3.341 10.009M342.827 372.82l-9.534-18.097" stroke="#283135" stroke-miterlimit="10"/><path d="m68.68 16.222 23.965 29.306M59.709 5.248l3.978 4.873M24.09 52.238l36.295 17.46M57.69 100.578H32.148M42.002 131.383l-25.983 8.126M61.051 125.414l-6.465 2.024M112.134 34.113l-7.394-26.85" stroke="#C79B67" stroke-width="4" stroke-miterlimit="10" stroke-linecap="round"/></g><defs><clipPath id="a"><path fill="#fff" transform="translate(.5)" d="M0 0h450v434H0z"/></clipPath></defs></svg>