<svg xmlns="http://www.w3.org/2000/svg" xmlns:xlink="http://www.w3.org/1999/xlink"><symbol id="icon-arrow-all" viewBox="0 0 25 24"><g fill="none">
<path fill-rule="evenodd" clip-rule="evenodd" d="M13.6956 7.29929C14.0826 6.90527 14.7158 6.89956 15.1098 7.28655L19.2007 11.2866C19.3922 11.4746 19.5 11.7317 19.5 12C19.5 12.2683 19.3922 12.5254 19.2007 12.7134L15.1098 16.7134C14.7158 17.1004 14.0826 17.0947 13.6956 16.7007C13.3087 16.3067 13.3144 15.6735 13.7084 15.2866L16.0547 13L6.5 13C5.94772 13 5.5 12.5523 5.5 12C5.5 11.4477 5.94772 11 6.5 11L16.0547 11L13.7084 8.71345C13.3144 8.32646 13.3087 7.69332 13.6956 7.29929Z" fill="#C79B67"/>
</g></symbol><symbol id="icon-arrow-grey-next"><g fill="none"><path fill-rule="evenodd" clip-rule="evenodd" d="M.293.293a1 1 0 0 1 1.414 0l5 5a1 1 0 0 1 0 1.414l-5 5a1 1 0 0 1-1.414-1.414L4.586 6 .293 1.707a1 1 0 0 1 0-1.414Z" fill="#969696"/></g></symbol><symbol id="icon-arrow-grey-prev"><g fill="none"><path fill-rule="evenodd" clip-rule="evenodd" d="M6.707.293a1 1 0 0 0-1.414 0l-5 5a1 1 0 0 0 0 1.414l5 5a1 1 0 0 0 1.414-1.414L2.414 6l4.293-4.293a1 1 0 0 0 0-1.414Z" fill="#969696"/></g></symbol><symbol id="icon-dots" viewBox="0 0 20 4"><g fill="none">
<path d="M4 2C4 3.10457 3.10457 4 2 4C0.89543 4 0 3.10457 0 2C0 0.89543 0.89543 0 2 0C3.10457 0 4 0.89543 4 2Z" fill="#C79B67"/>
<path d="M12 2C12 3.10457 11.1046 4 10 4C8.89543 4 8 3.10457 8 2C8 0.89543 8.89543 0 10 0C11.1046 0 12 0.89543 12 2Z" fill="#C79B67"/>
<path d="M20 2C20 3.10457 19.1046 4 18 4C16.8954 4 16 3.10457 16 2C16 0.89543 16.8954 0 18 0C19.1046 0 20 0.89543 20 2Z" fill="#C79B67"/>
</g></symbol></svg>