<svg xmlns="http://www.w3.org/2000/svg" xmlns:xlink="http://www.w3.org/1999/xlink"><symbol id="icon-arrow-all" viewBox="0 0 25 24"><g fill="none">
<path fill-rule="evenodd" clip-rule="evenodd" d="M13.6956 7.29929C14.0826 6.90527 14.7158 6.89956 15.1098 7.28655L19.2007 11.2866C19.3922 11.4746 19.5 11.7317 19.5 12C19.5 12.2683 19.3922 12.5254 19.2007 12.7134L15.1098 16.7134C14.7158 17.1004 14.0826 17.0947 13.6956 16.7007C13.3087 16.3067 13.3144 15.6735 13.7084 15.2866L16.0547 13L6.5 13C5.94772 13 5.5 12.5523 5.5 12C5.5 11.4477 5.94772 11 6.5 11L16.0547 11L13.7084 8.71345C13.3144 8.32646 13.3087 7.69332 13.6956 7.29929Z" fill="#C79B67"/>
</g></symbol></svg>